<svg width="39" height="44" viewBox="0 0 39 44" fill="none" xmlns="http://www.w3.org/2000/svg">
<path d="M32.1699 4.70399L18.8179 0.623993L5.4659 4.70399C5.4659 4.70399 4.9219 11.648 0.201904 12.608L0.201904 22.08C0.201904 22.08 4.6259 39.648 18.8179 43.44C33.0179 39.648 37.4339 22.08 37.4339 22.08V12.608C32.7139 11.648 32.1699 4.70399 32.1699 4.70399" fill="white"/>
<path d="M19.88 40.416C19.7989 40.3128 19.6957 40.2291 19.5781 40.171C19.4604 40.1128 19.3312 40.0818 19.2 40.08C19.0699 40.0818 18.9419 40.113 18.8256 40.1711C18.7092 40.2293 18.6075 40.313 18.528 40.416C7.888 36.64 3.72 23.456 3.2 21.712V15.128C3.36908 15.0603 3.51377 14.9431 3.61512 14.7918C3.71648 14.6405 3.76976 14.4621 3.768 14.28C3.7725 14.2375 3.7725 14.1945 3.768 14.152C6.72 12.208 7.824 8.552 8.2 6.8L18.512 3.648C18.5927 3.75472 18.6966 3.84182 18.8157 3.90277C18.9348 3.96372 19.0662 3.99696 19.2 4C19.3341 3.99876 19.4661 3.96631 19.5855 3.90521C19.705 3.84411 19.8085 3.75605 19.888 3.648L30.216 6.8C30.592 8.552 31.696 12.208 34.648 14.152C34.648 14.152 34.648 14.232 34.648 14.28C34.646 14.4601 34.6974 14.6367 34.7956 14.7876C34.8938 14.9385 35.0345 15.0569 35.2 15.128V21.712C34.696 23.456 30.52 36.64 19.888 40.416M30.808 6.48V6.288L20.072 3.016C20.072 2.78473 19.9801 2.56293 19.8166 2.3994C19.6531 2.23587 19.4313 2.144 19.2 2.144C18.9687 2.144 18.7469 2.23587 18.5834 2.3994C18.4199 2.56293 18.328 2.78473 18.328 3.016L7.632 6.288V6.48C7.32 8.08 6.312 11.688 3.464 13.576C3.31153 13.4469 3.11969 13.3736 2.92 13.368C2.79927 13.3659 2.67933 13.3879 2.56727 13.4329C2.45521 13.4779 2.35329 13.5448 2.26754 13.6298C2.18178 13.7149 2.11393 13.8162 2.06798 13.9279C2.02203 14.0395 1.99891 14.1593 2 14.28C2.00039 14.4616 2.05454 14.6391 2.15562 14.79C2.2567 14.9409 2.40019 15.0585 2.568 15.128V21.76V21.848C3.024 23.448 7.264 37.12 18.304 41.048C18.3162 41.278 18.4157 41.4946 18.5823 41.6537C18.7488 41.8128 18.9697 41.9023 19.2 41.904C19.4341 41.9019 19.6579 41.8074 19.8227 41.6411C19.9875 41.4748 20.08 41.2501 20.08 41.016C24.6 39.416 28.496 36.08 31.664 31.04C33.4501 28.1769 34.8465 25.0883 35.816 21.856V15.128C35.9844 15.0594 36.1285 14.942 36.2297 14.7909C36.3309 14.6398 36.3847 14.4619 36.384 14.28C36.3861 14.1617 36.3648 14.0441 36.3212 13.934C36.2776 13.824 36.2127 13.7237 36.1301 13.6389C36.0475 13.5541 35.949 13.4865 35.8402 13.44C35.7313 13.3935 35.6143 13.369 35.496 13.368C35.2963 13.3736 35.1045 13.4469 34.952 13.576C32.112 11.688 31.096 8.04 30.792 6.48M37.192 22.008C36.904 23.2 32.328 39.2 19.2 42.816C6.072 39.2 1.496 23.2 1.176 22.008L1.176 13.08C5.224 11.896 6.192 6.68 6.384 5.176L19.184 1.256L31.984 5.176C32.176 6.704 33.144 11.896 37.2 13.08L37.192 22.008ZM37.928 12C33.704 11.144 33.128 4.712 33.128 4.648V4.24L19.2 0L5.296 4.256V4.664C5.296 4.728 4.728 11.16 0.496 12.016L0 12.112L0 22.088L0 22.232C0.064 22.4 4.688 40.192 19.056 44H19.2H19.344C33.744 40.168 38.336 22.4 38.384 22.208V12.088L37.928 12Z" fill="#231F20"/>
<path d="M16.4054 37.2749H15.823L17.1316 33.6385H17.7655L19.0741 37.2749H18.4917L17.4636 34.299H17.4352L16.4054 37.2749ZM16.5031 35.8509H18.3923V36.3125H16.5031V35.8509ZM22.4486 34.8211H21.8946C21.8733 34.7027 21.8336 34.5985 21.7756 34.5086C21.7176 34.4186 21.6466 34.3423 21.5625 34.2795C21.4785 34.2168 21.3844 34.1694 21.2802 34.1375C21.1772 34.1055 21.0678 34.0895 20.9517 34.0895C20.7422 34.0895 20.5546 34.1422 20.3889 34.2476C20.2244 34.3529 20.0941 34.5074 19.9983 34.711C19.9036 34.9146 19.8562 35.1632 19.8562 35.4567C19.8562 35.7526 19.9036 36.0024 19.9983 36.206C20.0941 36.4096 20.2249 36.5635 20.3907 36.6677C20.5564 36.7718 20.7428 36.8239 20.95 36.8239C21.0648 36.8239 21.1737 36.8085 21.2767 36.7777C21.3808 36.7458 21.4749 36.699 21.559 36.6375C21.643 36.5759 21.7141 36.5008 21.7721 36.412C21.8312 36.322 21.8721 36.219 21.8946 36.103L22.4486 36.1048C22.419 36.2835 22.3616 36.4481 22.2763 36.5984C22.1923 36.7476 22.084 36.8766 21.9514 36.9855C21.82 37.0932 21.6697 37.1767 21.5004 37.2358C21.3311 37.295 21.1465 37.3246 20.9464 37.3246C20.6316 37.3246 20.351 37.25 20.1048 37.1009C19.8586 36.9506 19.6645 36.7357 19.5224 36.4564C19.3816 36.177 19.3111 35.8438 19.3111 35.4567C19.3111 35.0685 19.3821 34.7352 19.5242 34.4571C19.6662 34.1777 19.8604 33.9635 20.1066 33.8143C20.3528 33.664 20.6327 33.5888 20.9464 33.5888C21.1394 33.5888 21.3193 33.6166 21.4862 33.6723C21.6543 33.7267 21.8052 33.8072 21.939 33.9138C22.0727 34.0191 22.1834 34.1481 22.271 34.3008C22.3586 34.4523 22.4178 34.6258 22.4486 34.8211Z" fill="#231F20"/>
</svg>
