<svg width="45" height="42" viewBox="0 0 45 42" fill="none" xmlns="http://www.w3.org/2000/svg">
<g clip-path="url(#clip0_121_12297)">
<path d="M43.8069 4.26989V37.5682L40.2274 41.1477H4.19329L0.605225 37.5682L0.605225 4.26989L4.19329 0.681824L40.2274 0.681824L43.8069 4.26989Z" fill="white"/>
<path d="M39.767 40.8239H37.5C39.2453 40.0611 40.7274 38.8013 41.7614 37.2017V37.1421C42.4086 36.1456 42.9216 35.0681 43.2869 33.9375V37.2443L39.767 40.8239ZM1.17614 37.2443L1.17614 33.9375C1.54151 35.0681 2.05446 36.1456 2.7017 37.1421V37.2017H2.74432C3.79418 38.8104 5.29808 40.071 7.06534 40.8239H4.75568L1.17614 37.2443ZM4.75568 1.17614L7.06534 1.17614C5.29618 1.92586 3.79145 3.18722 2.74432 4.7983H2.7017V4.85795C2.05446 5.85439 1.54151 6.93187 1.17614 8.0625L1.17614 4.75568L4.75568 1.17614ZM41.821 5.82955C41.9574 6.08523 42.1108 6.32386 42.2386 6.59659C42.7406 7.66768 43.1126 8.79502 43.3466 9.95455V32.0028C43.0487 33.4549 42.5345 34.8541 41.821 36.1534V5.82955ZM1.17614 9.99716C1.47399 8.54506 1.98825 7.14593 2.7017 5.84659L2.7017 36.1705C2.56534 35.9148 2.41193 35.6761 2.28409 35.4034C1.7833 34.3318 1.41138 33.2046 1.17614 32.0455L1.17614 9.99716ZM35.7955 40.8239H8.69318C6.51722 40.3166 4.60872 39.0159 3.34091 37.1761L3.34091 4.84091C4.62065 2.99833 6.53577 1.69326 8.71875 1.17614L35.7955 1.17614C37.9681 1.6858 39.8749 2.9823 41.1477 4.81534V37.2017C39.8668 39.0231 37.9625 40.3118 35.7955 40.8239M43.3466 4.75568V8.0625C42.9812 6.93187 42.4683 5.85439 41.821 4.85795V4.7983C40.7739 3.18722 39.2692 1.92586 37.5 1.17614H39.8097L43.3466 4.75568ZM40.2528 0L4.26136 0L0 4.26136L0 37.7301L4.26136 41.9915H40.2528L44.5142 37.7301V4.26136L40.2528 0Z" fill="#231F20"/>
<path d="M6.36679 33V29.3636H7.66295C7.94586 29.3636 8.18023 29.4151 8.36608 29.5181C8.55192 29.6211 8.69101 29.762 8.78334 29.9407C8.87567 30.1183 8.92183 30.3183 8.92183 30.5408C8.92183 30.7646 8.87507 30.9658 8.78156 31.1445C8.68923 31.3221 8.54955 31.4629 8.36253 31.5671C8.17668 31.6701 7.9429 31.7216 7.66118 31.7216H6.76984V31.2564H7.61146C7.7902 31.2564 7.93521 31.2256 8.04648 31.1641C8.15774 31.1013 8.23942 31.0161 8.2915 30.9084C8.34359 30.8007 8.36963 30.6781 8.36963 30.5408C8.36963 30.4035 8.34359 30.2816 8.2915 30.1751C8.23942 30.0685 8.15715 29.9851 8.0447 29.9247C7.93343 29.8643 7.78665 29.8342 7.60436 29.8342H6.91544V33H6.36679ZM9.56503 33V29.3636H10.8612C11.1429 29.3636 11.3767 29.4122 11.5625 29.5092C11.7496 29.6063 11.8892 29.7406 11.9816 29.9123C12.0739 30.0827 12.1201 30.2798 12.1201 30.5036C12.1201 30.7261 12.0733 30.922 11.9798 31.0913C11.8875 31.2594 11.7478 31.3902 11.5608 31.4837C11.3749 31.5772 11.1411 31.6239 10.8594 31.6239H9.87753V31.1516H10.8097C10.9873 31.1516 11.1317 31.1262 11.2429 31.0753C11.3554 31.0244 11.4377 30.9504 11.4897 30.8533C11.5418 30.7563 11.5679 30.6397 11.5679 30.5036C11.5679 30.3662 11.5412 30.2473 11.488 30.1467C11.4359 30.046 11.3536 29.9691 11.2412 29.9158C11.1299 29.8614 10.9837 29.8342 10.8026 29.8342H10.1137V33H9.56503ZM11.3601 31.3594L12.2586 33H11.6336L10.7529 31.3594H11.3601ZM15.9464 31.1818C15.9464 31.5701 15.8754 31.9039 15.7334 32.1832C15.5913 32.4614 15.3966 32.6757 15.1492 32.826C14.903 32.9751 14.623 33.0497 14.3093 33.0497C13.9945 33.0497 13.7133 32.9751 13.466 32.826C13.2197 32.6757 13.0256 32.4608 12.8836 32.1815C12.7415 31.9021 12.6705 31.5689 12.6705 31.1818C12.6705 30.7936 12.7415 30.4603 12.8836 30.1822C13.0256 29.9028 13.2197 29.6886 13.466 29.5394C13.7133 29.3891 13.9945 29.3139 14.3093 29.3139C14.623 29.3139 14.903 29.3891 15.1492 29.5394C15.3966 29.6886 15.5913 29.9028 15.7334 30.1822C15.8754 30.4603 15.9464 30.7936 15.9464 31.1818ZM15.4031 31.1818C15.4031 30.8859 15.3552 30.6367 15.2593 30.4343C15.1646 30.2307 15.0344 30.0768 14.8687 29.9727C14.7041 29.8673 14.5177 29.8146 14.3093 29.8146C14.0998 29.8146 13.9128 29.8673 13.7483 29.9727C13.5837 30.0768 13.4535 30.2307 13.3576 30.4343C13.2629 30.6367 13.2156 30.8859 13.2156 31.1818C13.2156 31.4777 13.2629 31.7275 13.3576 31.9311C13.4535 32.1335 13.5837 32.2874 13.7483 32.3928C13.9128 32.4969 14.0998 32.549 14.3093 32.549C14.5177 32.549 14.7041 32.4969 14.8687 32.3928C15.0344 32.2874 15.1646 32.1335 15.2593 31.9311C15.3552 31.7275 15.4031 31.4777 15.4031 31.1818ZM16.6305 33V29.3636H18.8854V29.8359H17.1791V30.9439H18.7239V31.4144H17.1791V33H16.6305ZM20.1088 29.3636V33H19.5601V29.3636H20.1088ZM23.928 30.5462H23.3741C23.3528 30.4278 23.3131 30.3236 23.2551 30.2337C23.1971 30.1437 23.1261 30.0674 23.042 30.0046C22.958 29.9419 22.8639 29.8945 22.7597 29.8626C22.6567 29.8306 22.5472 29.8146 22.4312 29.8146C22.2217 29.8146 22.0341 29.8673 21.8684 29.9727C21.7039 30.078 21.5736 30.2325 21.4778 30.4361C21.3831 30.6397 21.3357 30.8883 21.3357 31.1818C21.3357 31.4777 21.3831 31.7275 21.4778 31.9311C21.5736 32.1347 21.7044 32.2886 21.8702 32.3928C22.0359 32.4969 22.2223 32.549 22.4295 32.549C22.5443 32.549 22.6532 32.5336 22.7562 32.5028C22.8603 32.4709 22.9544 32.4241 23.0385 32.3626C23.1225 32.301 23.1936 32.2259 23.2516 32.1371C23.3107 32.0471 23.3516 31.9441 23.3741 31.8281L23.928 31.8299C23.8985 32.0086 23.841 32.1732 23.7558 32.3235C23.6718 32.4727 23.5635 32.6017 23.4309 32.7106C23.2995 32.8183 23.1492 32.9018 22.9799 32.9609C22.8106 33.0201 22.626 33.0497 22.4259 33.0497C22.111 33.0497 21.8305 32.9751 21.5843 32.826C21.3381 32.6757 21.144 32.4608 21.0019 32.1815C20.861 31.9021 20.7906 31.5689 20.7906 31.1818C20.7906 30.7936 20.8616 30.4603 21.0037 30.1822C21.1457 29.9028 21.3399 29.6886 21.5861 29.5394C21.8323 29.3891 22.1122 29.3139 22.4259 29.3139C22.6189 29.3139 22.7988 29.3417 22.9657 29.3974C23.1338 29.4518 23.2847 29.5323 23.4185 29.6388C23.5522 29.7442 23.6629 29.8732 23.7505 30.0259C23.8381 30.1774 23.8973 30.3509 23.928 30.5462ZM24.5846 33V29.3636H26.8644V29.8359H25.1332V30.9439H26.7454V31.4144H25.1332V32.5277H26.8857V33H24.5846ZM30.5323 29.3636V33H30.028L28.1796 30.3331H28.1459V33H27.5973V29.3636H28.1051L29.9552 32.0341H29.9889V29.3636H30.5323ZM34.3528 30.5462H33.7989C33.7776 30.4278 33.7379 30.3236 33.6799 30.2337C33.6219 30.1437 33.5509 30.0674 33.4668 30.0046C33.3828 29.9419 33.2887 29.8945 33.1845 29.8626C33.0815 29.8306 32.972 29.8146 32.856 29.8146C32.6465 29.8146 32.4589 29.8673 32.2932 29.9727C32.1287 30.078 31.9984 30.2325 31.9026 30.4361C31.8079 30.6397 31.7605 30.8883 31.7605 31.1818C31.7605 31.4777 31.8079 31.7275 31.9026 31.9311C31.9984 32.1347 32.1292 32.2886 32.295 32.3928C32.4607 32.4969 32.6471 32.549 32.8543 32.549C32.9691 32.549 33.078 32.5336 33.181 32.5028C33.2851 32.4709 33.3792 32.4241 33.4633 32.3626C33.5473 32.301 33.6184 32.2259 33.6764 32.1371C33.7355 32.0471 33.7764 31.9441 33.7989 31.8281L34.3528 31.8299C34.3233 32.0086 34.2658 32.1732 34.1806 32.3235C34.0966 32.4727 33.9883 32.6017 33.8557 32.7106C33.7243 32.8183 33.574 32.9018 33.4047 32.9609C33.2354 33.0201 33.0508 33.0497 32.8507 33.0497C32.5359 33.0497 32.2553 32.9751 32.0091 32.826C31.7629 32.6757 31.5688 32.4608 31.4267 32.1815C31.2859 31.9021 31.2154 31.5689 31.2154 31.1818C31.2154 30.7936 31.2864 30.4603 31.4285 30.1822C31.5705 29.9028 31.7647 29.6886 32.0109 29.5394C32.2571 29.3891 32.537 29.3139 32.8507 29.3139C33.0437 29.3139 33.2236 29.3417 33.3905 29.3974C33.5586 29.4518 33.7095 29.5323 33.8433 29.6388C33.977 29.7442 34.0877 29.8732 34.1753 30.0259C34.2629 30.1774 34.3221 30.3509 34.3528 30.5462ZM34.7288 29.3636H35.3521L36.302 31.0167H36.341L37.291 29.3636H37.9142L36.5949 31.5724V33H36.0481V31.5724L34.7288 29.3636ZM13.5225 39V35.3636H14.8542C15.1123 35.3636 15.3259 35.4062 15.4952 35.4915C15.6645 35.5755 15.7911 35.6897 15.8752 35.8342C15.9592 35.9774 16.0012 36.139 16.0012 36.3189C16.0012 36.4704 15.9734 36.5982 15.9178 36.7024C15.8622 36.8054 15.7876 36.8883 15.6941 36.951C15.6017 37.0125 15.4999 37.0575 15.3887 37.0859V37.1214C15.5094 37.1274 15.6272 37.1664 15.742 37.2386C15.858 37.3097 15.9539 37.4109 16.0297 37.5423C16.1054 37.6737 16.1433 37.8335 16.1433 38.0217C16.1433 38.2075 16.0995 38.3744 16.0119 38.5224C15.9255 38.6692 15.7917 38.7857 15.6106 38.8722C15.4295 38.9574 15.1981 39 14.9164 39H13.5225ZM14.0712 38.5295H14.8631C15.1259 38.5295 15.3141 38.4786 15.4277 38.3768C15.5414 38.275 15.5982 38.1477 15.5982 37.995C15.5982 37.8802 15.5692 37.7749 15.5112 37.679C15.4532 37.5831 15.3703 37.5067 15.2626 37.4499C15.1561 37.3931 15.0294 37.3647 14.8826 37.3647H14.0712V38.5295ZM14.0712 36.9368H14.8063C14.9294 36.9368 15.0401 36.9131 15.1383 36.8658C15.2377 36.8184 15.3165 36.7521 15.3745 36.6669C15.4337 36.5805 15.4632 36.4787 15.4632 36.3615C15.4632 36.2112 15.4106 36.0851 15.3052 35.9833C15.1999 35.8815 15.0383 35.8306 14.8205 35.8306H14.0712V36.9368ZM19.9528 37.1818C19.9528 37.5701 19.8817 37.9039 19.7397 38.1832C19.5977 38.4614 19.4029 38.6757 19.1555 38.826C18.9093 38.9751 18.6294 39.0497 18.3157 39.0497C18.0008 39.0497 17.7197 38.9751 17.4723 38.826C17.2261 38.6757 17.032 38.4608 16.8899 38.1815C16.7479 37.9021 16.6768 37.5689 16.6768 37.1818C16.6768 36.7936 16.7479 36.4603 16.8899 36.1822C17.032 35.9028 17.2261 35.6886 17.4723 35.5394C17.7197 35.3891 18.0008 35.3139 18.3157 35.3139C18.6294 35.3139 18.9093 35.3891 19.1555 35.5394C19.4029 35.6886 19.5977 35.9028 19.7397 36.1822C19.8817 36.4603 19.9528 36.7936 19.9528 37.1818ZM19.4094 37.1818C19.4094 36.8859 19.3615 36.6367 19.2656 36.4343C19.1709 36.2307 19.0407 36.0768 18.875 35.9727C18.7105 35.8673 18.524 35.8146 18.3157 35.8146C18.1062 35.8146 17.9192 35.8673 17.7546 35.9727C17.5901 36.0768 17.4599 36.2307 17.364 36.4343C17.2693 36.6367 17.2219 36.8859 17.2219 37.1818C17.2219 37.4777 17.2693 37.7275 17.364 37.9311C17.4599 38.1335 17.5901 38.2874 17.7546 38.3928C17.9192 38.4969 18.1062 38.549 18.3157 38.549C18.524 38.549 18.7105 38.4969 18.875 38.3928C19.0407 38.2874 19.1709 38.1335 19.2656 37.9311C19.3615 37.7275 19.4094 37.4777 19.4094 37.1818ZM23.5718 35.3636V39H23.0676L21.2192 36.3331H21.1855V39H20.6368V35.3636H21.1446L22.9948 38.0341H23.0285V35.3636H23.5718ZM26.7106 35.3636H27.261V37.7553C27.261 38.0098 27.2012 38.2353 27.0817 38.4318C26.9621 38.6271 26.794 38.781 26.5774 38.8935C26.3608 39.0047 26.1069 39.0604 25.8157 39.0604C25.5257 39.0604 25.2724 39.0047 25.0558 38.8935C24.8391 38.781 24.671 38.6271 24.5515 38.4318C24.4319 38.2353 24.3722 38.0098 24.3722 37.7553V35.3636H24.9208V37.7109C24.9208 37.8755 24.9569 38.0217 25.0291 38.1495C25.1025 38.2773 25.2061 38.378 25.3398 38.4513C25.4736 38.5236 25.6322 38.5597 25.8157 38.5597C26.0004 38.5597 26.1596 38.5236 26.2933 38.4513C26.4283 38.378 26.5313 38.2773 26.6023 38.1495C26.6745 38.0217 26.7106 37.8755 26.7106 37.7109V35.3636ZM30.042 36.3189C30.0231 36.1508 29.9449 36.0206 29.8076 35.9283C29.6703 35.8348 29.4975 35.788 29.2892 35.788C29.14 35.788 29.011 35.8117 28.9021 35.859C28.7932 35.9052 28.7085 35.9691 28.6482 36.0508C28.589 36.1313 28.5594 36.223 28.5594 36.326C28.5594 36.4124 28.5795 36.487 28.6198 36.5497C28.6612 36.6125 28.7151 36.6651 28.7813 36.7077C28.8488 36.7492 28.921 36.7841 28.998 36.8125C29.0749 36.8397 29.1489 36.8622 29.2199 36.88L29.575 36.9723C29.691 37.0007 29.81 37.0392 29.9319 37.0877C30.0538 37.1362 30.1669 37.2002 30.271 37.2795C30.3752 37.3588 30.4593 37.457 30.5232 37.5742C30.5883 37.6914 30.6208 37.8317 30.6208 37.995C30.6208 38.201 30.5676 38.3839 30.461 38.5437C30.3557 38.7035 30.2024 38.8295 30.0012 38.9219C29.8011 39.0142 29.559 39.0604 29.2749 39.0604C29.0027 39.0604 28.7671 39.0172 28.5683 38.9308C28.3694 38.8443 28.2137 38.7218 28.1013 38.5632C27.9888 38.4034 27.9267 38.214 27.9149 37.995H28.4653C28.4759 38.1264 28.5186 38.2359 28.5931 38.3235C28.6689 38.4099 28.7654 38.4744 28.8825 38.517C29.0009 38.5585 29.1305 38.5792 29.2714 38.5792C29.4265 38.5792 29.5644 38.5549 29.6851 38.5064C29.807 38.4567 29.9029 38.388 29.9727 38.3004C30.0426 38.2116 30.0775 38.1081 30.0775 37.9897C30.0775 37.882 30.0467 37.7938 29.9852 37.7251C29.9248 37.6565 29.8425 37.5997 29.7384 37.5547C29.6354 37.5097 29.5188 37.4701 29.3886 37.4357L28.9589 37.3185C28.6677 37.2392 28.4369 37.1226 28.2664 36.9688C28.0972 36.8149 28.0125 36.6113 28.0125 36.358C28.0125 36.1484 28.0693 35.9656 28.183 35.8093C28.2966 35.6531 28.4505 35.5317 28.6446 35.4453C28.8387 35.3577 29.0577 35.3139 29.3016 35.3139C29.5478 35.3139 29.765 35.3571 29.9532 35.4435C30.1426 35.5299 30.2918 35.6489 30.4007 35.8004C30.5096 35.9508 30.5664 36.1236 30.5711 36.3189H30.042Z" fill="#231F20"/>
</g>
<defs>
<clipPath id="clip0_121_12297">
<rect width="44.5227" height="42" fill="white"/>
</clipPath>
</defs>
</svg>
