<svg width="203" height="54" viewBox="0 0 203 54" fill="none" xmlns="http://www.w3.org/2000/svg">
<path d="M199.584 39.9434C199.325 39.4211 199.082 38.8655 198.858 38.2802C199.323 41.0778 199.486 44.0395 199.338 46.9717C199.499 45.9869 199.582 44.9582 199.584 43.9225V39.9434ZM194.229 52.9538L192.275 54H196.425C196.595 53.7765 196.784 53.5261 196.981 53.2221C196.066 53.5603 195.124 53.4684 194.229 52.9538ZM201.157 19.3234V20.1371C202.006 22.0239 202.475 24.4695 202.475 27.0045C202.475 29.5394 202.006 31.985 201.157 33.8718V34.6855C201.278 34.4441 201.395 34.1848 201.507 33.9165C201.502 33.8693 201.502 33.8207 201.507 33.7735C201.507 33.707 201.514 33.6411 201.527 33.5798C201.539 33.5184 201.558 33.4628 201.582 33.4162C201.606 33.3696 201.634 33.3329 201.665 33.3082C201.696 33.2836 201.729 33.2715 201.762 33.2727C202.415 31.4449 202.765 29.2571 202.765 27.0134C202.765 24.7698 202.415 22.5819 201.762 20.7541C201.729 20.7553 201.696 20.7432 201.665 20.7186C201.634 20.6939 201.606 20.6572 201.582 20.6106C201.558 20.564 201.539 20.5084 201.527 20.4471C201.514 20.3857 201.507 20.3199 201.507 20.2533C201.502 20.2031 201.502 20.1516 201.507 20.1013C201.395 19.8331 201.278 19.5827 201.157 19.3323M197.021 0.0178833H197.841C199.471 3.03608 200.622 6.94033 201.153 11.2489L201.153 18.7243C201.31 19.0059 201.46 19.3044 201.601 19.6185L201.601 15.1922C201.601 14.9776 201.601 14.772 201.601 14.5663V7.34128L201.153 6.69746V9.51416C200.553 5.91302 199.528 2.65279 198.164 0.00893784H199.298C199.298 0.00893784 200.27 3.27273 201.153 4.10432V5.84799L201.924 6.99255V13.5201C202.081 16.0417 202.372 19.225 202.901 20.7362C202.901 20.7362 203.228 21.8092 202.695 21.8092C202.367 21.8092 202.09 19.3592 201.924 17.4545L201.924 19.8957C201.947 19.9409 201.965 19.9952 201.978 20.0552C201.99 20.1152 201.996 20.1796 201.995 20.2444C201.993 20.3444 201.976 20.4406 201.946 20.5216C202.617 22.4187 202.977 24.6831 202.977 27.0045C202.977 29.3258 202.617 31.5903 201.946 33.4873C201.976 33.5717 201.993 33.6708 201.995 33.7735C201.996 33.8382 201.989 33.9022 201.977 33.9621C201.965 34.0219 201.947 34.0763 201.924 34.1222V36.5544C202.09 34.6587 202.372 32.2086 202.695 32.2086C203.228 32.2086 202.901 33.2817 202.901 33.2817C202.376 34.7839 202.081 37.9672 201.924 40.4978V47.0164L201.157 48.161V49.9046C200.261 50.7362 199.298 54 199.298 54H198.164C199.529 51.3562 200.556 48.0962 201.157 44.4948V47.3294L201.606 46.6855V39.4605V38.8346V34.4083C201.471 34.7124 201.323 35.0075 201.157 35.3025V42.7601C200.625 47.0719 199.472 50.9789 197.841 54H197.021C198.245 52.2116 199.921 48.9031 199.921 43.9225V32.8167C199.976 32.7574 200.022 32.6698 200.054 32.5628C200.086 32.4559 200.104 32.3335 200.104 32.2086C200.104 32.0213 200.067 31.8416 200.001 31.7091C199.934 31.5767 199.844 31.5022 199.75 31.5022C199.656 31.5022 199.566 31.5767 199.5 31.7091C199.434 31.8416 199.396 32.0213 199.396 32.2086C199.397 32.3347 199.415 32.458 199.448 32.5652C199.481 32.6724 199.528 32.7594 199.584 32.8167V38.9508C198.089 35.6899 197.259 31.4296 197.259 27.0089C197.259 22.5883 198.089 18.328 199.584 15.0671L199.584 21.2012C199.528 21.2577 199.48 21.3445 199.447 21.4519C199.414 21.5593 199.396 21.683 199.396 21.8092C199.396 21.9966 199.434 22.1763 199.5 22.3087C199.566 22.4412 199.656 22.5156 199.75 22.5156C199.844 22.5156 199.934 22.4412 200.001 22.3087C200.067 22.1763 200.104 21.9966 200.104 21.8092C200.104 21.6841 200.087 21.5614 200.055 21.4543C200.022 21.3472 199.976 21.2597 199.921 21.2012L199.921 10.0954C199.921 5.11475 198.245 1.78837 197.021 0.00893784M196.985 0.786884C196.784 0.491802 196.595 0.232487 196.425 0.00893784H192.253L194.211 1.06408C195.107 0.547337 196.05 0.452446 196.967 0.786884M199.567 10.0954C199.564 9.05678 199.481 8.02526 199.32 7.03725C199.471 9.96949 199.307 12.9322 198.841 15.7288C199.065 15.1453 199.308 14.5899 199.567 14.0656V10.0954ZM3.40209 10.0954L3.40209 14.0656C3.66433 14.5913 3.91121 15.1466 4.14153 15.7288C3.67821 12.9307 3.51634 9.96885 3.6665 7.03725C3.50391 8.02426 3.42072 9.05643 3.42002 10.0954M8.77081 1.06408L10.7292 0.00893784L6.57493 0.00893784C6.40463 0.232487 6.21642 0.491802 6.01923 0.786884C6.93479 0.452213 7.87681 0.547112 8.77081 1.06408ZM1.4975 20.0924C1.50001 20.1429 1.50001 20.1939 1.4975 20.2444C1.4975 20.3772 1.47106 20.5046 1.42399 20.5985C1.37693 20.6924 1.3131 20.7452 1.24654 20.7452C0.594415 22.5729 0.243982 24.7608 0.243982 27.0045C0.243982 29.2481 0.594415 31.436 1.24654 33.2638C1.3131 33.2638 1.37693 33.3165 1.42399 33.4104C1.47106 33.5044 1.4975 33.6317 1.4975 33.7645C1.50002 33.8121 1.50002 33.86 1.4975 33.9076C1.6056 34.1787 1.72236 34.4355 1.84705 34.6766L1.84705 33.8629C0.995828 31.9788 0.524721 29.5322 0.524721 26.9955C0.524721 24.4589 0.995828 22.0122 1.84705 20.1282L1.84705 19.3145C1.72347 19.5577 1.60678 19.8144 1.4975 20.0835M1.84257 9.50521L1.84257 6.67958L1.39443 7.32339L1.39443 14.5574C1.39443 14.763 1.39443 14.9687 1.39443 15.1833L1.39443 19.6095C1.53484 19.2996 1.68422 19.0015 1.84257 18.7154L1.84257 11.2399C2.37663 6.92951 3.52909 3.02341 5.1588 0H5.9789C4.75548 1.78838 3.08391 5.10581 3.08391 10.0864L3.08391 21.2012C3.02734 21.2577 2.97976 21.3445 2.94651 21.4519C2.91327 21.5593 2.89567 21.683 2.8957 21.8092C2.91361 21.9651 2.9575 22.1042 3.02018 22.2038C3.08286 22.3035 3.16063 22.3577 3.24076 22.3577C3.3209 22.3577 3.39867 22.3035 3.46135 22.2038C3.52403 22.1042 3.56791 21.9651 3.58583 21.8092C3.58578 21.6841 3.56865 21.5614 3.53627 21.4543C3.5039 21.3472 3.45751 21.2597 3.40209 21.2012L3.40209 15.0671C4.90057 18.323 5.73078 22.584 5.72794 27.0045C5.73504 31.4226 4.91151 35.6854 3.42002 38.9508L3.42002 32.8167C3.47452 32.756 3.52014 32.668 3.55237 32.5614C3.58459 32.4547 3.6023 32.3331 3.60376 32.2086C3.60518 32.0829 3.58977 31.9587 3.55909 31.8489C3.52842 31.739 3.48361 31.6475 3.42928 31.5837C3.37496 31.52 3.31309 31.4863 3.25006 31.4862C3.18704 31.4862 3.12515 31.5196 3.07078 31.5832C3.01641 31.6468 2.97153 31.7382 2.94078 31.848C2.91003 31.9578 2.89453 32.0819 2.89587 32.2077C2.89721 32.3334 2.91534 32.4561 2.9484 32.5632C2.98146 32.6702 3.02824 32.7578 3.08391 32.8167L3.08391 43.9225C3.08391 48.9031 4.75548 52.2116 5.98338 54H5.1588C3.52901 50.9818 2.37774 47.0775 1.84705 42.769L1.84705 35.2936C1.69468 35.0075 1.55127 34.7124 1.39891 34.3994L1.39891 38.7988L1.39891 39.4158L1.39891 46.6855L1.84705 47.3294L1.84705 44.4948C2.44555 48.097 3.47095 51.3577 4.83614 54H3.70235C3.70235 54 2.72988 50.7362 1.84705 49.9046L1.84705 48.1162L1.07625 47.0164L1.07625 40.4978C0.919397 37.9672 0.628106 34.7839 0.0993004 33.2817C0.0993004 33.2817 -0.227842 32.2086 0.305445 32.2086C0.632587 32.2086 0.910434 34.6587 1.07625 36.5544L1.07625 34.1222C1.03199 34.0271 1.00652 33.9032 1.00454 33.7735C1.00736 33.6708 1.02443 33.5717 1.05384 33.4873C0.38337 31.5903 0.0234544 29.3258 0.0234544 27.0045C0.0234544 24.6831 0.38337 22.4187 1.05384 20.5216C1.01571 20.4351 0.994682 20.3238 0.994682 20.2086C0.994682 20.0934 1.01571 19.9822 1.05384 19.8957L1.05384 17.4545C0.89699 19.3592 0.632587 21.8092 0.305445 21.8092C-0.227842 21.8092 0.0993004 20.7362 0.0993004 20.7362C0.623625 19.225 0.919397 16.0417 1.07625 13.5201L1.07625 6.99255L1.84257 5.84799L1.84257 4.10432C2.73885 3.27273 3.70235 0.00893784 3.70235 0.00893784H4.83614C3.47289 2.65602 2.44651 5.91499 1.84257 9.51416M8.73496 1.46646C7.72234 0.886166 6.65069 0.852226 5.62935 1.36811C5.11309 2.23261 4.6605 3.23804 4.28493 4.35469C3.2318 8.70939 4.2446 15.0849 4.57622 16.8733C5.55578 19.8572 6.07611 23.348 6.07301 26.9151C6.08325 30.4983 5.56591 34.0086 4.58518 37.0104C4.25356 38.8525 3.24076 45.237 4.29838 49.5827C4.67395 50.6941 5.1266 51.6936 5.6428 52.5514C6.66389 53.0677 7.7352 53.0368 8.74841 52.462H8.77978H8.81115L11.5896 54L191.41 54L194.234 52.4888H194.265C195.278 53.0679 196.35 53.0988 197.371 52.5782C197.888 51.7157 198.341 50.71 198.715 49.5917C199.773 45.2459 198.755 38.8614 198.424 37.073C197.45 34.0827 196.932 30.593 196.932 27.0268C196.932 23.4606 197.45 19.971 198.424 16.9806C198.76 15.1386 199.768 8.7541 198.711 4.3994C198.335 3.29052 197.882 2.29394 197.366 1.43964C196.346 0.914349 195.273 0.945229 194.261 1.52906H194.229H194.198L191.406 0.026825L11.5896 0.026825L8.76633 1.54694L8.73496 1.46646ZM6.01923 53.2221C6.21642 53.5261 6.40463 53.7765 6.57493 54L10.7292 54L8.77081 52.9538C7.87651 53.4684 6.93442 53.5603 6.01923 53.2221ZM3.6665 46.9627C3.50386 45.9788 3.42066 44.9496 3.42002 43.9136L3.42002 39.9434C3.67617 39.4136 3.91705 38.8554 4.14153 38.2712C3.67598 41.0715 3.51406 44.0371 3.6665 46.9717" fill="#DCDDDE"/>
</svg>
