<svg width="138" height="42" viewBox="0 0 138 42" fill="none" xmlns="http://www.w3.org/2000/svg">
<g clip-path="url(#clip0_121_12302)">
<path d="M0.291016 1.25791L0.291016 40.7268C1.74638 40.7268 2.57303 41.8727 2.57303 41.8727H35.7089V41.2157C35.7089 41.2157 33.3803 40.6784 35.7089 38.9469V3.04038C33.3803 1.31139 35.7089 0.774102 35.7089 0.774102V0.117135H2.57303C2.57303 0.117135 1.74638 1.25791 0.291016 1.25791Z" fill="white"/>
<path d="M35.4179 0.715532C35.1344 0.810846 34.8996 0.930947 34.7282 1.06817C34.5568 1.2054 34.4526 1.35674 34.4224 1.51255C34.3401 1.53244 34.2713 1.56156 34.2232 1.59691C34.1752 1.63227 34.1494 1.67258 34.1488 1.71371C34.1509 1.75631 34.179 1.79789 34.2302 1.83415C34.2814 1.87041 34.3537 1.90004 34.4398 1.91997C34.587 2.33311 34.9194 2.72945 35.4179 3.08621V38.9138C34.9185 39.2704 34.5861 39.6668 34.4398 40.08C34.3537 40.1 34.2814 40.1296 34.2302 40.1659C34.179 40.2021 34.1509 40.2437 34.1488 40.2863C34.1494 40.3274 34.1752 40.3677 34.2232 40.4031C34.2713 40.4384 34.3401 40.4676 34.4224 40.4874C34.4537 40.6431 34.5583 40.7943 34.7296 40.9315C34.9009 41.0687 35.1352 41.1888 35.4179 41.2845V41.7454H30.1785C27.1556 41.5146 24.0955 41.3894 21.0272 41.371H4.79107C3.0621 40.9025 0.582147 40.0291 0.582147 38.873L0.582147 3.12695C0.582147 1.97344 3.06792 1.08985 4.79107 0.628956H21.0272C24.0955 0.610594 27.1556 0.485425 30.1785 0.254638H35.4179V0.715532ZM6.36287 41.7454C6.22898 41.7174 5.82147 41.6333 5.28008 41.4907H21.0272C23.4477 41.5037 25.8634 41.5888 28.2574 41.7454H6.36287ZM0.582147 40.6224L0.582147 39.8992C1.60673 40.7905 3.76067 41.422 5.08215 41.7454H2.78267C2.56145 41.4907 1.82794 40.7268 0.582147 40.6224ZM0.582147 1.37505C1.82794 1.27065 2.56145 0.519462 2.78267 0.254638H5.11125C3.78978 0.578028 1.61837 1.20953 0.611255 2.10076L0.582147 1.37505ZM5.28008 0.493998C5.82147 0.35904 6.22898 0.27501 6.36287 0.23936H28.2574C25.8634 0.395917 23.4477 0.480993 21.0272 0.493998H5.28008ZM2.29366 0.0814861C2.08991 0.371773 1.3273 1.1255 0.291074 1.1255H0L0 40.8669H0.291074C1.32147 40.8669 2.08991 41.6308 2.29366 41.9109L2.3577 42H36V41.1393L35.8545 41.1037C35.6133 41.0332 35.4116 40.9398 35.2644 40.8304C35.1172 40.7211 35.0284 40.5986 35.0045 40.4722C35.0715 40.4507 35.1263 40.4227 35.1647 40.3905C35.2031 40.3583 35.2239 40.3226 35.2257 40.2863C35.2253 40.2511 35.2061 40.2164 35.1697 40.1851C35.1334 40.1537 35.0808 40.1264 35.0162 40.1055C35.164 39.7171 35.4844 39.3451 35.9593 39.0105L36 38.9825V3.01746L35.9593 2.9869C35.4838 2.65343 35.1633 2.28222 35.0162 1.89451C35.0808 1.87356 35.1334 1.84631 35.1697 1.81493C35.2061 1.78355 35.2253 1.7489 35.2257 1.71371C35.2239 1.67738 35.2031 1.64172 35.1647 1.60949C35.1263 1.57725 35.0715 1.54931 35.0045 1.52783C35.0287 1.40199 35.1164 1.28007 35.2614 1.17086C35.4063 1.06165 35.6049 0.967884 35.8428 0.896327L36 0.860678V6.67587e-08H2.3577L2.29366 0.0814861Z" fill="#231F20"/>
<path d="M8.62415 35.3636H9.28999L10.4477 38.1903H10.4903L11.6479 35.3636H12.3138V39H11.7918V36.3686H11.758L10.6856 38.9947H10.2523L9.1799 36.3668H9.14617V39H8.62415V35.3636ZM13.4186 39H12.8362L14.1448 35.3636H14.7787L16.0873 39H15.5049L14.4769 36.0241H14.4485L13.4186 39ZM13.5163 37.576H15.4055V38.0376H13.5163V37.576ZM16.9942 35.3636L17.8642 36.7859H17.8926L18.7626 35.3636H19.3983L18.2655 37.1818L19.4054 39H18.7662L17.8926 37.5973H17.8642L16.9906 39H16.3514L17.5109 37.1818L16.3585 35.3636H16.9942ZM21.2658 39V35.3636H21.8144V36.9439H23.6273V35.3636H24.1777V39H23.6273V37.4144H21.8144V39H21.2658ZM24.9767 39V35.3636H26.2729C26.5558 35.3636 26.7901 35.4151 26.976 35.5181C27.1618 35.6211 27.3009 35.762 27.3932 35.9407C27.4856 36.1183 27.5317 36.3183 27.5317 36.5408C27.5317 36.7646 27.485 36.9658 27.3915 37.1445C27.2991 37.3221 27.1595 37.4629 26.9724 37.5671C26.7866 37.6701 26.5528 37.7216 26.2711 37.7216H25.3797V37.2564H26.2214C26.4001 37.2564 26.5451 37.2256 26.6564 37.1641C26.7676 37.1013 26.8493 37.0161 26.9014 36.9084C26.9535 36.8007 26.9795 36.6781 26.9795 36.5408C26.9795 36.4035 26.9535 36.2816 26.9014 36.1751C26.8493 36.0685 26.7671 35.9851 26.6546 35.9247C26.5433 35.8643 26.3966 35.8342 26.2143 35.8342H25.5253V39H24.9767Z" fill="#231F20"/>
</g>
<g clip-path="url(#clip1_121_12302)">
<path d="M37 0.673578C37 0.673578 42.0924 1.21398 37 2.95555V39.0547C42.0924 40.7937 37 41.3341 37 41.3341V42L99 42V41.3392C99 41.3392 93.9076 40.7988 99 39.0598V2.94274C93.9076 1.20117 99 0.660772 99 0.660772V-4.13858e-07L37 -4.13858e-07V0.673578Z" fill="white"/>
<path d="M82.4209 0.254638C77.293 0.405865 72.1207 0.485836 66.9396 0.493998H69.1103C63.9192 0.481007 58.7385 0.395931 53.604 0.23936L82.4209 0.254638ZM97.7525 0.254638V0.715532C97.1497 0.811514 96.6503 0.931826 96.2854 1.06895C95.9206 1.20608 95.6981 1.35709 95.6318 1.51255C95.4485 1.53183 95.2948 1.56104 95.1875 1.59697C95.0802 1.6329 95.0234 1.67418 95.0234 1.71626C95.0234 1.75835 95.0802 1.79962 95.1875 1.83555C95.2948 1.87148 95.4485 1.90069 95.6318 1.91997C95.9452 2.33321 96.6575 2.72963 97.7276 3.08621V38.9138C96.6575 39.2704 95.9452 39.6668 95.6318 40.08C95.4485 40.0993 95.2948 40.1285 95.1875 40.1645C95.0802 40.2004 95.0234 40.2417 95.0234 40.2837C95.0234 40.3258 95.0802 40.3671 95.1875 40.403C95.2948 40.439 95.4485 40.4682 95.6318 40.4874C95.6995 40.6428 95.9227 40.7937 96.2874 40.9308C96.6522 41.0679 97.1508 41.1883 97.7525 41.2845V41.7454L86.5252 41.7454C80.0556 41.5147 73.5065 41.3896 66.9396 41.371H69.1103C62.5268 41.389 55.9608 41.5142 49.4748 41.7454H38.2475V41.2845C38.8515 41.1885 39.3525 41.0683 39.7194 40.9312C40.0864 40.7941 40.3114 40.643 40.3807 40.4874C40.5639 40.4682 40.7177 40.439 40.825 40.403C40.9323 40.3671 40.9891 40.3258 40.9891 40.2837C40.9891 40.2417 40.9323 40.2004 40.825 40.1645C40.7177 40.1285 40.5639 40.0993 40.3807 40.08C40.0558 39.6662 39.3307 39.2698 38.2475 38.9138V3.08621C39.3175 2.72963 40.0299 2.33321 40.3433 1.91997C40.5265 1.90069 40.6802 1.87148 40.7876 1.83555C40.8949 1.79962 40.9516 1.75835 40.9516 1.71626C40.9516 1.67418 40.8949 1.6329 40.7876 1.59697C40.6802 1.56104 40.5265 1.53183 40.3433 1.51255C40.2801 1.35748 40.0614 1.20672 39.7009 1.06961C39.3404 0.932507 38.8457 0.811988 38.2475 0.715532V0.254638H49.4748C55.9526 0.485532 62.5102 0.610701 69.0853 0.628956H66.9396C73.5148 0.610701 80.0724 0.485532 86.5501 0.254638L97.7525 0.254638ZM53.5791 41.7454C58.7135 41.5888 63.8943 41.5037 69.0853 41.4907H66.9396C72.1224 41.5039 77.2947 41.589 82.4209 41.7454H53.5791ZM37 0.858129L37.3243 0.896327C37.8389 0.967086 38.2687 1.0606 38.5819 1.16993C38.8951 1.27926 39.0835 1.40159 39.1332 1.52783C38.9915 1.54885 38.8761 1.57642 38.7966 1.60828C38.717 1.64015 38.6756 1.67541 38.6756 1.71117C38.6756 1.74693 38.717 1.78219 38.7966 1.81405C38.8761 1.84592 38.9915 1.87349 39.1332 1.89451C38.8115 2.28265 38.1162 2.65394 37.0873 2.9869L37 3.01746V38.9825L37.0873 39.0131C38.103 39.3466 38.7856 39.7179 39.0958 40.1055C38.9561 40.1271 38.8436 40.1552 38.7672 40.1874C38.6909 40.2196 38.653 40.255 38.6567 40.2908C38.6603 40.3265 38.7054 40.3616 38.7882 40.3932C38.8711 40.4247 38.9893 40.4518 39.1332 40.4722C39.0814 40.598 38.8934 40.7199 38.5828 40.8291C38.2721 40.9384 37.8466 41.0321 37.3368 41.1037L37 41.1393V42L99 42V41.1393L98.6757 41.1037C98.1615 41.0331 97.7326 40.9395 97.4214 40.8301C97.1103 40.7207 96.9249 40.5983 96.8793 40.4722C97.0213 40.4506 97.1368 40.4225 97.2169 40.3903C97.297 40.358 97.3394 40.3224 97.3408 40.2863C97.3365 40.251 97.2927 40.2163 97.2127 40.185C97.1327 40.1536 97.0187 40.1265 96.8793 40.1055C97.1895 39.7179 97.8721 39.3466 98.8877 39.0131L98.9751 38.9825V3.01746L98.8877 2.9869C97.8721 2.65335 97.1895 2.2821 96.8793 1.89451C97.0141 1.87303 97.1233 1.84561 97.1989 1.81431C97.2745 1.783 97.3145 1.74861 97.3159 1.71371C97.3144 1.67756 97.272 1.64197 97.192 1.60972C97.1119 1.57747 96.9963 1.54944 96.8543 1.52783C96.8999 1.40167 97.0853 1.27928 97.3965 1.16988C97.7077 1.06048 98.1365 0.966948 98.6507 0.896327L98.9751 0.860678V6.67587e-08L37 6.67587e-08V0.858129Z" fill="#231F20"/>
<g clip-path="url(#clip2_121_12302)">
<path d="M81.2394 9.48077C80.8401 9.48077 80.4497 9.59919 80.1176 9.82107C79.7855 10.0429 79.5267 10.3583 79.3739 10.7273C79.2211 11.0962 79.1811 11.5022 79.259 11.8939C79.3369 12.2856 79.5292 12.6454 79.8116 12.9278C80.094 13.2102 80.4538 13.4025 80.8455 13.4804C81.2372 13.5583 81.6432 13.5184 82.0121 13.3655C82.3811 13.2127 82.6965 12.9539 82.9183 12.6218C83.1402 12.2898 83.2586 11.8994 83.2586 11.5C83.2572 10.9649 83.044 10.4521 82.6657 10.0737C82.2873 9.69537 81.7745 9.48218 81.2394 9.48077M76.7896 10.8964C76.8157 11.0161 76.8335 11.1375 76.8431 11.2596H78.7661C78.7749 11.137 78.7945 11.0155 78.8249 10.8964H76.7896ZM74.3698 9.48077C73.9704 9.48077 73.58 9.59919 73.2479 9.82107C72.9159 10.0429 72.6571 10.3583 72.5042 10.7273C72.3514 11.0962 72.3114 11.5022 72.3893 11.8939C72.4672 12.2856 72.6596 12.6454 72.942 12.9278C73.2243 13.2102 73.5841 13.4025 73.9758 13.4804C74.3675 13.5583 74.7735 13.5184 75.1425 13.3655C75.5115 13.2127 75.8268 12.9539 76.0487 12.6218C76.2706 12.2898 76.389 11.8994 76.389 11.5C76.389 10.9645 76.1763 10.4509 75.7976 10.0722C75.4189 9.69351 74.9053 9.48077 74.3698 9.48077M69.9146 10.8964C69.945 11.0155 69.9647 11.137 69.9734 11.2596H71.8965C71.906 11.1375 71.9239 11.0161 71.9499 10.8964H69.9146ZM67.5001 9.48077C67.1007 9.48077 66.7103 9.59919 66.3783 9.82107C66.0462 10.0429 65.7874 10.3583 65.6346 10.7273C65.4817 11.0962 65.4418 11.5022 65.5197 11.8939C65.5976 12.2856 65.7899 12.6454 66.0723 12.9278C66.3547 13.2102 66.7145 13.4025 67.1062 13.4804C67.4979 13.5583 67.9039 13.5184 68.2728 13.3655C68.6418 13.2127 68.9572 12.9539 69.179 12.6218C69.4009 12.2898 69.5193 11.8994 69.5193 11.5C69.5193 11.2348 69.4671 10.9723 69.3656 10.7273C69.2642 10.4823 69.1154 10.2597 68.9279 10.0722C68.7404 9.88468 68.5178 9.73595 68.2728 9.63447C68.0278 9.533 67.7653 9.48077 67.5001 9.48077M81.2394 14C80.6199 13.9987 80.0232 13.7664 79.5658 13.3485C79.1084 12.9306 78.8233 12.3573 78.7661 11.7404H76.8431C76.7857 12.3567 76.5003 12.9294 76.0429 13.3462C75.5854 13.7631 74.9887 13.9942 74.3698 13.9942C73.7508 13.9942 73.1542 13.7631 72.6967 13.3462C72.2392 12.9294 71.9538 12.3567 71.8965 11.7404H69.9734C69.913 12.3493 69.6299 12.9145 69.1785 13.3276C68.727 13.7408 68.139 13.9727 67.5271 13.979C66.9152 13.9852 66.3225 13.7654 65.8626 13.3617C65.4028 12.9579 65.1082 12.3987 65.0353 11.7911C64.9624 11.1835 65.1163 10.5704 65.4676 10.0693C65.8188 9.56823 66.3427 9.21444 66.9387 9.07577C67.5347 8.9371 68.1609 9.02332 68.6973 9.31789C69.2337 9.61246 69.6424 10.0946 69.8452 10.672H72.0247C72.197 10.188 72.515 9.7691 72.9348 9.47291C73.3547 9.17672 73.8559 9.01772 74.3698 9.01772C74.8836 9.01772 75.3848 9.17672 75.8047 9.47291C76.2246 9.7691 76.5425 10.188 76.7148 10.672H78.889C79.0418 10.241 79.3101 9.86021 79.6646 9.57135C80.0191 9.28249 80.4462 9.09664 80.8993 9.03411C81.3523 8.97158 81.8138 9.03478 82.2333 9.2168C82.6528 9.39882 83.0142 9.69266 83.278 10.0662C83.5419 10.4397 83.6979 10.8786 83.7292 11.3349C83.7604 11.7911 83.6657 12.2471 83.4553 12.6532C83.2448 13.0592 82.9269 13.3996 82.5361 13.6371C82.1453 13.8746 81.6967 14.0002 81.2394 14" fill="#231F20"/>
</g>
<path d="M55.5767 14H54.3995V10.3636H55.614C55.9703 10.3636 56.2763 10.4364 56.532 10.582C56.7876 10.7264 56.9835 10.9342 57.1197 11.2053C57.257 11.4751 57.3256 11.7989 57.3256 12.1765C57.3256 12.5553 57.2564 12.8808 57.1179 13.1531C56.9806 13.4253 56.7817 13.6348 56.5213 13.7816C56.2609 13.9272 55.946 14 55.5767 14ZM54.9482 13.5206H55.5465C55.8235 13.5206 56.0537 13.4685 56.2372 13.3643C56.4207 13.259 56.558 13.1069 56.6491 12.908C56.7403 12.708 56.7859 12.4641 56.7859 12.1765C56.7859 11.8912 56.7403 11.6491 56.6491 11.4503C56.5592 11.2514 56.4248 11.1005 56.2461 10.9975C56.0674 10.8945 55.8454 10.843 55.5803 10.843H54.9482V13.5206ZM58.0856 14.0337C57.9885 14.0337 57.9051 13.9994 57.8352 13.9308C57.7654 13.8609 57.7305 13.7769 57.7305 13.6786C57.7305 13.5816 57.7654 13.4987 57.8352 13.43C57.9051 13.3602 57.9885 13.3253 58.0856 13.3253C58.1826 13.3253 58.2661 13.3602 58.3359 13.43C58.4058 13.4987 58.4407 13.5816 58.4407 13.6786C58.4407 13.7437 58.4241 13.8035 58.391 13.858C58.359 13.9112 58.3164 13.9538 58.2631 13.9858C58.2099 14.0178 58.1507 14.0337 58.0856 14.0337ZM59.1944 14V10.3636H61.4494V10.8359H59.7431V11.9439H61.2878V12.4144H59.7431V14H59.1944ZM62.2604 14.0337C62.1633 14.0337 62.0799 13.9994 62.01 13.9308C61.9402 13.8609 61.9053 13.7769 61.9053 13.6786C61.9053 13.5816 61.9402 13.4987 62.01 13.43C62.0799 13.3602 62.1633 13.3253 62.2604 13.3253C62.3575 13.3253 62.4409 13.3602 62.5107 13.43C62.5806 13.4987 62.6155 13.5816 62.6155 13.6786C62.6155 13.7437 62.5989 13.8035 62.5658 13.858C62.5338 13.9112 62.4912 13.9538 62.4379 13.9858C62.3847 14.0178 62.3255 14.0337 62.2604 14.0337Z" fill="#231F20"/>
<g clip-path="url(#clip3_121_12302)">
<path d="M81.2394 3.48077C80.8401 3.48077 80.4497 3.59919 80.1176 3.82107C79.7855 4.04295 79.5267 4.35831 79.3739 4.72727C79.2211 5.09624 79.1811 5.50224 79.259 5.89393C79.3369 6.28562 79.5292 6.64542 79.8116 6.92781C80.094 7.21021 80.4538 7.40252 80.8455 7.48043C81.2372 7.55834 81.6432 7.51836 82.0121 7.36553C82.3811 7.21269 82.6965 6.95389 82.9183 6.62182C83.1402 6.28976 83.2586 5.89937 83.2586 5.5C83.2572 4.9649 83.044 4.45212 82.6657 4.07375C82.2873 3.69537 81.7745 3.48218 81.2394 3.48077M76.7896 4.89637C76.8157 5.0161 76.8335 5.13746 76.8431 5.25961H78.7661C78.7749 5.13702 78.7945 5.01546 78.8249 4.89637H76.7896ZM74.3698 3.48077C73.9704 3.48077 73.58 3.59919 73.2479 3.82107C72.9159 4.04295 72.6571 4.35831 72.5042 4.72727C72.3514 5.09624 72.3114 5.50224 72.3893 5.89393C72.4672 6.28562 72.6596 6.64542 72.942 6.92781C73.2243 7.21021 73.5841 7.40252 73.9758 7.48043C74.3675 7.55834 74.7735 7.51836 75.1425 7.36553C75.5115 7.21269 75.8268 6.95389 76.0487 6.62182C76.2706 6.28976 76.389 5.89937 76.389 5.5C76.389 4.96447 76.1763 4.45087 75.7976 4.07219C75.4189 3.69351 74.9053 3.48077 74.3698 3.48077M69.9146 4.89637C69.945 5.01546 69.9647 5.13702 69.9734 5.25961H71.8965C71.906 5.13746 71.9239 5.0161 71.9499 4.89637H69.9146ZM67.5001 3.48077C67.1007 3.48077 66.7103 3.59919 66.3783 3.82107C66.0462 4.04295 65.7874 4.35831 65.6346 4.72727C65.4817 5.09624 65.4418 5.50224 65.5197 5.89393C65.5976 6.28562 65.7899 6.64542 66.0723 6.92781C66.3547 7.21021 66.7145 7.40252 67.1062 7.48043C67.4979 7.55834 67.9039 7.51836 68.2728 7.36553C68.6418 7.21269 68.9572 6.95389 69.179 6.62182C69.4009 6.28976 69.5193 5.89937 69.5193 5.5C69.5193 5.23483 69.4671 4.97226 69.3656 4.72727C69.2642 4.48229 69.1154 4.25969 68.9279 4.07219C68.7404 3.88468 68.5178 3.73595 68.2728 3.63447C68.0278 3.533 67.7653 3.48077 67.5001 3.48077M81.2394 8C80.6199 7.99865 80.0232 7.76636 79.5658 7.3485C79.1084 6.93064 78.8233 6.35725 78.7661 5.74038H76.8431C76.7857 6.35667 76.5003 6.92935 76.0429 7.34625C75.5854 7.76314 74.9887 7.99422 74.3698 7.99422C73.7508 7.99422 73.1542 7.76314 72.6967 7.34625C72.2392 6.92935 71.9538 6.35667 71.8965 5.74038H69.9734C69.913 6.34933 69.6299 6.91454 69.1785 7.32765C68.727 7.74076 68.139 7.97269 67.5271 7.97897C66.9152 7.98525 66.3225 7.76544 65.8626 7.36169C65.4028 6.95793 65.1082 6.39865 65.0353 5.79108C64.9624 5.1835 65.1163 4.5704 65.4676 4.06931C65.8188 3.56823 66.3427 3.21444 66.9387 3.07577C67.5347 2.9371 68.1609 3.02332 68.6973 3.31789C69.2337 3.61246 69.6424 4.09465 69.8452 4.67201H72.0247C72.197 4.18795 72.515 3.7691 72.9348 3.47291C73.3547 3.17672 73.8559 3.01772 74.3698 3.01772C74.8836 3.01772 75.3848 3.17672 75.8047 3.47291C76.2246 3.7691 76.5425 4.18795 76.7148 4.67201H78.889C79.0418 4.24097 79.3101 3.86021 79.6646 3.57135C80.0191 3.28249 80.4462 3.09664 80.8993 3.03411C81.3523 2.97158 81.8138 3.03478 82.2333 3.2168C82.6528 3.39882 83.0142 3.69266 83.278 4.0662C83.5419 4.43974 83.6979 4.87861 83.7292 5.33485C83.7604 5.7911 83.6657 6.24715 83.4553 6.65318C83.2448 7.0592 82.9269 7.39958 82.5361 7.63711C82.1453 7.87463 81.6967 8.00017 81.2394 8" fill="#231F20"/>
</g>
<path d="M55.5767 8H54.3995V4.36364H55.614C55.9703 4.36364 56.2763 4.43643 56.532 4.58203C56.7876 4.72644 56.9835 4.93419 57.1197 5.20526C57.257 5.47514 57.3256 5.79889 57.3256 6.17649C57.3256 6.55528 57.2564 6.8808 57.1179 7.15305C56.9806 7.42531 56.7817 7.63482 56.5213 7.78161C56.2609 7.9272 55.946 8 55.5767 8ZM54.9482 7.5206H55.5465C55.8235 7.5206 56.0537 7.46851 56.2372 7.36435C56.4207 7.259 56.558 7.10689 56.6491 6.90803C56.7403 6.70798 56.7859 6.46413 56.7859 6.17649C56.7859 5.89122 56.7403 5.64915 56.6491 5.45028C56.5592 5.25142 56.4248 5.1005 56.2461 4.99751C56.0674 4.89453 55.8454 4.84304 55.5803 4.84304H54.9482V7.5206ZM58.0856 8.03374C57.9885 8.03374 57.9051 7.99941 57.8352 7.93075C57.7654 7.86091 57.7305 7.77687 57.7305 7.67862C57.7305 7.58156 57.7654 7.4987 57.8352 7.43004C57.9051 7.3602 57.9885 7.32528 58.0856 7.32528C58.1826 7.32528 58.2661 7.3602 58.3359 7.43004C58.4058 7.4987 58.4407 7.58156 58.4407 7.67862C58.4407 7.74373 58.4241 7.8035 58.391 7.85795C58.359 7.91122 58.3164 7.95384 58.2631 7.9858C58.2099 8.01776 58.1507 8.03374 58.0856 8.03374ZM62.4424 5.31889C62.4234 5.1508 62.3453 5.0206 62.208 4.92827C62.0707 4.83475 61.8979 4.788 61.6895 4.788C61.5404 4.788 61.4114 4.81167 61.3025 4.85902C61.1936 4.90518 61.1089 4.96911 61.0486 5.05078C60.9894 5.13127 60.9598 5.22301 60.9598 5.32599C60.9598 5.41241 60.9799 5.48698 61.0202 5.54972C61.0616 5.61245 61.1154 5.66513 61.1817 5.70774C61.2492 5.74917 61.3214 5.78409 61.3983 5.8125C61.4753 5.83973 61.5493 5.86222 61.6203 5.87997L61.9754 5.9723C62.0914 6.00071 62.2104 6.03918 62.3323 6.08771C62.4542 6.13625 62.5673 6.20017 62.6714 6.27947C62.7756 6.35878 62.8596 6.45703 62.9236 6.57422C62.9887 6.69141 63.0212 6.83168 63.0212 6.99503C63.0212 7.20099 62.968 7.38388 62.8614 7.54368C62.7561 7.70348 62.6028 7.82955 62.4015 7.92188C62.2015 8.0142 61.9594 8.06037 61.6753 8.06037C61.4031 8.06037 61.1675 8.01716 60.9687 7.93075C60.7698 7.84434 60.6141 7.72183 60.5017 7.56321C60.3892 7.40341 60.3271 7.21402 60.3153 6.99503H60.8657C60.8763 7.12642 60.9189 7.23591 60.9935 7.32351C61.0693 7.40992 61.1657 7.47443 61.2829 7.51705C61.4013 7.55848 61.5309 7.57919 61.6718 7.57919C61.8269 7.57919 61.9648 7.55492 62.0855 7.50639C62.2074 7.45668 62.3033 7.38802 62.3731 7.30043C62.443 7.21165 62.4779 7.10807 62.4779 6.9897C62.4779 6.88198 62.4471 6.7938 62.3856 6.72514C62.3252 6.65649 62.2429 6.59967 62.1388 6.55469C62.0358 6.50971 61.9192 6.47005 61.789 6.43572L61.3593 6.31854C61.0681 6.23923 60.8373 6.12263 60.6668 5.96875C60.4975 5.81487 60.4129 5.61127 60.4129 5.35795C60.4129 5.14844 60.4697 4.96555 60.5834 4.8093C60.697 4.65305 60.8509 4.53172 61.045 4.44531C61.2391 4.35772 61.4581 4.31392 61.702 4.31392C61.9482 4.31392 62.1654 4.35713 62.3536 4.44354C62.543 4.52995 62.6921 4.64891 62.801 4.80043C62.9099 4.95076 62.9668 5.12358 62.9715 5.31889H62.4424ZM63.984 8.03374C63.887 8.03374 63.8035 7.99941 63.7337 7.93075C63.6638 7.86091 63.6289 7.77687 63.6289 7.67862C63.6289 7.58156 63.6638 7.4987 63.7337 7.43004C63.8035 7.3602 63.887 7.32528 63.984 7.32528C64.0811 7.32528 64.1645 7.3602 64.2344 7.43004C64.3042 7.4987 64.3391 7.58156 64.3391 7.67862C64.3391 7.74373 64.3226 7.8035 64.2894 7.85795C64.2575 7.91122 64.2148 7.95384 64.1616 7.9858C64.1083 8.01776 64.0491 8.03374 63.984 8.03374Z" fill="#231F20"/>
<path d="M65.9449 39V35.3636H66.4936V36.9439H68.3064V35.3636H68.8568V39H68.3064V37.4144H66.4936V39H65.9449ZM69.6559 39V35.3636H70.952C71.2349 35.3636 71.4693 35.4151 71.6551 35.5181C71.841 35.6211 71.9801 35.762 72.0724 35.9407C72.1647 36.1183 72.2109 36.3183 72.2109 36.5408C72.2109 36.7646 72.1641 36.9658 72.0706 37.1445C71.9783 37.3221 71.8386 37.4629 71.6516 37.5671C71.4657 37.6701 71.232 37.7216 70.9502 37.7216H70.0589V37.2564H70.9005C71.0793 37.2564 71.2243 37.2256 71.3355 37.1641C71.4468 37.1013 71.5285 37.0161 71.5806 36.9084C71.6326 36.8007 71.6587 36.6781 71.6587 36.5408C71.6587 36.4035 71.6326 36.2816 71.5806 36.1751C71.5285 36.0685 71.4462 35.9851 71.3338 35.9247C71.2225 35.8643 71.0757 35.8342 70.8934 35.8342H70.2045V39H69.6559Z" fill="#231F20"/>
</g>
<path d="M137.618 40.7265V1.24803C135.676 1.24803 134.621 0.114614 134.621 0.114614H100.382V0.77174C100.382 0.77174 103.441 1.30916 100.382 3.03857V38.9436C103.441 40.6756 100.382 41.213 100.382 41.213V41.8727H134.621C134.621 41.8727 135.676 40.7265 137.618 40.7265Z" fill="white"/>
<path d="M100.765 41.2843C101.135 41.1883 101.442 41.068 101.667 40.9309C101.892 40.7938 102.03 40.6427 102.072 40.4871C102.184 40.4678 102.279 40.4386 102.344 40.4026C102.41 40.3667 102.445 40.3254 102.445 40.2833C102.445 40.2412 102.41 40.1999 102.344 40.164C102.279 40.1281 102.184 40.0988 102.072 40.0796C101.873 39.6657 101.428 39.2691 100.765 38.913V3.07677C101.419 2.71992 101.856 2.32349 102.049 1.91025C102.161 1.89096 102.256 1.86175 102.321 1.8258C102.387 1.78986 102.422 1.74858 102.422 1.70649C102.422 1.66439 102.387 1.62311 102.321 1.58717C102.256 1.55123 102.161 1.52201 102.049 1.50273C102.01 1.34762 101.876 1.19682 101.655 1.05968C101.434 0.922543 101.131 0.801995 100.765 0.705516V0.24451H107.646C111.616 0.47546 115.635 0.60066 119.665 0.618919H131.707C134.001 1.08757 137.235 1.96119 137.235 3.11752V38.8723C137.235 40.0261 133.978 40.9099 131.707 41.3709H119.665C115.635 41.3892 111.616 41.5143 107.646 41.7453H100.765V41.2843ZM129.643 0.24451C129.819 0.272527 130.354 0.354031 131.065 0.49921H119.665C116.484 0.486215 113.308 0.401118 110.161 0.24451H129.643ZM137.235 1.36774V2.09108C135.89 1.19963 133.061 0.562885 131.325 0.24451H134.384C134.674 0.49921 135.637 1.26331 137.274 1.36774M137.235 40.6246C135.599 40.7265 134.636 41.4906 134.345 41.7453H131.348C133.084 41.4218 135.936 40.7902 137.258 39.8987L137.235 40.6246ZM131.065 41.4906C130.354 41.6256 129.819 41.7096 129.643 41.7453H110.161C113.308 41.5887 116.484 41.5036 119.665 41.4906H131.065ZM134.988 41.9109C135.255 41.6205 136.257 40.8666 137.618 40.8666H138V1.13341H137.618C136.264 1.13341 135.255 0.369313 134.988 0.0891428L134.903 2.07499e-07H100V0.858337L100.199 0.896541C100.514 0.967317 100.778 1.06086 100.97 1.17021C101.161 1.27957 101.277 1.40193 101.307 1.5282C101.221 1.54923 101.15 1.5768 101.101 1.60868C101.052 1.64055 101.027 1.67581 101.027 1.71158C101.027 1.74735 101.052 1.78262 101.101 1.81449C101.15 1.84636 101.221 1.87394 101.307 1.89496C101.106 2.27967 100.68 2.64747 100.054 2.97744L100 3.008V38.9818L100.054 39.0098C100.675 39.3445 101.093 39.7166 101.285 40.105C101.199 40.1267 101.13 40.1547 101.083 40.1869C101.036 40.2191 101.013 40.2546 101.015 40.2904C101.018 40.3261 101.045 40.3612 101.096 40.3928C101.147 40.4243 101.219 40.4514 101.307 40.4718C101.277 40.5981 101.161 40.7204 100.97 40.8298C100.778 40.9391 100.514 41.0327 100.199 41.1035L100 41.1391V42H134.903L134.988 41.9109Z" fill="#231F20"/>
<path d="M107.533 35.8359V35.3636H110.347V35.8359H109.213V39H108.666V35.8359H107.533ZM110.969 39V35.3636H113.249V35.8359H111.518V36.9439H113.13V37.4144H111.518V38.5277H113.27V39H110.969ZM113.982 35.3636H114.648L115.806 38.1903H115.848L117.006 35.3636H117.672V39H117.15V36.3686H117.116L116.043 38.9947H115.61L114.538 36.3668H114.504V39H113.982V35.3636ZM118.469 39V35.3636H119.765C120.048 35.3636 120.283 35.4151 120.469 35.5181C120.654 35.6211 120.794 35.762 120.886 35.9407C120.978 36.1183 121.024 36.3183 121.024 36.5408C121.024 36.7646 120.978 36.9658 120.884 37.1445C120.792 37.3221 120.652 37.4629 120.465 37.5671C120.279 37.6701 120.045 37.7216 119.764 37.7216H118.872V37.2564H119.714C119.893 37.2564 120.038 37.2256 120.149 37.1641C120.26 37.1013 120.342 37.0161 120.394 36.9084C120.446 36.8007 120.472 36.6781 120.472 36.5408C120.472 36.4035 120.446 36.2816 120.394 36.1751C120.342 36.0685 120.26 35.9851 120.147 35.9247C120.036 35.8643 119.889 35.8342 119.707 35.8342H119.018V39H118.469ZM121.804 39.0337C121.707 39.0337 121.623 38.9994 121.553 38.9308C121.484 38.8609 121.449 38.7769 121.449 38.6786C121.449 38.5816 121.484 38.4987 121.553 38.43C121.623 38.3602 121.707 38.3253 121.804 38.3253C121.901 38.3253 121.984 38.3602 122.054 38.43C122.124 38.4987 122.159 38.5816 122.159 38.6786C122.159 38.7437 122.142 38.8035 122.109 38.858C122.077 38.9112 122.035 38.9538 121.981 38.9858C121.928 39.0178 121.869 39.0337 121.804 39.0337ZM124.177 39V35.3636H124.726V36.9439H126.539V35.3636H127.089V39H126.539V37.4144H124.726V39H124.177ZM127.888 39V35.3636H129.184C129.467 35.3636 129.702 35.4151 129.888 35.5181C130.073 35.6211 130.212 35.762 130.305 35.9407C130.397 36.1183 130.443 36.3183 130.443 36.5408C130.443 36.7646 130.397 36.9658 130.303 37.1445C130.211 37.3221 130.071 37.4629 129.884 37.5671C129.698 37.6701 129.464 37.7216 129.183 37.7216H128.291V37.2564H129.133C129.312 37.2564 129.457 37.2256 129.568 37.1641C129.679 37.1013 129.761 37.0161 129.813 36.9084C129.865 36.8007 129.891 36.6781 129.891 36.5408C129.891 36.4035 129.865 36.2816 129.813 36.1751C129.761 36.0685 129.679 35.9851 129.566 35.9247C129.455 35.8643 129.308 35.8342 129.126 35.8342H128.437V39H127.888Z" fill="#231F20"/>
<defs>
<clipPath id="clip0_121_12302">
<rect width="42" height="36" fill="white" transform="matrix(0 -1 1 0 0 42)"/>
</clipPath>
<clipPath id="clip1_121_12302">
<rect width="42" height="62" fill="white" transform="matrix(0 -1 1 0 37 42)"/>
</clipPath>
<clipPath id="clip2_121_12302">
<rect width="18.7393" height="5" fill="white" transform="matrix(1 0 0 -1 65 14)"/>
</clipPath>
<clipPath id="clip3_121_12302">
<rect width="18.7393" height="5" fill="white" transform="matrix(1 0 0 -1 65 8)"/>
</clipPath>
</defs>
</svg>
