<svg width="364" height="10" viewBox="0 0 364 10" fill="none" xmlns="http://www.w3.org/2000/svg">
<mask id="path-1-inside-1_121_12702" fill="white">
<path d="M0 0L364 0V10L0 10L0 0Z"/>
</mask>
<path d="M0 10L0 10.1H0.25V10V9.9H0L0 10ZM0.75 10V10.1H1.25V10V9.9H0.75V10ZM1.75 10V10.1H2.25V10V9.9H1.75V10ZM2.75 10V10.1H3.25V10V9.9H2.75V10ZM3.75 10V10.1H4.25V10V9.9H3.75V10ZM4.75 10V10.1L5.25 10.1V10V9.9L4.75 9.9V10ZM5.75 10V10.1H6.25V10V9.9H5.75V10ZM6.75 10V10.1H7.25V10V9.9H6.75V10ZM7.75 10V10.1H8.25V10V9.9H7.75V10ZM8.75 10V10.1H9.25V10V9.9H8.75V10ZM9.75 10V10.1H10.25V10V9.9H9.75V10ZM10.75 10V10.1H11.25V10V9.9H10.75V10ZM11.75 10V10.1H12.25V10V9.9H11.75V10ZM12.75 10V10.1H13.25V10V9.9H12.75V10ZM13.75 10V10.1H14.25V10V9.9H13.75V10ZM14.75 10V10.1L15.25 10.1V10V9.9L14.75 9.9V10ZM15.75 10V10.1H16.25V10V9.9H15.75V10ZM16.75 10V10.1H17.25V10V9.9H16.75V10ZM17.75 10V10.1H18.25V10V9.9H17.75V10ZM18.75 10V10.1H19.25V10V9.9H18.75V10ZM19.75 10V10.1H20.25V10V9.9H19.75V10ZM20.75 10V10.1H21.25V10V9.9H20.75V10ZM21.75 10V10.1H22.25V10V9.9H21.75V10ZM22.75 10V10.1H23.25V10V9.9H22.75V10ZM23.75 10V10.1H24.25V10V9.9H23.75V10ZM24.75 10V10.1L25.25 10.1V10V9.9L24.75 9.9V10ZM25.75 10V10.1H26.25V10V9.9H25.75V10ZM26.75 10V10.1H27.25V10V9.9H26.75V10ZM27.75 10V10.1H28.25V10V9.9H27.75V10ZM28.75 10V10.1H29.25V10V9.9H28.75V10ZM29.75 10V10.1H30.25V10V9.9H29.75V10ZM30.75 10V10.1H31.25V10V9.9H30.75V10ZM31.75 10V10.1H32.25V10V9.9H31.75V10ZM32.75 10V10.1H33.25V10V9.9H32.75V10ZM33.75 10V10.1H34.25V10V9.9H33.75V10ZM34.75 10V10.1L35.25 10.1V10V9.9L34.75 9.9V10ZM35.75 10V10.1H36.25V10V9.9H35.75V10ZM36.75 10V10.1H37.25V10V9.9H36.75V10ZM37.75 10V10.1H38.25V10V9.9H37.75V10ZM38.75 10V10.1H39.25V10V9.9H38.75V10ZM39.75 10V10.1H40.25V10V9.9H39.75V10ZM40.75 10V10.1H41.25V10V9.9H40.75V10ZM41.75 10V10.1H42.25V10V9.9H41.75V10ZM42.75 10V10.1H43.25V10V9.9H42.75V10ZM43.75 10V10.1H44.25V10V9.9H43.75V10ZM44.75 10V10.1L45.25 10.1V10V9.9L44.75 9.9V10ZM45.75 10V10.1H46.25V10V9.9H45.75V10ZM46.75 10V10.1H47.25V10V9.9H46.75V10ZM47.75 10V10.1H48.25V10V9.9H47.75V10ZM48.75 10V10.1H49.25V10V9.9H48.75V10ZM49.75 10V10.1H50.25V10V9.9H49.75V10ZM50.75 10V10.1H51.25V10V9.9H50.75V10ZM51.75 10V10.1H52.25V10V9.9H51.75V10ZM52.75 10V10.1H53.25V10V9.9H52.75V10ZM53.75 10V10.1H54.25V10V9.9H53.75V10ZM54.75 10V10.1H55.25V10V9.9H54.75V10ZM55.75 10V10.1H56.25V10V9.9H55.75V10ZM56.75 10V10.1H57.25V10V9.9H56.75V10ZM57.75 10V10.1H58.25V10V9.9H57.75V10ZM58.75 10V10.1H59.25V10V9.9H58.75V10ZM59.75 10V10.1H60.25V10V9.9H59.75V10ZM60.75 10V10.1H61.25V10V9.9H60.75V10ZM61.75 10V10.1H62.25V10V9.9H61.75V10ZM62.75 10V10.1H63.25V10V9.9H62.75V10ZM63.75 10V10.1H64.25V10V9.9H63.75V10ZM64.75 10V10.1H65.25V10V9.9H64.75V10ZM65.75 10V10.1H66.25V10V9.9H65.75V10ZM66.75 10V10.1H67.25V10V9.9H66.75V10ZM67.75 10V10.1H68.25V10V9.9H67.75V10ZM68.75 10V10.1H69.25V10V9.9H68.75V10ZM69.75 10V10.1H70.25V10V9.9H69.75V10ZM70.75 10V10.1H71.25V10V9.9H70.75V10ZM71.75 10V10.1H72.25V10V9.9H71.75V10ZM72.75 10V10.1H73.25V10V9.9H72.75V10ZM73.75 10V10.1H74.25V10V9.9H73.75V10ZM74.75 10V10.1H75.25V10V9.9H74.75V10ZM75.75 10V10.1H76.25V10V9.9H75.75V10ZM76.75 10V10.1H77.25V10V9.9H76.75V10ZM77.75 10V10.1H78.25V10V9.9H77.75V10ZM78.75 10V10.1H79.25V10V9.9H78.75V10ZM79.75 10V10.1H80.25V10V9.9H79.75V10ZM80.75 10V10.1H81.25V10V9.9H80.75V10ZM81.75 10V10.1H82.25V10V9.9H81.75V10ZM82.75 10V10.1H83.25V10V9.9H82.75V10ZM83.75 10V10.1H84.25V10V9.9H83.75V10ZM84.75 10V10.1H85.25V10V9.9H84.75V10ZM85.75 10V10.1H86.25V10V9.9H85.75V10ZM86.75 10V10.1H87.25V10V9.9H86.75V10ZM87.75 10V10.1H88.25V10V9.9H87.75V10ZM88.75 10V10.1H89.25V10V9.9H88.75V10ZM89.75 10V10.1H90.25V10V9.9H89.75V10ZM90.75 10V10.1H91.25V10V9.9H90.75V10ZM91.75 10V10.1H92.25V10V9.9H91.75V10ZM92.75 10V10.1H93.25V10V9.9H92.75V10ZM93.75 10V10.1H94.25V10V9.9H93.75V10ZM94.75 10V10.1H95.25V10V9.9H94.75V10ZM95.75 10V10.1H96.25V10V9.9H95.75V10ZM96.75 10V10.1H97.25V10V9.9H96.75V10ZM97.75 10V10.1H98.25V10V9.9H97.75V10ZM98.75 10V10.1H99.25V10V9.9H98.75V10ZM99.75 10V10.1H100.25V10V9.9H99.75V10ZM100.75 10V10.1H101.25V10V9.9H100.75V10ZM101.75 10V10.1H102.25V10V9.9H101.75V10ZM102.75 10V10.1H103.25V10V9.9H102.75V10ZM103.75 10V10.1H104.25V10V9.9H103.75V10ZM104.75 10V10.1H105.25V10V9.9H104.75V10ZM105.75 10V10.1H106.25V10V9.9H105.75V10ZM106.75 10V10.1H107.25V10V9.9H106.75V10ZM107.75 10V10.1H108.25V10V9.9H107.75V10ZM108.75 10V10.1H109.25V10V9.9H108.75V10ZM109.75 10V10.1H110.25V10V9.9H109.75V10ZM110.75 10V10.1H111.25V10V9.9H110.75V10ZM111.75 10V10.1H112.25V10V9.9H111.75V10ZM112.75 10V10.1H113.25V10V9.9H112.75V10ZM113.75 10V10.1H114.25V10V9.9H113.75V10ZM114.75 10V10.1H115.25V10V9.9H114.75V10ZM115.75 10V10.1H116.25V10V9.9H115.75V10ZM116.75 10V10.1H117.25V10V9.9H116.75V10ZM117.75 10V10.1H118.25V10V9.9H117.75V10ZM118.75 10V10.1H119.25V10V9.9H118.75V10ZM119.75 10V10.1H120.25V10V9.9H119.75V10ZM120.75 10V10.1H121.25V10V9.9H120.75V10ZM121.75 10V10.1H122.25V10V9.9H121.75V10ZM122.75 10V10.1H123.25V10V9.9H122.75V10ZM123.75 10V10.1H124.25V10V9.9H123.75V10ZM124.75 10V10.1H125.25V10V9.9H124.75V10ZM125.75 10V10.1H126.25V10V9.9H125.75V10ZM126.75 10V10.1H127.25V10V9.9H126.75V10ZM127.75 10V10.1H128.25V10V9.9H127.75V10ZM128.75 10V10.1H129.25V10V9.9H128.75V10ZM129.75 10V10.1H130.25V10V9.9H129.75V10ZM130.75 10V10.1H131.25V10V9.9H130.75V10ZM131.75 10V10.1H132.25V10V9.9H131.75V10ZM132.75 10V10.1H133.25V10V9.9H132.75V10ZM133.75 10V10.1H134.25V10V9.9H133.75V10ZM134.75 10V10.1H135.25V10V9.9H134.75V10ZM135.75 10V10.1H136.25V10V9.9H135.75V10ZM136.75 10V10.1H137.25V10V9.9H136.75V10ZM137.75 10V10.1H138.25V10V9.9H137.75V10ZM138.75 10V10.1H139.25V10V9.9H138.75V10ZM139.75 10V10.1H140.25V10V9.9H139.75V10ZM140.75 10V10.1H141.25V10V9.9H140.75V10ZM141.75 10V10.1H142.25V10V9.9H141.75V10ZM142.75 10V10.1H143.25V10V9.9H142.75V10ZM143.75 10V10.1H144.25V10V9.9H143.75V10ZM144.75 10V10.1H145.25V10V9.9H144.75V10ZM145.75 10V10.1H146.25V10V9.9H145.75V10ZM146.75 10V10.1H147.25V10V9.9H146.75V10ZM147.75 10V10.1H148.25V10V9.9H147.75V10ZM148.75 10V10.1H149.25V10V9.9H148.75V10ZM149.75 10V10.1H150.25V10V9.9H149.75V10ZM150.75 10V10.1H151.25V10V9.9H150.75V10ZM151.75 10V10.1H152.25V10V9.9H151.75V10ZM152.75 10V10.1H153.25V10V9.9H152.75V10ZM153.75 10V10.1H154.25V10V9.9H153.75V10ZM154.75 10V10.1H155.25V10V9.9H154.75V10ZM155.75 10V10.1H156.25V10V9.9H155.75V10ZM156.75 10V10.1H157.25V10V9.9H156.75V10ZM157.75 10V10.1H158.25V10V9.9H157.75V10ZM158.75 10V10.1H159.25V10V9.9H158.75V10ZM159.75 10V10.1H160.25V10V9.9H159.75V10ZM160.75 10V10.1H161.25V10V9.9H160.75V10ZM161.75 10V10.1H162.25V10V9.9H161.75V10ZM162.75 10V10.1H163.25V10V9.9H162.75V10ZM163.75 10V10.1H164.25V10V9.9H163.75V10ZM164.75 10V10.1H165.25V10V9.9H164.75V10ZM165.75 10V10.1L166.25 10.1V10V9.9L165.75 9.9V10ZM166.75 10V10.1H167.25V10V9.9H166.75V10ZM167.75 10V10.1H168.25V10V9.9H167.75V10ZM168.75 10V10.1H169.25V10V9.9H168.75V10ZM169.75 10V10.1H170.25V10V9.9H169.75V10ZM170.75 10V10.1H171.25V10V9.9H170.75V10ZM171.75 10V10.1H172.25V10V9.9H171.75V10ZM172.75 10V10.1H173.25V10V9.9H172.75V10ZM173.75 10V10.1H174.25V10V9.9H173.75V10ZM174.75 10V10.1H175.25V10V9.9H174.75V10ZM175.75 10V10.1L176.25 10.1V10V9.9L175.75 9.9V10ZM176.75 10V10.1H177.25V10V9.9H176.75V10ZM177.75 10V10.1H178.25V10V9.9H177.75V10ZM178.75 10V10.1H179.25V10V9.9H178.75V10ZM179.75 10V10.1H180.25V10V9.9H179.75V10ZM180.75 10V10.1H181.25V10V9.9H180.75V10ZM181.75 10V10.1H182.25V10V9.9H181.75V10ZM182.75 10V10.1H183.25V10V9.9H182.75V10ZM183.75 10V10.1H184.25V10V9.9H183.75V10ZM184.75 10V10.1H185.25V10V9.9H184.75V10ZM185.75 10V10.1L186.25 10.1V10V9.9L185.75 9.9V10ZM186.75 10V10.1H187.25V10V9.9H186.75V10ZM187.75 10V10.1H188.25V10V9.9H187.75V10ZM188.75 10V10.1H189.25V10V9.9H188.75V10ZM189.75 10V10.1H190.25V10V9.9H189.75V10ZM190.75 10V10.1H191.25V10V9.9H190.75V10ZM191.75 10V10.1H192.25V10V9.9H191.75V10ZM192.75 10V10.1H193.25V10V9.9H192.75V10ZM193.75 10V10.1H194.25V10V9.9H193.75V10ZM194.75 10V10.1H195.25V10V9.9H194.75V10ZM195.75 10V10.1L196.25 10.1V10V9.9L195.75 9.9V10ZM196.75 10V10.1H197.25V10V9.9H196.75V10ZM197.75 10V10.1H198.25V10V9.9H197.75V10ZM198.75 10V10.1H199.25V10V9.9H198.75V10ZM199.75 10V10.1H200.25V10V9.9H199.75V10ZM200.75 10V10.1H201.25V10V9.9H200.75V10ZM201.75 10V10.1H202.25V10V9.9H201.75V10ZM202.75 10V10.1H203.25V10V9.9H202.75V10ZM203.75 10V10.1H204.25V10V9.9H203.75V10ZM204.75 10V10.1H205.25V10V9.9H204.75V10ZM205.75 10V10.1L206.25 10.1V10V9.9L205.75 9.9V10ZM206.75 10V10.1H207.25V10V9.9H206.75V10ZM207.75 10V10.1H208.25V10V9.9H207.75V10ZM208.75 10V10.1H209.25V10V9.9H208.75V10ZM209.75 10V10.1H210.25V10V9.9H209.75V10ZM210.75 10V10.1H211.25V10V9.9H210.75V10ZM211.75 10V10.1H212.25V10V9.9H211.75V10ZM212.75 10V10.1H213.25V10V9.9H212.75V10ZM213.75 10V10.1H214.25V10V9.9H213.75V10ZM214.75 10V10.1H215.25V10V9.9H214.75V10ZM215.75 10V10.1L216.25 10.1V10V9.9L215.75 9.9V10ZM216.75 10V10.1H217.25V10V9.9H216.75V10ZM217.75 10V10.1H218.25V10V9.9H217.75V10ZM218.75 10V10.1H219.25V10V9.9H218.75V10ZM219.75 10V10.1H220.25V10V9.9H219.75V10ZM220.75 10V10.1H221.25V10V9.9H220.75V10ZM221.75 10V10.1H222.25V10V9.9H221.75V10ZM222.75 10V10.1H223.25V10V9.9H222.75V10ZM223.75 10V10.1H224.25V10V9.9H223.75V10ZM224.75 10V10.1H225.25V10V9.9H224.75V10ZM225.75 10V10.1L226.25 10.1V10V9.9L225.75 9.9V10ZM226.75 10V10.1H227.25V10V9.9H226.75V10ZM227.75 10V10.1H228.25V10V9.9H227.75V10ZM228.75 10V10.1H229.25V10V9.9H228.75V10ZM229.75 10V10.1H230.25V10V9.9H229.75V10ZM230.75 10V10.1H231.25V10V9.9H230.75V10ZM231.75 10V10.1H232.25V10V9.9H231.75V10ZM232.75 10V10.1H233.25V10V9.9H232.75V10ZM233.75 10V10.1H234.25V10V9.9H233.75V10ZM234.75 10V10.1H235.25V10V9.9H234.75V10ZM235.75 10V10.1L236.25 10.1V10V9.9L235.75 9.9V10ZM236.75 10V10.1H237.25V10V9.9H236.75V10ZM237.75 10V10.1H238.25V10V9.9H237.75V10ZM238.75 10V10.1H239.25V10V9.9H238.75V10ZM239.75 10V10.1H240.25V10V9.9H239.75V10ZM240.75 10V10.1H241.25V10V9.9H240.75V10ZM241.75 10V10.1H242.25V10V9.9H241.75V10ZM242.75 10V10.1H243.25V10V9.9H242.75V10ZM243.75 10V10.1H244.25V10V9.9H243.75V10ZM244.75 10V10.1H245.25V10V9.9H244.75V10ZM245.75 10V10.1L246.25 10.1V10V9.9L245.75 9.9V10ZM246.75 10V10.1H247.25V10V9.9H246.75V10ZM247.75 10V10.1H248.25V10V9.9H247.75V10ZM248.75 10V10.1H249.25V10V9.9H248.75V10ZM249.75 10V10.1H250.25V10V9.9H249.75V10ZM250.75 10V10.1H251.25V10V9.9H250.75V10ZM251.75 10V10.1H252.25V10V9.9H251.75V10ZM252.75 10V10.1H253.25V10V9.9H252.75V10ZM253.75 10V10.1H254.25V10V9.9H253.75V10ZM254.75 10V10.1H255.25V10V9.9H254.75V10ZM255.75 10V10.1L256.25 10.1V10V9.9L255.75 9.9V10ZM256.75 10V10.1H257.25V10V9.9H256.75V10ZM257.75 10V10.1H258.25V10V9.9H257.75V10ZM258.75 10V10.1H259.25V10V9.9H258.75V10ZM259.75 10V10.1H260.25V10V9.9H259.75V10ZM260.75 10V10.1H261.25V10V9.9H260.75V10ZM261.75 10V10.1H262.25V10V9.9H261.75V10ZM262.75 10V10.1H263.25V10V9.9H262.75V10ZM263.75 10V10.1H264.25V10V9.9H263.75V10ZM264.75 10V10.1H265.25V10V9.9H264.75V10ZM265.75 10V10.1L266.25 10.1V10V9.9L265.75 9.9V10ZM266.75 10V10.1H267.25V10V9.9H266.75V10ZM267.75 10V10.1H268.25V10V9.9H267.75V10ZM268.75 10V10.1H269.25V10V9.9H268.75V10ZM269.75 10V10.1H270.25V10V9.9H269.75V10ZM270.75 10V10.1H271.25V10V9.9H270.75V10ZM271.75 10V10.1H272.25V10V9.9H271.75V10ZM272.75 10V10.1H273.25V10V9.9H272.75V10ZM273.75 10V10.1H274.25V10V9.9H273.75V10ZM274.75 10V10.1H275.25V10V9.9H274.75V10ZM275.75 10V10.1H276.25V10V9.9H275.75V10ZM276.75 10V10.1H277.25V10V9.9H276.75V10ZM277.75 10V10.1H278.25V10V9.9H277.75V10ZM278.75 10V10.1H279.25V10V9.9H278.75V10ZM279.75 10V10.1H280.25V10V9.9H279.75V10ZM280.75 10V10.1H281.25V10V9.9H280.75V10ZM281.75 10V10.1H282.25V10V9.9H281.75V10ZM282.75 10V10.1H283.25V10V9.9H282.75V10ZM283.75 10V10.1H284.25V10V9.9H283.75V10ZM284.75 10V10.1H285.25V10V9.9H284.75V10ZM285.75 10V10.1H286.25V10V9.9H285.75V10ZM286.75 10V10.1H287.25V10V9.9H286.75V10ZM287.75 10V10.1H288.25V10V9.9H287.75V10ZM288.75 10V10.1H289.25V10V9.9H288.75V10ZM289.75 10V10.1H290.25V10V9.9H289.75V10ZM290.75 10V10.1H291.25V10V9.9H290.75V10ZM291.75 10V10.1H292.25V10V9.9H291.75V10ZM292.75 10V10.1H293.25V10V9.9H292.75V10ZM293.75 10V10.1H294.25V10V9.9H293.75V10ZM294.75 10V10.1H295.25V10V9.9H294.75V10ZM295.75 10V10.1H296.25V10V9.9H295.75V10ZM296.75 10V10.1H297.25V10V9.9H296.75V10ZM297.75 10V10.1H298.25V10V9.9H297.75V10ZM298.75 10V10.1H299.25V10V9.9H298.75V10ZM299.75 10V10.1H300.25V10V9.9H299.75V10ZM300.75 10V10.1H301.25V10V9.9H300.75V10ZM301.75 10V10.1H302.25V10V9.9H301.75V10ZM302.75 10V10.1H303.25V10V9.9H302.75V10ZM303.75 10V10.1H304.25V10V9.9H303.75V10ZM304.75 10V10.1H305.25V10V9.9H304.75V10ZM305.75 10V10.1H306.25V10V9.9H305.75V10ZM306.75 10V10.1H307.25V10V9.9H306.75V10ZM307.75 10V10.1H308.25V10V9.9H307.75V10ZM308.75 10V10.1H309.25V10V9.9H308.75V10ZM309.75 10V10.1H310.25V10V9.9H309.75V10ZM310.75 10V10.1H311.25V10V9.9H310.75V10ZM311.75 10V10.1H312.25V10V9.9H311.75V10ZM312.75 10V10.1H313.25V10V9.9H312.75V10ZM313.75 10V10.1H314.25V10V9.9H313.75V10ZM314.75 10V10.1H315.25V10V9.9H314.75V10ZM315.75 10V10.1H316.25V10V9.9H315.75V10ZM316.75 10V10.1H317.25V10V9.9H316.75V10ZM317.75 10V10.1H318.25V10V9.9H317.75V10ZM318.75 10V10.1H319.25V10V9.9H318.75V10ZM319.75 10V10.1H320.25V10V9.9H319.75V10ZM320.75 10V10.1H321.25V10V9.9H320.75V10ZM321.75 10V10.1H322.25V10V9.9H321.75V10ZM322.75 10V10.1H323.25V10V9.9H322.75V10ZM323.75 10V10.1H324.25V10V9.9H323.75V10ZM324.75 10V10.1H325.25V10V9.9H324.75V10ZM325.75 10V10.1H326.25V10V9.9H325.75V10ZM326.75 10V10.1H327.25V10V9.9H326.75V10ZM327.75 10V10.1H328.25V10V9.9H327.75V10ZM328.75 10V10.1H329.25V10V9.9H328.75V10ZM329.75 10V10.1H330.25V10V9.9H329.75V10ZM330.75 10V10.1H331.25V10V9.9H330.75V10ZM331.75 10V10.1H332.25V10V9.9H331.75V10ZM332.75 10V10.1H333.25V10V9.9H332.75V10ZM333.75 10V10.1H334.25V10V9.9H333.75V10ZM334.75 10V10.1H335.25V10V9.9H334.75V10ZM335.75 10V10.1H336.25V10V9.9H335.75V10ZM336.75 10V10.1H337.25V10V9.9H336.75V10ZM337.75 10V10.1H338.25V10V9.9H337.75V10ZM338.75 10V10.1H339.25V10V9.9H338.75V10ZM339.75 10V10.1H340.25V10V9.9H339.75V10ZM340.75 10V10.1H341.25V10V9.9H340.75V10ZM341.75 10V10.1H342.25V10V9.9H341.75V10ZM342.75 10V10.1H343.25V10V9.9H342.75V10ZM343.75 10V10.1H344.25V10V9.9H343.75V10ZM344.75 10V10.1H345.25V10V9.9H344.75V10ZM345.75 10V10.1H346.25V10V9.9H345.75V10ZM346.75 10V10.1H347.25V10V9.9H346.75V10ZM347.75 10V10.1H348.25V10V9.9H347.75V10ZM348.75 10V10.1H349.25V10V9.9H348.75V10ZM349.75 10V10.1H350.25V10V9.9H349.75V10ZM350.75 10V10.1H351.25V10V9.9H350.75V10ZM351.75 10V10.1H352.25V10V9.9H351.75V10ZM352.75 10V10.1H353.25V10V9.9H352.75V10ZM353.75 10V10.1H354.25V10V9.9H353.75V10ZM354.75 10V10.1H355.25V10V9.9H354.75V10ZM355.75 10V10.1H356.25V10V9.9H355.75V10ZM356.75 10V10.1H357.25V10V9.9H356.75V10ZM357.75 10V10.1H358.25V10V9.9H357.75V10ZM358.75 10V10.1H359.25V10V9.9H358.75V10ZM359.75 10V10.1H360.25V10V9.9H359.75V10ZM360.75 10V10.1H361.25V10V9.9H360.75V10ZM361.75 10V10.1H362.25V10V9.9H361.75V10ZM362.75 10V10.1H363.25V10V9.9H362.75V10ZM363.75 10V10.1H364V10V9.9H363.75V10ZM0 10L0 10.2H0.25V10V9.8H0L0 10ZM0.75 10V10.2H1.25V10V9.8H0.75V10ZM1.75 10V10.2H2.25V10V9.8H1.75V10ZM2.75 10V10.2H3.25V10V9.8H2.75V10ZM3.75 10V10.2H4.25V10V9.8H3.75V10ZM4.75 10V10.2L5.25 10.2V10V9.8L4.75 9.8V10ZM5.75 10V10.2H6.25V10V9.8H5.75V10ZM6.75 10V10.2H7.25V10V9.8H6.75V10ZM7.75 10V10.2H8.25V10V9.8H7.75V10ZM8.75 10V10.2H9.25V10V9.8H8.75V10ZM9.75 10V10.2H10.25V10V9.8H9.75V10ZM10.75 10V10.2H11.25V10V9.8H10.75V10ZM11.75 10V10.2H12.25V10V9.8H11.75V10ZM12.75 10V10.2H13.25V10V9.8H12.75V10ZM13.75 10V10.2H14.25V10V9.8H13.75V10ZM14.75 10V10.2L15.25 10.2V10V9.8L14.75 9.8V10ZM15.75 10V10.2H16.25V10V9.8H15.75V10ZM16.75 10V10.2H17.25V10V9.8H16.75V10ZM17.75 10V10.2H18.25V10V9.8H17.75V10ZM18.75 10V10.2H19.25V10V9.8H18.75V10ZM19.75 10V10.2H20.25V10V9.8H19.75V10ZM20.75 10V10.2H21.25V10V9.8H20.75V10ZM21.75 10V10.2H22.25V10V9.8H21.75V10ZM22.75 10V10.2H23.25V10V9.8H22.75V10ZM23.75 10V10.2H24.25V10V9.8H23.75V10ZM24.75 10V10.2L25.25 10.2V10V9.8L24.75 9.8V10ZM25.75 10V10.2H26.25V10V9.8H25.75V10ZM26.75 10V10.2H27.25V10V9.8H26.75V10ZM27.75 10V10.2H28.25V10V9.8H27.75V10ZM28.75 10V10.2H29.25V10V9.8H28.75V10ZM29.75 10V10.2H30.25V10V9.8H29.75V10ZM30.75 10V10.2H31.25V10V9.8H30.75V10ZM31.75 10V10.2H32.25V10V9.8H31.75V10ZM32.75 10V10.2H33.25V10V9.8H32.75V10ZM33.75 10V10.2H34.25V10V9.8H33.75V10ZM34.75 10V10.2L35.25 10.2V10V9.8L34.75 9.8V10ZM35.75 10V10.2H36.25V10V9.8H35.75V10ZM36.75 10V10.2H37.25V10V9.8H36.75V10ZM37.75 10V10.2H38.25V10V9.8H37.75V10ZM38.75 10V10.2H39.25V10V9.8H38.75V10ZM39.75 10V10.2H40.25V10V9.8H39.75V10ZM40.75 10V10.2H41.25V10V9.8H40.75V10ZM41.75 10V10.2H42.25V10V9.8H41.75V10ZM42.75 10V10.2H43.25V10V9.8H42.75V10ZM43.75 10V10.2H44.25V10V9.8H43.75V10ZM44.75 10V10.2L45.25 10.2V10V9.8L44.75 9.8V10ZM45.75 10V10.2H46.25V10V9.8H45.75V10ZM46.75 10V10.2H47.25V10V9.8H46.75V10ZM47.75 10V10.2H48.25V10V9.8H47.75V10ZM48.75 10V10.2H49.25V10V9.8H48.75V10ZM49.75 10V10.2H50.25V10V9.8H49.75V10ZM50.75 10V10.2H51.25V10V9.8H50.75V10ZM51.75 10V10.2H52.25V10V9.8H51.75V10ZM52.75 10V10.2H53.25V10V9.8H52.75V10ZM53.75 10V10.2H54.25V10V9.8H53.75V10ZM54.75 10V10.2H55.25V10V9.8H54.75V10ZM55.75 10V10.2H56.25V10V9.8H55.75V10ZM56.75 10V10.2H57.25V10V9.8H56.75V10ZM57.75 10V10.2H58.25V10V9.8H57.75V10ZM58.75 10V10.2H59.25V10V9.8H58.75V10ZM59.75 10V10.2H60.25V10V9.8H59.75V10ZM60.75 10V10.2H61.25V10V9.8H60.75V10ZM61.75 10V10.2H62.25V10V9.8H61.75V10ZM62.75 10V10.2H63.25V10V9.8H62.75V10ZM63.75 10V10.2H64.25V10V9.8H63.75V10ZM64.75 10V10.2H65.25V10V9.8H64.75V10ZM65.75 10V10.2H66.25V10V9.8H65.75V10ZM66.75 10V10.2H67.25V10V9.8H66.75V10ZM67.75 10V10.2H68.25V10V9.8H67.75V10ZM68.75 10V10.2H69.25V10V9.8H68.75V10ZM69.75 10V10.2H70.25V10V9.8H69.75V10ZM70.75 10V10.2H71.25V10V9.8H70.75V10ZM71.75 10V10.2H72.25V10V9.8H71.75V10ZM72.75 10V10.2H73.25V10V9.8H72.75V10ZM73.75 10V10.2H74.25V10V9.8H73.75V10ZM74.75 10V10.2H75.25V10V9.8H74.75V10ZM75.75 10V10.2H76.25V10V9.8H75.75V10ZM76.75 10V10.2H77.25V10V9.8H76.75V10ZM77.75 10V10.2H78.25V10V9.8H77.75V10ZM78.75 10V10.2H79.25V10V9.8H78.75V10ZM79.75 10V10.2H80.25V10V9.8H79.75V10ZM80.75 10V10.2H81.25V10V9.8H80.75V10ZM81.75 10V10.2H82.25V10V9.8H81.75V10ZM82.75 10V10.2H83.25V10V9.8H82.75V10ZM83.75 10V10.2H84.25V10V9.8H83.75V10ZM84.75 10V10.2H85.25V10V9.8H84.75V10ZM85.75 10V10.2H86.25V10V9.8H85.75V10ZM86.75 10V10.2H87.25V10V9.8H86.75V10ZM87.75 10V10.2H88.25V10V9.8H87.75V10ZM88.75 10V10.2H89.25V10V9.8H88.75V10ZM89.75 10V10.2H90.25V10V9.8H89.75V10ZM90.75 10V10.2H91.25V10V9.8H90.75V10ZM91.75 10V10.2H92.25V10V9.8H91.75V10ZM92.75 10V10.2H93.25V10V9.8H92.75V10ZM93.75 10V10.2H94.25V10V9.8H93.75V10ZM94.75 10V10.2H95.25V10V9.8H94.75V10ZM95.75 10V10.2H96.25V10V9.8H95.75V10ZM96.75 10V10.2H97.25V10V9.8H96.75V10ZM97.75 10V10.2H98.25V10V9.8H97.75V10ZM98.75 10V10.2H99.25V10V9.8H98.75V10ZM99.75 10V10.2H100.25V10V9.8H99.75V10ZM100.75 10V10.2H101.25V10V9.8H100.75V10ZM101.75 10V10.2H102.25V10V9.8H101.75V10ZM102.75 10V10.2H103.25V10V9.8H102.75V10ZM103.75 10V10.2H104.25V10V9.8H103.75V10ZM104.75 10V10.2H105.25V10V9.8H104.75V10ZM105.75 10V10.2H106.25V10V9.8H105.75V10ZM106.75 10V10.2H107.25V10V9.8H106.75V10ZM107.75 10V10.2H108.25V10V9.8H107.75V10ZM108.75 10V10.2H109.25V10V9.8H108.75V10ZM109.75 10V10.2H110.25V10V9.8H109.75V10ZM110.75 10V10.2H111.25V10V9.8H110.75V10ZM111.75 10V10.2H112.25V10V9.8H111.75V10ZM112.75 10V10.2H113.25V10V9.8H112.75V10ZM113.75 10V10.2H114.25V10V9.8H113.75V10ZM114.75 10V10.2H115.25V10V9.8H114.75V10ZM115.75 10V10.2H116.25V10V9.8H115.75V10ZM116.75 10V10.2H117.25V10V9.8H116.75V10ZM117.75 10V10.2H118.25V10V9.8H117.75V10ZM118.75 10V10.2H119.25V10V9.8H118.75V10ZM119.75 10V10.2H120.25V10V9.8H119.75V10ZM120.75 10V10.2H121.25V10V9.8H120.75V10ZM121.75 10V10.2H122.25V10V9.8H121.75V10ZM122.75 10V10.2H123.25V10V9.8H122.75V10ZM123.75 10V10.2H124.25V10V9.8H123.75V10ZM124.75 10V10.2H125.25V10V9.8H124.75V10ZM125.75 10V10.2H126.25V10V9.8H125.75V10ZM126.75 10V10.2H127.25V10V9.8H126.75V10ZM127.75 10V10.2H128.25V10V9.8H127.75V10ZM128.75 10V10.2H129.25V10V9.8H128.75V10ZM129.75 10V10.2H130.25V10V9.8H129.75V10ZM130.75 10V10.2H131.25V10V9.8H130.75V10ZM131.75 10V10.2H132.25V10V9.8H131.75V10ZM132.75 10V10.2H133.25V10V9.8H132.75V10ZM133.75 10V10.2H134.25V10V9.8H133.75V10ZM134.75 10V10.2H135.25V10V9.8H134.75V10ZM135.75 10V10.2H136.25V10V9.8H135.75V10ZM136.75 10V10.2H137.25V10V9.8H136.75V10ZM137.75 10V10.2H138.25V10V9.8H137.75V10ZM138.75 10V10.2H139.25V10V9.8H138.75V10ZM139.75 10V10.2H140.25V10V9.8H139.75V10ZM140.75 10V10.2H141.25V10V9.8H140.75V10ZM141.75 10V10.2H142.25V10V9.8H141.75V10ZM142.75 10V10.2H143.25V10V9.8H142.75V10ZM143.75 10V10.2H144.25V10V9.8H143.75V10ZM144.75 10V10.2H145.25V10V9.8H144.75V10ZM145.75 10V10.2H146.25V10V9.8H145.75V10ZM146.75 10V10.2H147.25V10V9.8H146.75V10ZM147.75 10V10.2H148.25V10V9.8H147.75V10ZM148.75 10V10.2H149.25V10V9.8H148.75V10ZM149.75 10V10.2H150.25V10V9.8H149.75V10ZM150.75 10V10.2H151.25V10V9.8H150.75V10ZM151.75 10V10.2H152.25V10V9.8H151.75V10ZM152.75 10V10.2H153.25V10V9.8H152.75V10ZM153.75 10V10.2H154.25V10V9.8H153.75V10ZM154.75 10V10.2H155.25V10V9.8H154.75V10ZM155.75 10V10.2H156.25V10V9.8H155.75V10ZM156.75 10V10.2H157.25V10V9.8H156.75V10ZM157.75 10V10.2H158.25V10V9.8H157.75V10ZM158.75 10V10.2H159.25V10V9.8H158.75V10ZM159.75 10V10.2H160.25V10V9.8H159.75V10ZM160.75 10V10.2H161.25V10V9.8H160.75V10ZM161.75 10V10.2H162.25V10V9.8H161.75V10ZM162.75 10V10.2H163.25V10V9.8H162.75V10ZM163.75 10V10.2H164.25V10V9.8H163.75V10ZM164.75 10V10.2H165.25V10V9.8H164.75V10ZM165.75 10V10.2L166.25 10.2V10V9.8L165.75 9.8V10ZM166.75 10V10.2H167.25V10V9.8H166.75V10ZM167.75 10V10.2H168.25V10V9.8H167.75V10ZM168.75 10V10.2H169.25V10V9.8H168.75V10ZM169.75 10V10.2H170.25V10V9.8H169.75V10ZM170.75 10V10.2H171.25V10V9.8H170.75V10ZM171.75 10V10.2H172.25V10V9.8H171.75V10ZM172.75 10V10.2H173.25V10V9.8H172.75V10ZM173.75 10V10.2H174.25V10V9.8H173.75V10ZM174.75 10V10.2H175.25V10V9.8H174.75V10ZM175.75 10V10.2L176.25 10.2V10V9.8L175.75 9.8V10ZM176.75 10V10.2H177.25V10V9.8H176.75V10ZM177.75 10V10.2H178.25V10V9.8H177.75V10ZM178.75 10V10.2H179.25V10V9.8H178.75V10ZM179.75 10V10.2H180.25V10V9.8H179.75V10ZM180.75 10V10.2H181.25V10V9.8H180.75V10ZM181.75 10V10.2H182.25V10V9.8H181.75V10ZM182.75 10V10.2H183.25V10V9.8H182.75V10ZM183.75 10V10.2H184.25V10V9.8H183.75V10ZM184.75 10V10.2H185.25V10V9.8H184.75V10ZM185.75 10V10.2L186.25 10.2V10V9.8L185.75 9.8V10ZM186.75 10V10.2H187.25V10V9.8H186.75V10ZM187.75 10V10.2H188.25V10V9.8H187.75V10ZM188.75 10V10.2H189.25V10V9.8H188.75V10ZM189.75 10V10.2H190.25V10V9.8H189.75V10ZM190.75 10V10.2H191.25V10V9.8H190.75V10ZM191.75 10V10.2H192.25V10V9.8H191.75V10ZM192.75 10V10.2H193.25V10V9.8H192.75V10ZM193.75 10V10.2H194.25V10V9.8H193.75V10ZM194.75 10V10.2H195.25V10V9.8H194.75V10ZM195.75 10V10.2L196.25 10.2V10V9.8L195.75 9.8V10ZM196.75 10V10.2H197.25V10V9.8H196.75V10ZM197.75 10V10.2H198.25V10V9.8H197.75V10ZM198.75 10V10.2H199.25V10V9.8H198.75V10ZM199.75 10V10.2H200.25V10V9.8H199.75V10ZM200.75 10V10.2H201.25V10V9.8H200.75V10ZM201.75 10V10.2H202.25V10V9.8H201.75V10ZM202.75 10V10.2H203.25V10V9.8H202.75V10ZM203.75 10V10.2H204.25V10V9.8H203.75V10ZM204.75 10V10.2H205.25V10V9.8H204.75V10ZM205.75 10V10.2L206.25 10.2V10V9.8L205.75 9.8V10ZM206.75 10V10.2H207.25V10V9.8H206.75V10ZM207.75 10V10.2H208.25V10V9.8H207.75V10ZM208.75 10V10.2H209.25V10V9.8H208.75V10ZM209.75 10V10.2H210.25V10V9.8H209.75V10ZM210.75 10V10.2H211.25V10V9.8H210.75V10ZM211.75 10V10.2H212.25V10V9.8H211.75V10ZM212.75 10V10.2H213.25V10V9.8H212.75V10ZM213.75 10V10.2H214.25V10V9.8H213.75V10ZM214.75 10V10.2H215.25V10V9.8H214.75V10ZM215.75 10V10.2L216.25 10.2V10V9.8L215.75 9.8V10ZM216.75 10V10.2H217.25V10V9.8H216.75V10ZM217.75 10V10.2H218.25V10V9.8H217.75V10ZM218.75 10V10.2H219.25V10V9.8H218.75V10ZM219.75 10V10.2H220.25V10V9.8H219.75V10ZM220.75 10V10.2H221.25V10V9.8H220.75V10ZM221.75 10V10.2H222.25V10V9.8H221.75V10ZM222.75 10V10.2H223.25V10V9.8H222.75V10ZM223.75 10V10.2H224.25V10V9.8H223.75V10ZM224.75 10V10.2H225.25V10V9.8H224.75V10ZM225.75 10V10.2L226.25 10.2V10V9.8L225.75 9.8V10ZM226.75 10V10.2H227.25V10V9.8H226.75V10ZM227.75 10V10.2H228.25V10V9.8H227.75V10ZM228.75 10V10.2H229.25V10V9.8H228.75V10ZM229.75 10V10.2H230.25V10V9.8H229.75V10ZM230.75 10V10.2H231.25V10V9.8H230.75V10ZM231.75 10V10.2H232.25V10V9.8H231.75V10ZM232.75 10V10.2H233.25V10V9.8H232.75V10ZM233.75 10V10.2H234.25V10V9.8H233.75V10ZM234.75 10V10.2H235.25V10V9.8H234.75V10ZM235.75 10V10.2L236.25 10.2V10V9.8L235.75 9.8V10ZM236.75 10V10.2H237.25V10V9.8H236.75V10ZM237.75 10V10.2H238.25V10V9.8H237.75V10ZM238.75 10V10.2H239.25V10V9.8H238.75V10ZM239.75 10V10.2H240.25V10V9.8H239.75V10ZM240.75 10V10.2H241.25V10V9.8H240.75V10ZM241.75 10V10.2H242.25V10V9.8H241.75V10ZM242.75 10V10.2H243.25V10V9.8H242.75V10ZM243.75 10V10.2H244.25V10V9.8H243.75V10ZM244.75 10V10.2H245.25V10V9.8H244.75V10ZM245.75 10V10.2L246.25 10.2V10V9.8L245.75 9.8V10ZM246.75 10V10.2H247.25V10V9.8H246.75V10ZM247.75 10V10.2H248.25V10V9.8H247.75V10ZM248.75 10V10.2H249.25V10V9.8H248.75V10ZM249.75 10V10.2H250.25V10V9.8H249.75V10ZM250.75 10V10.2H251.25V10V9.8H250.75V10ZM251.75 10V10.2H252.25V10V9.8H251.75V10ZM252.75 10V10.2H253.25V10V9.8H252.75V10ZM253.75 10V10.2H254.25V10V9.8H253.75V10ZM254.75 10V10.2H255.25V10V9.8H254.75V10ZM255.75 10V10.2L256.25 10.2V10V9.8L255.75 9.8V10ZM256.75 10V10.2H257.25V10V9.8H256.75V10ZM257.75 10V10.2H258.25V10V9.8H257.75V10ZM258.75 10V10.2H259.25V10V9.8H258.75V10ZM259.75 10V10.2H260.25V10V9.8H259.75V10ZM260.75 10V10.2H261.25V10V9.8H260.75V10ZM261.75 10V10.2H262.25V10V9.8H261.75V10ZM262.75 10V10.2H263.25V10V9.8H262.75V10ZM263.75 10V10.2H264.25V10V9.8H263.75V10ZM264.75 10V10.2H265.25V10V9.8H264.75V10ZM265.75 10V10.2L266.25 10.2V10V9.8L265.75 9.8V10ZM266.75 10V10.2H267.25V10V9.8H266.75V10ZM267.75 10V10.2H268.25V10V9.8H267.75V10ZM268.75 10V10.2H269.25V10V9.8H268.75V10ZM269.75 10V10.2H270.25V10V9.8H269.75V10ZM270.75 10V10.2H271.25V10V9.8H270.75V10ZM271.75 10V10.2H272.25V10V9.8H271.75V10ZM272.75 10V10.2H273.25V10V9.8H272.75V10ZM273.75 10V10.2H274.25V10V9.8H273.75V10ZM274.75 10V10.2H275.25V10V9.8H274.75V10ZM275.75 10V10.2H276.25V10V9.8H275.75V10ZM276.75 10V10.2H277.25V10V9.8H276.75V10ZM277.75 10V10.2H278.25V10V9.8H277.75V10ZM278.75 10V10.2H279.25V10V9.8H278.75V10ZM279.75 10V10.2H280.25V10V9.8H279.75V10ZM280.75 10V10.2H281.25V10V9.8H280.75V10ZM281.75 10V10.2H282.25V10V9.8H281.75V10ZM282.75 10V10.2H283.25V10V9.8H282.75V10ZM283.75 10V10.2H284.25V10V9.8H283.75V10ZM284.75 10V10.2H285.25V10V9.8H284.75V10ZM285.75 10V10.2H286.25V10V9.8H285.75V10ZM286.75 10V10.2H287.25V10V9.8H286.75V10ZM287.75 10V10.2H288.25V10V9.8H287.75V10ZM288.75 10V10.2H289.25V10V9.8H288.75V10ZM289.75 10V10.2H290.25V10V9.8H289.75V10ZM290.75 10V10.2H291.25V10V9.8H290.75V10ZM291.75 10V10.2H292.25V10V9.8H291.75V10ZM292.75 10V10.2H293.25V10V9.8H292.75V10ZM293.75 10V10.2H294.25V10V9.8H293.75V10ZM294.75 10V10.2H295.25V10V9.8H294.75V10ZM295.75 10V10.2H296.25V10V9.8H295.75V10ZM296.75 10V10.2H297.25V10V9.8H296.75V10ZM297.75 10V10.2H298.25V10V9.8H297.75V10ZM298.75 10V10.2H299.25V10V9.8H298.75V10ZM299.75 10V10.2H300.25V10V9.8H299.75V10ZM300.75 10V10.2H301.25V10V9.8H300.75V10ZM301.75 10V10.2H302.25V10V9.8H301.75V10ZM302.75 10V10.2H303.25V10V9.8H302.75V10ZM303.75 10V10.2H304.25V10V9.8H303.75V10ZM304.75 10V10.2H305.25V10V9.8H304.75V10ZM305.75 10V10.2H306.25V10V9.8H305.75V10ZM306.75 10V10.2H307.25V10V9.8H306.75V10ZM307.75 10V10.2H308.25V10V9.8H307.75V10ZM308.75 10V10.2H309.25V10V9.8H308.75V10ZM309.75 10V10.2H310.25V10V9.8H309.75V10ZM310.75 10V10.2H311.25V10V9.8H310.75V10ZM311.75 10V10.2H312.25V10V9.8H311.75V10ZM312.75 10V10.2H313.25V10V9.8H312.75V10ZM313.75 10V10.2H314.25V10V9.8H313.75V10ZM314.75 10V10.2H315.25V10V9.8H314.75V10ZM315.75 10V10.2H316.25V10V9.8H315.75V10ZM316.75 10V10.2H317.25V10V9.8H316.75V10ZM317.75 10V10.2H318.25V10V9.8H317.75V10ZM318.75 10V10.2H319.25V10V9.8H318.75V10ZM319.75 10V10.2H320.25V10V9.8H319.75V10ZM320.75 10V10.2H321.25V10V9.8H320.75V10ZM321.75 10V10.2H322.25V10V9.8H321.75V10ZM322.75 10V10.2H323.25V10V9.8H322.75V10ZM323.75 10V10.2H324.25V10V9.8H323.75V10ZM324.75 10V10.2H325.25V10V9.8H324.75V10ZM325.75 10V10.2H326.25V10V9.8H325.75V10ZM326.75 10V10.2H327.25V10V9.8H326.75V10ZM327.75 10V10.2H328.25V10V9.8H327.75V10ZM328.75 10V10.2H329.25V10V9.8H328.75V10ZM329.75 10V10.2H330.25V10V9.8H329.75V10ZM330.75 10V10.2H331.25V10V9.8H330.75V10ZM331.75 10V10.2H332.25V10V9.8H331.75V10ZM332.75 10V10.2H333.25V10V9.8H332.75V10ZM333.75 10V10.2H334.25V10V9.8H333.75V10ZM334.75 10V10.2H335.25V10V9.8H334.75V10ZM335.75 10V10.2H336.25V10V9.8H335.75V10ZM336.75 10V10.2H337.25V10V9.8H336.75V10ZM337.75 10V10.2H338.25V10V9.8H337.75V10ZM338.75 10V10.2H339.25V10V9.8H338.75V10ZM339.75 10V10.2H340.25V10V9.8H339.75V10ZM340.75 10V10.2H341.25V10V9.8H340.75V10ZM341.75 10V10.2H342.25V10V9.8H341.75V10ZM342.75 10V10.2H343.25V10V9.8H342.75V10ZM343.75 10V10.2H344.25V10V9.8H343.75V10ZM344.75 10V10.2H345.25V10V9.8H344.75V10ZM345.75 10V10.2H346.25V10V9.8H345.75V10ZM346.75 10V10.2H347.25V10V9.8H346.75V10ZM347.75 10V10.2H348.25V10V9.8H347.75V10ZM348.75 10V10.2H349.25V10V9.8H348.75V10ZM349.75 10V10.2H350.25V10V9.8H349.75V10ZM350.75 10V10.2H351.25V10V9.8H350.75V10ZM351.75 10V10.2H352.25V10V9.8H351.75V10ZM352.75 10V10.2H353.25V10V9.8H352.75V10ZM353.75 10V10.2H354.25V10V9.8H353.75V10ZM354.75 10V10.2H355.25V10V9.8H354.75V10ZM355.75 10V10.2H356.25V10V9.8H355.75V10ZM356.75 10V10.2H357.25V10V9.8H356.75V10ZM357.75 10V10.2H358.25V10V9.8H357.75V10ZM358.75 10V10.2H359.25V10V9.8H358.75V10ZM359.75 10V10.2H360.25V10V9.8H359.75V10ZM360.75 10V10.2H361.25V10V9.8H360.75V10ZM361.75 10V10.2H362.25V10V9.8H361.75V10ZM362.75 10V10.2H363.25V10V9.8H362.75V10ZM363.75 10V10.2H364V10V9.8H363.75V10Z" fill="#999999" mask="url(#path-1-inside-1_121_12702)"/>
</svg>
