<svg width="6" height="5" viewBox="0 0 6 5" fill="none" xmlns="http://www.w3.org/2000/svg">
<mask id="path-1-inside-1_121_12668" fill="white">
<path d="M0 0H6V5H0V0Z"/>
</mask>
<path d="M0 5V5.1H0.25V5V4.9H0V5ZM0.75 5V5.1H1.25V5V4.9H0.75V5ZM1.75 5V5.1H2.25V5V4.9H1.75V5ZM2.75 5V5.1H3.25V5V4.9H2.75V5ZM3.75 5V5.1H4.25V5V4.9H3.75V5ZM4.75 5V5.1H5.25V5V4.9H4.75V5ZM5.75 5V5.1H6V5V4.9H5.75V5ZM0 5V5.2H0.25V5V4.8H0V5ZM0.75 5V5.2H1.25V5V4.8H0.75V5ZM1.75 5V5.2H2.25V5V4.8H1.75V5ZM2.75 5V5.2H3.25V5V4.8H2.75V5ZM3.75 5V5.2H4.25V5V4.8H3.75V5ZM4.75 5V5.2H5.25V5V4.8H4.75V5ZM5.75 5V5.2H6V5V4.8H5.75V5Z" fill="#999999" mask="url(#path-1-inside-1_121_12668)"/>
</svg>
