<svg width="29" height="34" viewBox="0 0 29 34" fill="none" xmlns="http://www.w3.org/2000/svg">
<rect width="28.14" height="33.9621" fill="white"/>
<path d="M21.26 0L21 0.33C20.5686 0.867612 20.0306 1.31021 19.42 1.63C17.9461 0.997647 16.3717 0.631973 14.77 0.55C14.687 0.367648 14.5354 0.225423 14.3482 0.154261C14.1609 0.083099 13.9531 0.0887554 13.77 0.17C13.6023 0.247655 13.4677 0.38232 13.39 0.55C11.7815 0.62962 10.2001 0.995341 8.72 1.63C8.10935 1.31021 7.57143 0.867612 7.14 0.33L6.88 0H0V28.14H6.88L7.14 27.81C7.56779 27.2688 8.10654 26.8255 8.72 26.51C10.1917 27.1503 11.767 27.5196 13.37 27.6C13.4603 27.7753 13.6137 27.9099 13.7992 27.9767C13.9847 28.0435 14.1887 28.0375 14.37 27.96C14.5247 27.8807 14.6507 27.7547 14.73 27.6C16.333 27.5196 17.9083 27.1503 19.38 26.51C20.0079 26.8207 20.5607 27.2643 21 27.81L21.26 28.14H28.14V0H21.26ZM13.43 1.27C13.497 1.37965 13.591 1.47025 13.7031 1.5331C13.8152 1.59596 13.9415 1.62898 14.07 1.62898C14.1985 1.62898 14.3248 1.59596 14.4369 1.5331C14.549 1.47025 14.643 1.37965 14.71 1.27C15.9631 1.3269 17.2005 1.57302 18.38 2C18.0136 2.09139 17.6376 2.1384 17.26 2.14H10.88C10.5024 2.1384 10.1264 2.09139 9.76 2C10.9397 1.57346 12.1769 1.32736 13.43 1.27V1.27ZM14.71 26.87C14.6409 26.7614 14.5467 26.6711 14.4353 26.6066C14.3239 26.5422 14.1986 26.5056 14.07 26.5C13.9402 26.5002 13.8128 26.5344 13.7005 26.5994C13.5882 26.6643 13.4949 26.7576 13.43 26.87C12.1775 26.8078 10.941 26.5618 9.76 26.14C10.1254 26.0435 10.5021 25.9964 10.88 26H17.26C17.6376 26.0016 18.0136 26.0486 18.38 26.14C17.199 26.5618 15.9625 26.8078 14.71 26.87V26.87ZM26.39 22.14C26.39 26.36 23.25 26.39 23.25 26.39H22.09C21.4814 25.7114 20.7368 25.1684 19.9047 24.7963C19.0726 24.4242 18.1715 24.2312 17.26 24.23H10.88C9.96847 24.2312 9.06739 24.4242 8.23528 24.7963C7.40316 25.1684 6.65862 25.7114 6.05 26.39H4.89C4.89 26.39 1.75 26.39 1.75 22.14V6C1.75 1.78 4.89 1.75 4.89 1.75H6.05C6.65862 2.42858 7.40316 2.97156 8.23528 3.34369C9.06739 3.71581 9.96847 3.90876 10.88 3.91H17.26C18.1715 3.90876 19.0726 3.71581 19.9047 3.34369C20.7368 2.97156 21.4814 2.42858 22.09 1.75H23.25C23.25 1.75 26.39 1.75 26.39 6V22.14Z" fill="#231F20"/>
<path d="M26.39 6V22.14C26.39 26.36 23.25 26.39 23.25 26.39H22.09C21.4814 25.7114 20.7368 25.1684 19.9047 24.7963C19.0726 24.4242 18.1715 24.2312 17.26 24.23H10.88C9.96847 24.2312 9.06739 24.4242 8.23528 24.7963C7.40316 25.1684 6.65862 25.7114 6.05 26.39H4.89C4.89 26.39 1.75 26.39 1.75 22.14V6C1.75 1.78 4.89 1.75 4.89 1.75H6.05C6.65862 2.42858 7.40316 2.97156 8.23528 3.34369C9.06739 3.71581 9.96847 3.90876 10.88 3.91H17.26C18.1715 3.90876 19.0726 3.71581 19.9047 3.34369C20.7368 2.97156 21.4814 2.42858 22.09 1.75H23.25C23.25 1.75 26.39 1.75 26.39 6Z" fill="white"/>
<path d="M24.3847 24.4848C24.2466 24.6145 24.0819 24.7174 23.9003 24.7877C23.7187 24.858 23.5238 24.8942 23.327 24.8942C23.1301 24.8942 22.9352 24.858 22.7536 24.7877C22.572 24.7174 22.4073 24.6145 22.2692 24.4848C22.0845 24.3161 21.951 24.1056 21.8819 23.8743C21.8129 23.643 21.8107 23.399 21.8757 23.1667H6.29701C6.39583 23.4673 6.38056 23.7901 6.25372 24.0816C6.12688 24.3731 5.89609 24.6159 5.59955 24.7697C5.30301 24.9235 4.95852 24.9791 4.62311 24.9273C4.28771 24.8755 3.98151 24.7194 3.75523 24.4848L0.409912 27.0909V29.6742L3.75523 32.2803C3.98573 32.0626 4.28778 31.9215 4.6142 31.8791C4.94062 31.8367 5.27305 31.8953 5.5596 32.0459C5.84615 32.1964 6.07068 32.4304 6.19815 32.7113C6.32562 32.9922 6.34885 33.3041 6.26421 33.5985H21.8429C21.7654 33.3056 21.7934 32.9974 21.9226 32.7205C22.0518 32.4437 22.2751 32.2133 22.5588 32.0642C22.8424 31.9152 23.1709 31.8557 23.4945 31.8947C23.8181 31.9337 24.1191 32.069 24.3519 32.2803L27.6972 29.6742V27.0909L24.3847 24.4848Z" fill="white"/>
<path d="M6.71523 33.2197H21.4248C21.4309 32.7674 21.628 32.3351 21.9741 32.0151C22.2902 31.733 22.6997 31.5572 23.1368 31.516C23.574 31.4748 24.0135 31.5705 24.3847 31.7879L27.3201 29.5151V27.2727L24.3847 25C24.0145 25.22 23.5743 25.3173 23.1364 25.276C22.6985 25.2347 22.2887 25.0573 21.9741 24.7727C21.7998 24.6115 21.6616 24.4202 21.5673 24.2096C21.4731 23.999 21.4246 23.7733 21.4248 23.5454H6.72343C6.71424 23.9987 6.51424 24.4308 6.16587 24.75C5.8519 25.0327 5.44367 25.209 5.00753 25.2503C4.57138 25.2916 4.13295 25.1953 3.76348 24.9773L0.81993 27.2727V29.5L3.76348 31.7727C4.13342 31.556 4.57153 31.4605 5.0073 31.5018C5.44307 31.543 5.85115 31.7185 6.16587 32C6.5127 32.3195 6.70996 32.752 6.71523 33.2045M22.4087 33.9621H5.73951L5.8625 33.4924C5.91123 33.3247 5.9111 33.1481 5.86215 32.9805C5.81319 32.8128 5.71714 32.6602 5.58372 32.5379C5.37719 32.3527 5.10074 32.2492 4.81299 32.2492C4.52524 32.2492 4.24879 32.3527 4.04226 32.5379L3.77988 32.7803L0 29.8485V26.9167L3.77988 23.9697L4.04226 24.2197C4.25072 24.4014 4.52644 24.5025 4.81299 24.5025C5.09954 24.5025 5.37526 24.4014 5.58372 24.2197C5.71713 24.0958 5.81306 23.9418 5.86198 23.773C5.91089 23.6042 5.91107 23.4265 5.8625 23.2576L5.73951 22.7879H22.4087L22.2775 23.2576C22.2289 23.4265 22.2291 23.6042 22.278 23.773C22.3269 23.9418 22.4229 24.0958 22.5563 24.2197C22.7647 24.4014 23.0405 24.5025 23.327 24.5025C23.6136 24.5025 23.8893 24.4014 24.0977 24.2197L24.3683 23.9697L28.14 26.9167V29.8485L24.3683 32.7954L24.0977 32.553C23.8912 32.3679 23.6148 32.2644 23.327 32.2644C23.0393 32.2644 22.7628 32.3679 22.5563 32.553C22.4229 32.6753 22.3268 32.828 22.2779 32.9956C22.2289 33.1633 22.2288 33.3399 22.2775 33.5076L22.4087 33.9621Z" fill="#231F20"/>
<path d="M8.35884 27.0909V30H8.00657V27.0909H8.35884ZM9.35494 28.6875V30H9.01971V27.8182H9.34357V28.1591H9.37198C9.42312 28.0483 9.50077 27.9593 9.60494 27.892C9.7091 27.8239 9.84357 27.7898 10.0083 27.7898C10.1561 27.7898 10.2853 27.8201 10.3961 27.8807C10.5069 27.9403 10.5931 28.0312 10.6547 28.1534C10.7162 28.2746 10.747 28.428 10.747 28.6136V30H10.4118V28.6364C10.4118 28.465 10.3672 28.3314 10.2782 28.2358C10.1892 28.1392 10.0671 28.0909 9.91175 28.0909C9.80475 28.0909 9.7091 28.1141 9.62482 28.1605C9.54149 28.2069 9.47567 28.2746 9.42738 28.3636C9.37908 28.4527 9.35494 28.5606 9.35494 28.6875ZM12.905 28.3068L12.6039 28.392C12.5849 28.3419 12.557 28.2931 12.5201 28.2457C12.4841 28.1974 12.4348 28.1577 12.3723 28.1264C12.3098 28.0952 12.2298 28.0795 12.1323 28.0795C11.9988 28.0795 11.8875 28.1103 11.7985 28.1719C11.7104 28.2325 11.6664 28.3097 11.6664 28.4034C11.6664 28.4867 11.6967 28.5526 11.7573 28.6009C11.8179 28.6491 11.9126 28.6894 12.0414 28.7216L12.3652 28.8011C12.5603 28.8485 12.7057 28.9209 12.8013 29.0185C12.897 29.1151 12.9448 29.2396 12.9448 29.392C12.9448 29.517 12.9088 29.6288 12.8368 29.7273C12.7658 29.8258 12.6664 29.9034 12.5385 29.9602C12.4107 30.017 12.262 30.0455 12.0925 30.0455C11.87 30.0455 11.6858 29.9972 11.54 29.9006C11.3941 29.804 11.3018 29.6629 11.263 29.4773L11.5811 29.3977C11.6114 29.5152 11.6687 29.6032 11.753 29.6619C11.8382 29.7206 11.9495 29.75 12.0868 29.75C12.2431 29.75 12.3671 29.7169 12.459 29.6506C12.5518 29.5833 12.5982 29.5028 12.5982 29.4091C12.5982 29.3333 12.5717 29.2699 12.5186 29.2188C12.4656 29.1667 12.3842 29.1278 12.2743 29.1023L11.9107 29.017C11.7109 28.9697 11.5641 28.8963 11.4703 28.7969C11.3775 28.6965 11.3311 28.571 11.3311 28.4205C11.3311 28.2973 11.3657 28.1884 11.4348 28.0938C11.5049 27.9991 11.6001 27.9247 11.7203 27.8707C11.8416 27.8168 11.9789 27.7898 12.1323 27.7898C12.3482 27.7898 12.5177 27.8371 12.6408 27.9318C12.7649 28.0265 12.8529 28.1515 12.905 28.3068ZM13.4494 30V27.8182H13.7846V30H13.4494ZM13.6199 27.4545C13.5545 27.4545 13.4982 27.4323 13.4508 27.3878C13.4044 27.3433 13.3812 27.2898 13.3812 27.2273C13.3812 27.1648 13.4044 27.1113 13.4508 27.0668C13.4982 27.0223 13.5545 27 13.6199 27C13.6852 27 13.7411 27.0223 13.7875 27.0668C13.8348 27.1113 13.8585 27.1648 13.8585 27.2273C13.8585 27.2898 13.8348 27.3433 13.7875 27.3878C13.7411 27.4323 13.6852 27.4545 13.6199 27.4545ZM15.2793 30.8636C15.1174 30.8636 14.9782 30.8428 14.8617 30.8011C14.7452 30.7604 14.6481 30.7064 14.5705 30.6392C14.4938 30.5729 14.4327 30.5019 14.3873 30.4261L14.6543 30.2386C14.6846 30.2784 14.723 30.3239 14.7694 30.375C14.8158 30.4271 14.8792 30.4721 14.9597 30.5099C15.0411 30.5488 15.1477 30.5682 15.2793 30.5682C15.4554 30.5682 15.6008 30.5256 15.7154 30.4403C15.83 30.3551 15.8873 30.2216 15.8873 30.0398V29.5966H15.8588C15.8342 29.6364 15.7992 29.6856 15.7537 29.7443C15.7092 29.8021 15.6448 29.8537 15.5605 29.8991C15.4772 29.9437 15.3645 29.9659 15.2225 29.9659C15.0463 29.9659 14.8882 29.9242 14.748 29.8409C14.6088 29.7576 14.4985 29.6364 14.4171 29.4773C14.3366 29.3182 14.2963 29.125 14.2963 28.8977C14.2963 28.6742 14.3356 28.4796 14.4142 28.3139C14.4928 28.1473 14.6022 28.0185 14.7424 27.9276C14.8825 27.8357 15.0444 27.7898 15.2282 27.7898C15.3702 27.7898 15.4829 27.8134 15.5662 27.8608C15.6505 27.9072 15.7149 27.9602 15.7594 28.0199C15.8049 28.0786 15.8399 28.1269 15.8645 28.1648H15.8986V27.8182H16.2225V30.0625C16.2225 30.25 16.1799 30.4025 16.0946 30.5199C16.0104 30.6383 15.8967 30.7249 15.7537 30.7798C15.6117 30.8357 15.4535 30.8636 15.2793 30.8636ZM15.2679 29.6648C15.4024 29.6648 15.516 29.634 15.6088 29.5724C15.7016 29.5109 15.7722 29.4223 15.8205 29.3068C15.8688 29.1913 15.8929 29.053 15.8929 28.892C15.8929 28.7348 15.8693 28.5961 15.8219 28.4759C15.7746 28.3556 15.7045 28.2614 15.6117 28.1932C15.5189 28.125 15.4043 28.0909 15.2679 28.0909C15.1259 28.0909 15.0075 28.1269 14.9128 28.1989C14.8191 28.2708 14.7485 28.3674 14.7012 28.4886C14.6548 28.6098 14.6316 28.7443 14.6316 28.892C14.6316 29.0436 14.6552 29.1776 14.7026 29.294C14.7509 29.4096 14.8219 29.5005 14.9157 29.5668C15.0104 29.6321 15.1278 29.6648 15.2679 29.6648ZM17.1713 28.6875V30H16.8361V27.0909H17.1713V28.1591H17.1998C17.2509 28.0464 17.3276 27.9569 17.4299 27.8906C17.5331 27.8234 17.6704 27.7898 17.8418 27.7898C17.9905 27.7898 18.1207 27.8196 18.2324 27.8793C18.3442 27.938 18.4308 28.0284 18.4924 28.1506C18.5549 28.2718 18.5861 28.4261 18.5861 28.6136V30H18.2509V28.6364C18.2509 28.4631 18.2059 28.3291 18.1159 28.2344C18.0269 28.1387 17.9033 28.0909 17.7452 28.0909C17.6354 28.0909 17.5369 28.1141 17.4498 28.1605C17.3636 28.2069 17.2954 28.2746 17.2452 28.3636C17.196 28.4527 17.1713 28.5606 17.1713 28.6875ZM20.1483 27.8182V28.1023H19.0176V27.8182H20.1483ZM19.3471 27.2955H19.6824V29.375C19.6824 29.4697 19.6961 29.5407 19.7235 29.5881C19.752 29.6345 19.7879 29.6657 19.8315 29.6818C19.876 29.697 19.9229 29.7045 19.9721 29.7045C20.0091 29.7045 20.0394 29.7027 20.063 29.6989C20.0867 29.6941 20.1056 29.6903 20.1199 29.6875L20.188 29.9886C20.1653 29.9972 20.1336 30.0057 20.0929 30.0142C20.0521 30.0237 20.0005 30.0284 19.938 30.0284C19.8433 30.0284 19.7505 30.008 19.6596 29.9673C19.5697 29.9266 19.4949 29.8646 19.4352 29.7812C19.3765 29.6979 19.3471 29.5928 19.3471 29.4659V27.2955Z" fill="#231F20"/>
</svg>
