<svg width="66" height="43" viewBox="0 0 66 43" fill="none" xmlns="http://www.w3.org/2000/svg">
<path d="M64.5065 4.47445V38.5517L61.0402 42.215H4.20066L0.726074 38.5517V4.47445L4.20066 0.802444H61.0402L64.5065 4.47445Z" fill="white"/>
<path d="M60.6112 41.8661H58.3829C60.0935 41.0902 61.5492 39.7976 62.5672 38.1505V38.1505V38.0895C63.1932 37.068 63.6925 35.9658 64.0528 34.8099V38.1941L60.6112 41.8661ZM1.13894 38.1505V34.7663C1.49276 35.9234 1.98948 37.0261 2.61625 38.0458V38.1069H2.65752C3.66712 39.7722 5.1241 41.0812 6.84187 41.8661H4.60527L1.13894 38.1505ZM4.60527 1.20365H6.84187C5.12866 1.97092 3.67153 3.26179 2.65752 4.91055H2.61625V4.9716C1.98948 5.99135 1.49276 7.09404 1.13894 8.25112V4.86694L4.60527 1.20365ZM62.6002 5.96592C62.7406 6.22759 62.8809 6.47181 63.0129 6.75091C63.4917 7.85014 63.8516 9.00293 64.0858 10.1874V32.7864C63.7978 34.2739 63.2969 35.7062 62.6002 37.0341V5.96592ZM1.13894 10.231C1.42737 8.74497 1.92536 7.31311 2.61625 5.98337V37.0515C2.4842 36.7899 2.33565 36.5456 2.21185 36.2665C1.72454 35.1709 1.36429 34.017 1.13894 32.83V10.231ZM56.7818 41.8661H8.41823C6.31495 41.3377 4.4697 40.0087 3.23524 38.1331V4.98905C4.47451 3.10336 6.32905 1.76776 8.44299 1.23854H56.7983C58.899 1.74667 60.7462 3.06156 61.9813 4.92799V38.072C60.7496 39.9705 58.8981 41.3216 56.7818 41.8661M64.0858 4.86694V8.25112C63.7255 7.09526 63.2262 5.99307 62.6002 4.9716V4.91055C61.584 3.26391 60.1275 1.97365 58.4159 1.20365H60.6443L64.0858 4.86694ZM61.0734 0H4.12658L0 4.36105V38.6389L4.12658 43H61.0734L65.2 38.6389V4.36105L61.0734 0Z" fill="#231F20"/>
</svg>
