<svg width="66" height="48" viewBox="0 0 66 48" fill="none" xmlns="http://www.w3.org/2000/svg">
<path d="M60.6112 41.8661H58.3829C60.0935 41.0902 61.5492 39.7976 62.5672 38.1505V38.1505V38.0895C63.1932 37.068 63.6925 35.9658 64.0528 34.8099V38.1941L60.6112 41.8661ZM1.13894 38.1505V34.7663C1.49276 35.9234 1.98948 37.0261 2.61625 38.0458V38.1069H2.65752C3.66712 39.7722 5.1241 41.0812 6.84187 41.8661H4.60527L1.13894 38.1505ZM4.60527 1.20365H6.84187C5.12866 1.97092 3.67153 3.26179 2.65752 4.91055H2.61625V4.9716C1.98948 5.99135 1.49276 7.09404 1.13894 8.25112V4.86694L4.60527 1.20365ZM62.6002 5.96592C62.7406 6.22759 62.8809 6.47181 63.0129 6.75091C63.4917 7.85014 63.8516 9.00293 64.0858 10.1874V32.7864C63.7978 34.2739 63.2969 35.7062 62.6002 37.0341V5.96592ZM1.13894 10.231C1.42737 8.74497 1.92536 7.31311 2.61625 5.98337V37.0515C2.4842 36.7899 2.33565 36.5456 2.21185 36.2665C1.72454 35.1709 1.36429 34.017 1.13894 32.83V10.231ZM56.7818 41.8661H8.41823C6.31495 41.3377 4.4697 40.0087 3.23524 38.1331V4.98905C4.47451 3.10336 6.32905 1.76776 8.44299 1.23854H56.7983C58.899 1.74667 60.7462 3.06156 61.9813 4.92799V38.072C60.7496 39.9705 58.8981 41.3216 56.7818 41.8661M64.0858 4.86694V8.25112C63.7255 7.09526 63.2262 5.99307 62.6002 4.9716V4.91055C61.584 3.26391 60.1275 1.97365 58.4159 1.20365H60.6443L64.0858 4.86694ZM61.0734 0H4.12658L0 4.36105V38.6389L4.12658 43H61.0734L65.2 38.6389V4.36105L61.0734 0Z" fill="#231F20"/>
<path d="M43.1031 38.6705C42.9678 38.7981 42.8066 38.8995 42.6287 38.9686C42.4508 39.0378 42.2599 39.0735 42.0671 39.0735C41.8742 39.0735 41.6833 39.0378 41.5054 38.9686C41.3276 38.8995 41.1663 38.7981 41.031 38.6705C40.8501 38.5044 40.7193 38.2972 40.6516 38.0695C40.584 37.8418 40.5819 37.6016 40.6455 37.3728H25.3861C25.4829 37.6688 25.4679 37.9866 25.3437 38.2735C25.2194 38.5605 24.9934 38.7995 24.7029 38.9509C24.4125 39.1023 24.075 39.157 23.7465 39.106C23.418 39.055 23.118 38.9014 22.8964 38.6705L19.6196 41.2359V43.779L22.8964 46.3444C23.1222 46.1301 23.418 45.9912 23.7378 45.9494C24.0575 45.9077 24.3831 45.9654 24.6638 46.1136C24.9445 46.2618 25.1644 46.4922 25.2893 46.7686C25.4141 47.0451 25.4369 47.3522 25.354 47.642H40.6134C40.5375 47.3537 40.5649 47.0503 40.6915 46.7777C40.818 46.5052 41.0368 46.2784 41.3146 46.1317C41.5925 45.985 41.9142 45.9264 42.2312 45.9648C42.5481 46.0031 42.8429 46.1364 43.071 46.3444L46.3477 43.779V41.2359L43.1031 38.6705Z" fill="white"/>
<path d="M25.7959 47.2691H40.204C40.21 46.8238 40.4031 46.3984 40.7421 46.0834C41.0517 45.8056 41.4528 45.6326 41.881 45.592C42.3092 45.5514 42.7397 45.6457 43.1033 45.8596L45.9785 43.6223V41.4149L43.1033 39.1776C42.7406 39.3942 42.3095 39.49 41.8805 39.4493C41.4516 39.4087 41.0502 39.234 40.7421 38.9539C40.5714 38.7952 40.4359 38.6068 40.3436 38.3995C40.2513 38.1922 40.2038 37.9701 40.204 37.7457H25.8039C25.7949 38.1919 25.599 38.6173 25.2578 38.9315C24.9502 39.2098 24.5504 39.3834 24.1232 39.424C23.696 39.4646 23.2665 39.3699 22.9046 39.1552L20.0214 41.4149V43.6074L22.9046 45.8447C23.267 45.6313 23.6961 45.5374 24.1229 45.578C24.5498 45.6186 24.9495 45.7913 25.2578 46.0684C25.5975 46.383 25.7907 46.8088 25.7959 47.2542M41.1678 48H24.8402L24.9606 47.5376C25.0084 47.3725 25.0082 47.1987 24.9603 47.0336C24.9123 46.8686 24.8182 46.7183 24.6876 46.5979C24.4853 46.4157 24.2145 46.3138 23.9326 46.3138C23.6508 46.3138 23.38 46.4157 23.1777 46.5979L22.9207 46.8366L19.2183 43.9505V41.0644L22.9207 38.1634L23.1777 38.4095C23.3819 38.5883 23.6519 38.6879 23.9326 38.6879C24.2133 38.6879 24.4834 38.5883 24.6876 38.4095C24.8182 38.2875 24.9122 38.1359 24.9601 37.9697C25.008 37.8035 25.0082 37.6286 24.9606 37.4623L24.8402 37H41.1678L41.0393 37.4623C40.9917 37.6286 40.9919 37.8035 41.0398 37.9697C41.0877 38.1359 41.1816 38.2875 41.3123 38.4095C41.5165 38.5883 41.7866 38.6879 42.0673 38.6879C42.3479 38.6879 42.618 38.5883 42.8222 38.4095L43.0872 38.1634L46.7816 41.0644V43.9505L43.0872 46.8515L42.8222 46.6129C42.6199 46.4306 42.3491 46.3287 42.0673 46.3287C41.7854 46.3287 41.5146 46.4306 41.3123 46.6129C41.1816 46.7332 41.0876 46.8835 41.0396 47.0486C40.9916 47.2136 40.9915 47.3874 41.0393 47.5525L41.1678 48Z" fill="#231F20"/>
</svg>
