<svg width="66" height="48" viewBox="0 0 66 48" fill="none" xmlns="http://www.w3.org/2000/svg">
<path d="M60.6112 41.8661H58.3829C60.0935 41.0902 61.5492 39.7976 62.5672 38.1505V38.1505V38.0895C63.1932 37.068 63.6925 35.9658 64.0528 34.8099V38.1941L60.6112 41.8661ZM1.13894 38.1505V34.7663C1.49276 35.9234 1.98948 37.0261 2.61625 38.0458V38.1069H2.65752C3.66712 39.7722 5.1241 41.0812 6.84187 41.8661H4.60527L1.13894 38.1505ZM4.60527 1.20365H6.84187C5.12866 1.97092 3.67153 3.26179 2.65752 4.91055H2.61625V4.9716C1.98948 5.99135 1.49276 7.09404 1.13894 8.25112V4.86694L4.60527 1.20365ZM62.6002 5.96592C62.7406 6.22759 62.8809 6.47181 63.0129 6.75091C63.4917 7.85014 63.8516 9.00293 64.0858 10.1874V32.7864C63.7978 34.2739 63.2969 35.7062 62.6002 37.0341V5.96592ZM1.13894 10.231C1.42737 8.74497 1.92536 7.31311 2.61625 5.98337V37.0515C2.4842 36.7899 2.33565 36.5456 2.21185 36.2665C1.72454 35.1709 1.36429 34.017 1.13894 32.83V10.231ZM56.7818 41.8661H8.41823C6.31495 41.3377 4.4697 40.0087 3.23524 38.1331V4.98905C4.47451 3.10336 6.32905 1.76776 8.44299 1.23854H56.7983C58.899 1.74667 60.7462 3.06156 61.9813 4.92799V38.072C60.7496 39.9705 58.8981 41.3216 56.7818 41.8661M64.0858 4.86694V8.25112C63.7255 7.09526 63.2262 5.99307 62.6002 4.9716V4.91055C61.584 3.26391 60.1275 1.97365 58.4159 1.20365H60.6443L64.0858 4.86694ZM61.0734 0H4.12658L0 4.36105V38.6389L4.12658 43H61.0734L65.2 38.6389V4.36105L61.0734 0Z" fill="#231F20"/>
<path d="M43.1033 38.6705C42.9681 38.7981 42.8068 38.8995 42.6289 38.9686C42.4511 39.0378 42.2601 39.0735 42.0673 39.0735C41.8745 39.0735 41.6835 39.0378 41.5057 38.9686C41.3278 38.8995 41.1665 38.7981 41.0313 38.6705C40.8504 38.5044 40.7195 38.2972 40.6519 38.0695C40.5842 37.8418 40.5821 37.6016 40.6458 37.3728H25.3863C25.4831 37.6688 25.4682 37.9866 25.3439 38.2735C25.2197 38.5605 24.9936 38.7995 24.7032 38.9509C24.4127 39.1023 24.0753 39.157 23.7467 39.106C23.4182 39.055 23.1183 38.9014 22.8966 38.6705L19.6199 41.2359V43.779L22.8966 46.3444C23.1224 46.1301 23.4183 45.9912 23.738 45.9494C24.0577 45.9077 24.3834 45.9654 24.664 46.1136C24.9447 46.2618 25.1646 46.4922 25.2895 46.7686C25.4144 47.0451 25.4371 47.3522 25.3542 47.642H40.6136C40.5378 47.3537 40.5652 47.0503 40.6917 46.7777C40.8183 46.5052 41.037 46.2784 41.3149 46.1317C41.5927 45.985 41.9145 45.9264 42.2314 45.9648C42.5484 46.0031 42.8432 46.1364 43.0712 46.3444L46.348 43.779V41.2359L43.1033 38.6705Z" fill="white"/>
<path d="M25.7959 47.2691H40.204C40.21 46.8238 40.4031 46.3984 40.7421 46.0834C41.0517 45.8056 41.4528 45.6326 41.881 45.592C42.3092 45.5514 42.7397 45.6457 43.1033 45.8596L45.9785 43.6223V41.4149L43.1033 39.1776C42.7406 39.3942 42.3095 39.49 41.8805 39.4493C41.4516 39.4087 41.0502 39.234 40.7421 38.9539C40.5714 38.7952 40.4359 38.6068 40.3436 38.3995C40.2513 38.1922 40.2038 37.9701 40.204 37.7457H25.8039C25.7949 38.1919 25.599 38.6173 25.2578 38.9315C24.9502 39.2098 24.5504 39.3834 24.1232 39.424C23.696 39.4646 23.2665 39.3699 22.9046 39.1552L20.0214 41.4149V43.6074L22.9046 45.8447C23.267 45.6313 23.6961 45.5374 24.1229 45.578C24.5498 45.6186 24.9495 45.7913 25.2578 46.0684C25.5975 46.383 25.7907 46.8088 25.7959 47.2542M41.1678 48H24.8402L24.9606 47.5376C25.0084 47.3725 25.0082 47.1987 24.9603 47.0336C24.9123 46.8686 24.8182 46.7183 24.6876 46.5979C24.4853 46.4157 24.2145 46.3138 23.9326 46.3138C23.6508 46.3138 23.38 46.4157 23.1777 46.5979L22.9207 46.8366L19.2183 43.9505V41.0644L22.9207 38.1634L23.1777 38.4095C23.3819 38.5883 23.6519 38.6879 23.9326 38.6879C24.2133 38.6879 24.4834 38.5883 24.6876 38.4095C24.8182 38.2875 24.9122 38.1359 24.9601 37.9697C25.008 37.8035 25.0082 37.6286 24.9606 37.4623L24.8402 37H41.1678L41.0393 37.4623C40.9917 37.6286 40.9919 37.8035 41.0398 37.9697C41.0877 38.1359 41.1816 38.2875 41.3123 38.4095C41.5165 38.5883 41.7866 38.6879 42.0673 38.6879C42.3479 38.6879 42.618 38.5883 42.8222 38.4095L43.0872 38.1634L46.7816 41.0644V43.9505L43.0872 46.8515L42.8222 46.6129C42.6199 46.4306 42.3491 46.3287 42.0673 46.3287C41.7854 46.3287 41.5146 46.4306 41.3123 46.6129C41.1816 46.7332 41.0876 46.8835 41.0396 47.0486C40.9916 47.2136 40.9915 47.3874 41.0393 47.5525L41.1678 48Z" fill="#231F20"/>
<path d="M28.1619 41.4034V41.0909H30.3438V41.4034H29.429V44H29.0767V41.4034H28.1619ZM31.4119 44.0454C31.215 44.0454 31.0421 43.9985 30.8935 43.9048C30.7457 43.811 30.6302 43.6799 30.5469 43.5113C30.4645 43.3428 30.4233 43.1458 30.4233 42.9204C30.4233 42.6932 30.4645 42.4948 30.5469 42.3253C30.6302 42.1557 30.7457 42.0241 30.8935 41.9304C31.0421 41.8366 31.215 41.7897 31.4119 41.7897C31.6089 41.7897 31.7813 41.8366 31.929 41.9304C32.0777 42.0241 32.1932 42.1557 32.2756 42.3253C32.3589 42.4948 32.4006 42.6932 32.4006 42.9204C32.4006 43.1458 32.3589 43.3428 32.2756 43.5113C32.1932 43.6799 32.0777 43.811 31.929 43.9048C31.7813 43.9985 31.6089 44.0454 31.4119 44.0454ZM31.4119 43.7443C31.5616 43.7443 31.6847 43.7059 31.7812 43.6292C31.8778 43.5525 31.9493 43.4517 31.9957 43.3267C32.0421 43.2017 32.0653 43.0663 32.0653 42.9204C32.0653 42.7746 32.0421 42.6387 31.9957 42.5128C31.9493 42.3868 31.8778 42.285 31.7812 42.2074C31.6847 42.1297 31.5616 42.0909 31.4119 42.0909C31.2623 42.0909 31.1392 42.1297 31.0426 42.2074C30.946 42.285 30.8745 42.3868 30.8281 42.5128C30.7817 42.6387 30.7585 42.7746 30.7585 42.9204C30.7585 43.0663 30.7817 43.2017 30.8281 43.3267C30.8745 43.4517 30.946 43.5525 31.0426 43.6292C31.1392 43.7059 31.2623 43.7443 31.4119 43.7443ZM33.7987 44.0454C33.6017 44.0454 33.4289 43.9985 33.2802 43.9048C33.1325 43.811 33.0169 43.6799 32.9336 43.5113C32.8512 43.3428 32.81 43.1458 32.81 42.9204C32.81 42.6932 32.8512 42.4948 32.9336 42.3253C33.0169 42.1557 33.1325 42.0241 33.2802 41.9304C33.4289 41.8366 33.6017 41.7897 33.7987 41.7897C33.9956 41.7897 34.168 41.8366 34.3157 41.9304C34.4644 42.0241 34.5799 42.1557 34.6623 42.3253C34.7456 42.4948 34.7873 42.6932 34.7873 42.9204C34.7873 43.1458 34.7456 43.3428 34.6623 43.5113C34.5799 43.6799 34.4644 43.811 34.3157 43.9048C34.168 43.9985 33.9956 44.0454 33.7987 44.0454ZM33.7987 43.7443C33.9483 43.7443 34.0714 43.7059 34.168 43.6292C34.2646 43.5525 34.3361 43.4517 34.3825 43.3267C34.4289 43.2017 34.4521 43.0663 34.4521 42.9204C34.4521 42.7746 34.4289 42.6387 34.3825 42.5128C34.3361 42.3868 34.2646 42.285 34.168 42.2074C34.0714 42.1297 33.9483 42.0909 33.7987 42.0909C33.649 42.0909 33.5259 42.1297 33.4293 42.2074C33.3327 42.285 33.2612 42.3868 33.2148 42.5128C33.1684 42.6387 33.1452 42.7746 33.1452 42.9204C33.1452 43.0663 33.1684 43.2017 33.2148 43.3267C33.2612 43.4517 33.3327 43.5525 33.4293 43.6292C33.5259 43.7059 33.649 43.7443 33.7987 43.7443ZM35.6342 41.0909V44H35.299V41.0909H35.6342ZM37.7937 42.3068L37.4925 42.392C37.4736 42.3418 37.4457 42.2931 37.4087 42.2457C37.3728 42.1974 37.3235 42.1576 37.261 42.1264C37.1985 42.0951 37.1185 42.0795 37.021 42.0795C36.8874 42.0795 36.7762 42.1103 36.6871 42.1718C36.5991 42.2325 36.555 42.3096 36.555 42.4034C36.555 42.4867 36.5853 42.5525 36.646 42.6008C36.7066 42.6491 36.8013 42.6894 36.93 42.7216L37.2539 42.8011C37.449 42.8485 37.5943 42.9209 37.69 43.0184C37.7856 43.115 37.8335 43.2396 37.8335 43.392C37.8335 43.517 37.7975 43.6288 37.7255 43.7272C37.6545 43.8257 37.555 43.9034 37.4272 43.9602C37.2994 44.017 37.1507 44.0454 36.9812 44.0454C36.7586 44.0454 36.5745 43.9971 36.4286 43.9005C36.2828 43.8039 36.1905 43.6628 36.1516 43.4772L36.4698 43.3977C36.5001 43.5151 36.5574 43.6032 36.6417 43.6619C36.7269 43.7206 36.8382 43.75 36.9755 43.75C37.1317 43.75 37.2558 43.7168 37.3477 43.6505C37.4405 43.5833 37.4869 43.5028 37.4869 43.4091C37.4869 43.3333 37.4603 43.2699 37.4073 43.2187C37.3543 43.1666 37.2728 43.1278 37.163 43.1022L36.7994 43.017C36.5996 42.9697 36.4528 42.8963 36.359 42.7968C36.2662 42.6965 36.2198 42.571 36.2198 42.4204C36.2198 42.2973 36.2544 42.1884 36.3235 42.0937C36.3936 41.999 36.4888 41.9247 36.609 41.8707C36.7302 41.8167 36.8675 41.7897 37.021 41.7897C37.2369 41.7897 37.4064 41.8371 37.5295 41.9318C37.6535 42.0265 37.7416 42.1515 37.7937 42.3068Z" fill="#231F20"/>
<mask id="path-5-inside-1_120_10658" fill="white">
<path d="M3.25 1H62V11H3.25V1Z"/>
</mask>
<path d="M3.25 11V11.1H3.49894V11V10.9H3.25V11ZM3.99682 11V11.1H4.4947V11V10.9H3.99682V11ZM4.99258 11V11.1H5.49047V11V10.9H4.99258V11ZM5.98835 11V11.1H6.48623V11V10.9H5.98835V11ZM6.98411 11V11.1H7.48199V11V10.9H6.98411V11ZM7.97987 11V11.1H8.47775V11V10.9H7.97987V11ZM8.97564 11V11.1H9.47352V11V10.9H8.97564V11ZM9.9714 11V11.1H10.4693V11V10.9H9.9714V11ZM10.9672 11V11.1H11.465V11V10.9H10.9672V11ZM11.9629 11V11.1H12.4608V11V10.9H11.9629V11ZM12.9587 11V11.1H13.4566V11V10.9H12.9587V11ZM13.9544 11V11.1H14.4523V11V10.9H13.9544V11ZM14.9502 11V11.1H15.4481V11V10.9H14.9502V11ZM15.946 11V11.1H16.4439V11V10.9H15.946V11ZM16.9417 11V11.1H17.4396V11V10.9H16.9417V11ZM17.9375 11V11.1H18.4354V11V10.9H17.9375V11ZM18.9333 11V11.1H19.4311V11V10.9H18.9333V11ZM19.929 11V11.1H20.4269V11V10.9H19.929V11ZM20.9248 11V11.1H21.4227V11V10.9H20.9248V11ZM21.9205 11V11.1H22.4184V11V10.9H21.9205V11ZM22.9163 11V11.1H23.4142V11V10.9H22.9163V11ZM23.9121 11V11.1H24.4099V11V10.9H23.9121V11ZM24.9078 11V11.1H25.4057V11V10.9H24.9078V11ZM25.9036 11V11.1H26.4015V11V10.9H25.9036V11ZM26.8994 11V11.1H27.3972V11V10.9H26.8994V11ZM27.8951 11V11.1H28.393V11V10.9H27.8951V11ZM28.8909 11V11.1H29.3888V11V10.9H28.8909V11ZM29.8866 11V11.1H30.3845V11V10.9H29.8866V11ZM30.8824 11V11.1H31.3803V11V10.9H30.8824V11ZM31.8782 11V11.1H32.376V11V10.9H31.8782V11ZM32.8739 11V11.1H33.3718V11V10.9H32.8739V11ZM33.8697 11V11.1H34.3676V11V10.9H33.8697V11ZM34.8654 11V11.1H35.3633V11V10.9H34.8654V11ZM35.8612 11V11.1H36.3591V11V10.9H35.8612V11ZM36.857 11V11.1H37.3549V11V10.9H36.857V11ZM37.8527 11V11.1H38.3506V11V10.9H37.8527V11ZM38.8485 11V11.1H39.3464V11V10.9H38.8485V11ZM39.8443 11V11.1H40.3422V11V10.9H39.8443V11ZM40.84 11V11.1H41.3379V11V10.9H40.84V11ZM41.8358 11V11.1H42.3337V11V10.9H41.8358V11ZM42.8316 11V11.1H43.3295V11V10.9H42.8316V11ZM43.8273 11V11.1H44.3252V11V10.9H43.8273V11ZM44.8231 11V11.1H45.321V11V10.9H44.8231V11ZM45.8189 11V11.1H46.3168V11V10.9H45.8189V11ZM46.8146 11V11.1H47.3125V11V10.9H46.8146V11ZM47.8104 11V11.1H48.3083V11V10.9H47.8104V11ZM48.8062 11V11.1H49.3041V11V10.9H48.8062V11ZM49.8019 11V11.1H50.2998V11V10.9H49.8019V11ZM50.7977 11V11.1H51.2956V11V10.9H50.7977V11ZM51.7935 11V11.1H52.2913V11V10.9H51.7935V11ZM52.7892 11V11.1H53.2871V11V10.9H52.7892V11ZM53.785 11V11.1H54.2829V11V10.9H53.785V11ZM54.7808 11V11.1H55.2786V11V10.9H54.7808V11ZM55.7765 11V11.1H56.2744V11V10.9H55.7765V11ZM56.7723 11V11.1H57.2702V11V10.9H56.7723V11ZM57.7681 11V11.1H58.2659V11V10.9H57.7681V11ZM58.7638 11V11.1H59.2617V11V10.9H58.7638V11ZM59.7596 11V11.1H60.2575V11V10.9H59.7596V11ZM60.7554 11V11.1H61.2532V11V10.9H60.7554V11ZM61.7511 11V11.1H62V11V10.9H61.7511V11ZM3.25 11V11.2H3.49894V11V10.8H3.25V11ZM3.99682 11V11.2H4.4947V11V10.8H3.99682V11ZM4.99258 11V11.2H5.49047V11V10.8H4.99258V11ZM5.98835 11V11.2H6.48623V11V10.8H5.98835V11ZM6.98411 11V11.2H7.48199V11V10.8H6.98411V11ZM7.97987 11V11.2H8.47775V11V10.8H7.97987V11ZM8.97564 11V11.2H9.47352V11V10.8H8.97564V11ZM9.9714 11V11.2H10.4693V11V10.8H9.9714V11ZM10.9672 11V11.2H11.465V11V10.8H10.9672V11ZM11.9629 11V11.2H12.4608V11V10.8H11.9629V11ZM12.9587 11V11.2H13.4566V11V10.8H12.9587V11ZM13.9544 11V11.2H14.4523V11V10.8H13.9544V11ZM14.9502 11V11.2H15.4481V11V10.8H14.9502V11ZM15.946 11V11.2H16.4439V11V10.8H15.946V11ZM16.9417 11V11.2H17.4396V11V10.8H16.9417V11ZM17.9375 11V11.2H18.4354V11V10.8H17.9375V11ZM18.9333 11V11.2H19.4311V11V10.8H18.9333V11ZM19.929 11V11.2H20.4269V11V10.8H19.929V11ZM20.9248 11V11.2H21.4227V11V10.8H20.9248V11ZM21.9205 11V11.2H22.4184V11V10.8H21.9205V11ZM22.9163 11V11.2H23.4142V11V10.8H22.9163V11ZM23.9121 11V11.2H24.4099V11V10.8H23.9121V11ZM24.9078 11V11.2H25.4057V11V10.8H24.9078V11ZM25.9036 11V11.2H26.4015V11V10.8H25.9036V11ZM26.8994 11V11.2H27.3972V11V10.8H26.8994V11ZM27.8951 11V11.2H28.393V11V10.8H27.8951V11ZM28.8909 11V11.2H29.3888V11V10.8H28.8909V11ZM29.8866 11V11.2H30.3845V11V10.8H29.8866V11ZM30.8824 11V11.2H31.3803V11V10.8H30.8824V11ZM31.8782 11V11.2H32.376V11V10.8H31.8782V11ZM32.8739 11V11.2H33.3718V11V10.8H32.8739V11ZM33.8697 11V11.2H34.3676V11V10.8H33.8697V11ZM34.8654 11V11.2H35.3633V11V10.8H34.8654V11ZM35.8612 11V11.2H36.3591V11V10.8H35.8612V11ZM36.857 11V11.2H37.3549V11V10.8H36.857V11ZM37.8527 11V11.2H38.3506V11V10.8H37.8527V11ZM38.8485 11V11.2H39.3464V11V10.8H38.8485V11ZM39.8443 11V11.2H40.3422V11V10.8H39.8443V11ZM40.84 11V11.2H41.3379V11V10.8H40.84V11ZM41.8358 11V11.2H42.3337V11V10.8H41.8358V11ZM42.8316 11V11.2H43.3295V11V10.8H42.8316V11ZM43.8273 11V11.2H44.3252V11V10.8H43.8273V11ZM44.8231 11V11.2H45.321V11V10.8H44.8231V11ZM45.8189 11V11.2H46.3168V11V10.8H45.8189V11ZM46.8146 11V11.2H47.3125V11V10.8H46.8146V11ZM47.8104 11V11.2H48.3083V11V10.8H47.8104V11ZM48.8062 11V11.2H49.3041V11V10.8H48.8062V11ZM49.8019 11V11.2H50.2998V11V10.8H49.8019V11ZM50.7977 11V11.2H51.2956V11V10.8H50.7977V11ZM51.7935 11V11.2H52.2913V11V10.8H51.7935V11ZM52.7892 11V11.2H53.2871V11V10.8H52.7892V11ZM53.785 11V11.2H54.2829V11V10.8H53.785V11ZM54.7808 11V11.2H55.2786V11V10.8H54.7808V11ZM55.7765 11V11.2H56.2744V11V10.8H55.7765V11ZM56.7723 11V11.2H57.2702V11V10.8H56.7723V11ZM57.7681 11V11.2H58.2659V11V10.8H57.7681V11ZM58.7638 11V11.2H59.2617V11V10.8H58.7638V11ZM59.7596 11V11.2H60.2575V11V10.8H59.7596V11ZM60.7554 11V11.2H61.2532V11V10.8H60.7554V11ZM61.7511 11V11.2H62V11V10.8H61.7511V11Z" fill="#999999" mask="url(#path-5-inside-1_120_10658)"/>
<mask id="path-7-inside-2_120_10658" fill="white">
<path d="M3.25 11H62V21H3.25V11Z"/>
</mask>
<path d="M3.25 21V21.1H3.49894V21V20.9H3.25V21ZM3.99682 21V21.1H4.4947V21V20.9H3.99682V21ZM4.99258 21V21.1H5.49047V21V20.9H4.99258V21ZM5.98835 21V21.1H6.48623V21V20.9H5.98835V21ZM6.98411 21V21.1H7.48199V21V20.9H6.98411V21ZM7.97987 21V21.1H8.47775V21V20.9H7.97987V21ZM8.97564 21V21.1H9.47352V21V20.9H8.97564V21ZM9.9714 21V21.1H10.4693V21V20.9H9.9714V21ZM10.9672 21V21.1H11.465V21V20.9H10.9672V21ZM11.9629 21V21.1H12.4608V21V20.9H11.9629V21ZM12.9587 21V21.1H13.4566V21V20.9H12.9587V21ZM13.9544 21V21.1H14.4523V21V20.9H13.9544V21ZM14.9502 21V21.1H15.4481V21V20.9H14.9502V21ZM15.946 21V21.1H16.4439V21V20.9H15.946V21ZM16.9417 21V21.1H17.4396V21V20.9H16.9417V21ZM17.9375 21V21.1H18.4354V21V20.9H17.9375V21ZM18.9333 21V21.1H19.4311V21V20.9H18.9333V21ZM19.929 21V21.1H20.4269V21V20.9H19.929V21ZM20.9248 21V21.1H21.4227V21V20.9H20.9248V21ZM21.9205 21V21.1H22.4184V21V20.9H21.9205V21ZM22.9163 21V21.1H23.4142V21V20.9H22.9163V21ZM23.9121 21V21.1H24.4099V21V20.9H23.9121V21ZM24.9078 21V21.1H25.4057V21V20.9H24.9078V21ZM25.9036 21V21.1H26.4015V21V20.9H25.9036V21ZM26.8994 21V21.1H27.3972V21V20.9H26.8994V21ZM27.8951 21V21.1H28.393V21V20.9H27.8951V21ZM28.8909 21V21.1H29.3888V21V20.9H28.8909V21ZM29.8866 21V21.1H30.3845V21V20.9H29.8866V21ZM30.8824 21V21.1H31.3803V21V20.9H30.8824V21ZM31.8782 21V21.1H32.376V21V20.9H31.8782V21ZM32.8739 21V21.1H33.3718V21V20.9H32.8739V21ZM33.8697 21V21.1H34.3676V21V20.9H33.8697V21ZM34.8654 21V21.1H35.3633V21V20.9H34.8654V21ZM35.8612 21V21.1H36.3591V21V20.9H35.8612V21ZM36.857 21V21.1H37.3549V21V20.9H36.857V21ZM37.8527 21V21.1H38.3506V21V20.9H37.8527V21ZM38.8485 21V21.1H39.3464V21V20.9H38.8485V21ZM39.8443 21V21.1H40.3422V21V20.9H39.8443V21ZM40.84 21V21.1H41.3379V21V20.9H40.84V21ZM41.8358 21V21.1H42.3337V21V20.9H41.8358V21ZM42.8316 21V21.1H43.3295V21V20.9H42.8316V21ZM43.8273 21V21.1H44.3252V21V20.9H43.8273V21ZM44.8231 21V21.1H45.321V21V20.9H44.8231V21ZM45.8189 21V21.1H46.3168V21V20.9H45.8189V21ZM46.8146 21V21.1H47.3125V21V20.9H46.8146V21ZM47.8104 21V21.1H48.3083V21V20.9H47.8104V21ZM48.8062 21V21.1H49.3041V21V20.9H48.8062V21ZM49.8019 21V21.1H50.2998V21V20.9H49.8019V21ZM50.7977 21V21.1H51.2956V21V20.9H50.7977V21ZM51.7935 21V21.1H52.2913V21V20.9H51.7935V21ZM52.7892 21V21.1H53.2871V21V20.9H52.7892V21ZM53.785 21V21.1H54.2829V21V20.9H53.785V21ZM54.7808 21V21.1H55.2786V21V20.9H54.7808V21ZM55.7765 21V21.1H56.2744V21V20.9H55.7765V21ZM56.7723 21V21.1H57.2702V21V20.9H56.7723V21ZM57.7681 21V21.1H58.2659V21V20.9H57.7681V21ZM58.7638 21V21.1H59.2617V21V20.9H58.7638V21ZM59.7596 21V21.1H60.2575V21V20.9H59.7596V21ZM60.7554 21V21.1H61.2532V21V20.9H60.7554V21ZM61.7511 21V21.1H62V21V20.9H61.7511V21ZM3.25 21V21.2H3.49894V21V20.8H3.25V21ZM3.99682 21V21.2H4.4947V21V20.8H3.99682V21ZM4.99258 21V21.2H5.49047V21V20.8H4.99258V21ZM5.98835 21V21.2H6.48623V21V20.8H5.98835V21ZM6.98411 21V21.2H7.48199V21V20.8H6.98411V21ZM7.97987 21V21.2H8.47775V21V20.8H7.97987V21ZM8.97564 21V21.2H9.47352V21V20.8H8.97564V21ZM9.9714 21V21.2H10.4693V21V20.8H9.9714V21ZM10.9672 21V21.2H11.465V21V20.8H10.9672V21ZM11.9629 21V21.2H12.4608V21V20.8H11.9629V21ZM12.9587 21V21.2H13.4566V21V20.8H12.9587V21ZM13.9544 21V21.2H14.4523V21V20.8H13.9544V21ZM14.9502 21V21.2H15.4481V21V20.8H14.9502V21ZM15.946 21V21.2H16.4439V21V20.8H15.946V21ZM16.9417 21V21.2H17.4396V21V20.8H16.9417V21ZM17.9375 21V21.2H18.4354V21V20.8H17.9375V21ZM18.9333 21V21.2H19.4311V21V20.8H18.9333V21ZM19.929 21V21.2H20.4269V21V20.8H19.929V21ZM20.9248 21V21.2H21.4227V21V20.8H20.9248V21ZM21.9205 21V21.2H22.4184V21V20.8H21.9205V21ZM22.9163 21V21.2H23.4142V21V20.8H22.9163V21ZM23.9121 21V21.2H24.4099V21V20.8H23.9121V21ZM24.9078 21V21.2H25.4057V21V20.8H24.9078V21ZM25.9036 21V21.2H26.4015V21V20.8H25.9036V21ZM26.8994 21V21.2H27.3972V21V20.8H26.8994V21ZM27.8951 21V21.2H28.393V21V20.8H27.8951V21ZM28.8909 21V21.2H29.3888V21V20.8H28.8909V21ZM29.8866 21V21.2H30.3845V21V20.8H29.8866V21ZM30.8824 21V21.2H31.3803V21V20.8H30.8824V21ZM31.8782 21V21.2H32.376V21V20.8H31.8782V21ZM32.8739 21V21.2H33.3718V21V20.8H32.8739V21ZM33.8697 21V21.2H34.3676V21V20.8H33.8697V21ZM34.8654 21V21.2H35.3633V21V20.8H34.8654V21ZM35.8612 21V21.2H36.3591V21V20.8H35.8612V21ZM36.857 21V21.2H37.3549V21V20.8H36.857V21ZM37.8527 21V21.2H38.3506V21V20.8H37.8527V21ZM38.8485 21V21.2H39.3464V21V20.8H38.8485V21ZM39.8443 21V21.2H40.3422V21V20.8H39.8443V21ZM40.84 21V21.2H41.3379V21V20.8H40.84V21ZM41.8358 21V21.2H42.3337V21V20.8H41.8358V21ZM42.8316 21V21.2H43.3295V21V20.8H42.8316V21ZM43.8273 21V21.2H44.3252V21V20.8H43.8273V21ZM44.8231 21V21.2H45.321V21V20.8H44.8231V21ZM45.8189 21V21.2H46.3168V21V20.8H45.8189V21ZM46.8146 21V21.2H47.3125V21V20.8H46.8146V21ZM47.8104 21V21.2H48.3083V21V20.8H47.8104V21ZM48.8062 21V21.2H49.3041V21V20.8H48.8062V21ZM49.8019 21V21.2H50.2998V21V20.8H49.8019V21ZM50.7977 21V21.2H51.2956V21V20.8H50.7977V21ZM51.7935 21V21.2H52.2913V21V20.8H51.7935V21ZM52.7892 21V21.2H53.2871V21V20.8H52.7892V21ZM53.785 21V21.2H54.2829V21V20.8H53.785V21ZM54.7808 21V21.2H55.2786V21V20.8H54.7808V21ZM55.7765 21V21.2H56.2744V21V20.8H55.7765V21ZM56.7723 21V21.2H57.2702V21V20.8H56.7723V21ZM57.7681 21V21.2H58.2659V21V20.8H57.7681V21ZM58.7638 21V21.2H59.2617V21V20.8H58.7638V21ZM59.7596 21V21.2H60.2575V21V20.8H59.7596V21ZM60.7554 21V21.2H61.2532V21V20.8H60.7554V21ZM61.7511 21V21.2H62V21V20.8H61.7511V21Z" fill="#999999" mask="url(#path-7-inside-2_120_10658)"/>
<mask id="path-9-inside-3_120_10658" fill="white">
<path d="M3.25 21H62V31H3.25V21Z"/>
</mask>
<path d="M3.25 31V31.1H3.49894V31V30.9H3.25V31ZM3.99682 31V31.1H4.4947V31V30.9H3.99682V31ZM4.99258 31V31.1H5.49047V31V30.9H4.99258V31ZM5.98835 31V31.1H6.48623V31V30.9H5.98835V31ZM6.98411 31V31.1H7.48199V31V30.9H6.98411V31ZM7.97987 31V31.1H8.47775V31V30.9H7.97987V31ZM8.97564 31V31.1H9.47352V31V30.9H8.97564V31ZM9.9714 31V31.1H10.4693V31V30.9H9.9714V31ZM10.9672 31V31.1H11.465V31V30.9H10.9672V31ZM11.9629 31V31.1H12.4608V31V30.9H11.9629V31ZM12.9587 31V31.1H13.4566V31V30.9H12.9587V31ZM13.9544 31V31.1H14.4523V31V30.9H13.9544V31ZM14.9502 31V31.1H15.4481V31V30.9H14.9502V31ZM15.946 31V31.1H16.4439V31V30.9H15.946V31ZM16.9417 31V31.1H17.4396V31V30.9H16.9417V31ZM17.9375 31V31.1H18.4354V31V30.9H17.9375V31ZM18.9333 31V31.1H19.4311V31V30.9H18.9333V31ZM19.929 31V31.1H20.4269V31V30.9H19.929V31ZM20.9248 31V31.1H21.4227V31V30.9H20.9248V31ZM21.9205 31V31.1H22.4184V31V30.9H21.9205V31ZM22.9163 31V31.1H23.4142V31V30.9H22.9163V31ZM23.9121 31V31.1H24.4099V31V30.9H23.9121V31ZM24.9078 31V31.1H25.4057V31V30.9H24.9078V31ZM25.9036 31V31.1H26.4015V31V30.9H25.9036V31ZM26.8994 31V31.1H27.3972V31V30.9H26.8994V31ZM27.8951 31V31.1H28.393V31V30.9H27.8951V31ZM28.8909 31V31.1H29.3888V31V30.9H28.8909V31ZM29.8866 31V31.1H30.3845V31V30.9H29.8866V31ZM30.8824 31V31.1H31.3803V31V30.9H30.8824V31ZM31.8782 31V31.1H32.376V31V30.9H31.8782V31ZM32.8739 31V31.1H33.3718V31V30.9H32.8739V31ZM33.8697 31V31.1H34.3676V31V30.9H33.8697V31ZM34.8654 31V31.1H35.3633V31V30.9H34.8654V31ZM35.8612 31V31.1H36.3591V31V30.9H35.8612V31ZM36.857 31V31.1H37.3549V31V30.9H36.857V31ZM37.8527 31V31.1H38.3506V31V30.9H37.8527V31ZM38.8485 31V31.1H39.3464V31V30.9H38.8485V31ZM39.8443 31V31.1H40.3422V31V30.9H39.8443V31ZM40.84 31V31.1H41.3379V31V30.9H40.84V31ZM41.8358 31V31.1H42.3337V31V30.9H41.8358V31ZM42.8316 31V31.1H43.3295V31V30.9H42.8316V31ZM43.8273 31V31.1H44.3252V31V30.9H43.8273V31ZM44.8231 31V31.1H45.321V31V30.9H44.8231V31ZM45.8189 31V31.1H46.3168V31V30.9H45.8189V31ZM46.8146 31V31.1H47.3125V31V30.9H46.8146V31ZM47.8104 31V31.1H48.3083V31V30.9H47.8104V31ZM48.8062 31V31.1H49.3041V31V30.9H48.8062V31ZM49.8019 31V31.1H50.2998V31V30.9H49.8019V31ZM50.7977 31V31.1H51.2956V31V30.9H50.7977V31ZM51.7935 31V31.1H52.2913V31V30.9H51.7935V31ZM52.7892 31V31.1H53.2871V31V30.9H52.7892V31ZM53.785 31V31.1H54.2829V31V30.9H53.785V31ZM54.7808 31V31.1H55.2786V31V30.9H54.7808V31ZM55.7765 31V31.1H56.2744V31V30.9H55.7765V31ZM56.7723 31V31.1H57.2702V31V30.9H56.7723V31ZM57.7681 31V31.1H58.2659V31V30.9H57.7681V31ZM58.7638 31V31.1H59.2617V31V30.9H58.7638V31ZM59.7596 31V31.1H60.2575V31V30.9H59.7596V31ZM60.7554 31V31.1H61.2532V31V30.9H60.7554V31ZM61.7511 31V31.1H62V31V30.9H61.7511V31ZM3.25 31V31.2H3.49894V31V30.8H3.25V31ZM3.99682 31V31.2H4.4947V31V30.8H3.99682V31ZM4.99258 31V31.2H5.49047V31V30.8H4.99258V31ZM5.98835 31V31.2H6.48623V31V30.8H5.98835V31ZM6.98411 31V31.2H7.48199V31V30.8H6.98411V31ZM7.97987 31V31.2H8.47775V31V30.8H7.97987V31ZM8.97564 31V31.2H9.47352V31V30.8H8.97564V31ZM9.9714 31V31.2H10.4693V31V30.8H9.9714V31ZM10.9672 31V31.2H11.465V31V30.8H10.9672V31ZM11.9629 31V31.2H12.4608V31V30.8H11.9629V31ZM12.9587 31V31.2H13.4566V31V30.8H12.9587V31ZM13.9544 31V31.2H14.4523V31V30.8H13.9544V31ZM14.9502 31V31.2H15.4481V31V30.8H14.9502V31ZM15.946 31V31.2H16.4439V31V30.8H15.946V31ZM16.9417 31V31.2H17.4396V31V30.8H16.9417V31ZM17.9375 31V31.2H18.4354V31V30.8H17.9375V31ZM18.9333 31V31.2H19.4311V31V30.8H18.9333V31ZM19.929 31V31.2H20.4269V31V30.8H19.929V31ZM20.9248 31V31.2H21.4227V31V30.8H20.9248V31ZM21.9205 31V31.2H22.4184V31V30.8H21.9205V31ZM22.9163 31V31.2H23.4142V31V30.8H22.9163V31ZM23.9121 31V31.2H24.4099V31V30.8H23.9121V31ZM24.9078 31V31.2H25.4057V31V30.8H24.9078V31ZM25.9036 31V31.2H26.4015V31V30.8H25.9036V31ZM26.8994 31V31.2H27.3972V31V30.8H26.8994V31ZM27.8951 31V31.2H28.393V31V30.8H27.8951V31ZM28.8909 31V31.2H29.3888V31V30.8H28.8909V31ZM29.8866 31V31.2H30.3845V31V30.8H29.8866V31ZM30.8824 31V31.2H31.3803V31V30.8H30.8824V31ZM31.8782 31V31.2H32.376V31V30.8H31.8782V31ZM32.8739 31V31.2H33.3718V31V30.8H32.8739V31ZM33.8697 31V31.2H34.3676V31V30.8H33.8697V31ZM34.8654 31V31.2H35.3633V31V30.8H34.8654V31ZM35.8612 31V31.2H36.3591V31V30.8H35.8612V31ZM36.857 31V31.2H37.3549V31V30.8H36.857V31ZM37.8527 31V31.2H38.3506V31V30.8H37.8527V31ZM38.8485 31V31.2H39.3464V31V30.8H38.8485V31ZM39.8443 31V31.2H40.3422V31V30.8H39.8443V31ZM40.84 31V31.2H41.3379V31V30.8H40.84V31ZM41.8358 31V31.2H42.3337V31V30.8H41.8358V31ZM42.8316 31V31.2H43.3295V31V30.8H42.8316V31ZM43.8273 31V31.2H44.3252V31V30.8H43.8273V31ZM44.8231 31V31.2H45.321V31V30.8H44.8231V31ZM45.8189 31V31.2H46.3168V31V30.8H45.8189V31ZM46.8146 31V31.2H47.3125V31V30.8H46.8146V31ZM47.8104 31V31.2H48.3083V31V30.8H47.8104V31ZM48.8062 31V31.2H49.3041V31V30.8H48.8062V31ZM49.8019 31V31.2H50.2998V31V30.8H49.8019V31ZM50.7977 31V31.2H51.2956V31V30.8H50.7977V31ZM51.7935 31V31.2H52.2913V31V30.8H51.7935V31ZM52.7892 31V31.2H53.2871V31V30.8H52.7892V31ZM53.785 31V31.2H54.2829V31V30.8H53.785V31ZM54.7808 31V31.2H55.2786V31V30.8H54.7808V31ZM55.7765 31V31.2H56.2744V31V30.8H55.7765V31ZM56.7723 31V31.2H57.2702V31V30.8H56.7723V31ZM57.7681 31V31.2H58.2659V31V30.8H57.7681V31ZM58.7638 31V31.2H59.2617V31V30.8H58.7638V31ZM59.7596 31V31.2H60.2575V31V30.8H59.7596V31ZM60.7554 31V31.2H61.2532V31V30.8H60.7554V31ZM61.7511 31V31.2H62V31V30.8H61.7511V31Z" fill="#999999" mask="url(#path-9-inside-3_120_10658)"/>
</svg>
