<svg width="78" height="63" viewBox="0 0 78 63" fill="none" xmlns="http://www.w3.org/2000/svg">
<g clip-path="url(#clip0_121_12388)">
<path d="M76.7169 50.4962C76.3517 47.991 76.2109 45.463 76.2959 42.9372C76.466 45.3081 76.8337 47.664 77.3958 49.9844C77.1575 50.1415 76.9307 50.3124 76.7169 50.4962M76.5471 53.6406L76.4046 55.0649C76.133 54.3004 75.8479 53.6961 75.8343 53.6653C75.6978 53.1143 75.782 52.5372 76.0719 52.0376C76.1995 52.5791 76.3581 53.1142 76.5471 53.6406ZM72.9353 62.18H70.4709C75.0875 60.4783 75.9022 57.2845 76.004 55.441C76.1058 55.7493 76.2077 56.0575 76.2756 56.3843L75.9361 59.874C75.1622 60.133 73.2884 60.879 72.9353 62.18M2.07068 59.8494L1.72443 56.3597C1.79232 56.0637 1.88737 55.7431 1.98921 55.4472C2.01377 56.1817 2.1579 56.9089 2.41692 57.6051C2.98042 59.091 4.33145 60.9715 7.5359 62.1553H5.06467C4.75237 60.8544 2.83785 60.1083 2.07068 59.8494ZM2.18609 53.5975C2.18609 53.653 1.867 54.2695 1.59544 55.0402L1.45287 53.6406C1.64814 53.1091 1.80909 52.5677 1.93489 52.0191C2.22807 52.5087 2.31724 53.0777 2.18609 53.6221M0.597441 49.9844C1.16185 47.6641 1.53178 45.3083 1.70406 42.9372C1.79472 45.4629 1.65621 47.9911 1.28993 50.4962C1.07803 50.3104 0.851086 50.1394 0.611019 49.9844M1.28993 12.5038C1.65667 15.0109 1.79519 17.5412 1.70406 20.069C1.53223 17.6958 1.16229 15.3379 0.597441 13.0156C0.837508 12.8606 1.06445 12.6896 1.27635 12.5038M1.43929 9.38403L1.58186 7.95978C1.85343 8.72431 2.13857 9.3347 2.15893 9.36553C2.29499 9.9145 2.21073 10.4895 1.92132 10.9871C1.79469 10.4448 1.63375 9.90953 1.43929 9.38403M5.06467 0.850851H7.52912C2.91253 2.55255 2.07068 5.74633 2.03673 7.58984C1.92811 7.2754 1.83306 6.97328 1.75838 6.64034L2.10462 3.15062C2.83785 2.89783 4.75237 2.14563 5.06467 0.850851ZM75.9361 3.15062L76.2756 6.64034C76.2077 6.94245 76.1126 7.2569 76.0108 7.55285C75.989 6.81805 75.8448 6.09048 75.5831 5.39489C75.0264 3.90898 73.6686 2.02848 70.4709 0.850851H72.9353C73.2884 2.14563 75.1622 2.89783 75.9361 3.15062M75.8207 9.40253C75.8207 9.3532 76.133 8.73048 76.4046 7.95978L76.5471 9.38403C76.3528 9.91582 76.1919 10.4572 76.0651 11.0056C75.7737 10.5154 75.6869 9.94617 75.8207 9.40253M77.3958 13.0156C76.8309 15.3379 76.461 17.6958 76.2892 20.069C76.2098 17.541 76.3528 15.0112 76.7169 12.5038C76.9302 12.6881 77.157 12.8591 77.3958 13.0156M75.359 53.7824C75.359 53.7824 75.4813 54.0476 75.6374 54.399C75.7649 55.4386 75.6398 56.4909 75.2708 57.4818C74.4493 59.6521 72.4533 61.2428 69.4729 62.1307H8.51354C2.1182 60.2378 2.18609 55.7616 2.36261 54.4237C2.52555 54.0167 2.66133 53.7393 2.66812 53.7208C2.76781 53.3025 2.76727 52.8696 2.66653 52.4515C2.56579 52.0335 2.36721 51.64 2.08425 51.2977C3.02115 46.6304 2.54591 40.6867 2.52555 40.4216V22.5414C2.52555 22.2455 3.02794 16.2895 2.09104 11.616C2.37597 11.2664 2.57443 10.8651 2.67285 10.4394C2.77128 10.0138 2.76735 9.57387 2.66133 9.14974C2.66133 9.14974 2.53234 8.88462 2.37619 8.53318C2.25544 7.49315 2.3828 6.44171 2.74959 5.45038C3.56428 3.28009 5.56706 1.68937 8.54748 0.807692H69.4933C75.8886 2.69436 75.8207 7.17675 75.6442 8.51468C75.4812 8.91544 75.3523 9.19289 75.3455 9.21139C75.2448 9.62924 75.2443 10.0619 75.3438 10.4799C75.4434 10.898 75.6408 11.2917 75.9225 11.6345C74.9856 16.3018 75.4609 22.2454 75.488 22.5106V40.3908C75.488 40.6867 74.9856 46.6365 75.9293 51.31C75.6452 51.66 75.4472 52.0613 75.3488 52.4868C75.2505 52.9123 75.2539 53.3521 75.359 53.7763M76.4249 38.0849V27.3876C76.6422 24.2246 77.1582 15.3462 77.9593 12.9847L78.0136 12.8183L77.8506 12.7196C77.476 12.4987 77.1319 12.2379 76.8255 11.9427C76.9851 11.139 77.212 10.3475 77.5044 9.57516L77.5383 9.48884L76.8594 2.52173L76.5132 2.46624C75.8343 2.26894 73.7975 1.47974 73.7975 0.456254V0H4.18888V0.425426C4.18888 1.44891 2.2404 2.22578 1.47324 2.43541L1.17451 2.52173L0.495605 9.48884V9.57516C0.791303 10.3445 1.01834 11.1342 1.17451 11.9366C0.866821 12.2299 0.525418 12.4924 0.156149 12.7196L0 12.8183L0.0543128 12.9847C0.855427 15.34 1.35782 24.2061 1.58865 27.3752V38.0849C1.35782 41.2478 0.855427 47.6538 0.0543128 50.0153L0 50.1879L0.169728 50.2804C0.539928 50.5042 0.881494 50.7647 1.18809 51.0573C1.03513 51.8623 0.808026 52.6543 0.509183 53.4248V53.5112L1.18809 60.4844L1.48681 60.5646C2.23361 60.7804 4.20245 61.5511 4.20245 62.5746V63H73.8179V62.5746C73.8179 61.5511 75.7596 60.7804 76.5336 60.5646L76.8255 60.4844L77.5044 53.5112L77.4705 53.4248C77.1863 52.6546 76.9706 51.8649 76.8255 51.0634C77.1297 50.7668 77.4716 50.504 77.8439 50.2804L78.0068 50.1817L77.9525 50.0153C77.1514 47.66 76.6354 41.2601 76.4249 38.091" fill="#231F20"/>
<g clip-path="url(#clip1_121_12388)">
<circle cx="11.5" cy="9.5" r="2.25" fill="white" stroke="#231F20" stroke-width="0.5"/>
<mask id="path-3-inside-1_121_12388" fill="white">
<path d="M16 7H22V12H16V7Z"/>
</mask>
<path d="M16 12V12.1H16.25V12V11.9H16V12ZM16.75 12V12.1H17.25V12V11.9H16.75V12ZM17.75 12V12.1H18.25V12V11.9H17.75V12ZM18.75 12V12.1H19.25V12V11.9H18.75V12ZM19.75 12V12.1H20.25V12V11.9H19.75V12ZM20.75 12V12.1H21.25V12V11.9H20.75V12ZM21.75 12V12.1H22V12V11.9H21.75V12ZM16 12V12.2H16.25V12V11.8H16V12ZM16.75 12V12.2H17.25V12V11.8H16.75V12ZM17.75 12V12.2H18.25V12V11.8H17.75V12ZM18.75 12V12.2H19.25V12V11.8H18.75V12ZM19.75 12V12.2H20.25V12V11.8H19.75V12ZM20.75 12V12.2H21.25V12V11.8H20.75V12ZM21.75 12V12.2H22V12V11.8H21.75V12Z" fill="#999999" mask="url(#path-3-inside-1_121_12388)"/>
<path d="M24.5895 11H24.1278L25.4631 7.36364H25.9176L27.2528 11H26.7912L25.7045 7.93892H25.6761L24.5895 11ZM24.7599 9.57955H26.6207V9.97017H24.7599V9.57955ZM27.7624 11V8.27273H28.1673V8.68466H28.1957C28.2454 8.54972 28.3353 8.44022 28.4656 8.35618C28.5958 8.27214 28.7425 8.23011 28.9059 8.23011C28.9367 8.23011 28.9751 8.23071 29.0213 8.23189C29.0675 8.23307 29.1024 8.23485 29.1261 8.23722V8.66335C29.1119 8.6598 29.0793 8.65447 29.0284 8.64737C28.9787 8.63909 28.926 8.63494 28.8704 8.63494C28.7378 8.63494 28.6194 8.66276 28.5153 8.71839C28.4123 8.77285 28.3306 8.8486 28.2702 8.94567C28.2111 9.04155 28.1815 9.15104 28.1815 9.27415V11H27.7624ZM30.6477 11.0568C30.392 11.0568 30.1719 10.9964 29.9872 10.8757C29.8026 10.755 29.6605 10.5887 29.5611 10.3768C29.4616 10.1649 29.4119 9.92282 29.4119 9.65057C29.4119 9.37358 29.4628 9.12914 29.5646 8.91726C29.6676 8.70419 29.8108 8.53788 29.9943 8.41832C30.179 8.29759 30.3944 8.23722 30.6406 8.23722C30.8324 8.23722 31.0052 8.27273 31.1591 8.34375C31.313 8.41477 31.439 8.5142 31.5373 8.64205C31.6355 8.76989 31.6965 8.91903 31.7202 9.08949H31.3011C31.2692 8.9652 31.1982 8.85511 31.0881 8.75923C30.9792 8.66217 30.8324 8.61364 30.6477 8.61364C30.4844 8.61364 30.3411 8.65625 30.218 8.74148C30.0961 8.82552 30.0008 8.94448 29.9322 9.09837C29.8647 9.25107 29.831 9.4304 29.831 9.63636C29.831 9.84706 29.8641 10.0305 29.9304 10.1868C29.9979 10.343 30.0926 10.4644 30.2145 10.5508C30.3376 10.6372 30.482 10.6804 30.6477 10.6804C30.7566 10.6804 30.8555 10.6615 30.9442 10.6236C31.033 10.5857 31.1082 10.5312 31.1697 10.4602C31.2313 10.3892 31.2751 10.304 31.3011 10.2045H31.7202C31.6965 10.3655 31.6379 10.5105 31.5444 10.6396C31.4521 10.7674 31.3295 10.8692 31.1768 10.945C31.0253 11.0195 30.849 11.0568 30.6477 11.0568ZM33.1353 11.0639C32.9625 11.0639 32.8056 11.0314 32.6648 10.9663C32.5239 10.9 32.4121 10.8047 32.3292 10.6804C32.2463 10.5549 32.2049 10.4034 32.2049 10.2259C32.2049 10.0696 32.2357 9.94295 32.2972 9.84588C32.3588 9.74763 32.4411 9.67069 32.544 9.61506C32.647 9.55942 32.7607 9.51799 32.8849 9.49077C33.0104 9.46236 33.1365 9.43987 33.2631 9.4233C33.4289 9.40199 33.5632 9.38601 33.6662 9.37536C33.7704 9.36352 33.8461 9.34399 33.8935 9.31676C33.942 9.28954 33.9663 9.24219 33.9663 9.17472V9.16051C33.9663 8.98532 33.9183 8.8492 33.8224 8.75213C33.7277 8.65507 33.5839 8.60653 33.391 8.60653C33.1909 8.60653 33.0341 8.65033 32.9205 8.73793C32.8068 8.82552 32.7269 8.91903 32.6808 9.01847L32.283 8.87642C32.354 8.7107 32.4487 8.58168 32.5671 8.48935C32.6867 8.39583 32.8169 8.33073 32.9577 8.29403C33.0998 8.25616 33.2395 8.23722 33.3768 8.23722C33.4644 8.23722 33.565 8.24787 33.6786 8.26918C33.7934 8.2893 33.9041 8.33132 34.0107 8.39524C34.1184 8.45916 34.2077 8.55563 34.2788 8.68466C34.3498 8.81368 34.3853 8.98651 34.3853 9.20312V11H33.9663V10.6307H33.945C33.9165 10.6899 33.8692 10.7532 33.8029 10.8207C33.7366 10.8881 33.6484 10.9455 33.5384 10.9929C33.4283 11.0402 33.2939 11.0639 33.1353 11.0639ZM33.1992 10.6875C33.3649 10.6875 33.5046 10.6549 33.6183 10.5898C33.7331 10.5247 33.8195 10.4407 33.8775 10.3377C33.9367 10.2347 33.9663 10.1264 33.9663 10.0128V9.62926C33.9485 9.65057 33.9094 9.6701 33.8491 9.68786C33.7899 9.70443 33.7212 9.71922 33.6431 9.73224C33.5662 9.74408 33.491 9.75473 33.4176 9.7642C33.3454 9.77249 33.2868 9.77959 33.2418 9.78551C33.1329 9.79972 33.0311 9.8228 32.9364 9.85476C32.8429 9.88554 32.7672 9.93229 32.7092 9.99503C32.6523 10.0566 32.6239 10.1406 32.6239 10.2472C32.6239 10.3928 32.6778 10.5028 32.7855 10.5774C32.8944 10.6508 33.0323 10.6875 33.1992 10.6875ZM35.5692 9.35938V11H35.1501V8.27273H35.555V8.69886H35.5905C35.6544 8.56037 35.7515 8.4491 35.8817 8.36506C36.0119 8.27983 36.18 8.23722 36.3859 8.23722C36.5706 8.23722 36.7322 8.27509 36.8706 8.35085C37.0091 8.42543 37.1169 8.53906 37.1938 8.69176C37.2707 8.84328 37.3092 9.03504 37.3092 9.26705V11H36.8902V9.29545C36.8902 9.0812 36.8345 8.9143 36.7233 8.79474C36.612 8.67401 36.4593 8.61364 36.2652 8.61364C36.1314 8.61364 36.0119 8.64264 35.9065 8.70064C35.8023 8.75864 35.7201 8.84328 35.6597 8.95455C35.5993 9.06581 35.5692 9.20076 35.5692 9.35938ZM38.8775 11.0639C38.7047 11.0639 38.5478 11.0314 38.407 10.9663C38.2661 10.9 38.1542 10.8047 38.0714 10.6804C37.9885 10.5549 37.9471 10.4034 37.9471 10.2259C37.9471 10.0696 37.9779 9.94295 38.0394 9.84588C38.101 9.74763 38.1832 9.67069 38.2862 9.61506C38.3892 9.55942 38.5028 9.51799 38.6271 9.49077C38.7526 9.46236 38.8787 9.43987 39.0053 9.4233C39.171 9.40199 39.3054 9.38601 39.4084 9.37536C39.5125 9.36352 39.5883 9.34399 39.6357 9.31676C39.6842 9.28954 39.7085 9.24219 39.7085 9.17472V9.16051C39.7085 8.98532 39.6605 8.8492 39.5646 8.75213C39.4699 8.65507 39.3261 8.60653 39.1332 8.60653C38.9331 8.60653 38.7763 8.65033 38.6626 8.73793C38.549 8.82552 38.4691 8.91903 38.4229 9.01847L38.0252 8.87642C38.0962 8.7107 38.1909 8.58168 38.3093 8.48935C38.4289 8.39583 38.5591 8.33073 38.6999 8.29403C38.842 8.25616 38.9817 8.23722 39.119 8.23722C39.2066 8.23722 39.3072 8.24787 39.4208 8.26918C39.5356 8.2893 39.6463 8.33132 39.7528 8.39524C39.8606 8.45916 39.9499 8.55563 40.021 8.68466C40.092 8.81368 40.1275 8.98651 40.1275 9.20312V11H39.7085V10.6307H39.6871C39.6587 10.6899 39.6114 10.7532 39.5451 10.8207C39.4788 10.8881 39.3906 10.9455 39.2805 10.9929C39.1705 11.0402 39.0361 11.0639 38.8775 11.0639ZM38.9414 10.6875C39.1071 10.6875 39.2468 10.6549 39.3604 10.5898C39.4753 10.5247 39.5617 10.4407 39.6197 10.3377C39.6789 10.2347 39.7085 10.1264 39.7085 10.0128V9.62926C39.6907 9.65057 39.6516 9.6701 39.5913 9.68786C39.5321 9.70443 39.4634 9.71922 39.3853 9.73224C39.3084 9.74408 39.2332 9.75473 39.1598 9.7642C39.0876 9.77249 39.029 9.77959 38.984 9.78551C38.8751 9.79972 38.7733 9.8228 38.6786 9.85476C38.5851 9.88554 38.5094 9.93229 38.4513 9.99503C38.3945 10.0566 38.3661 10.1406 38.3661 10.2472C38.3661 10.3928 38.42 10.5028 38.5277 10.5774C38.6366 10.6508 38.7745 10.6875 38.9414 10.6875Z" fill="#231F20"/>
</g>
<g clip-path="url(#clip2_121_12388)">
<circle cx="11.5" cy="18.5" r="2.25" fill="white" stroke="#231F20" stroke-width="0.5"/>
<mask id="path-7-inside-2_121_12388" fill="white">
<path d="M16 16H22V21H16V16Z"/>
</mask>
<path d="M16 21V21.1H16.25V21V20.9H16V21ZM16.75 21V21.1H17.25V21V20.9H16.75V21ZM17.75 21V21.1H18.25V21V20.9H17.75V21ZM18.75 21V21.1H19.25V21V20.9H18.75V21ZM19.75 21V21.1H20.25V21V20.9H19.75V21ZM20.75 21V21.1H21.25V21V20.9H20.75V21ZM21.75 21V21.1H22V21V20.9H21.75V21ZM16 21V21.2H16.25V21V20.8H16V21ZM16.75 21V21.2H17.25V21V20.8H16.75V21ZM17.75 21V21.2H18.25V21V20.8H17.75V21ZM18.75 21V21.2H19.25V21V20.8H18.75V21ZM19.75 21V21.2H20.25V21V20.8H19.75V21ZM20.75 21V21.2H21.25V21V20.8H20.75V21ZM21.75 21V21.2H22V21V20.8H21.75V21Z" fill="#999999" mask="url(#path-7-inside-2_121_12388)"/>
<path d="M24.4403 20V16.3636H24.8807V17.983H26.8196V16.3636H27.2599V20H26.8196V18.3736H24.8807V20H24.4403ZM28.0847 20V17.2727H28.5037V20H28.0847ZM28.2978 16.8182C28.2161 16.8182 28.1457 16.7904 28.0865 16.7347C28.0285 16.6791 27.9995 16.6122 27.9995 16.5341C27.9995 16.456 28.0285 16.3891 28.0865 16.3335C28.1457 16.2778 28.2161 16.25 28.2978 16.25C28.3794 16.25 28.4493 16.2778 28.5073 16.3335C28.5665 16.3891 28.5961 16.456 28.5961 16.5341C28.5961 16.6122 28.5665 16.6791 28.5073 16.7347C28.4493 16.7904 28.3794 16.8182 28.2978 16.8182ZM31.203 17.8835L30.8266 17.9901C30.8029 17.9273 30.768 17.8664 30.7219 17.8072C30.6769 17.7468 30.6153 17.6971 30.5372 17.658C30.4591 17.619 30.359 17.5994 30.2371 17.5994C30.0702 17.5994 29.9311 17.6379 29.8199 17.7148C29.7098 17.7906 29.6547 17.8871 29.6547 18.0043C29.6547 18.1084 29.6926 18.1907 29.7684 18.2511C29.8441 18.3114 29.9625 18.3617 30.1235 18.402L30.5283 18.5014C30.7722 18.5606 30.9539 18.6512 31.0734 18.7731C31.193 18.8938 31.2528 19.0495 31.2528 19.2401C31.2528 19.3963 31.2078 19.536 31.1178 19.6591C31.029 19.7822 30.9047 19.8793 30.7449 19.9503C30.5851 20.0213 30.3993 20.0568 30.1874 20.0568C29.9092 20.0568 29.679 19.9964 29.4967 19.8757C29.3144 19.755 29.199 19.5786 29.1505 19.3466L29.5482 19.2472C29.5861 19.3939 29.6577 19.504 29.7631 19.5774C29.8696 19.6508 30.0087 19.6875 30.1803 19.6875C30.3756 19.6875 30.5307 19.6461 30.6455 19.5632C30.7615 19.4792 30.8195 19.3786 30.8195 19.2614C30.8195 19.1667 30.7864 19.0874 30.7201 19.0234C30.6538 18.9583 30.552 18.9098 30.4147 18.8778L29.9601 18.7713C29.7104 18.7121 29.5269 18.6204 29.4097 18.4961C29.2937 18.3706 29.2357 18.2138 29.2357 18.0256C29.2357 17.8717 29.2789 17.7356 29.3653 17.6172C29.4529 17.4988 29.5719 17.4059 29.7222 17.3384C29.8737 17.271 30.0454 17.2372 30.2371 17.2372C30.507 17.2372 30.7189 17.2964 30.8728 17.4148C31.0278 17.5331 31.1379 17.6894 31.203 17.8835ZM33.0696 17.2727V17.6278H31.6562V17.2727H33.0696ZM32.0682 16.6193H32.4872V19.2188C32.4872 19.3371 32.5044 19.4259 32.5387 19.4851C32.5742 19.5431 32.6192 19.5821 32.6737 19.6023C32.7293 19.6212 32.7879 19.6307 32.8494 19.6307C32.8956 19.6307 32.9335 19.6283 32.9631 19.6236C32.9927 19.6177 33.0163 19.6129 33.0341 19.6094L33.1193 19.9858C33.0909 19.9964 33.0513 20.0071 33.0004 20.0178C32.9495 20.0296 32.8849 20.0355 32.8068 20.0355C32.6884 20.0355 32.5724 20.0101 32.4588 19.9592C32.3464 19.9083 32.2528 19.8307 32.1783 19.7266C32.1049 19.6224 32.0682 19.491 32.0682 19.3324V16.6193ZM34.7786 20.0568C34.5324 20.0568 34.3163 19.9982 34.1305 19.881C33.9458 19.7638 33.8014 19.5999 33.6973 19.3892C33.5943 19.1785 33.5428 18.9323 33.5428 18.6506C33.5428 18.3665 33.5943 18.1185 33.6973 17.9066C33.8014 17.6947 33.9458 17.5302 34.1305 17.413C34.3163 17.2958 34.5324 17.2372 34.7786 17.2372C35.0248 17.2372 35.2402 17.2958 35.4249 17.413C35.6107 17.5302 35.7551 17.6947 35.8581 17.9066C35.9623 18.1185 36.0144 18.3665 36.0144 18.6506C36.0144 18.9323 35.9623 19.1785 35.8581 19.3892C35.7551 19.5999 35.6107 19.7638 35.4249 19.881C35.2402 19.9982 35.0248 20.0568 34.7786 20.0568ZM34.7786 19.6804C34.9656 19.6804 35.1195 19.6325 35.2402 19.5366C35.361 19.4407 35.4503 19.3146 35.5083 19.1584C35.5663 19.0021 35.5953 18.8329 35.5953 18.6506C35.5953 18.4683 35.5663 18.2984 35.5083 18.141C35.4503 17.9835 35.361 17.8563 35.2402 17.7592C35.1195 17.6622 34.9656 17.6136 34.7786 17.6136C34.5916 17.6136 34.4377 17.6622 34.3169 17.7592C34.1962 17.8563 34.1068 17.9835 34.0488 18.141C33.9908 18.2984 33.9618 18.4683 33.9618 18.6506C33.9618 18.8329 33.9908 19.0021 34.0488 19.1584C34.1068 19.3146 34.1962 19.4407 34.3169 19.5366C34.4377 19.6325 34.5916 19.6804 34.7786 19.6804ZM36.654 20V17.2727H37.0589V17.6847H37.0873C37.137 17.5497 37.2269 17.4402 37.3572 17.3562C37.4874 17.2721 37.6341 17.2301 37.7975 17.2301C37.8283 17.2301 37.8667 17.2307 37.9129 17.2319C37.9591 17.2331 37.994 17.2348 38.0177 17.2372V17.6634C38.0035 17.6598 37.9709 17.6545 37.92 17.6474C37.8703 17.6391 37.8176 17.6349 37.762 17.6349C37.6294 17.6349 37.511 17.6628 37.4069 17.7184C37.3039 17.7728 37.2222 17.8486 37.1618 17.9457C37.1027 18.0415 37.0731 18.151 37.0731 18.2741V20H36.654ZM38.8673 21.0227C38.7963 21.0227 38.7329 21.0168 38.6773 21.005C38.6217 20.9943 38.5832 20.9837 38.5619 20.973L38.6684 20.6037C38.7702 20.6297 38.8602 20.6392 38.9383 20.6321C39.0164 20.625 39.0857 20.5901 39.146 20.5273C39.2076 20.4658 39.2638 20.3658 39.3147 20.2273L39.3928 20.0142L38.3843 17.2727H38.8389L39.5917 19.446H39.6201L40.373 17.2727H40.8275L39.6698 20.3977C39.6177 20.5386 39.5532 20.6552 39.4763 20.7475C39.3994 20.841 39.31 20.9103 39.2082 20.9553C39.1076 21.0002 38.9939 21.0227 38.8673 21.0227Z" fill="#231F20"/>
</g>
<g clip-path="url(#clip3_121_12388)">
<circle cx="11.5" cy="27.5" r="2.25" fill="white" stroke="#231F20" stroke-width="0.5"/>
<mask id="path-11-inside-3_121_12388" fill="white">
<path d="M16 25H22V30H16V25Z"/>
</mask>
<path d="M16 30V30.1H16.25V30V29.9H16V30ZM16.75 30V30.1H17.25V30V29.9H16.75V30ZM17.75 30V30.1H18.25V30V29.9H17.75V30ZM18.75 30V30.1H19.25V30V29.9H18.75V30ZM19.75 30V30.1H20.25V30V29.9H19.75V30ZM20.75 30V30.1H21.25V30V29.9H20.75V30ZM21.75 30V30.1H22V30V29.9H21.75V30ZM16 30V30.2H16.25V30V29.8H16V30ZM16.75 30V30.2H17.25V30V29.8H16.75V30ZM17.75 30V30.2H18.25V30V29.8H17.75V30ZM18.75 30V30.2H19.25V30V29.8H18.75V30ZM19.75 30V30.2H20.25V30V29.8H19.75V30ZM20.75 30V30.2H21.25V30V29.8H20.75V30ZM21.75 30V30.2H22V30V29.8H21.75V30Z" fill="#999999" mask="url(#path-11-inside-3_121_12388)"/>
<path d="M24.8807 25.3636V29H24.4403V25.3636H24.8807ZM26.1258 27.3594V29H25.7068V26.2727H26.1116V26.6989H26.1471C26.211 26.5604 26.3081 26.4491 26.4383 26.3651C26.5685 26.2798 26.7366 26.2372 26.9426 26.2372C27.1272 26.2372 27.2888 26.2751 27.4273 26.3509C27.5658 26.4254 27.6735 26.5391 27.7504 26.6918C27.8274 26.8433 27.8659 27.035 27.8659 27.267V29H27.4468V27.2955C27.4468 27.0812 27.3912 26.9143 27.2799 26.7947C27.1686 26.674 27.016 26.6136 26.8218 26.6136C26.6881 26.6136 26.5685 26.6426 26.4632 26.7006C26.359 26.7586 26.2767 26.8433 26.2164 26.9545C26.156 27.0658 26.1258 27.2008 26.1258 27.3594ZM30.764 26.2727L29.7555 29H29.3294L28.3208 26.2727H28.7754L29.5282 28.446H29.5566L30.3095 26.2727H30.764ZM32.3629 29.0568C32.1001 29.0568 31.8735 28.9988 31.6829 28.8828C31.4935 28.7656 31.3473 28.6023 31.2443 28.3928C31.1425 28.1821 31.0916 27.937 31.0916 27.6577C31.0916 27.3783 31.1425 27.1321 31.2443 26.919C31.3473 26.7048 31.4905 26.5379 31.674 26.4183C31.8587 26.2976 32.0741 26.2372 32.3203 26.2372C32.4624 26.2372 32.6026 26.2609 32.7411 26.3082C32.8796 26.3556 33.0057 26.4325 33.1193 26.5391C33.233 26.6444 33.3235 26.7841 33.391 26.9581C33.4585 27.1321 33.4922 27.3464 33.4922 27.6009V27.7784H31.3899V27.4162H33.0661C33.0661 27.2623 33.0353 27.125 32.9737 27.0043C32.9134 26.8835 32.8269 26.7882 32.7145 26.7184C32.6032 26.6486 32.4718 26.6136 32.3203 26.6136C32.1534 26.6136 32.009 26.6551 31.8871 26.7379C31.7663 26.8196 31.6734 26.9261 31.6083 27.0575C31.5432 27.1889 31.5107 27.3298 31.5107 27.4801V27.7216C31.5107 27.9276 31.5462 28.1022 31.6172 28.2454C31.6894 28.3874 31.7894 28.4957 31.9173 28.5703C32.0451 28.6437 32.1937 28.6804 32.3629 28.6804C32.473 28.6804 32.5724 28.665 32.6612 28.6342C32.7512 28.6023 32.8287 28.5549 32.8938 28.4922C32.9589 28.4283 33.0092 28.349 33.0447 28.2543L33.4496 28.3679C33.407 28.5052 33.3353 28.6259 33.2347 28.7301C33.1341 28.8331 33.0098 28.9136 32.8619 28.9716C32.7139 29.0284 32.5476 29.0568 32.3629 29.0568ZM36.0614 26.8835L35.685 26.9901C35.6613 26.9273 35.6264 26.8664 35.5803 26.8072C35.5353 26.7468 35.4737 26.6971 35.3956 26.658C35.3175 26.619 35.2174 26.5994 35.0955 26.5994C34.9286 26.5994 34.7895 26.6379 34.6783 26.7148C34.5682 26.7906 34.5131 26.8871 34.5131 27.0043C34.5131 27.1084 34.551 27.1907 34.6268 27.2511C34.7025 27.3114 34.8209 27.3617 34.9819 27.402L35.3867 27.5014C35.6306 27.5606 35.8123 27.6512 35.9318 27.7731C36.0514 27.8938 36.1112 28.0495 36.1112 28.2401C36.1112 28.3963 36.0662 28.536 35.9762 28.6591C35.8874 28.7822 35.7631 28.8793 35.6033 28.9503C35.4435 29.0213 35.2577 29.0568 35.0458 29.0568C34.7676 29.0568 34.5374 28.9964 34.3551 28.8757C34.1728 28.755 34.0574 28.5786 34.0089 28.3466L34.4066 28.2472C34.4445 28.3939 34.5161 28.504 34.6214 28.5774C34.728 28.6508 34.8671 28.6875 35.0387 28.6875C35.234 28.6875 35.3891 28.6461 35.5039 28.5632C35.6199 28.4792 35.6779 28.3786 35.6779 28.2614C35.6779 28.1667 35.6448 28.0874 35.5785 28.0234C35.5122 27.9583 35.4104 27.9098 35.2731 27.8778L34.8185 27.7713C34.5688 27.7121 34.3853 27.6204 34.2681 27.4961C34.1521 27.3706 34.0941 27.2138 34.0941 27.0256C34.0941 26.8717 34.1373 26.7356 34.2237 26.6172C34.3113 26.4988 34.4303 26.4059 34.5806 26.3384C34.7321 26.271 34.9038 26.2372 35.0955 26.2372C35.3654 26.2372 35.5773 26.2964 35.7312 26.4148C35.8862 26.5331 35.9963 26.6894 36.0614 26.8835ZM37.928 26.2727V26.6278H36.5146V26.2727H37.928ZM36.9266 25.6193H37.3456V28.2188C37.3456 28.3371 37.3628 28.4259 37.3971 28.4851C37.4326 28.5431 37.4776 28.5821 37.532 28.6023C37.5877 28.6212 37.6463 28.6307 37.7078 28.6307C37.754 28.6307 37.7919 28.6283 37.8215 28.6236C37.8511 28.6177 37.8747 28.6129 37.8925 28.6094L37.9777 28.9858C37.9493 28.9964 37.9097 29.0071 37.8588 29.0178C37.8079 29.0296 37.7433 29.0355 37.6652 29.0355C37.5468 29.0355 37.4308 29.0101 37.3172 28.9592C37.2048 28.9083 37.1112 28.8307 37.0367 28.7266C36.9633 28.6224 36.9266 28.491 36.9266 28.3324V25.6193ZM38.5583 29V26.2727H38.9774V29H38.5583ZM38.7714 25.8182C38.6897 25.8182 38.6193 25.7904 38.5601 25.7347C38.5021 25.6791 38.4731 25.6122 38.4731 25.5341C38.4731 25.456 38.5021 25.3891 38.5601 25.3335C38.6193 25.2778 38.6897 25.25 38.7714 25.25C38.8531 25.25 38.9229 25.2778 38.9809 25.3335C39.0401 25.3891 39.0697 25.456 39.0697 25.5341C39.0697 25.6122 39.0401 25.6791 38.9809 25.7347C38.9229 25.7904 38.8531 25.8182 38.7714 25.8182ZM40.8457 30.0795C40.6433 30.0795 40.4693 30.0535 40.3237 30.0014C40.1781 29.9505 40.0568 29.883 39.9597 29.799C39.8638 29.7161 39.7875 29.6274 39.7306 29.5327L40.0645 29.2983C40.1023 29.348 40.1503 29.4048 40.2083 29.4688C40.2663 29.5339 40.3456 29.5901 40.4462 29.6374C40.548 29.686 40.6812 29.7102 40.8457 29.7102C41.0659 29.7102 41.2476 29.657 41.3908 29.5504C41.534 29.4439 41.6056 29.277 41.6056 29.0497V28.4957H41.5701C41.5394 28.5455 41.4956 28.607 41.4387 28.6804C41.3831 28.7526 41.3026 28.8171 41.1973 28.8739C41.0931 28.9296 40.9522 28.9574 40.7747 28.9574C40.5545 28.9574 40.3568 28.9053 40.1816 28.8011C40.0076 28.697 39.8697 28.5455 39.7679 28.3466C39.6673 28.1477 39.617 27.9062 39.617 27.6222C39.617 27.3428 39.6661 27.0996 39.7644 26.8924C39.8626 26.6841 39.9993 26.5231 40.1745 26.4094C40.3497 26.2946 40.5521 26.2372 40.7818 26.2372C40.9593 26.2372 41.1002 26.2668 41.2044 26.326C41.3097 26.384 41.3902 26.4503 41.4458 26.5249C41.5027 26.5982 41.5465 26.6586 41.5772 26.706H41.6199V26.2727H42.0247V29.0781C42.0247 29.3125 41.9714 29.5031 41.8649 29.6499C41.7595 29.7978 41.6175 29.9061 41.4387 29.9748C41.2612 30.0446 41.0635 30.0795 40.8457 30.0795ZM40.8315 28.581C40.9996 28.581 41.1416 28.5425 41.2576 28.4656C41.3736 28.3886 41.4618 28.2779 41.5222 28.1335C41.5826 27.9891 41.6127 27.8163 41.6127 27.6151C41.6127 27.4186 41.5832 27.2451 41.524 27.0948C41.4648 26.9445 41.3772 26.8267 41.2612 26.7415C41.1452 26.6562 41.002 26.6136 40.8315 26.6136C40.6539 26.6136 40.506 26.6586 40.3876 26.7486C40.2704 26.8385 40.1822 26.9593 40.123 27.1108C40.065 27.2623 40.036 27.4304 40.036 27.6151C40.036 27.8045 40.0656 27.9719 40.1248 28.1175C40.1852 28.262 40.274 28.3756 40.3912 28.4585C40.5095 28.5401 40.6563 28.581 40.8315 28.581ZM43.5943 29.0639C43.4215 29.0639 43.2646 29.0314 43.1238 28.9663C42.9829 28.9 42.871 28.8047 42.7882 28.6804C42.7053 28.5549 42.6639 28.4034 42.6639 28.2259C42.6639 28.0696 42.6947 27.9429 42.7562 27.8459C42.8178 27.7476 42.9 27.6707 43.003 27.6151C43.106 27.5594 43.2196 27.518 43.3439 27.4908C43.4694 27.4624 43.5955 27.4399 43.7221 27.4233C43.8878 27.402 44.0222 27.386 44.1252 27.3754C44.2293 27.3635 44.3051 27.344 44.3525 27.3168C44.401 27.2895 44.4252 27.2422 44.4252 27.1747V27.1605C44.4252 26.9853 44.3773 26.8492 44.2814 26.7521C44.1867 26.6551 44.0429 26.6065 43.85 26.6065C43.6499 26.6065 43.4931 26.6503 43.3794 26.7379C43.2658 26.8255 43.1859 26.919 43.1397 27.0185L42.742 26.8764C42.813 26.7107 42.9077 26.5817 43.0261 26.4893C43.1457 26.3958 43.2759 26.3307 43.4167 26.294C43.5588 26.2562 43.6984 26.2372 43.8358 26.2372C43.9234 26.2372 44.024 26.2479 44.1376 26.2692C44.2524 26.2893 44.3631 26.3313 44.4696 26.3952C44.5774 26.4592 44.6667 26.5556 44.7377 26.6847C44.8088 26.8137 44.8443 26.9865 44.8443 27.2031V29H44.4252V28.6307H44.4039C44.3755 28.6899 44.3282 28.7532 44.2619 28.8207C44.1956 28.8881 44.1074 28.9455 43.9973 28.9929C43.8873 29.0402 43.7529 29.0639 43.5943 29.0639ZM43.6582 28.6875C43.8239 28.6875 43.9636 28.6549 44.0772 28.5898C44.1921 28.5247 44.2785 28.4407 44.3365 28.3377C44.3957 28.2347 44.4252 28.1264 44.4252 28.0128V27.6293C44.4075 27.6506 44.3684 27.6701 44.3081 27.6879C44.2489 27.7044 44.1802 27.7192 44.1021 27.7322C44.0252 27.7441 43.95 27.7547 43.8766 27.7642C43.8044 27.7725 43.7458 27.7796 43.7008 27.7855C43.5919 27.7997 43.4901 27.8228 43.3954 27.8548C43.3019 27.8855 43.2261 27.9323 43.1681 27.995C43.1113 28.0566 43.0829 28.1406 43.0829 28.2472C43.0829 28.3928 43.1368 28.5028 43.2445 28.5774C43.3534 28.6508 43.4913 28.6875 43.6582 28.6875ZM46.7952 26.2727V26.6278H45.3818V26.2727H46.7952ZM45.7938 25.6193H46.2128V28.2188C46.2128 28.3371 46.23 28.4259 46.2643 28.4851C46.2998 28.5431 46.3448 28.5821 46.3992 28.6023C46.4549 28.6212 46.5135 28.6307 46.575 28.6307C46.6212 28.6307 46.6591 28.6283 46.6887 28.6236C46.7182 28.6177 46.7419 28.6129 46.7597 28.6094L46.8449 28.9858C46.8165 28.9964 46.7768 29.0071 46.7259 29.0178C46.675 29.0296 46.6105 29.0355 46.5324 29.0355C46.414 29.0355 46.298 29.0101 46.1844 28.9592C46.0719 28.9083 45.9784 28.8307 45.9039 28.7266C45.8305 28.6224 45.7938 28.491 45.7938 28.3324V25.6193ZM47.4255 29V26.2727H47.8445V29H47.4255ZM47.6386 25.8182C47.5569 25.8182 47.4865 25.7904 47.4273 25.7347C47.3693 25.6791 47.3403 25.6122 47.3403 25.5341C47.3403 25.456 47.3693 25.3891 47.4273 25.3335C47.4865 25.2778 47.5569 25.25 47.6386 25.25C47.7203 25.25 47.7901 25.2778 47.8481 25.3335C47.9073 25.3891 47.9369 25.456 47.9369 25.5341C47.9369 25.6122 47.9073 25.6791 47.8481 25.7347C47.7901 25.7904 47.7203 25.8182 47.6386 25.8182ZM49.72 29.0568C49.4738 29.0568 49.2578 28.9982 49.0719 28.881C48.8873 28.7638 48.7428 28.5999 48.6387 28.3892C48.5357 28.1785 48.4842 27.9323 48.4842 27.6506C48.4842 27.3665 48.5357 27.1185 48.6387 26.9066C48.7428 26.6947 48.8873 26.5302 49.0719 26.413C49.2578 26.2958 49.4738 26.2372 49.72 26.2372C49.9662 26.2372 50.1816 26.2958 50.3663 26.413C50.5521 26.5302 50.6966 26.6947 50.7995 26.9066C50.9037 27.1185 50.9558 27.3665 50.9558 27.6506C50.9558 27.9323 50.9037 28.1785 50.7995 28.3892C50.6966 28.5999 50.5521 28.7638 50.3663 28.881C50.1816 28.9982 49.9662 29.0568 49.72 29.0568ZM49.72 28.6804C49.907 28.6804 50.0609 28.6325 50.1816 28.5366C50.3024 28.4407 50.3917 28.3146 50.4498 28.1584C50.5078 28.0021 50.5368 27.8329 50.5368 27.6506C50.5368 27.4683 50.5078 27.2984 50.4498 27.141C50.3917 26.9835 50.3024 26.8563 50.1816 26.7592C50.0609 26.6622 49.907 26.6136 49.72 26.6136C49.533 26.6136 49.3791 26.6622 49.2583 26.7592C49.1376 26.8563 49.0482 26.9835 48.9902 27.141C48.9322 27.2984 48.9032 27.4683 48.9032 27.6506C48.9032 27.8329 48.9322 28.0021 48.9902 28.1584C49.0482 28.3146 49.1376 28.4407 49.2583 28.5366C49.3791 28.6325 49.533 28.6804 49.72 28.6804ZM52.0145 27.3594V29H51.5954V26.2727H52.0003V26.6989H52.0358C52.0997 26.5604 52.1968 26.4491 52.327 26.3651C52.4572 26.2798 52.6253 26.2372 52.8312 26.2372C53.0159 26.2372 53.1775 26.2751 53.316 26.3509C53.4545 26.4254 53.5622 26.5391 53.6391 26.6918C53.7161 26.8433 53.7545 27.035 53.7545 27.267V29H53.3355V27.2955C53.3355 27.0812 53.2799 26.9143 53.1686 26.7947C53.0573 26.674 52.9046 26.6136 52.7105 26.6136C52.5767 26.6136 52.4572 26.6426 52.3518 26.7006C52.2477 26.7586 52.1654 26.8433 52.105 26.9545C52.0447 27.0658 52.0145 27.2008 52.0145 27.3594Z" fill="#231F20"/>
</g>
<g clip-path="url(#clip4_121_12388)">
<circle cx="11.5" cy="36.5" r="2.25" fill="white" stroke="#231F20" stroke-width="0.5"/>
<mask id="path-15-inside-4_121_12388" fill="white">
<path d="M16 34H22V39H16V34Z"/>
</mask>
<path d="M16 39V39.1H16.25V39V38.9H16V39ZM16.75 39V39.1H17.25V39V38.9H16.75V39ZM17.75 39V39.1H18.25V39V38.9H17.75V39ZM18.75 39V39.1H19.25V39V38.9H18.75V39ZM19.75 39V39.1H20.25V39V38.9H19.75V39ZM20.75 39V39.1H21.25V39V38.9H20.75V39ZM21.75 39V39.1H22V39V38.9H21.75V39ZM16 39V39.2H16.25V39V38.8H16V39ZM16.75 39V39.2H17.25V39V38.8H16.75V39ZM17.75 39V39.2H18.25V39V38.8H17.75V39ZM18.75 39V39.2H19.25V39V38.8H18.75V39ZM19.75 39V39.2H20.25V39V38.8H19.75V39ZM20.75 39V39.2H21.25V39V38.8H20.75V39ZM21.75 39V39.2H22V39V38.8H21.75V39Z" fill="#999999" mask="url(#path-15-inside-4_121_12388)"/>
<path d="M27.3239 34.3636V38H26.8977L24.9162 35.1449H24.8807V38H24.4403V34.3636H24.8665L26.8551 37.2259H26.8906V34.3636H27.3239ZM28.9507 38.0639C28.7779 38.0639 28.6211 38.0314 28.4802 37.9663C28.3393 37.9 28.2275 37.8047 28.1446 37.6804C28.0618 37.5549 28.0203 37.4034 28.0203 37.2259C28.0203 37.0696 28.0511 36.9429 28.1127 36.8459C28.1742 36.7476 28.2565 36.6707 28.3595 36.6151C28.4624 36.5594 28.5761 36.518 28.7004 36.4908C28.8258 36.4624 28.9519 36.4399 29.0786 36.4233C29.2443 36.402 29.3786 36.386 29.4816 36.3754C29.5858 36.3635 29.6615 36.344 29.7089 36.3168C29.7574 36.2895 29.7817 36.2422 29.7817 36.1747V36.1605C29.7817 35.9853 29.7338 35.8492 29.6379 35.7521C29.5432 35.6551 29.3994 35.6065 29.2064 35.6065C29.0064 35.6065 28.8495 35.6503 28.7359 35.7379C28.6222 35.8255 28.5423 35.919 28.4962 36.0185L28.0985 35.8764C28.1695 35.7107 28.2642 35.5817 28.3825 35.4893C28.5021 35.3958 28.6323 35.3307 28.7732 35.294C28.9152 35.2562 29.0549 35.2372 29.1922 35.2372C29.2798 35.2372 29.3804 35.2479 29.4941 35.2692C29.6089 35.2893 29.7195 35.3313 29.8261 35.3952C29.9338 35.4592 30.0232 35.5556 30.0942 35.6847C30.1652 35.8137 30.2007 35.9865 30.2007 36.2031V38H29.7817V37.6307H29.7604C29.732 37.6899 29.6846 37.7532 29.6183 37.8207C29.5521 37.8881 29.4639 37.9455 29.3538 37.9929C29.2437 38.0402 29.1093 38.0639 28.9507 38.0639ZM29.0146 37.6875C29.1804 37.6875 29.32 37.6549 29.4337 37.5898C29.5485 37.5247 29.6349 37.4407 29.6929 37.3377C29.7521 37.2347 29.7817 37.1264 29.7817 37.0128V36.6293C29.7639 36.6506 29.7249 36.6701 29.6645 36.6879C29.6053 36.7044 29.5367 36.7192 29.4585 36.7322C29.3816 36.7441 29.3064 36.7547 29.233 36.7642C29.1608 36.7725 29.1022 36.7796 29.0573 36.7855C28.9484 36.7997 28.8466 36.8228 28.7519 36.8548C28.6584 36.8855 28.5826 36.9323 28.5246 36.995C28.4678 37.0566 28.4394 37.1406 28.4394 37.2472C28.4394 37.3928 28.4932 37.5028 28.6009 37.5774C28.7098 37.6508 28.8477 37.6875 29.0146 37.6875ZM32.1516 35.2727V35.6278H30.7383V35.2727H32.1516ZM31.1502 34.6193H31.5692V37.2188C31.5692 37.3371 31.5864 37.4259 31.6207 37.4851C31.6563 37.5431 31.7012 37.5821 31.7557 37.6023C31.8113 37.6212 31.8699 37.6307 31.9315 37.6307C31.9776 37.6307 32.0155 37.6283 32.0451 37.6236C32.0747 37.6177 32.0984 37.6129 32.1161 37.6094L32.2013 37.9858C32.1729 37.9964 32.1333 38.0071 32.0824 38.0178C32.0315 38.0296 31.967 38.0355 31.8888 38.0355C31.7705 38.0355 31.6545 38.0101 31.5408 37.9592C31.4284 37.9083 31.3349 37.8307 31.2603 37.7266C31.1869 37.6224 31.1502 37.491 31.1502 37.3324V34.6193ZM34.5007 36.8849V35.2727H34.9197V38H34.5007V37.5384H34.4723C34.4084 37.6768 34.3089 37.7946 34.174 37.8917C34.0391 37.9876 33.8686 38.0355 33.6626 38.0355C33.4922 38.0355 33.3407 37.9982 33.2081 37.9237C33.0755 37.8479 32.9714 37.7343 32.8956 37.5827C32.8198 37.43 32.782 37.2377 32.782 37.0057V35.2727H33.201V36.9773C33.201 37.1761 33.2566 37.3348 33.3679 37.4531C33.4804 37.5715 33.6236 37.6307 33.7976 37.6307C33.9018 37.6307 34.0077 37.604 34.1154 37.5508C34.2243 37.4975 34.3155 37.4158 34.3888 37.3058C34.4634 37.1957 34.5007 37.0554 34.5007 36.8849ZM35.6872 38V35.2727H36.0921V35.6847H36.1205C36.1702 35.5497 36.2602 35.4402 36.3904 35.3562C36.5206 35.2721 36.6673 35.2301 36.8307 35.2301C36.8615 35.2301 36.8999 35.2307 36.9461 35.2319C36.9923 35.2331 37.0272 35.2348 37.0509 35.2372V35.6634C37.0367 35.6598 37.0041 35.6545 36.9532 35.6474C36.9035 35.6391 36.8508 35.6349 36.7952 35.6349C36.6626 35.6349 36.5442 35.6628 36.4401 35.7184C36.3371 35.7728 36.2554 35.8486 36.195 35.9457C36.1359 36.0415 36.1063 36.151 36.1063 36.2741V38H35.6872ZM38.608 38.0568C38.3453 38.0568 38.1186 37.9988 37.928 37.8828C37.7386 37.7656 37.5924 37.6023 37.4894 37.3928C37.3876 37.1821 37.3367 36.937 37.3367 36.6577C37.3367 36.3783 37.3876 36.1321 37.4894 35.919C37.5924 35.7048 37.7356 35.5379 37.9191 35.4183C38.1038 35.2976 38.3192 35.2372 38.5654 35.2372C38.7075 35.2372 38.8477 35.2609 38.9862 35.3082C39.1247 35.3556 39.2508 35.4325 39.3644 35.5391C39.4781 35.6444 39.5686 35.7841 39.6361 35.9581C39.7036 36.1321 39.7373 36.3464 39.7373 36.6009V36.7784H37.635V36.4162H39.3112C39.3112 36.2623 39.2804 36.125 39.2188 36.0043C39.1585 35.8835 39.0721 35.7882 38.9596 35.7184C38.8483 35.6486 38.7169 35.6136 38.5654 35.6136C38.3985 35.6136 38.2541 35.6551 38.1322 35.7379C38.0115 35.8196 37.9185 35.9261 37.8534 36.0575C37.7883 36.1889 37.7558 36.3298 37.7558 36.4801V36.7216C37.7558 36.9276 37.7913 37.1022 37.8623 37.2454C37.9345 37.3874 38.0345 37.4957 38.1624 37.5703C38.2902 37.6437 38.4388 37.6804 38.608 37.6804C38.7181 37.6804 38.8176 37.665 38.9063 37.6342C38.9963 37.6023 39.0738 37.5549 39.1389 37.4922C39.204 37.4283 39.2544 37.349 39.2899 37.2543L39.6947 37.3679C39.6521 37.5052 39.5805 37.6259 39.4798 37.7301C39.3792 37.8331 39.2549 37.9136 39.107 37.9716C38.959 38.0284 38.7927 38.0568 38.608 38.0568Z" fill="#231F20"/>
</g>
<g clip-path="url(#clip5_121_12388)">
<circle cx="11.5" cy="45.5" r="2.25" fill="white" stroke="#231F20" stroke-width="0.5"/>
<mask id="path-19-inside-5_121_12388" fill="white">
<path d="M16 43H22V48H16V43Z"/>
</mask>
<path d="M16 48V48.1H16.25V48V47.9H16V48ZM16.75 48V48.1H17.25V48V47.9H16.75V48ZM17.75 48V48.1H18.25V48V47.9H17.75V48ZM18.75 48V48.1H19.25V48V47.9H18.75V48ZM19.75 48V48.1H20.25V48V47.9H19.75V48ZM20.75 48V48.1H21.25V48V47.9H20.75V48ZM21.75 48V48.1H22V48V47.9H21.75V48ZM16 48V48.2H16.25V48V47.8H16V48ZM16.75 48V48.2H17.25V48V47.8H16.75V48ZM17.75 48V48.2H18.25V48V47.8H17.75V48ZM18.75 48V48.2H19.25V48V47.8H18.75V48ZM19.75 48V48.2H20.25V48V47.8H19.75V48ZM20.75 48V48.2H21.25V48V47.8H20.75V48ZM21.75 48V48.2H22V48V47.8H21.75V48Z" fill="#999999" mask="url(#path-19-inside-5_121_12388)"/>
<path d="M24.4403 47V43.3636H25.669C25.9531 43.3636 26.1863 43.4122 26.3686 43.5092C26.5509 43.6051 26.6858 43.7371 26.7734 43.9052C26.861 44.0733 26.9048 44.2644 26.9048 44.4787C26.9048 44.6929 26.861 44.8829 26.7734 45.0487C26.6858 45.2144 26.5515 45.3446 26.3704 45.4393C26.1893 45.5328 25.9579 45.5795 25.6761 45.5795H24.6818V45.1818H25.6619C25.8561 45.1818 26.0123 45.1534 26.1307 45.0966C26.2502 45.0398 26.3366 44.9593 26.3899 44.8551C26.4444 44.7498 26.4716 44.6243 26.4716 44.4787C26.4716 44.3331 26.4444 44.2058 26.3899 44.0969C26.3355 43.988 26.2485 43.904 26.1289 43.8448C26.0094 43.7844 25.8513 43.7543 25.6548 43.7543H24.8807V47H24.4403ZM26.152 45.3665L27.0469 47H26.5355L25.6548 45.3665H26.152ZM28.6959 47.0568C28.4331 47.0568 28.2065 46.9988 28.0159 46.8828C27.8265 46.7656 27.6803 46.6023 27.5773 46.3928C27.4755 46.1821 27.4246 45.937 27.4246 45.6577C27.4246 45.3783 27.4755 45.1321 27.5773 44.919C27.6803 44.7048 27.8235 44.5379 28.007 44.4183C28.1917 44.2976 28.4071 44.2372 28.6533 44.2372C28.7954 44.2372 28.9356 44.2609 29.0741 44.3082C29.2126 44.3556 29.3387 44.4325 29.4523 44.5391C29.566 44.6444 29.6565 44.7841 29.724 44.9581C29.7915 45.1321 29.8252 45.3464 29.8252 45.6009V45.7784H27.7229V45.4162H29.3991C29.3991 45.2623 29.3683 45.125 29.3067 45.0043C29.2464 44.8835 29.1599 44.7882 29.0475 44.7184C28.9362 44.6486 28.8048 44.6136 28.6533 44.6136C28.4864 44.6136 28.342 44.6551 28.2201 44.7379C28.0993 44.8196 28.0064 44.9261 27.9413 45.0575C27.8762 45.1889 27.8437 45.3298 27.8437 45.4801V45.7216C27.8437 45.9276 27.8792 46.1022 27.9502 46.2454C28.0224 46.3874 28.1224 46.4957 28.2503 46.5703C28.3781 46.6437 28.5267 46.6804 28.6959 46.6804C28.806 46.6804 28.9055 46.665 28.9942 46.6342C29.0842 46.6023 29.1617 46.5549 29.2268 46.4922C29.2919 46.4283 29.3422 46.349 29.3778 46.2543L29.7826 46.3679C29.74 46.5052 29.6684 46.6259 29.5677 46.7301C29.4671 46.8331 29.3428 46.9136 29.1949 46.9716C29.0469 47.0284 28.8806 47.0568 28.6959 47.0568ZM30.8817 43.3636V47H30.4626V43.3636H30.8817ZM31.6491 47V44.2727H32.0682V47H31.6491ZM31.8622 43.8182C31.7805 43.8182 31.7101 43.7904 31.6509 43.7347C31.5929 43.6791 31.5639 43.6122 31.5639 43.5341C31.5639 43.456 31.5929 43.3891 31.6509 43.3335C31.7101 43.2778 31.7805 43.25 31.8622 43.25C31.9439 43.25 32.0137 43.2778 32.0717 43.3335C32.1309 43.3891 32.1605 43.456 32.1605 43.5341C32.1605 43.6122 32.1309 43.6791 32.0717 43.7347C32.0137 43.7904 31.9439 43.8182 31.8622 43.8182ZM33.9365 48.0795C33.7341 48.0795 33.5601 48.0535 33.4145 48.0014C33.2689 47.9505 33.1476 47.883 33.0505 47.799C32.9546 47.7161 32.8783 47.6274 32.8215 47.5327L33.1553 47.2983C33.1932 47.348 33.2411 47.4048 33.2991 47.4688C33.3571 47.5339 33.4364 47.5901 33.537 47.6374C33.6388 47.686 33.772 47.7102 33.9365 47.7102C34.1567 47.7102 34.3384 47.657 34.4816 47.5504C34.6249 47.4439 34.6965 47.277 34.6965 47.0497V46.4957H34.661C34.6302 46.5455 34.5864 46.607 34.5296 46.6804C34.4739 46.7526 34.3934 46.8171 34.2881 46.8739C34.1839 46.9296 34.0431 46.9574 33.8655 46.9574C33.6453 46.9574 33.4477 46.9053 33.2725 46.8011C33.0985 46.697 32.9606 46.5455 32.8588 46.3466C32.7581 46.1477 32.7078 45.9062 32.7078 45.6222C32.7078 45.3428 32.757 45.0996 32.8552 44.8924C32.9535 44.6841 33.0902 44.5231 33.2654 44.4094C33.4405 44.2946 33.643 44.2372 33.8726 44.2372C34.0502 44.2372 34.191 44.2668 34.2952 44.326C34.4005 44.384 34.481 44.4503 34.5367 44.5249C34.5935 44.5982 34.6373 44.6586 34.6681 44.706H34.7107V44.2727H35.1155V47.0781C35.1155 47.3125 35.0622 47.5031 34.9557 47.6499C34.8503 47.7978 34.7083 47.9061 34.5296 47.9748C34.352 48.0446 34.1543 48.0795 33.9365 48.0795ZM33.9223 46.581C34.0904 46.581 34.2325 46.5425 34.3485 46.4656C34.4645 46.3886 34.5526 46.2779 34.613 46.1335C34.6734 45.9891 34.7036 45.8163 34.7036 45.6151C34.7036 45.4186 34.674 45.2451 34.6148 45.0948C34.5556 44.9445 34.468 44.8267 34.352 44.7415C34.236 44.6562 34.0928 44.6136 33.9223 44.6136C33.7448 44.6136 33.5968 44.6586 33.4784 44.7486C33.3612 44.8385 33.2731 44.9593 33.2139 45.1108C33.1559 45.2623 33.1269 45.4304 33.1269 45.6151C33.1269 45.8045 33.1565 45.9719 33.2156 46.1175C33.276 46.262 33.3648 46.3756 33.482 46.4585C33.6003 46.5401 33.7471 46.581 33.9223 46.581ZM35.8825 47V44.2727H36.3016V47H35.8825ZM36.0956 43.8182C36.0139 43.8182 35.9435 43.7904 35.8843 43.7347C35.8263 43.6791 35.7973 43.6122 35.7973 43.5341C35.7973 43.456 35.8263 43.3891 35.8843 43.3335C35.9435 43.2778 36.0139 43.25 36.0956 43.25C36.1773 43.25 36.2471 43.2778 36.3051 43.3335C36.3643 43.3891 36.3939 43.456 36.3939 43.5341C36.3939 43.6122 36.3643 43.6791 36.3051 43.7347C36.2471 43.7904 36.1773 43.8182 36.0956 43.8182ZM38.177 47.0568C37.9308 47.0568 37.7148 46.9982 37.5289 46.881C37.3443 46.7638 37.1999 46.5999 37.0957 46.3892C36.9927 46.1785 36.9412 45.9323 36.9412 45.6506C36.9412 45.3665 36.9927 45.1185 37.0957 44.9066C37.1999 44.6947 37.3443 44.5302 37.5289 44.413C37.7148 44.2958 37.9308 44.2372 38.177 44.2372C38.4232 44.2372 38.6387 44.2958 38.8233 44.413C39.0092 44.5302 39.1536 44.6947 39.2566 44.9066C39.3607 45.1185 39.4128 45.3665 39.4128 45.6506C39.4128 45.9323 39.3607 46.1785 39.2566 46.3892C39.1536 46.5999 39.0092 46.7638 38.8233 46.881C38.6387 46.9982 38.4232 47.0568 38.177 47.0568ZM38.177 46.6804C38.3641 46.6804 38.5179 46.6325 38.6387 46.5366C38.7594 46.4407 38.8488 46.3146 38.9068 46.1584C38.9648 46.0021 38.9938 45.8329 38.9938 45.6506C38.9938 45.4683 38.9648 45.2984 38.9068 45.141C38.8488 44.9835 38.7594 44.8563 38.6387 44.7592C38.5179 44.6622 38.3641 44.6136 38.177 44.6136C37.99 44.6136 37.8361 44.6622 37.7154 44.7592C37.5946 44.8563 37.5053 44.9835 37.4473 45.141C37.3893 45.2984 37.3603 45.4683 37.3603 45.6506C37.3603 45.8329 37.3893 46.0021 37.4473 46.1584C37.5053 46.3146 37.5946 46.4407 37.7154 46.5366C37.8361 46.6325 37.99 46.6804 38.177 46.6804ZM40.4715 45.3594V47H40.0525V44.2727H40.4573V44.6989H40.4928C40.5567 44.5604 40.6538 44.4491 40.784 44.3651C40.9142 44.2798 41.0823 44.2372 41.2883 44.2372C41.4729 44.2372 41.6345 44.2751 41.773 44.3509C41.9115 44.4254 42.0192 44.5391 42.0961 44.6918C42.1731 44.8433 42.2116 45.035 42.2116 45.267V47H41.7925V45.2955C41.7925 45.0812 41.7369 44.9143 41.6256 44.7947C41.5144 44.674 41.3617 44.6136 41.1675 44.6136C41.0338 44.6136 40.9142 44.6426 40.8089 44.7006C40.7047 44.7586 40.6224 44.8433 40.5621 44.9545C40.5017 45.0658 40.4715 45.2008 40.4715 45.3594Z" fill="#231F20"/>
</g>
<path d="M32.3759 53.3636V57H31.6071V53.3636H32.3759ZM36.05 53.3636V57H35.3859L33.8039 54.7113H33.7773V57H33.0084V53.3636H33.6831L35.2528 55.6506H35.2847V53.3636H36.05ZM36.5467 53.9975V53.3636H39.5332V53.9975H38.4199V57H37.66V53.9975H36.5467Z" fill="#999999"/>
</g>
<defs>
<clipPath id="clip0_121_12388">
<rect width="78" height="63" fill="white"/>
</clipPath>
<clipPath id="clip1_121_12388">
<rect width="57" height="5" fill="white" transform="translate(9 7)"/>
</clipPath>
<clipPath id="clip2_121_12388">
<rect width="57" height="5" fill="white" transform="translate(9 16)"/>
</clipPath>
<clipPath id="clip3_121_12388">
<rect width="57" height="5" fill="white" transform="translate(9 25)"/>
</clipPath>
<clipPath id="clip4_121_12388">
<rect width="57" height="5" fill="white" transform="translate(9 34)"/>
</clipPath>
<clipPath id="clip5_121_12388">
<rect width="57" height="5" fill="white" transform="translate(9 43)"/>
</clipPath>
</defs>
</svg>
