<svg width="57" height="5" viewBox="0 0 57 5" fill="none" xmlns="http://www.w3.org/2000/svg">
<g clip-path="url(#clip0_121_12439)">
<circle cx="2.5" cy="2.5" r="2.25" fill="white" stroke="#231F20" stroke-width="0.5"/>
<mask id="path-2-inside-1_121_12439" fill="white">
<path d="M7 0H13V5H7V0Z"/>
</mask>
<path d="M7 5V5.1H7.25V5V4.9H7V5ZM7.75 5V5.1H8.25V5V4.9H7.75V5ZM8.75 5V5.1H9.25V5V4.9H8.75V5ZM9.75 5V5.1H10.25V5V4.9H9.75V5ZM10.75 5V5.1H11.25V5V4.9H10.75V5ZM11.75 5V5.1H12.25V5V4.9H11.75V5ZM12.75 5V5.1H13V5V4.9H12.75V5ZM7 5V5.2H7.25V5V4.8H7V5ZM7.75 5V5.2H8.25V5V4.8H7.75V5ZM8.75 5V5.2H9.25V5V4.8H8.75V5ZM9.75 5V5.2H10.25V5V4.8H9.75V5ZM10.75 5V5.2H11.25V5V4.8H10.75V5ZM11.75 5V5.2H12.25V5V4.8H11.75V5ZM12.75 5V5.2H13V5V4.8H12.75V5Z" fill="#999999" mask="url(#path-2-inside-1_121_12439)"/>
<path d="M17.429 1.27273C17.4077 1.0928 17.3213 0.953125 17.1697 0.853693C17.0182 0.754261 16.8324 0.704545 16.6122 0.704545C16.4512 0.704545 16.3104 0.730587 16.1896 0.78267C16.0701 0.834754 15.9766 0.906368 15.9091 0.997514C15.8428 1.08866 15.8097 1.19223 15.8097 1.30824C15.8097 1.4053 15.8327 1.48875 15.8789 1.55859C15.9263 1.62725 15.9866 1.68466 16.06 1.73082C16.1334 1.7758 16.2103 1.81309 16.2908 1.84268C16.3713 1.87109 16.4453 1.89418 16.5128 1.91193L16.8821 2.01136C16.9768 2.03622 17.0821 2.07055 17.1982 2.11435C17.3153 2.15814 17.4272 2.21792 17.5337 2.29368C17.6415 2.36825 17.7302 2.46413 17.8001 2.58132C17.8699 2.69851 17.9048 2.84233 17.9048 3.01278C17.9048 3.20928 17.8533 3.38684 17.7504 3.54545C17.6486 3.70407 17.4994 3.83014 17.3029 3.92365C17.1076 4.01716 16.8703 4.06392 16.5909 4.06392C16.3305 4.06392 16.105 4.0219 15.9144 3.93786C15.725 3.85381 15.5759 3.73662 15.467 3.58629C15.3593 3.43596 15.2983 3.26136 15.2841 3.0625H15.7386C15.7505 3.19981 15.7966 3.31345 15.8771 3.40341C15.9588 3.49219 16.0618 3.55848 16.1861 3.60227C16.3116 3.64489 16.4465 3.66619 16.5909 3.66619C16.759 3.66619 16.9099 3.63897 17.0437 3.58452C17.1774 3.52888 17.2834 3.45194 17.3615 3.35369C17.4396 3.25426 17.4787 3.13826 17.4787 3.00568C17.4787 2.88494 17.445 2.7867 17.3775 2.71094C17.31 2.63518 17.2212 2.57363 17.1112 2.52628C17.0011 2.47893 16.8821 2.4375 16.7543 2.40199L16.3068 2.27415C16.0227 2.19247 15.7978 2.07588 15.6321 1.92436C15.4664 1.77285 15.3835 1.57457 15.3835 1.32955C15.3835 1.12595 15.4386 0.94839 15.5487 0.796875C15.6599 0.644176 15.8091 0.525805 15.9961 0.441761C16.1843 0.356534 16.3944 0.31392 16.6264 0.31392C16.8608 0.31392 17.0691 0.355942 17.2514 0.439986C17.4337 0.522845 17.5781 0.636482 17.6847 0.780895C17.7924 0.925308 17.8492 1.08925 17.8551 1.27273H17.429ZM19.7581 1.27273V1.62784H18.3447V1.27273H19.7581ZM18.7567 0.619318H19.1757V3.21875C19.1757 3.33712 19.1929 3.4259 19.2272 3.48509C19.2627 3.54309 19.3077 3.58215 19.3621 3.60227C19.4178 3.62121 19.4764 3.63068 19.5379 3.63068C19.5841 3.63068 19.622 3.62831 19.6515 3.62358C19.6811 3.61766 19.7048 3.61293 19.7226 3.60938L19.8078 3.9858C19.7794 3.99645 19.7397 4.0071 19.6888 4.01776C19.6379 4.02959 19.5734 4.03551 19.4953 4.03551C19.3769 4.03551 19.2609 4.01006 19.1473 3.95916C19.0348 3.90826 18.9413 3.83073 18.8667 3.72656C18.7934 3.6224 18.7567 3.491 18.7567 3.33239V0.619318ZM21.5026 4.05682C21.2398 4.05682 21.0131 3.99882 20.8225 3.88281C20.6331 3.76562 20.4869 3.60227 20.384 3.39276C20.2822 3.18205 20.2313 2.93703 20.2313 2.65767C20.2313 2.37831 20.2822 2.1321 20.384 1.91903C20.4869 1.70478 20.6302 1.53788 20.8137 1.41832C20.9983 1.29759 21.2137 1.23722 21.46 1.23722C21.602 1.23722 21.7423 1.26089 21.8808 1.30824C22.0193 1.35559 22.1453 1.43253 22.259 1.53906C22.3726 1.64441 22.4632 1.78409 22.5306 1.9581C22.5981 2.1321 22.6318 2.34635 22.6318 2.60085V2.77841H20.5296V2.41619H22.2057C22.2057 2.26231 22.1749 2.125 22.1134 2.00426C22.053 1.88352 21.9666 1.78823 21.8541 1.71839C21.7429 1.64856 21.6115 1.61364 21.46 1.61364C21.2931 1.61364 21.1486 1.65507 21.0267 1.73793C20.906 1.8196 20.8131 1.92614 20.748 2.05753C20.6829 2.18892 20.6503 2.32978 20.6503 2.48011V2.72159C20.6503 2.92756 20.6858 3.10215 20.7568 3.24538C20.829 3.38743 20.9291 3.49574 21.0569 3.57031C21.1847 3.6437 21.3333 3.6804 21.5026 3.6804C21.6127 3.6804 21.7121 3.66501 21.8009 3.63423C21.8908 3.60227 21.9684 3.55492 22.0335 3.49219C22.0986 3.42827 22.1489 3.34896 22.1844 3.25426L22.5892 3.3679C22.5466 3.50521 22.475 3.62595 22.3744 3.73011C22.2738 3.8331 22.1495 3.91359 22.0015 3.97159C21.8535 4.02841 21.6872 4.05682 21.5026 4.05682ZM24.0718 4.06392C23.899 4.06392 23.7422 4.03137 23.6013 3.96626C23.4604 3.89998 23.3486 3.80469 23.2657 3.6804C23.1829 3.55492 23.1414 3.40341 23.1414 3.22585C23.1414 3.0696 23.1722 2.94295 23.2338 2.84588C23.2953 2.74763 23.3776 2.67069 23.4806 2.61506C23.5835 2.55942 23.6972 2.51799 23.8215 2.49077C23.9469 2.46236 24.073 2.43987 24.1997 2.4233C24.3654 2.40199 24.4997 2.38601 24.6027 2.37536C24.7069 2.36352 24.7826 2.34399 24.83 2.31676C24.8785 2.28954 24.9028 2.24219 24.9028 2.17472V2.16051C24.9028 1.98532 24.8548 1.8492 24.759 1.75213C24.6643 1.65507 24.5204 1.60653 24.3275 1.60653C24.1275 1.60653 23.9706 1.65033 23.857 1.73793C23.7433 1.82552 23.6634 1.91903 23.6173 2.01847L23.2195 1.87642C23.2906 1.7107 23.3853 1.58168 23.5036 1.48935C23.6232 1.39583 23.7534 1.33073 23.8943 1.29403C24.0363 1.25616 24.176 1.23722 24.3133 1.23722C24.4009 1.23722 24.5015 1.24787 24.6151 1.26918C24.73 1.2893 24.8406 1.33132 24.9472 1.39524C25.0549 1.45916 25.1443 1.55563 25.2153 1.68466C25.2863 1.81368 25.3218 1.98651 25.3218 2.20312V4H24.9028V3.63068H24.8815C24.8531 3.68987 24.8057 3.7532 24.7394 3.82067C24.6731 3.88814 24.585 3.94555 24.4749 3.9929C24.3648 4.04025 24.2304 4.06392 24.0718 4.06392ZM24.1357 3.6875C24.3015 3.6875 24.4411 3.65495 24.5548 3.58984C24.6696 3.52474 24.756 3.4407 24.814 3.33771C24.8732 3.23473 24.9028 3.12642 24.9028 3.01278V2.62926C24.885 2.65057 24.846 2.6701 24.7856 2.68786C24.7264 2.70443 24.6578 2.71922 24.5796 2.73224C24.5027 2.74408 24.4275 2.75473 24.3541 2.7642C24.2819 2.77249 24.2233 2.77959 24.1784 2.78551C24.0695 2.79972 23.9677 2.8228 23.873 2.85476C23.7794 2.88554 23.7037 2.93229 23.6457 2.99503C23.5889 3.05658 23.5605 3.14062 23.5605 3.24716C23.5605 3.39276 23.6143 3.50284 23.722 3.57741C23.8309 3.6508 23.9688 3.6875 24.1357 3.6875ZM26.5057 0.363636V4H26.0866V0.363636H26.5057ZM28.4593 1.27273V1.62784H27.0459V1.27273H28.4593ZM27.4578 0.619318H27.8769V3.21875C27.8769 3.33712 27.894 3.4259 27.9284 3.48509C27.9639 3.54309 28.0088 3.58215 28.0633 3.60227C28.1189 3.62121 28.1775 3.63068 28.2391 3.63068C28.2852 3.63068 28.3231 3.62831 28.3527 3.62358C28.3823 3.61766 28.406 3.61293 28.4237 3.60938L28.509 3.9858C28.4806 3.99645 28.4409 4.0071 28.39 4.01776C28.3391 4.02959 28.2746 4.03551 28.1965 4.03551C28.0781 4.03551 27.9621 4.01006 27.8485 3.95916C27.736 3.90826 27.6425 3.83073 27.5679 3.72656C27.4945 3.6224 27.4578 3.491 27.4578 3.33239V0.619318ZM29.5672 2.35938V4H29.1482V0.363636H29.5672V1.69886H29.6027C29.6666 1.558 29.7625 1.44614 29.8904 1.36328C30.0194 1.27924 30.191 1.23722 30.4053 1.23722C30.5911 1.23722 30.7539 1.2745 30.8936 1.34908C31.0332 1.42247 31.1415 1.53551 31.2185 1.68821C31.2966 1.83973 31.3357 2.03267 31.3357 2.26705V4H30.9166V2.29545C30.9166 2.07884 30.8604 1.91134 30.748 1.79297C30.6367 1.67341 30.4822 1.61364 30.2845 1.61364C30.1472 1.61364 30.0241 1.64264 29.9152 1.70064C29.8075 1.75864 29.7223 1.84328 29.6595 1.95455C29.598 2.06581 29.5672 2.20076 29.5672 2.35938Z" fill="#231F20"/>
</g>
<defs>
<clipPath id="clip0_121_12439">
<rect width="57" height="5" fill="white"/>
</clipPath>
</defs>
</svg>
