<svg width="55" height="72" viewBox="0 0 55 72" fill="none" xmlns="http://www.w3.org/2000/svg">
<path d="M1.46069 30.47C2.78309 37.5656 3.28639 44.7896 2.96069 52C2.96069 52 -0.169307 55.13 3.21069 60.19L2.93069 65.66H51.7007L51.4207 60.19C54.8207 55.1 51.7007 52 51.7007 52C51.3773 44.7996 51.8806 37.5858 53.2007 30.5L51.7707 29.44C52.2075 28.1278 52.5714 26.7924 52.8607 25.44L51.9007 13.84C49.0507 15 47.2107 10.7 47.2107 10.7H7.44069C7.44069 10.7 5.60069 15 2.75069 13.84L1.80069 25.38C2.08941 26.7336 2.45669 28.0692 2.90069 29.38L1.46069 30.47Z" fill="white"/>
<path d="M27.3306 71.26C34.7606 71.26 40.7806 67.01 40.7806 61.77C40.7806 56.53 34.7806 52.28 27.3306 52.28C19.8806 52.28 13.8706 56.53 13.8706 61.77C13.8706 67.01 19.8706 71.26 27.3306 71.26ZM27.3306 68.76C21.3906 68.76 16.3306 65.56 16.3306 61.76C16.3306 57.96 21.3306 54.76 27.3306 54.76C33.3306 54.76 38.3306 57.96 38.3306 61.76C38.3306 65.56 33.3306 68.76 27.3806 68.76" fill="#DCDDDE"/>
<path d="M2.0607 30.8C2.35572 30.5889 2.63635 30.3584 2.9007 30.11C3.3557 34.15 3.54943 38.2151 3.4807 42.28C3.1207 38.55 2.7007 32.94 2.0607 30.8ZM3.6307 63.28C5.2566 63.5718 6.80729 64.1873 8.1907 65.09H3.4807C3.4807 64.66 3.5707 64.04 3.6307 63.28M3.7707 61.38C4.1507 61.82 4.5307 62.22 4.8907 62.58C4.5006 62.4747 4.10264 62.4012 3.7007 62.36C3.7007 62.05 3.7007 61.72 3.7707 61.36M0.770697 63.36C0.889969 63.5613 1.05219 63.7338 1.24579 63.8651C1.43939 63.9965 1.65959 64.0835 1.8907 64.12C1.68685 63.9731 1.51926 63.7815 1.4007 63.56C1.2907 63.36 1.4007 63.27 1.4907 63.22H1.7407C1.92389 63.2099 2.1075 63.2099 2.2907 63.22C2.1707 64.74 2.0807 65.66 2.0707 65.71L2.0007 66.42H10.3607C11.0807 66.95 11.5607 67.51 10.9407 67.79C10.495 67.9579 10.0114 67.9991 9.5437 67.9091C9.07597 67.8191 8.64229 67.6013 8.2907 67.28C9.5607 68.93 12.1407 69.1 12.5707 68.34C13.0007 67.58 11.7007 66.38 11.7007 66.38L11.5807 66.3C11.1007 65.93 10.5807 65.57 10.0807 65.21L9.9107 65.09C9.1607 64.59 8.3907 64.09 7.6207 63.71C6.20292 62.6519 4.9377 61.4035 3.8607 60V60C3.74736 59.86 3.64736 59.72 3.5607 59.58L3.4607 59.43C2.71399 58.3754 2.23989 57.1524 2.0807 55.87C1.9878 54.7858 2.25112 53.7009 2.8307 52.78C2.8307 54.26 2.7807 55.68 2.7307 56.99C3.03105 57.8015 3.43434 58.5712 3.9307 59.28C4.0707 56.75 5.1207 35.02 4.0407 28.93C4.46597 28.3794 4.76371 27.7413 4.91244 27.0617C5.06116 26.382 5.05715 25.6779 4.9007 25C4.30557 23.5861 3.84357 22.1197 3.5207 20.62C3.06847 19.2257 2.76348 17.7878 2.6107 16.33L1.8007 25.38V25.51C2.09529 26.387 2.33245 27.2822 2.5107 28.19C2.9461 27.8335 3.28913 27.3773 3.5107 26.86C3.3707 26.29 3.2207 25.74 3.0407 25.22L3.2107 23.35C3.5607 24.4 3.9107 25.22 3.9407 25.29C4.11858 26.0356 4.03381 26.8197 3.7007 27.51C3.47804 28.0726 3.137 28.5808 2.7007 29C2.27145 29.4533 1.79165 29.856 1.2707 30.2L0.960697 30.39L1.0707 30.74C1.9007 33.45 2.8107 50.37 2.8107 50.37V51.14C2.20892 51.7695 1.74652 52.5188 1.45361 53.3389C1.1607 54.159 1.04386 55.0317 1.1107 55.9C1.28374 57.2828 1.78052 58.6053 2.5607 59.76C2.5107 60.67 2.4607 61.5 2.4107 62.23H2.2307C1.2307 62.15 0.390697 62.7 0.810697 63.38M3.7007 19C3.19019 17.4113 2.85487 15.7716 2.7007 14.11V13.84L3.1107 13.71C4.1107 13.41 6.8407 12.2 6.8407 10.65V10H47.7707V10.65C47.7707 12.2 50.5207 13.41 51.4907 13.71L51.9007 13.84V14.11C51.7707 15.7683 51.4622 17.4078 50.9807 19L50.7007 14.8C49.6407 14.41 47.0407 13.27 46.5607 11.29H8.1007C7.6207 13.29 5.0307 14.41 3.9607 14.8L3.7007 19ZM51.7507 30.11C52.015 30.3584 52.2957 30.5889 52.5907 30.8C52.0007 32.94 51.5307 38.55 51.1807 42.28C51.1084 38.2153 51.2988 34.1502 51.7507 30.11M46.4707 65.11C47.8506 64.2076 49.398 63.592 51.0207 63.3C51.0807 64.06 51.1407 64.68 51.1807 65.11H46.4707ZM50.8807 61.4C50.8807 61.74 50.8807 62.07 50.9507 62.4C50.5488 62.4412 50.1508 62.5147 49.7607 62.62C50.1307 62.26 50.5107 61.86 50.8807 61.42M49.7607 25C49.6135 25.6701 49.616 26.3644 49.7681 27.0334C49.9202 27.7023 50.2182 28.3295 50.6407 28.87C49.5607 34.96 50.6407 56.69 50.7507 59.22C51.2471 58.5112 51.6504 57.7415 51.9507 56.93C51.9507 55.62 51.8707 54.2 51.8507 52.72C52.4303 53.641 52.6936 54.7258 52.6007 55.81C52.4405 57.0905 51.9702 58.3125 51.2307 59.37L51.1307 59.52L50.8307 59.94C49.7513 61.3506 48.4827 62.6057 47.0607 63.67C46.2494 64.1012 45.4616 64.5752 44.7007 65.09V65.09L44.5407 65.21C44.0207 65.57 43.5407 65.93 43.0307 66.3L42.9107 66.38C42.9107 66.38 41.6207 67.54 42.0507 68.3C42.4807 69.06 45.0507 68.89 46.3307 67.24C45.9764 67.5602 45.5411 67.7771 45.072 67.867C44.603 67.957 44.1183 67.9165 43.6707 67.75C43.0607 67.47 43.5407 66.91 44.2507 66.38H52.6007L52.5207 65.67C52.5207 65.62 52.4207 64.67 52.3007 63.18C52.4872 63.17 52.6742 63.17 52.8607 63.18V63.18H53.1107C53.2207 63.23 53.3107 63.32 53.2007 63.52C53.0821 63.7415 52.9145 63.9331 52.7107 64.08C52.9418 64.0435 53.162 63.9565 53.3556 63.8251C53.5492 63.6938 53.7114 63.5213 53.8307 63.32C54.2507 62.64 53.3907 62.09 52.4207 62.17H52.2307C52.2307 61.44 52.1307 60.61 52.0807 59.7C52.8692 58.5496 53.3668 57.225 53.5307 55.84C53.5975 54.9717 53.4807 54.099 53.1878 53.2789C52.8949 52.4588 52.4325 51.7095 51.8307 51.08V50.31C51.8307 50.31 52.7407 33.39 53.5807 30.68L53.6807 30.33L53.3707 30.14C52.8536 29.8137 52.374 29.4314 51.9407 29C51.5061 28.5872 51.165 28.0859 50.9407 27.53C50.6029 26.8416 50.5078 26.0593 50.6707 25.31C50.6707 25.24 51.0507 24.42 51.4007 23.37L51.5707 25.24C51.4007 25.76 51.2507 26.31 51.1107 26.88C51.328 27.3997 51.6717 27.8569 52.1107 28.21C52.2889 27.3022 52.5261 26.407 52.8207 25.53V25.4L52.0107 16.4C51.8579 17.8578 51.5529 19.2957 51.1007 20.69C50.7849 22.1641 50.3364 23.6067 49.7607 25M16.4907 66.38C16.3099 66.1824 16.1397 65.9755 15.9807 65.76V65.7C15.8339 65.5071 15.697 65.3069 15.5707 65.1C14.9412 64.1014 14.5955 62.9502 14.5707 61.77C14.5707 56.92 20.2907 52.98 27.3307 52.98C34.3707 52.98 40.0807 56.92 40.0807 61.77C40.061 62.951 39.7149 64.1035 39.0807 65.1C38.9607 65.3 38.8207 65.5 38.6807 65.7L38.6307 65.76C38.4717 65.9755 38.3014 66.1824 38.1207 66.38C35.8707 68.88 31.8607 70.55 27.2907 70.55C22.7207 70.55 18.7107 68.88 16.4507 66.38M37.7807 68.58C38.5863 67.9489 39.2998 67.2084 39.9007 66.38H42.1407L43.7707 65.09H42.2907C42.605 64.21 42.8001 63.2918 42.8707 62.36C43.2165 62.9244 43.7479 63.3508 44.3737 63.5661C44.9996 63.7814 45.6809 63.7722 46.3007 63.54C45.9007 63.65 44.3007 63.89 42.8507 60.85C42.7483 59.5184 42.1571 58.2718 41.1907 57.35C41.736 58.3797 42.0724 59.507 42.1805 60.6671C42.2887 61.8272 42.1664 62.9973 41.8207 64.11C41.7172 64.2416 41.585 64.3478 41.4343 64.4206C41.2835 64.4934 41.1181 64.5308 40.9507 64.53C41.3083 63.6465 41.495 62.7031 41.5007 61.75C41.5007 56.13 35.1407 51.56 27.3407 51.56C19.5407 51.56 13.1707 56.15 13.1707 61.77C13.1698 62.7219 13.3497 63.6652 13.7007 64.55C13.5335 64.5494 13.3686 64.5113 13.2181 64.4386C13.0675 64.3659 12.9352 64.2605 12.8307 64.13C12.1381 61.8821 12.3646 59.4513 13.4607 57.37C12.4943 58.2918 11.9031 59.5384 11.8007 60.87V60.87C10.3507 63.87 8.7407 63.67 8.3507 63.56C8.96904 63.7915 9.64874 63.8004 10.2729 63.585C10.8971 63.3697 11.4267 62.9436 11.7707 62.38C11.8511 63.3104 12.0459 64.2273 12.3507 65.11H10.8407L12.4707 66.4H14.7007C15.2914 67.2304 15.9987 67.9713 16.8007 68.6C16.7507 68.6 12.6507 71 9.5007 68.96C9.5007 68.96 10.4207 70.86 13.4407 70.74H13.6207C17.0907 70.4 18.7007 71.87 18.7007 71.87C18.5055 71.4034 18.1913 70.9963 17.7894 70.6892C17.3876 70.3821 16.9122 70.1858 16.4107 70.12C16.7607 69.99 17.1207 69.85 17.5007 69.68C18.5137 69.88 19.4158 70.4505 20.0307 71.28L25.2207 71.87C26.6321 72.0434 28.0593 72.0434 29.4707 71.87V71.87L34.6607 71.28C35.2727 70.4567 36.166 69.8873 37.1707 69.68C37.5507 69.85 37.9107 69.99 38.2607 70.12C37.7584 70.1871 37.2823 70.3837 36.879 70.6905C36.4758 70.9973 36.1593 71.4038 35.9607 71.87C35.9607 71.87 37.5807 70.4 41.0507 70.74H41.2307C44.2307 70.86 45.1707 68.96 45.1707 68.96C42.0807 70.96 38.0807 68.72 37.8807 68.6" fill="#231F20"/>
<rect x="2.69995" y="1" width="49.5" height="20" rx="4" fill="white"/>
<path fill-rule="evenodd" clip-rule="evenodd" d="M47.0038 7.81157C48.4251 8.73902 50.0183 9.37142 51.6888 9.67121C51.7125 9.37105 51.7408 9.09215 51.7666 8.83742C51.8079 8.42948 51.8429 8.08354 51.8429 7.81157L47.0038 7.81157ZM50.3943 10.3904C50.7642 10.7603 51.1546 11.1712 51.545 11.6233V11.6439C51.6169 11.274 51.6169 10.9349 51.6169 10.6164C51.2039 10.5741 50.7951 10.4986 50.3943 10.3904ZM54.1391 9.07003C54.3381 9.20501 54.5047 9.38221 54.6273 9.58901L54.5862 9.56846C55.0177 10.2671 54.1547 10.8322 53.1272 10.75H52.9423C52.8909 11.5 52.8395 12.3528 52.7882 13.2877C53.5897 14.4741 54.1002 15.8329 54.2779 17.2536C54.3466 18.1457 54.2266 19.0423 53.9256 19.8849C53.6247 20.7276 53.1496 21.4973 52.5313 22.1441V22.288L51.0177 22.288C51.1637 18.0502 51.33 14.6952 51.3806 13.7809C51.8906 14.5092 52.3049 15.2999 52.6135 16.1337C52.5621 17.4796 52.5108 18.9386 52.5108 20.4592C53.1062 19.5129 53.3768 18.3983 53.2813 17.2844C53.1178 15.9669 52.6307 14.7103 51.8635 13.6268L51.7608 13.4727C51.6717 13.3288 51.569 13.185 51.4525 13.0412C50.346 11.5992 49.0461 10.3165 47.5894 9.22941C46.7983 8.83899 46.0072 8.32528 45.2366 7.81157L45.062 7.68828C44.9232 7.58837 44.7829 7.48846 44.6424 7.38835C44.2626 7.11784 43.8808 6.84585 43.5208 6.56839L43.3975 6.48619C43.3975 6.48619 42.0619 5.25329 42.5037 4.47244C42.9455 3.6916 45.5962 3.86627 46.901 5.56151C46.5398 5.23136 46.0942 5.00765 45.6137 4.91516C45.1331 4.82268 44.6363 4.86503 44.1784 5.03753C43.5414 5.3252 44.0345 5.90057 44.7743 6.4451L53.3635 6.4451L53.2916 7.17457C53.2813 7.22594 53.1889 8.17117 53.0656 9.73285C53.2538 9.74322 53.4424 9.74322 53.6307 9.73285H53.8875C53.98 9.68148 54.093 9.58901 53.98 9.38353C53.8582 9.15591 53.686 8.95912 53.4766 8.80817C53.714 8.84565 53.9402 8.93506 54.1391 9.07003ZM3.62372 22.288H2.16701V22.2058C1.54873 21.559 1.07365 20.7892 0.772711 19.9466C0.471769 19.1039 0.351721 18.2074 0.420389 17.3152C0.588831 15.8922 1.10005 14.5313 1.91015 13.3494C1.89068 12.9949 1.86382 12.6523 1.83798 12.3226C1.79565 11.7826 1.75604 11.2773 1.75604 10.8116H1.56083C0.56423 10.8938 -0.319357 10.3288 0.112161 9.63011C0.234705 9.42331 0.401377 9.2461 0.600286 9.11113C0.799192 8.97616 1.02544 8.88674 1.26288 8.84927C1.05345 9.00022 0.881254 9.19701 0.759439 9.42462C0.646425 9.63011 0.738893 9.72258 0.851908 9.77395H1.10876C1.30041 9.7842 1.49248 9.7842 1.68412 9.77395C1.60044 8.73487 1.52622 7.9514 1.48717 7.53919C1.46869 7.3441 1.45809 7.23217 1.45809 7.21567L1.37589 6.48619L9.95488 6.48619C10.6844 5.94166 11.1775 5.3663 10.5508 5.07862C10.0909 4.90757 9.59291 4.86598 9.11103 4.95837C8.62914 5.05076 8.18184 5.2736 7.81784 5.60261C9.13294 3.90736 11.7734 3.7327 12.2152 4.51354C12.657 5.29438 11.3316 6.48619 11.3316 6.48619L11.2083 6.56839C11.0563 6.67867 10.9069 6.78809 10.7583 6.8969C10.3947 7.16314 10.0362 7.42571 9.65693 7.68828L9.49254 7.81157C8.71074 8.34053 7.90136 8.82753 7.06782 9.27051C5.60684 10.364 4.30346 11.6536 3.19443 13.1028L2.88621 13.5343L2.78346 13.6884C2.02366 14.775 1.54049 16.0305 1.37589 17.3461C1.28045 18.46 1.55099 19.5746 2.14646 20.5208C2.13726 19.8403 2.11572 19.1721 2.09472 18.5208C2.0688 17.7169 2.04372 16.9389 2.04372 16.1953C2.3523 15.3615 2.76666 14.5708 3.27663 13.8425C3.28344 13.9993 3.29389 14.2278 3.30724 14.5202C3.37143 15.9249 3.50299 18.8044 3.62372 22.288ZM2.99922 9.65066C4.66645 9.35063 6.25626 8.7182 7.674 7.79102L2.83484 7.79102C2.84071 7.85417 2.84701 7.92131 2.85366 7.9923C2.89356 8.41787 2.94639 8.98144 2.99922 9.65066ZM3.07114 10.5753C3.14306 10.9144 3.14306 11.2534 3.14306 11.6028V11.5822C3.52321 11.1301 3.91363 10.7192 4.29378 10.3493C3.89298 10.4575 3.48411 10.533 3.07114 10.5753ZM39.0002 7.1232C38.8368 6.90183 38.6619 6.6892 38.4762 6.48619H38.5173C36.1953 3.91763 32.0753 2.20184 27.38 2.20184C22.6847 2.20184 18.5647 3.91763 16.253 6.48619C16.0673 6.6892 15.8924 6.90183 15.729 7.1232L15.6776 7.18484C15.5338 7.39033 15.39 7.59581 15.2667 7.8013C14.615 8.82508 14.2594 10.0092 14.2392 11.2226C14.2392 16.2056 20.1058 20.2537 27.3389 20.2537C34.572 20.2537 40.4488 16.2056 40.4488 11.2226C40.4234 10.01 40.0682 8.82728 39.4214 7.8013C39.2916 7.58877 39.151 7.38301 39.0002 7.18484V7.1232ZM14.4242 6.48619C15.0415 5.6351 15.7747 4.87432 16.6023 4.22586L16.4996 4.20532C16.2941 4.08202 12.1844 1.7806 9.00965 3.83544C9.00965 3.83544 9.97543 1.88334 13.0577 2.00663H13.2426C16.8078 2.35595 18.4722 0.845641 18.4722 0.845641C18.2682 1.32461 17.943 1.74224 17.5287 2.05749C17.1144 2.37273 16.6252 2.57473 16.1091 2.64363C16.4687 2.7772 16.8386 2.92104 17.229 3.0957C18.2612 2.88274 19.1791 2.29765 19.8079 1.45182L25.1402 0.845641C26.5903 0.667526 28.0567 0.667526 29.5068 0.845641L34.8391 1.45182C35.4709 2.30408 36.3977 2.8902 37.4385 3.0957C37.8289 2.92104 38.1988 2.7772 38.5584 2.64363C38.0431 2.57601 37.5547 2.37437 37.1418 2.05886C36.729 1.74334 36.4061 1.32501 36.2056 0.845641C36.2056 0.845641 37.8597 2.35595 41.4249 2.00663H41.6098C44.7126 1.88334 45.6579 3.83544 45.6579 3.83544C42.6713 1.90132 38.8537 3.85175 38.2416 4.16445C38.1904 4.19062 38.1616 4.20532 38.1577 4.20532C38.9817 4.85124 39.7083 5.61249 40.3153 6.46564H42.6064L44.2811 7.79102H42.7297C43.0429 8.69793 43.243 9.63999 43.3256 10.5959C43.679 10.0169 44.2232 9.57906 44.8645 9.3578C45.5058 9.13654 46.2041 9.14564 46.8394 9.38353C46.4387 9.27051 44.7845 9.06503 43.2948 12.1473C43.1896 13.5154 42.5821 14.7962 41.5893 15.7433C42.7154 13.605 42.9481 11.1075 42.2365 8.7979C42.1292 8.66382 41.9932 8.55548 41.8385 8.48081C41.6839 8.40614 41.5144 8.36704 41.3427 8.36638C41.7033 9.27542 41.8881 10.2447 41.8872 11.2226C41.8872 16.9967 35.3425 21.7126 27.3286 21.7126C19.3147 21.7126 12.7803 17.0173 12.7803 11.2432C12.7862 10.2639 12.9779 9.29466 13.3454 8.38693C13.1734 8.38609 13.0034 8.42453 12.8485 8.49931C12.6936 8.57409 12.5579 8.68324 12.4515 8.81844C12.0964 9.96166 11.9707 11.1638 12.0818 12.3558C12.1929 13.5477 12.5385 14.7059 13.0988 15.7638C12.1059 14.8168 11.4984 13.5359 11.3933 12.1678C9.90351 9.04448 8.25963 9.29106 7.84866 9.40408C8.48546 9.16552 9.18544 9.15603 9.82847 9.37725C10.4715 9.59846 11.0175 10.0366 11.3727 10.6164C11.4453 9.65908 11.6457 8.71574 11.9686 7.81157L10.448 7.81157L12.1227 6.48619L14.4242 6.48619Z" fill="#231F20"/>
<circle cx="27.7" cy="3" r="2.5" fill="white" stroke="#231F20"/>
<path d="M24.106 16.4182C24.089 16.2742 24.0198 16.1625 23.8986 16.083C23.7774 16.0034 23.6288 15.9636 23.4526 15.9636C23.3238 15.9636 23.2111 15.9845 23.1145 16.0261C23.0189 16.0678 22.9441 16.1251 22.8901 16.198C22.8371 16.2709 22.8106 16.3538 22.8106 16.4466C22.8106 16.5242 22.829 16.591 22.866 16.6469C22.9038 16.7018 22.9521 16.7477 23.0109 16.7847C23.0696 16.8206 23.1311 16.8505 23.1955 16.8742C23.2599 16.8969 23.3191 16.9153 23.3731 16.9296L23.6685 17.0091C23.7443 17.029 23.8286 17.0564 23.9214 17.0915C24.0151 17.1265 24.1046 17.1743 24.1898 17.2349C24.276 17.2946 24.347 17.3713 24.4029 17.4651C24.4588 17.5588 24.4867 17.6739 24.4867 17.8102C24.4867 17.9674 24.4455 18.1095 24.3631 18.2364C24.2817 18.3633 24.1624 18.4641 24.0052 18.5389C23.8489 18.6137 23.6591 18.6511 23.4356 18.6511C23.2272 18.6511 23.0468 18.6175 22.8944 18.5503C22.7429 18.4831 22.6235 18.3893 22.5364 18.269C22.4502 18.1488 22.4015 18.0091 22.3901 17.85H22.7538C22.7632 17.9599 22.8002 18.0508 22.8645 18.1227C22.9299 18.1938 23.0123 18.2468 23.1117 18.2818C23.2121 18.3159 23.32 18.333 23.4356 18.333C23.57 18.333 23.6908 18.3112 23.7978 18.2676C23.9048 18.2231 23.9895 18.1616 24.052 18.083C24.1145 18.0034 24.1458 17.9106 24.1458 17.8046C24.1458 17.708 24.1188 17.6294 24.0648 17.5688C24.0109 17.5082 23.9398 17.4589 23.8518 17.421C23.7637 17.3832 23.6685 17.35 23.5663 17.3216L23.2083 17.2193C22.981 17.154 22.8011 17.0607 22.6685 16.9395C22.5359 16.8183 22.4697 16.6597 22.4697 16.4636C22.4697 16.3008 22.5137 16.1587 22.6018 16.0375C22.6908 15.9153 22.8101 15.8206 22.9597 15.7534C23.1103 15.6852 23.2784 15.6511 23.464 15.6511C23.6515 15.6511 23.8181 15.6848 23.964 15.752C24.1098 15.8183 24.2253 15.9092 24.3106 16.0247C24.3967 16.1403 24.4422 16.2714 24.4469 16.4182H24.106ZM25.1852 18.6H24.8159L25.8841 15.6909H26.2477L27.3159 18.6H26.9466L26.0773 16.1511H26.0545L25.1852 18.6ZM25.3216 17.4636H26.8102V17.7761H25.3216V17.4636ZM27.6149 15.6909L28.4785 18.1398H28.5126L29.3763 15.6909H29.7456L28.6774 18.6H28.3138L27.2456 15.6909H27.6149ZM30.1987 18.6V15.6909H31.9544V16.0034H30.551V16.9864H31.8635V17.2989H30.551V18.2875H31.9771V18.6H30.1987Z" fill="#999999"/>
<path d="M24.741 46.7827C24.7182 46.581 24.6245 46.4247 24.4597 46.3139C24.2949 46.2017 24.0876 46.1456 23.8376 46.1456C23.6586 46.1456 23.5038 46.174 23.3731 46.2308C23.2424 46.2862 23.1408 46.3629 23.0684 46.4609C22.9974 46.5575 22.9618 46.6676 22.9618 46.7912C22.9618 46.8949 22.986 46.9844 23.0343 47.0597C23.084 47.1349 23.1486 47.1982 23.2282 47.2493C23.3091 47.299 23.3958 47.3409 23.4881 47.375C23.5805 47.4077 23.6692 47.4347 23.7545 47.456L24.1806 47.5668C24.3198 47.6009 24.4626 47.647 24.6089 47.7053C24.7552 47.7635 24.8908 47.8402 25.0158 47.9354C25.1408 48.0305 25.2417 48.1484 25.3184 48.2891C25.3965 48.4297 25.4356 48.598 25.4356 48.794C25.4356 49.0412 25.3716 49.2607 25.2438 49.4524C25.1174 49.6442 24.9334 49.7955 24.692 49.9062C24.4519 50.017 24.1614 50.0724 23.8205 50.0724C23.4938 50.0724 23.2111 50.0206 22.9725 49.9169C22.7339 49.8132 22.5471 49.6662 22.4121 49.4759C22.2772 49.2841 22.2026 49.0568 22.1884 48.794H22.8489C22.8617 48.9517 22.9128 49.0831 23.0023 49.1882C23.0932 49.2919 23.209 49.3693 23.3496 49.4205C23.4917 49.4702 23.6472 49.495 23.8163 49.495C24.0023 49.495 24.1678 49.4659 24.3127 49.4077C24.459 49.348 24.5741 49.2656 24.6579 49.1605C24.7417 49.054 24.7836 48.9297 24.7836 48.7876C24.7836 48.6584 24.7466 48.5526 24.6728 48.4702C24.6003 48.3878 24.5016 48.3196 24.3766 48.2656C24.253 48.2116 24.1131 48.1641 23.9569 48.1229L23.4413 47.9822C23.0918 47.8871 22.8148 47.7472 22.6103 47.5625C22.4072 47.3778 22.3056 47.1335 22.3056 46.8295C22.3056 46.5781 22.3738 46.3587 22.5101 46.1712C22.6465 45.9837 22.8312 45.8381 23.0641 45.7344C23.2971 45.6293 23.5599 45.5767 23.8525 45.5767C24.1479 45.5767 24.4086 45.6286 24.6344 45.7322C24.8617 45.8359 25.0407 45.9787 25.1714 46.1605C25.302 46.3409 25.3702 46.5483 25.3759 46.7827H24.741ZM26.0071 46.2031V45.6364H29.3843V46.2031H28.0227V50H27.3665V46.2031H26.0071ZM30.1305 50V45.6364H31.6859C32.024 45.6364 32.3045 45.6946 32.5275 45.8111C32.752 45.9276 32.9196 46.0888 33.0304 46.2947C33.1412 46.4993 33.1966 46.7358 33.1966 47.0043C33.1966 47.2713 33.1405 47.5064 33.0283 47.7095C32.9175 47.9112 32.7498 48.0682 32.5254 48.1804C32.3024 48.2926 32.0219 48.3487 31.6838 48.3487H30.5055V47.782H31.6241C31.8372 47.782 32.0105 47.7514 32.144 47.6903C32.279 47.6293 32.3777 47.5405 32.4402 47.424C32.5027 47.3075 32.5339 47.1676 32.5339 47.0043C32.5339 46.8395 32.502 46.6967 32.4381 46.576C32.3756 46.4553 32.2768 46.3629 32.1419 46.299C32.0084 46.2337 31.8329 46.201 31.6156 46.201H30.7889V50H30.1305ZM32.2846 48.0312L33.3628 50H32.6128L31.556 48.0312H32.2846Z" fill="#231F20"/>
</svg>
