<svg width="575" height="69" viewBox="0 0 575 69" fill="none" xmlns="http://www.w3.org/2000/svg">
<g clip-path="url(#clip0_120_10431)">
<path d="M293.012 26.0859L312.068 25.0426L288.565 23.7619L324.53 21.794L292.499 20.0447L336.872 17.6207L261.315 13.4973L281.619 12.3915L244.551 10.3611L211.621 12.1604L196.807 10.7485L233.149 8.76178L204.026 7.18118L183.721 8.28697L160.166 7L138.142 8.20576L160.517 9.45525L135.824 10.7485L111.208 9.43026L125.501 8.64933L108.395 7.71221L53.8432 10.6922L73.1816 11.7481L11.8562 15.1217L47.9758 17.0959L28.911 18.1142L52.4148 19.3949L16.4492 21.3691L48.4804 23.1247L4.10718 25.5299L65.0819 28.8661L37.1647 30.3904L66.6385 31.9898L74.2422 31.5837L96.4117 32.7957L129.341 30.9964L144.138 32.4021L105.777 34.4888L158.464 37.3626L169.985 36.7378L149.244 35.6133L178.863 33.9952L199.613 35.1135L213.204 34.3763L232.551 35.4321L287.136 32.4521L267.798 31.4088L329.123 28.0601L293.012 26.0859ZM195.259 36.7066L215.145 37.7937L235.04 36.7004L215.145 35.6133L195.259 36.7066ZM76.2009 32.6145L96.0867 33.7016L76.2009 34.8011L56.2808 33.7141L76.2009 32.6145Z" fill="#DCDDDE"/>
<path d="M338.499 59.9575L353.205 59.1495L335.067 58.1573L362.852 56.6423L338.109 55.2936L372.385 53.4221L314.017 50.2317L329.698 49.394L301.068 47.8255L275.625 49.2158L264.189 48.1285L292.259 46.5957L269.761 45.3659L254.087 46.2273L235.883 45.2352L218.867 46.1679L236.152 47.1126L217.11 48.1523L198.061 47.1126L209.099 46.5185L195.914 45.7996L153.748 48.0988L168.69 48.9187L121.311 51.4675L149.21 52.9944L134.487 53.7964L152.642 54.7886L124.865 56.3036L149.6 57.6582L115.324 59.5297L162.435 62.1022L140.864 63.2905L163.639 64.5381L169.528 64.2114L186.649 65.1501L212.092 63.7598L223.512 64.8411L193.864 66.4571L234.533 68.6792L243.431 68.192L227.408 67.3127L250.288 66.065L266.32 66.9384L276.821 66.3443L291.762 67.1582L333.928 64.859L319.043 64.0688L366.423 61.4784L338.499 59.9575ZM262.985 68.1563L278.374 69L293.739 68.1623L278.374 67.3127L262.985 68.1563ZM171.008 65.0075L186.381 65.8511L171.008 66.6889L155.652 65.8511L171.008 65.0075Z" fill="#DCDDDE"/>
<path d="M477.168 29.9719L489.92 29.2784L474.174 28.4162L498.268 27.098L476.826 25.9298L506.548 24.3054L455.931 21.5378L469.53 20.7944L444.726 19.4387L422.659 20.6444L412.738 19.701L437.063 18.3703L417.545 17.3083L403.954 18.0517L388.139 17.1896L373.411 17.9955L388.404 18.8139L371.888 19.7135L355.372 18.8139L364.952 18.2891L353.516 17.6644L316.944 19.6636L329.893 20.3695L288.838 22.6124L313.035 23.9368L300.265 24.6303L316.011 25.4924L291.917 26.8106L313.377 27.9789L283.646 29.6033L324.504 31.8336L305.799 32.8582L325.539 33.9327L330.671 33.6578L345.468 34.4888L367.526 33.2393L377.439 34.1826L351.729 35.5821L387.027 37.5125L394.725 37.0877L380.852 36.363L400.686 35.2759L414.594 36.0381L423.694 35.5383L436.661 36.2505L473.225 34.2514L460.276 33.5454L501.33 31.3026L477.168 29.9719ZM411.677 37.0814L424.994 37.8124L438.32 37.0814L424.994 36.363L411.677 37.0814ZM331.911 34.3576L345.237 35.1135L331.911 35.8444L318.586 35.1135L331.911 34.3576Z" fill="#DCDDDE"/>
</g>
<path d="M64.2696 6.43174C64.049 7.86242 64.1226 9.30708 64.4881 10.7239C63.1152 10.0501 61.693 9.42418 60.227 8.84862C58.9003 8.21202 57.8226 7.36362 57.0882 6.37758C56.6114 5.80213 56.3333 5.37563 56.3333 5.37563C55.4554 6.02962 54.8828 6.84679 54.6883 7.7232C54.4937 8.59962 54.686 9.49567 55.2407 10.2974C52.6659 9.83708 49.9528 9.88167 47.4136 10.426C56.5319 14.488 51.6847 14.8265 46.4203 16.519C41.1559 18.2115 40.7785 20.3305 40.7785 20.3305C47.066 18.9223 49.569 20.7231 49.569 20.7231C46.1819 22.9301 49.2015 26.3761 49.2015 26.3761C52.4893 30.6682 60.6342 32.469 67.9249 33.2476C72.4282 33.7016 76.9861 33.8535 81.5329 33.7012L64.9252 37.208L50.0259 39.7738C50.0259 39.7738 35.1962 38.6906 29.753 30.1266C24.3098 21.5626 33.8155 14.8468 32.862 14.4068C31.9084 13.9667 30.8059 14.9213 30.6867 15.0228C34.8188 6.9598 47.2646 7.04781 47.7613 6.22187C48.2579 5.39594 45.3078 5.30793 45.3078 5.30793C57.8927 2.47808 64.2696 6.43174 64.2696 6.43174Z" fill="#231F20"/>
<path d="M548.188 29.4496V55.2838C562.65 55.2229 564.537 55.2838 567 53.0971V27.7097C562.372 29.3887 557.594 29.4496 548.188 29.4496Z" fill="white"/>
<path d="M548.188 29.4496V55.2838C562.65 55.2229 564.537 55.2838 567 53.0971V27.7097C562.372 29.3887 557.594 29.4496 548.188 29.4496Z" stroke="#231F20" stroke-width="0.934255" stroke-miterlimit="10"/>
<path d="M548.188 53.1783C567.656 54.688 565.997 50.7547 566.861 50.6328M547.582 31.3791C563.713 31.3452 565.153 30.587 566.613 29.822" stroke="#231F20" stroke-width="0.507747" stroke-miterlimit="10"/>
<path d="M8 34.0058V59.3932L43.2616 56.2519V30.8646L8 34.0058Z" fill="white"/>
<path d="M8 34.0058V59.3932L43.2616 56.2519V30.8646L8 34.0058Z" stroke="#231F20" stroke-width="0.934255" stroke-miterlimit="10"/>
<path d="M8.76489 35.705L43.2616 32.7127M8.76489 57.5111L43.2616 54.1735" stroke="#231F20" stroke-width="0.507747" stroke-miterlimit="10"/>
<path d="M43.2617 30.8645L19.2043 28.4409V53.8282L43.2617 56.2519V30.8645Z" fill="#DCDDDE"/>
<path d="M43.2617 30.8645L19.2043 28.4409V53.8282L43.2617 56.2519V30.8645Z" stroke="#231F20" stroke-width="0.934255" stroke-miterlimit="10"/>
<path d="M236.763 53.8215C175.428 61.4444 80.5396 46.212 19.2341 53.8215V28.4409C80.5694 20.8246 175.458 36.0571 236.763 28.4409V53.8215Z" fill="white"/>
<path d="M236.763 53.8215C175.428 61.4444 80.5396 46.212 19.2341 53.8215V28.4409C80.5694 20.8246 175.458 36.0571 236.763 28.4409V53.8215Z" stroke="#231F20" stroke-width="0.934255" stroke-miterlimit="10"/>
<path d="M236.763 30.4177C236.763 30.4177 217.026 35.8337 123.529 30.2214C57.4652 26.2339 24.4783 29.7272 19.3728 30.3365M237.647 51.3775C237.647 51.3775 217.285 57.2403 123.747 51.6009C57.6838 47.6134 24.6968 51.1135 19.5913 51.716" stroke="#231F20" stroke-width="0.507747" stroke-miterlimit="10"/>
<path d="M548.456 20.6284H236.674V61.6814H548.456V20.6284Z" fill="white"/>
<path d="M548.456 20.6284H236.674V61.6814H548.456V20.6284Z" stroke="#231F20" stroke-width="0.846246" stroke-miterlimit="10"/>
<path d="M234.598 16.3633V65.9533C235.079 65.0725 235.785 64.2565 236.684 63.5432V18.7734C235.787 18.0604 235.084 17.2443 234.608 16.3633" fill="white"/>
<path d="M234.598 16.3633V65.9533C235.079 65.0725 235.785 64.2565 236.684 63.5432V18.7734C235.784 18.0609 235.077 17.2448 234.598 16.3633V16.3633Z" stroke="#231F20" stroke-width="0.846246" stroke-miterlimit="10"/>
<path d="M236.674 56.3466C236.674 56.3466 237.737 63.34 245.017 63.34H266.87C266.87 63.34 273.991 61.6881 287.232 61.6881M236.674 25.9698C236.674 25.9698 237.737 18.9764 245.017 18.9764H266.87C266.87 18.9764 273.991 20.6486 287.232 20.6486" stroke="#231F20" stroke-width="0.846246" stroke-miterlimit="10"/>
<path d="M550.551 16.3633V65.9533C550.069 65.0725 549.363 64.2565 548.465 63.5432V18.7734C549.363 18.06 550.069 17.2441 550.551 16.3633" fill="white"/>
<path d="M550.551 16.3633V65.9533C550.069 65.0725 549.363 64.2565 548.465 63.5432V18.7734C549.363 18.06 550.069 17.2441 550.551 16.3633V16.3633Z" stroke="#231F20" stroke-width="0.846246" stroke-miterlimit="10"/>
<path d="M548.467 56.3466C548.467 56.3466 547.404 63.34 540.123 63.34H518.271C518.271 63.34 511.149 61.6881 497.908 61.6881M548.467 25.9698C548.467 25.9698 547.404 18.9764 540.123 18.9764H518.271C518.271 18.9764 511.149 20.6486 497.908 20.6486" stroke="#231F20" stroke-width="0.846246" stroke-miterlimit="10"/>
<path d="M258.427 61.6882C264.055 60.9296 269.767 60.4925 275.502 60.3816H509.619C515.36 60.4918 521.078 60.9288 526.713 61.6882M526.713 20.6351C521.077 21.3888 515.36 21.8236 509.619 21.935H275.502C269.768 21.8273 264.057 21.3971 258.427 20.6487" stroke="#231F20" stroke-width="0.507747" stroke-miterlimit="10"/>
<path d="M76.8447 17.1418C77.845 17.429 78.7432 17.8594 79.4783 18.4036C80.2135 18.9479 80.7685 19.5935 81.1059 20.2966C78.2751 20.2425 77.4407 18.7531 76.8447 17.1418Z" fill="white"/>
<path d="M232.105 57.2065C231.469 54.8573 229.036 51.0323 224.327 49.008C220.434 47.3426 217.037 47.7082 217.017 46.8755C217.017 45.8262 221.358 46.1511 221.358 46.1511C216.649 44.3165 209.905 46.5641 208.941 45.5147C208.365 44.8784 212.08 43.9983 212.08 43.9983C206.339 43.8561 199.575 45.8668 196.853 47.6947C203.697 46.1308 213.342 47.0177 217.762 49.6106C215.902 48.9062 213.891 48.4058 211.802 48.128C204.035 47.0651 195.393 48.6425 190.188 50.1183C186.557 50.974 183.081 52.1097 179.828 53.5033C175.955 55.0401 168.793 56.4685 163.936 55.0672C163.936 55.0672 171.534 63.6989 180.881 60.6998C181.567 60.4358 182.222 60.1717 182.868 59.9077C186.498 58.4653 189.912 56.7827 193.059 54.8844C197.329 52.8699 202.016 51.3001 206.965 50.2266C208.391 49.9387 209.892 49.8625 211.365 50.0032C215.05 50.3485 218.318 51.9598 219.311 53.8892C222.162 53.5507 229.383 55.1755 232.105 57.2336" fill="#231F20"/>
<path d="M70.2591 26.2542C69.4744 23.3702 63.6339 22.8692 60.6243 24.2232C61.8274 22.3113 64.0859 20.7987 66.9118 20.0123C65.4624 19.6461 63.975 19.3542 62.4618 19.139C64.3888 18.137 69.1268 17.3788 71.5305 17.5209C71.0621 17.4284 70.5839 17.3605 70.1002 17.3178L70.5571 15.4426C70.2889 13.8719 68.203 12.0576 65.7198 10.9879C64.4881 8.58458 65.7198 4.21796 67.3885 3.04675C66.5343 9.33605 79.5662 13.2017 82.0991 17.8594C80.6191 13.8787 74.5898 11.2858 71.7689 8.87569C71.4249 8.02136 71.3453 7.12762 71.5351 6.2512C71.7249 5.37479 72.18 4.53484 72.8715 3.78468C72.3252 8.00237 78.8312 11.4415 82.3275 13.8787C86.4198 16.7424 87.5025 19.227 86.837 21.2241C87.4365 21.3179 87.9643 21.5589 88.3197 21.901C88.6751 22.2432 88.8333 22.6625 88.764 23.0791C89.4454 22.9363 90.0757 22.6981 90.6144 22.3799C91.1532 22.0617 91.5886 21.6703 91.8928 21.2309C92.4193 24.3857 89.5586 27.642 86.4894 28.5695C86.7338 28.135 86.8199 27.6665 86.7403 27.2043C86.6607 26.742 86.4178 26.2999 86.0325 25.9157C84.6915 24.758 80.8177 24.6632 79.5165 24.7106C79.5165 24.7106 81.1952 23.1265 80.5893 22.2938C79.8542 21.258 72.2656 21.5491 68.8387 22.2938C70.4738 22.2737 72.1022 22.4408 73.6562 22.788C73.0999 23.316 71.61 25.5569 72.5834 26.261C73.5568 26.965 74.57 25.9699 74.719 25.8548C74.6097 26.0714 73.4674 28.3326 74.2521 28.9012C75.0368 29.4699 76.9042 29.1247 76.9042 29.1247C75.6824 31.0473 71.2226 32.2998 68.1434 32.2321C69.6261 31.7727 70.8026 30.9515 71.4411 29.9303C70.2384 30.1999 68.9632 30.2854 67.7064 30.1808C68.6997 29.9235 70.7856 28.2242 70.2591 26.2474M81.1058 20.2899C80.7672 19.5879 80.2116 18.9437 79.4765 18.4006C78.7414 17.8576 77.8439 17.4283 76.8446 17.1418C77.4406 18.7531 78.2749 20.2425 81.1058 20.2966" fill="#231F20"/>
<path d="M53.9991 14.4338C54.5057 13.2152 51.0193 11.0488 49.7181 10.6223C52.1982 10.544 54.6787 10.7734 57.0386 11.2993C56.4101 10.5716 56.0192 9.76011 55.8923 8.92013C55.7655 8.08015 55.9057 7.23141 56.3035 6.4317C58.7768 10.8525 68.3024 11.7597 70.5075 15.4358L70.0506 17.311C66.286 16.9793 60.7336 17.7443 57.9325 19.8633C59.4468 19.9687 60.9412 20.1797 62.3924 20.4929C58.151 20.9262 52.3105 23.4717 50.5624 24.6971C51.0789 23.0452 51.8238 21.6573 51.2974 20.6351C50.5524 19.2337 48.0394 18.6176 43.073 19.1863C46.5396 16.959 53.5025 15.6795 53.9991 14.4473" fill="#231F20"/>
<path d="M26.1872 25.6178L27.1805 27.1207C25.8197 27.2764 24.2901 30.939 24.2901 30.939C20.8235 29.585 23.7437 25.1981 23.7437 25.1981L26.1872 25.6178Z" fill="#231F20"/>
<path d="M18.5986 24.995C19.4497 24.5663 20.3776 24.2137 21.36 23.9456L22.9393 24.9002L22.1248 25.0694C22.1248 25.0694 20.6051 28.4544 21.2209 29.8558L22.2142 31.8191C22.2142 31.8191 18.9761 31.379 18.4795 30.5328C18.4795 30.5328 17.4365 26.7213 18.5986 24.995" fill="#231F20"/>
<path d="M16.7708 26.4302C16.7708 26.4302 16.9794 30.7765 17.635 31.1692L20.0387 31.8461L20.1082 33.3288C20.1082 33.3288 15.8173 32.4013 15.4597 31.2978C15.1021 30.1943 14.824 27.4186 14.824 27.4186C15.3191 26.9592 16.0143 26.6181 16.8105 26.4437" fill="#231F20"/>
<path d="M65.0279 55.5277H64.6955C64.6828 55.4567 64.659 55.3942 64.6242 55.3402C64.5894 55.2862 64.5467 55.2404 64.4963 55.2028C64.4459 55.1651 64.3894 55.1367 64.3269 55.1175C64.2651 55.0984 64.1994 55.0888 64.1298 55.0888C64.0041 55.0888 63.8916 55.1204 63.7921 55.1836C63.6934 55.2468 63.6153 55.3395 63.5578 55.4616C63.5009 55.5838 63.4725 55.733 63.4725 55.9091C63.4725 56.0866 63.5009 56.2365 63.5578 56.3587C63.6153 56.4808 63.6938 56.5732 63.7932 56.6357C63.8926 56.6982 64.0045 56.7294 64.1288 56.7294C64.1977 56.7294 64.263 56.7202 64.3248 56.7017C64.3873 56.6825 64.4438 56.6545 64.4942 56.6175C64.5446 56.5806 64.5872 56.5355 64.622 56.4822C64.6575 56.4283 64.682 56.3665 64.6955 56.2969L65.0279 56.2979C65.0102 56.4052 64.9757 56.5039 64.9246 56.5941C64.8742 56.6836 64.8092 56.761 64.7296 56.8263C64.6508 56.891 64.5606 56.9411 64.459 56.9766C64.3575 57.0121 64.2467 57.0298 64.1266 57.0298C63.9377 57.0298 63.7694 56.9851 63.6217 56.8956C63.4739 56.8054 63.3575 56.6765 63.2722 56.5089C63.1877 56.3413 63.1455 56.1413 63.1455 55.9091C63.1455 55.6761 63.1881 55.4762 63.2733 55.3093C63.3585 55.1417 63.475 55.0131 63.6227 54.9237C63.7705 54.8335 63.9384 54.7884 64.1266 54.7884C64.2424 54.7884 64.3504 54.805 64.4505 54.8384C64.5514 54.8711 64.6419 54.9194 64.7222 54.9833C64.8024 55.0465 64.8688 55.1239 64.9214 55.2156C64.9739 55.3065 65.0095 55.4105 65.0279 55.5277ZM65.4218 57V54.8182H65.751V55.7663H66.8387V54.8182H67.169V57H66.8387V56.0487H65.751V57H65.4218ZM67.8327 57H67.4833L68.2684 54.8182H68.6487L69.4339 57H69.0845L68.4676 55.2145H68.4506L67.8327 57ZM67.8913 56.1456H69.0248V56.4226H67.8913V56.1456ZM69.749 57V54.8182H70.5267C70.6957 54.8182 70.836 54.8473 70.9475 54.9055C71.0597 54.9638 71.1435 55.0444 71.1989 55.1474C71.2543 55.2496 71.282 55.3679 71.282 55.5021C71.282 55.6357 71.254 55.7532 71.1978 55.8548C71.1424 55.9556 71.0586 56.0341 70.9464 56.0902C70.8349 56.1463 70.6946 56.1744 70.5256 56.1744H69.9365V55.891H70.4958C70.6023 55.891 70.689 55.8757 70.7557 55.8452C70.8232 55.8146 70.8726 55.7702 70.9038 55.712C70.9351 55.6538 70.9507 55.5838 70.9507 55.5021C70.9507 55.4197 70.9347 55.3484 70.9027 55.288C70.8715 55.2276 70.8221 55.1815 70.7547 55.1495C70.6879 55.1168 70.6002 55.1005 70.4915 55.1005H70.0782V57H69.749ZM70.826 56.0156L71.3651 57H70.9901L70.4617 56.0156H70.826ZM71.8669 57H71.5174L72.3026 54.8182H72.6829L73.4681 57H73.1187L72.5018 55.2145H72.4848L71.8669 57ZM71.9255 56.1456H73.059V56.4226H71.9255V56.1456ZM75.4928 55.5277H75.1604C75.1476 55.4567 75.1238 55.3942 75.089 55.3402C75.0542 55.2862 75.0116 55.2404 74.9612 55.2028C74.9107 55.1651 74.8543 55.1367 74.7918 55.1175C74.73 55.0984 74.6643 55.0888 74.5947 55.0888C74.469 55.0888 74.3564 55.1204 74.257 55.1836C74.1582 55.2468 74.0801 55.3395 74.0226 55.4616C73.9658 55.5838 73.9374 55.733 73.9374 55.9091C73.9374 56.0866 73.9658 56.2365 74.0226 56.3587C74.0801 56.4808 74.1586 56.5732 74.258 56.6357C74.3575 56.6982 74.4693 56.7294 74.5936 56.7294C74.6625 56.7294 74.7278 56.7202 74.7896 56.7017C74.8521 56.6825 74.9086 56.6545 74.959 56.6175C75.0095 56.5806 75.0521 56.5355 75.0869 56.4822C75.1224 56.4283 75.1469 56.3665 75.1604 56.2969L75.4928 56.2979C75.475 56.4052 75.4406 56.5039 75.3894 56.5941C75.339 56.6836 75.274 56.761 75.1945 56.8263C75.1156 56.891 75.0254 56.9411 74.9239 56.9766C74.8223 57.0121 74.7115 57.0298 74.5915 57.0298C74.4026 57.0298 74.2342 56.9851 74.0865 56.8956C73.9388 56.8054 73.8223 56.6765 73.7371 56.5089C73.6526 56.3413 73.6103 56.1413 73.6103 55.9091C73.6103 55.6761 73.6529 55.4762 73.7381 55.3093C73.8234 55.1417 73.9399 55.0131 74.0876 54.9237C74.2353 54.8335 74.4033 54.7884 74.5915 54.7884C74.7073 54.7884 74.8152 54.805 74.9153 54.8384C75.0162 54.8711 75.1068 54.9194 75.187 54.9833C75.2673 55.0465 75.3337 55.1239 75.3862 55.2156C75.4388 55.3065 75.4743 55.4105 75.4928 55.5277ZM75.7791 55.1016V54.8182H77.4676V55.1016H76.7869V57H76.4588V55.1016H75.7791ZM77.8408 57V54.8182H79.2087V55.1016H78.17V55.7663H79.1373V56.0487H78.17V56.7166H79.2215V57H77.8408ZM79.6484 57V54.8182H80.4261C80.5951 54.8182 80.7354 54.8473 80.8469 54.9055C80.9591 54.9638 81.0429 55.0444 81.0983 55.1474C81.1537 55.2496 81.1814 55.3679 81.1814 55.5021C81.1814 55.6357 81.1534 55.7532 81.0973 55.8548C81.0419 55.9556 80.9581 56.0341 80.8458 56.0902C80.7343 56.1463 80.5941 56.1744 80.425 56.1744H79.8359V55.891H80.3952C80.5017 55.891 80.5884 55.8757 80.6551 55.8452C80.7226 55.8146 80.772 55.7702 80.8032 55.712C80.8345 55.6538 80.8501 55.5838 80.8501 55.5021C80.8501 55.4197 80.8341 55.3484 80.8022 55.288C80.7709 55.2276 80.7215 55.1815 80.6541 55.1495C80.5873 55.1168 80.4996 55.1005 80.3909 55.1005H79.9776V57H79.6484ZM80.7255 56.0156L81.2645 57H80.8895L80.3611 56.0156H80.7255ZM84.1369 54.8182V57H83.8344L82.7254 55.3999H82.7051V57H82.3759V54.8182H82.6806L83.7907 56.4205H83.8109V54.8182H84.1369ZM84.8014 57H84.452L85.2372 54.8182H85.6175L86.4027 57H86.0532L85.4364 55.2145H85.4193L84.8014 57ZM84.86 56.1456H85.9936V56.4226H84.86V56.1456ZM86.7177 54.8182H87.1172L87.8118 56.5142H87.8374L88.532 54.8182H88.9315V57H88.6183V55.4212H88.5981L87.9546 56.9968H87.6946L87.0512 55.4201H87.0309V57H86.7177V54.8182ZM89.4101 57V54.8182H90.778V55.1016H89.7393V55.7663H90.7066V56.0487H89.7393V56.7166H90.7908V57H89.4101Z" fill="#999999"/>
<path d="M242 38V38.1H242.25V38V37.9H242V38ZM242.75 38V38.1H243.25V38V37.9H242.75V38ZM243.75 38V38.1H244.25V38V37.9H243.75V38ZM244.75 38V38.1H245.25V38V37.9H244.75V38ZM245.75 38V38.1H246.25V38V37.9H245.75V38ZM246.75 38V38.1H247.25V38V37.9H246.75V38ZM247.75 38V38.1H248.25V38V37.9H247.75V38ZM248.75 38V38.1H249.25V38V37.9H248.75V38ZM249.75 38V38.1H250.25V38V37.9H249.75V38ZM250.75 38V38.1H251.25V38V37.9H250.75V38ZM251.75 38V38.1H252.25V38V37.9H251.75V38ZM252.75 38V38.1H253.25V38V37.9H252.75V38ZM253.75 38V38.1H254.25V38V37.9H253.75V38ZM254.75 38V38.1H255.25V38V37.9H254.75V38ZM255.75 38V38.1H256.25V38V37.9H255.75V38ZM256.75 38V38.1H257.25V38V37.9H256.75V38ZM257.75 38V38.1H258.25V38V37.9H257.75V38ZM258.75 38V38.1H259.25V38V37.9H258.75V38ZM259.75 38V38.1H260.25V38V37.9H259.75V38ZM260.75 38V38.1H261.25V38V37.9H260.75V38ZM261.75 38V38.1H262.25V38V37.9H261.75V38ZM262.75 38V38.1H263.25V38V37.9H262.75V38ZM263.75 38V38.1H264.25V38V37.9H263.75V38ZM264.75 38V38.1H265.25V38V37.9H264.75V38ZM265.75 38V38.1H266.25V38V37.9H265.75V38ZM266.75 38V38.1H267.25V38V37.9H266.75V38ZM267.75 38V38.1H268.25V38V37.9H267.75V38ZM268.75 38V38.1H269.25V38V37.9H268.75V38ZM269.75 38V38.1H270.25V38V37.9H269.75V38ZM270.75 38V38.1H271.25V38V37.9H270.75V38ZM271.75 38V38.1H272.25V38V37.9H271.75V38ZM272.75 38V38.1H273.25V38V37.9H272.75V38ZM273.75 38V38.1H274.25V38V37.9H273.75V38ZM274.75 38V38.1H275.25V38V37.9H274.75V38ZM275.75 38V38.1H276.25V38V37.9H275.75V38ZM276.75 38V38.1H277.25V38V37.9H276.75V38ZM277.75 38V38.1H278.25V38V37.9H277.75V38ZM278.75 38V38.1H279.25V38V37.9H278.75V38ZM279.75 38V38.1H280.25V38V37.9H279.75V38ZM280.75 38V38.1H281.25V38V37.9H280.75V38ZM281.75 38V38.1H282.25V38V37.9H281.75V38ZM282.75 38V38.1H283.25V38V37.9H282.75V38ZM283.75 38V38.1H284.25V38V37.9H283.75V38ZM284.75 38V38.1H285.25V38V37.9H284.75V38ZM285.75 38V38.1H286.25V38V37.9H285.75V38ZM286.75 38V38.1H287.25V38V37.9H286.75V38ZM287.75 38V38.1H288.25V38V37.9H287.75V38ZM288.75 38V38.1H289.25V38V37.9H288.75V38ZM289.75 38V38.1H290.25V38V37.9H289.75V38ZM290.75 38V38.1H291.25V38V37.9H290.75V38ZM291.75 38V38.1H292.25V38V37.9H291.75V38ZM292.75 38V38.1H293.25V38V37.9H292.75V38ZM293.75 38V38.1H294.25V38V37.9H293.75V38ZM294.75 38V38.1H295.25V38V37.9H294.75V38ZM295.75 38V38.1H296.25V38V37.9H295.75V38ZM296.75 38V38.1H297.25V38V37.9H296.75V38ZM297.75 38V38.1H298.25V38V37.9H297.75V38ZM298.75 38V38.1H299.25V38V37.9H298.75V38ZM299.75 38V38.1H300.25V38V37.9H299.75V38ZM300.75 38V38.1H301.25V38V37.9H300.75V38ZM301.75 38V38.1H302.25V38V37.9H301.75V38ZM302.75 38V38.1H303.25V38V37.9H302.75V38ZM303.75 38V38.1H304.25V38V37.9H303.75V38ZM304.75 38V38.1H305.25V38V37.9H304.75V38ZM305.75 38V38.1H306.25V38V37.9H305.75V38ZM306.75 38V38.1H307.25V38V37.9H306.75V38ZM307.75 38V38.1H308.25V38V37.9H307.75V38ZM308.75 38V38.1H309.25V38V37.9H308.75V38ZM309.75 38V38.1H310.25V38V37.9H309.75V38ZM310.75 38V38.1H311.25V38V37.9H310.75V38ZM311.75 38V38.1H312.25V38V37.9H311.75V38ZM312.75 38V38.1H313.25V38V37.9H312.75V38ZM313.75 38V38.1H314.25V38V37.9H313.75V38ZM314.75 38V38.1H315.25V38V37.9H314.75V38ZM315.75 38V38.1H316.25V38V37.9H315.75V38ZM316.75 38V38.1H317.25V38V37.9H316.75V38ZM317.75 38V38.1H318.25V38V37.9H317.75V38ZM318.75 38V38.1H319.25V38V37.9H318.75V38ZM319.75 38V38.1H320.25V38V37.9H319.75V38ZM320.75 38V38.1H321.25V38V37.9H320.75V38ZM321.75 38V38.1H322.25V38V37.9H321.75V38ZM322.75 38V38.1H323.25V38V37.9H322.75V38ZM323.75 38V38.1H324.25V38V37.9H323.75V38ZM324.75 38V38.1H325V38V37.9H324.75V38Z" fill="#999999"/>
<path d="M242.24 32V29.8182H243.017C243.186 29.8182 243.327 29.8473 243.438 29.9055C243.55 29.9638 243.634 30.0444 243.69 30.1474C243.745 30.2496 243.773 30.3679 243.773 30.5021C243.773 30.6357 243.745 30.7532 243.689 30.8548C243.633 30.9556 243.549 31.0341 243.437 31.0902C243.326 31.1463 243.185 31.1744 243.016 31.1744H242.427V30.891H242.987C243.093 30.891 243.18 30.8757 243.246 30.8452C243.314 30.8146 243.363 30.7702 243.395 30.712C243.426 30.6538 243.441 30.5838 243.441 30.5021C243.441 30.4197 243.425 30.3484 243.393 30.288C243.362 30.2276 243.313 30.1815 243.245 30.1495C243.179 30.1168 243.091 30.1005 242.982 30.1005H242.569V32H242.24ZM243.317 31.0156L243.856 32H243.481L242.952 31.0156H243.317ZM244.358 32H244.008L244.793 29.8182H245.174L245.959 32H245.609L244.993 30.2145H244.975L244.358 32ZM244.416 31.1456H245.55V31.4226H244.416V31.1456ZM247.983 30.5277H247.651C247.638 30.4567 247.615 30.3942 247.58 30.3402C247.545 30.2862 247.502 30.2404 247.452 30.2028C247.401 30.1651 247.345 30.1367 247.282 30.1175C247.221 30.0984 247.155 30.0888 247.085 30.0888C246.96 30.0888 246.847 30.1204 246.748 30.1836C246.649 30.2468 246.571 30.3395 246.513 30.4616C246.456 30.5838 246.428 30.733 246.428 30.9091C246.428 31.0866 246.456 31.2365 246.513 31.3587C246.571 31.4808 246.649 31.5732 246.749 31.6357C246.848 31.6982 246.96 31.7294 247.084 31.7294C247.153 31.7294 247.219 31.7202 247.28 31.7017C247.343 31.6825 247.399 31.6545 247.45 31.6175C247.5 31.5806 247.543 31.5355 247.578 31.4822C247.613 31.4283 247.638 31.3665 247.651 31.2969L247.983 31.2979C247.966 31.4052 247.931 31.5039 247.88 31.5941C247.83 31.6836 247.765 31.761 247.685 31.8263C247.606 31.891 247.516 31.9411 247.415 31.9766C247.313 32.0121 247.202 32.0298 247.082 32.0298C246.893 32.0298 246.725 31.9851 246.577 31.8956C246.43 31.8054 246.313 31.6765 246.228 31.5089C246.143 31.3413 246.101 31.1413 246.101 30.9091C246.101 30.6761 246.144 30.4762 246.229 30.3093C246.314 30.1417 246.431 30.0131 246.578 29.9237C246.726 29.8335 246.894 29.7884 247.082 29.7884C247.198 29.7884 247.306 29.805 247.406 29.8384C247.507 29.8711 247.597 29.9194 247.678 29.9833C247.758 30.0465 247.824 30.1239 247.877 30.2156C247.93 30.3065 247.965 30.4105 247.983 30.5277ZM248.377 32V29.8182H249.745V30.1016H248.707V30.7663H249.674V31.0487H248.707V31.7166H249.758V32H248.377Z" fill="#999999"/>
<path d="M333 38V38.1H333.25V38V37.9H333V38ZM333.75 38V38.1H334.25V38V37.9H333.75V38ZM334.75 38V38.1H335.25V38V37.9H334.75V38ZM335.75 38V38.1H336.25V38V37.9H335.75V38ZM336.75 38V38.1H337.25V38V37.9H336.75V38ZM337.75 38V38.1H338.25V38V37.9H337.75V38ZM338.75 38V38.1H339.25V38V37.9H338.75V38ZM339.75 38V38.1H340.25V38V37.9H339.75V38ZM340.75 38V38.1H341.25V38V37.9H340.75V38ZM341.75 38V38.1H342.25V38V37.9H341.75V38ZM342.75 38V38.1H343.25V38V37.9H342.75V38ZM343.75 38V38.1H344.25V38V37.9H343.75V38ZM344.75 38V38.1H345.25V38V37.9H344.75V38ZM345.75 38V38.1H346.25V38V37.9H345.75V38ZM346.75 38V38.1H347.25V38V37.9H346.75V38ZM347.75 38V38.1H348.25V38V37.9H347.75V38ZM348.75 38V38.1H349.25V38V37.9H348.75V38ZM349.75 38V38.1H350.25V38V37.9H349.75V38ZM350.75 38V38.1H351.25V38V37.9H350.75V38ZM351.75 38V38.1H352.25V38V37.9H351.75V38ZM352.75 38V38.1H353.25V38V37.9H352.75V38ZM353.75 38V38.1H354.25V38V37.9H353.75V38ZM354.75 38V38.1H355.25V38V37.9H354.75V38ZM355.75 38V38.1H356.25V38V37.9H355.75V38ZM356.75 38V38.1H357.25V38V37.9H356.75V38ZM357.75 38V38.1H358.25V38V37.9H357.75V38ZM358.75 38V38.1H359.25V38V37.9H358.75V38ZM359.75 38V38.1H360.25V38V37.9H359.75V38ZM360.75 38V38.1H361.25V38V37.9H360.75V38ZM361.75 38V38.1H362.25V38V37.9H361.75V38ZM362.75 38V38.1H363.25V38V37.9H362.75V38ZM363.75 38V38.1H364.25V38V37.9H363.75V38ZM364.75 38V38.1H365.25V38V37.9H364.75V38ZM365.75 38V38.1H366.25V38V37.9H365.75V38ZM366.75 38V38.1H367.25V38V37.9H366.75V38ZM367.75 38V38.1H368.25V38V37.9H367.75V38ZM368.75 38V38.1H369.25V38V37.9H368.75V38ZM369.75 38V38.1H370.25V38V37.9H369.75V38ZM370.75 38V38.1H371.25V38V37.9H370.75V38ZM371.75 38V38.1H372.25V38V37.9H371.75V38ZM372.75 38V38.1H373.25V38V37.9H372.75V38ZM373.75 38V38.1H374.25V38V37.9H373.75V38ZM374.75 38V38.1H375.25V38V37.9H374.75V38ZM375.75 38V38.1H376.25V38V37.9H375.75V38ZM376.75 38V38.1H377.25V38V37.9H376.75V38ZM377.75 38V38.1H378.25V38V37.9H377.75V38ZM378.75 38V38.1H379.25V38V37.9H378.75V38ZM379.75 38V38.1H380.25V38V37.9H379.75V38ZM380.75 38V38.1H381.25V38V37.9H380.75V38ZM381.75 38V38.1H382.25V38V37.9H381.75V38ZM382.75 38V38.1H383.25V38V37.9H382.75V38ZM383.75 38V38.1H384.25V38V37.9H383.75V38ZM384.75 38V38.1H385.25V38V37.9H384.75V38ZM385.75 38V38.1H386.25V38V37.9H385.75V38ZM386.75 38V38.1H387.25V38V37.9H386.75V38ZM387.75 38V38.1H388.25V38V37.9H387.75V38ZM388.75 38V38.1H389.25V38V37.9H388.75V38ZM389.75 38V38.1H390.25V38V37.9H389.75V38ZM390.75 38V38.1H391.25V38V37.9H390.75V38ZM391.75 38V38.1H392.25V38V37.9H391.75V38ZM392.75 38V38.1H393.25V38V37.9H392.75V38ZM393.75 38V38.1H394.25V38V37.9H393.75V38ZM394.75 38V38.1H395.25V38V37.9H394.75V38ZM395.75 38V38.1H396.25V38V37.9H395.75V38ZM396.75 38V38.1H397.25V38V37.9H396.75V38ZM397.75 38V38.1H398.25V38V37.9H397.75V38ZM398.75 38V38.1H399.25V38V37.9H398.75V38ZM399.75 38V38.1H400.25V38V37.9H399.75V38ZM400.75 38V38.1H401.25V38V37.9H400.75V38ZM401.75 38V38.1H402.25V38V37.9H401.75V38ZM402.75 38V38.1H403.25V38V37.9H402.75V38ZM403.75 38V38.1H404.25V38V37.9H403.75V38ZM404.75 38V38.1H405.25V38V37.9H404.75V38ZM405.75 38V38.1H406.25V38V37.9H405.75V38ZM406.75 38V38.1H407.25V38V37.9H406.75V38ZM407.75 38V38.1H408.25V38V37.9H407.75V38ZM408.75 38V38.1H409.25V38V37.9H408.75V38ZM409.75 38V38.1H410.25V38V37.9H409.75V38ZM410.75 38V38.1H411.25V38V37.9H410.75V38ZM411.75 38V38.1H412.25V38V37.9H411.75V38ZM412.75 38V38.1H413.25V38V37.9H412.75V38ZM413.75 38V38.1H414.25V38V37.9H413.75V38ZM414.75 38V38.1H415.25V38V37.9H414.75V38ZM415.75 38V38.1H416.25V38V37.9H415.75V38ZM416.75 38V38.1H417.25V38V37.9H416.75V38ZM417.75 38V38.1H418.25V38V37.9H417.75V38ZM418.75 38V38.1H419.25V38V37.9H418.75V38ZM419.75 38V38.1H420.25V38V37.9H419.75V38ZM420.75 38V38.1H421.25V38V37.9H420.75V38ZM421.75 38V38.1H422.25V38V37.9H421.75V38ZM422.75 38V38.1H423.25V38V37.9H422.75V38ZM423.75 38V38.1H424.25V38V37.9H423.75V38ZM424.75 38V38.1H425.25V38V37.9H424.75V38ZM425.75 38V38.1H426.25V38V37.9H425.75V38ZM426.75 38V38.1H427.25V38V37.9H426.75V38ZM427.75 38V38.1H428.25V38V37.9H427.75V38ZM428.75 38V38.1H429.25V38V37.9H428.75V38ZM429.75 38V38.1H430.25V38V37.9H429.75V38ZM430.75 38V38.1H431.25V38V37.9H430.75V38ZM431.75 38V38.1H432.25V38V37.9H431.75V38ZM432.75 38V38.1H433.25V38V37.9H432.75V38ZM433.75 38V38.1H434.25V38V37.9H433.75V38ZM434.75 38V38.1H435.25V38V37.9H434.75V38ZM435.75 38V38.1H436.25V38V37.9H435.75V38ZM436.75 38V38.1H437.25V38V37.9H436.75V38ZM437.75 38V38.1H438.25V38V37.9H437.75V38ZM438.75 38V38.1H439.25V38V37.9H438.75V38ZM439.75 38V38.1H440.25V38V37.9H439.75V38ZM440.75 38V38.1H441.25V38V37.9H440.75V38ZM441.75 38V38.1H442.25V38V37.9H441.75V38ZM442.75 38V38.1H443.25V38V37.9H442.75V38ZM443.75 38V38.1H444.25V38V37.9H443.75V38ZM444.75 38V38.1H445.25V38V37.9H444.75V38ZM445.75 38V38.1H446.25V38V37.9H445.75V38ZM446.75 38V38.1H447.25V38V37.9H446.75V38ZM447.75 38V38.1H448.25V38V37.9H447.75V38ZM448.75 38V38.1H449.25V38V37.9H448.75V38ZM449.75 38V38.1H450.25V38V37.9H449.75V38ZM450.75 38V38.1H451.25V38V37.9H450.75V38ZM451.75 38V38.1H452.25V38V37.9H451.75V38ZM452.75 38V38.1H453.25V38V37.9H452.75V38ZM453.75 38V38.1H454.25V38V37.9H453.75V38ZM454.75 38V38.1H455.25V38V37.9H454.75V38ZM455.75 38V38.1H456.25V38V37.9H455.75V38ZM456.75 38V38.1H457.25V38V37.9H456.75V38ZM457.75 38V38.1H458.25V38V37.9H457.75V38ZM458.75 38V38.1H459.25V38V37.9H458.75V38ZM459.75 38V38.1H460.25V38V37.9H459.75V38ZM460.75 38V38.1H461.25V38V37.9H460.75V38ZM461.75 38V38.1H462.25V38V37.9H461.75V38ZM462.75 38V38.1H463.25V38V37.9H462.75V38ZM463.75 38V38.1H464.25V38V37.9H463.75V38ZM464.75 38V38.1H465.25V38V37.9H464.75V38ZM465.75 38V38.1H466.25V38V37.9H465.75V38ZM466.75 38V38.1H467.25V38V37.9H466.75V38ZM467.75 38V38.1H468.25V38V37.9H467.75V38ZM468.75 38V38.1H469.25V38V37.9H468.75V38ZM469.75 38V38.1H470.25V38V37.9H469.75V38ZM470.75 38V38.1H471.25V38V37.9H470.75V38ZM471.75 38V38.1H472.25V38V37.9H471.75V38ZM472.75 38V38.1H473.25V38V37.9H472.75V38ZM473.75 38V38.1H474.25V38V37.9H473.75V38ZM474.75 38V38.1H475.25V38V37.9H474.75V38ZM475.75 38V38.1H476.25V38V37.9H475.75V38ZM476.75 38V38.1H477.25V38V37.9H476.75V38ZM477.75 38V38.1H478.25V38V37.9H477.75V38ZM478.75 38V38.1H479.25V38V37.9H478.75V38ZM479.75 38V38.1H480.25V38V37.9H479.75V38ZM480.75 38V38.1H481.25V38V37.9H480.75V38ZM481.75 38V38.1H482.25V38V37.9H481.75V38ZM482.75 38V38.1H483.25V38V37.9H482.75V38ZM483.75 38V38.1H484.25V38V37.9H483.75V38ZM484.75 38V38.1H485.25V38V37.9H484.75V38ZM485.75 38V38.1H486.25V38V37.9H485.75V38ZM486.75 38V38.1H487.25V38V37.9H486.75V38ZM487.75 38V38.1H488.25V38V37.9H487.75V38ZM488.75 38V38.1H489.25V38V37.9H488.75V38ZM489.75 38V38.1H490.25V38V37.9H489.75V38ZM490.75 38V38.1H491.25V38V37.9H490.75V38ZM491.75 38V38.1H492.25V38V37.9H491.75V38ZM492.75 38V38.1H493.25V38V37.9H492.75V38ZM493.75 38V38.1H494.25V38V37.9H493.75V38ZM494.75 38V38.1H495.25V38V37.9H494.75V38ZM495.75 38V38.1H496.25V38V37.9H495.75V38ZM496.75 38V38.1H497.25V38V37.9H496.75V38ZM497.75 38V38.1H498.25V38V37.9H497.75V38ZM498.75 38V38.1H499.25V38V37.9H498.75V38ZM499.75 38V38.1H500.25V38V37.9H499.75V38ZM500.75 38V38.1H501.25V38V37.9H500.75V38ZM501.75 38V38.1H502.25V38V37.9H501.75V38ZM502.75 38V38.1H503.25V38V37.9H502.75V38ZM503.75 38V38.1H504.25V38V37.9H503.75V38ZM504.75 38V38.1H505.25V38V37.9H504.75V38ZM505.75 38V38.1H506.25V38V37.9H505.75V38ZM506.75 38V38.1H507.25V38V37.9H506.75V38ZM507.75 38V38.1H508.25V38V37.9H507.75V38ZM508.75 38V38.1H509.25V38V37.9H508.75V38ZM509.75 38V38.1H510.25V38V37.9H509.75V38ZM510.75 38V38.1H511.25V38V37.9H510.75V38ZM511.75 38V38.1H512.25V38V37.9H511.75V38ZM512.75 38V38.1H513.25V38V37.9H512.75V38ZM513.75 38V38.1H514.25V38V37.9H513.75V38ZM514.75 38V38.1H515.25V38V37.9H514.75V38ZM515.75 38V38.1H516.25V38V37.9H515.75V38ZM516.75 38V38.1H517.25V38V37.9H516.75V38ZM517.75 38V38.1H518.25V38V37.9H517.75V38ZM518.75 38V38.1H519.25V38V37.9H518.75V38ZM519.75 38V38.1H520.25V38V37.9H519.75V38ZM520.75 38V38.1H521.25V38V37.9H520.75V38ZM521.75 38V38.1H522.25V38V37.9H521.75V38ZM522.75 38V38.1H523.25V38V37.9H522.75V38ZM523.75 38V38.1H524.25V38V37.9H523.75V38ZM524.75 38V38.1H525.25V38V37.9H524.75V38ZM525.75 38V38.1H526.25V38V37.9H525.75V38ZM526.75 38V38.1H527.25V38V37.9H526.75V38ZM527.75 38V38.1H528.25V38V37.9H527.75V38ZM528.75 38V38.1H529.25V38V37.9H528.75V38ZM529.75 38V38.1H530.25V38V37.9H529.75V38ZM530.75 38V38.1H531.25V38V37.9H530.75V38ZM531.75 38V38.1H532.25V38V37.9H531.75V38ZM532.75 38V38.1H533.25V38V37.9H532.75V38ZM533.75 38V38.1H534.25V38V37.9H533.75V38ZM534.75 38V38.1H535.25V38V37.9H534.75V38ZM535.75 38V38.1H536.25V38V37.9H535.75V38ZM536.75 38V38.1H537.25V38V37.9H536.75V38ZM537.75 38V38.1H538.25V38V37.9H537.75V38ZM538.75 38V38.1H539.25V38V37.9H538.75V38ZM539.75 38V38.1H540.25V38V37.9H539.75V38ZM540.75 38V38.1H541.25V38V37.9H540.75V38ZM541.75 38V38.1H542.25V38V37.9H541.75V38ZM542.75 38V38.1H543.25V38V37.9H542.75V38ZM543.75 38V38.1H544.25V38V37.9H543.75V38ZM544.75 38V38.1H545.25V38V37.9H544.75V38ZM545.75 38V38.1H546.25V38V37.9H545.75V38ZM546.75 38V38.1H547.25V38V37.9H546.75V38ZM547.75 38V38.1H548.25V38V37.9H547.75V38ZM548.75 38V38.1H549.25V38V37.9H548.75V38ZM549.75 38V38.1H550.25V38V37.9H549.75V38ZM550.75 38V38.1H551.25V38V37.9H550.75V38ZM551.75 38V38.1H552V38V37.9H551.75V38Z" fill="#999999"/>
<path d="M335.052 30.5277H334.719C334.707 30.4567 334.683 30.3942 334.648 30.3402C334.613 30.2862 334.571 30.2404 334.52 30.2028C334.47 30.1651 334.413 30.1367 334.351 30.1175C334.289 30.0984 334.223 30.0888 334.154 30.0888C334.028 30.0888 333.915 30.1204 333.816 30.1836C333.717 30.2468 333.639 30.3395 333.582 30.4616C333.525 30.5838 333.496 30.733 333.496 30.9091C333.496 31.0866 333.525 31.2365 333.582 31.3587C333.639 31.4808 333.718 31.5732 333.817 31.6357C333.917 31.6982 334.028 31.7294 334.153 31.7294C334.222 31.7294 334.287 31.7202 334.349 31.7017C334.411 31.6825 334.468 31.6545 334.518 31.6175C334.569 31.5806 334.611 31.5355 334.646 31.4822C334.681 31.4283 334.706 31.3665 334.719 31.2969L335.052 31.2979C335.034 31.4052 335 31.5039 334.949 31.5941C334.898 31.6836 334.833 31.761 334.754 31.8263C334.675 31.891 334.585 31.9411 334.483 31.9766C334.381 32.0121 334.271 32.0298 334.151 32.0298C333.962 32.0298 333.793 31.9851 333.646 31.8956C333.498 31.8054 333.381 31.6765 333.296 31.5089C333.212 31.3413 333.169 31.1413 333.169 30.9091C333.169 30.6761 333.212 30.4762 333.297 30.3093C333.382 30.1417 333.499 30.0131 333.647 29.9237C333.794 29.8335 333.962 29.7884 334.151 29.7884C334.266 29.7884 334.374 29.805 334.474 29.8384C334.575 29.8711 334.666 29.9194 334.746 29.9833C334.826 30.0465 334.893 30.1239 334.945 30.2156C334.998 30.3065 335.033 30.4105 335.052 30.5277ZM335.446 32V29.8182H335.775V31.7166H336.764V32H335.446ZM337.435 32H337.085L337.87 29.8182H338.251L339.036 32H338.687L338.07 30.2145H338.053L337.435 32ZM337.493 31.1456H338.627V31.4226H337.493V31.1456ZM340.523 30.3913C340.512 30.2905 340.465 30.2124 340.383 30.157C340.3 30.1009 340.197 30.0728 340.072 30.0728C339.982 30.0728 339.905 30.087 339.839 30.1154C339.774 30.1431 339.723 30.1815 339.687 30.2305C339.652 30.2788 339.634 30.3338 339.634 30.3956C339.634 30.4474 339.646 30.4922 339.67 30.5298C339.695 30.5675 339.727 30.5991 339.767 30.6246C339.808 30.6495 339.851 30.6705 339.897 30.6875C339.943 30.7038 339.988 30.7173 340.03 30.728L340.243 30.7834C340.313 30.8004 340.384 30.8235 340.457 30.8526C340.531 30.8817 340.598 30.9201 340.661 30.9677C340.723 31.0153 340.774 31.0742 340.812 31.1445C340.851 31.2148 340.871 31.299 340.871 31.397C340.871 31.5206 340.839 31.6303 340.775 31.7262C340.712 31.8221 340.62 31.8977 340.499 31.9531C340.379 32.0085 340.234 32.0362 340.063 32.0362C339.9 32.0362 339.759 32.0103 339.639 31.9585C339.52 31.9066 339.426 31.8331 339.359 31.7379C339.292 31.642 339.254 31.5284 339.247 31.397H339.577C339.584 31.4759 339.609 31.5415 339.654 31.5941C339.7 31.646 339.757 31.6847 339.828 31.7102C339.899 31.7351 339.977 31.7475 340.061 31.7475C340.154 31.7475 340.237 31.733 340.309 31.7038C340.382 31.674 340.44 31.6328 340.482 31.5803C340.524 31.527 340.545 31.4648 340.545 31.3938C340.545 31.3292 340.526 31.2763 340.489 31.2351C340.453 31.1939 340.404 31.1598 340.341 31.1328C340.279 31.1058 340.21 31.082 340.131 31.0614L339.874 30.9911C339.699 30.9435 339.56 30.8736 339.458 30.7812C339.357 30.6889 339.306 30.5668 339.306 30.4148C339.306 30.2891 339.34 30.1793 339.408 30.0856C339.476 29.9918 339.569 29.919 339.685 29.8672C339.801 29.8146 339.933 29.7884 340.079 29.7884C340.227 29.7884 340.357 29.8143 340.47 29.8661C340.584 29.918 340.673 29.9893 340.739 30.0803C340.804 30.1705 340.838 30.2741 340.841 30.3913H340.523ZM342.454 30.3913C342.443 30.2905 342.396 30.2124 342.313 30.157C342.231 30.1009 342.127 30.0728 342.002 30.0728C341.913 30.0728 341.835 30.087 341.77 30.1154C341.705 30.1431 341.654 30.1815 341.618 30.2305C341.582 30.2788 341.565 30.3338 341.565 30.3956C341.565 30.4474 341.577 30.4922 341.601 30.5298C341.626 30.5675 341.658 30.5991 341.698 30.6246C341.738 30.6495 341.782 30.6705 341.828 30.6875C341.874 30.7038 341.918 30.7173 341.961 30.728L342.174 30.7834C342.244 30.8004 342.315 30.8235 342.388 30.8526C342.461 30.8817 342.529 30.9201 342.592 30.9677C342.654 31.0153 342.704 31.0742 342.743 31.1445C342.782 31.2148 342.801 31.299 342.801 31.397C342.801 31.5206 342.769 31.6303 342.706 31.7262C342.642 31.8221 342.55 31.8977 342.43 31.9531C342.31 32.0085 342.164 32.0362 341.994 32.0362C341.831 32.0362 341.689 32.0103 341.57 31.9585C341.451 31.9066 341.357 31.8331 341.29 31.7379C341.222 31.642 341.185 31.5284 341.178 31.397H341.508C341.514 31.4759 341.54 31.5415 341.585 31.5941C341.63 31.646 341.688 31.6847 341.758 31.7102C341.829 31.7351 341.907 31.7475 341.992 31.7475C342.085 31.7475 342.168 31.733 342.24 31.7038C342.313 31.674 342.371 31.6328 342.413 31.5803C342.454 31.527 342.475 31.4648 342.475 31.3938C342.475 31.3292 342.457 31.2763 342.42 31.2351C342.384 31.1939 342.334 31.1598 342.272 31.1328C342.21 31.1058 342.14 31.082 342.062 31.0614L341.804 30.9911C341.63 30.9435 341.491 30.8736 341.389 30.7812C341.287 30.6889 341.236 30.5668 341.236 30.4148C341.236 30.2891 341.271 30.1793 341.339 30.0856C341.407 29.9918 341.499 29.919 341.616 29.8672C341.732 29.8146 341.864 29.7884 342.01 29.7884C342.158 29.7884 342.288 29.8143 342.401 29.8661C342.514 29.918 342.604 29.9893 342.669 30.0803C342.735 30.1705 342.769 30.2741 342.772 30.3913H342.454ZM344.598 32.0309C344.452 32.0309 344.326 32.0043 344.22 31.951C344.115 31.8977 344.034 31.8253 343.977 31.7337C343.92 31.6413 343.892 31.5369 343.892 31.4205C343.892 31.3317 343.91 31.2528 343.947 31.1839C343.984 31.1143 344.036 31.0501 344.102 30.9911C344.168 30.9322 344.244 30.8729 344.331 30.8132L344.682 30.565C344.742 30.5259 344.788 30.4847 344.822 30.4414C344.855 30.3974 344.872 30.343 344.872 30.2784C344.872 30.2273 344.85 30.1783 344.806 30.1314C344.762 30.0845 344.703 30.0611 344.629 30.0611C344.578 30.0611 344.533 30.0735 344.494 30.0984C344.455 30.1232 344.425 30.1552 344.403 30.1942C344.382 30.2326 344.371 30.2731 344.371 30.3157C344.371 30.3654 344.385 30.4155 344.412 30.4659C344.439 30.5163 344.475 30.5685 344.518 30.6225C344.562 30.6758 344.607 30.7312 344.655 30.7887L345.668 32H345.308L344.469 31.0146C344.399 30.9315 344.334 30.8533 344.273 30.7802C344.213 30.7063 344.164 30.6317 344.126 30.5565C344.089 30.4805 344.071 30.3984 344.071 30.3104C344.071 30.2102 344.093 30.1214 344.139 30.044C344.185 29.9659 344.249 29.9048 344.332 29.8608C344.414 29.8168 344.511 29.7947 344.622 29.7947C344.734 29.7947 344.83 29.8168 344.91 29.8608C344.991 29.9041 345.053 29.962 345.097 30.0344C345.141 30.1062 345.163 30.1847 345.163 30.2699C345.163 30.3736 345.137 30.4652 345.085 30.5447C345.034 30.6236 344.963 30.696 344.873 30.7621L344.435 31.0849C344.35 31.1474 344.291 31.2092 344.257 31.2702C344.225 31.3306 344.208 31.3778 344.208 31.4119C344.208 31.4744 344.224 31.5323 344.256 31.5856C344.289 31.6388 344.334 31.6815 344.392 31.7134C344.451 31.7454 344.52 31.7614 344.599 31.7614C344.68 31.7614 344.759 31.744 344.836 31.7092C344.913 31.6737 344.983 31.6229 345.046 31.5568C345.109 31.4908 345.159 31.4116 345.196 31.3192C345.233 31.2269 345.251 31.1236 345.251 31.0092H345.539C345.539 31.1499 345.523 31.2688 345.491 31.3661C345.459 31.4627 345.42 31.5415 345.375 31.6026C345.33 31.663 345.288 31.7102 345.248 31.7443C345.235 31.7557 345.223 31.767 345.212 31.7784C345.2 31.7898 345.188 31.8011 345.176 31.8125C345.102 31.8871 345.012 31.9421 344.907 31.9776C344.803 32.0131 344.7 32.0309 344.598 32.0309ZM346.737 32V29.8182H347.066V31.7166H348.055V32H346.737ZM348.43 32V29.8182H349.798V30.1016H348.759V30.7663H349.727V31.0487H348.759V31.7166H349.811V32H348.43ZM350.428 29.8182L351.036 31.5952H351.06L351.667 29.8182H352.023L351.238 32H350.858L350.073 29.8182H350.428ZM352.338 32V29.8182H353.706V30.1016H352.668V30.7663H353.635V31.0487H352.668V31.7166H353.719V32H352.338ZM354.146 32V29.8182H354.475V31.7166H355.464V32H354.146Z" fill="#999999"/>
<path d="M242 56V56.1H242.248V56V55.9H242V56ZM242.745 56V56.1H243.241V56V55.9H242.745V56ZM243.738 56V56.1H244.234V56V55.9H243.738V56ZM244.731 56V56.1H245.227V56V55.9H244.731V56ZM245.724 56V56.1H246.22V56V55.9H245.724V56ZM246.717 56V56.1H247.214V56V55.9H246.717V56ZM247.71 56V56.1H248.207V56V55.9H247.71V56ZM248.703 56V56.1H249.2V56V55.9H248.703V56ZM249.696 56V56.1H250.193V56V55.9H249.696V56ZM250.689 56V56.1H251.186V56V55.9H250.689V56ZM251.682 56V56.1H252.179V56V55.9H251.682V56ZM252.675 56V56.1H253.172V56V55.9H252.675V56ZM253.668 56V56.1H254.165V56V55.9H253.668V56ZM254.661 56V56.1H255.158V56V55.9H254.661V56ZM255.655 56V56.1H256.151V56V55.9H255.655V56ZM256.648 56V56.1H257.144V56V55.9H256.648V56ZM257.641 56V56.1H258.137V56V55.9H257.641V56ZM258.634 56V56.1H259.13V56V55.9H258.634V56ZM259.627 56V56.1H260.123V56V55.9H259.627V56ZM260.62 56V56.1H261.116V56V55.9H260.62V56ZM261.613 56V56.1H262.109V56V55.9H261.613V56ZM262.606 56V56.1H263.102V56V55.9H262.606V56ZM263.599 56V56.1H264.095V56V55.9H263.599V56ZM264.592 56V56.1H265.089V56V55.9H264.592V56ZM265.585 56V56.1H266.082V56V55.9H265.585V56ZM266.578 56V56.1H267.075V56V55.9H266.578V56ZM267.571 56V56.1H268.068V56V55.9H267.571V56ZM268.564 56V56.1H269.061V56V55.9H268.564V56ZM269.557 56V56.1H270.054V56V55.9H269.557V56ZM270.55 56V56.1H271.047V56V55.9H270.55V56ZM271.543 56V56.1H272.04V56V55.9H271.543V56ZM272.536 56V56.1H273.033V56V55.9H272.536V56ZM273.53 56V56.1H274.026V56V55.9H273.53V56ZM274.523 56V56.1H275.019V56V55.9H274.523V56ZM275.516 56V56.1H276.012V56V55.9H275.516V56ZM276.509 56V56.1H277.005V56V55.9H276.509V56ZM277.502 56V56.1H277.998V56V55.9H277.502V56ZM278.495 56V56.1H278.991V56V55.9H278.495V56ZM279.488 56V56.1H279.984V56V55.9H279.488V56ZM280.481 56V56.1H280.977V56V55.9H280.481V56ZM281.474 56V56.1H281.971V56V55.9H281.474V56ZM282.467 56V56.1H282.964V56V55.9H282.467V56ZM283.46 56V56.1H283.957V56V55.9H283.46V56ZM284.453 56V56.1H284.95V56V55.9H284.453V56ZM285.446 56V56.1H285.943V56V55.9H285.446V56ZM286.439 56V56.1H286.936V56V55.9H286.439V56ZM287.432 56V56.1H287.929V56V55.9H287.432V56ZM288.425 56V56.1H288.922V56V55.9H288.425V56ZM289.418 56V56.1H289.915V56V55.9H289.418V56ZM290.412 56V56.1H290.908V56V55.9H290.412V56ZM291.405 56V56.1H291.901V56V55.9H291.405V56ZM292.398 56V56.1H292.894V56V55.9H292.398V56ZM293.391 56V56.1H293.887V56V55.9H293.391V56ZM294.384 56V56.1H294.88V56V55.9H294.384V56ZM295.377 56V56.1H295.873V56V55.9H295.377V56ZM296.37 56V56.1H296.866V56V55.9H296.37V56ZM297.363 56V56.1H297.859V56V55.9H297.363V56ZM298.356 56V56.1H298.853V56V55.9H298.356V56ZM299.349 56V56.1H299.846V56V55.9H299.349V56ZM300.342 56V56.1H300.839V56V55.9H300.342V56ZM301.335 56V56.1H301.832V56V55.9H301.335V56ZM302.328 56V56.1H302.825V56V55.9H302.328V56ZM303.321 56V56.1H303.818V56V55.9H303.321V56ZM304.314 56V56.1H304.811V56V55.9H304.314V56ZM305.307 56V56.1H305.804V56V55.9H305.307V56ZM306.3 56V56.1H306.797V56V55.9H306.3V56ZM307.293 56V56.1H307.79V56V55.9H307.293V56ZM308.287 56V56.1H308.783V56V55.9H308.287V56ZM309.28 56V56.1H309.776V56V55.9H309.28V56ZM310.273 56V56.1H310.769V56V55.9H310.273V56ZM311.266 56V56.1H311.762V56V55.9H311.266V56ZM312.259 56V56.1H312.755V56V55.9H312.259V56ZM313.252 56V56.1H313.5V56V55.9H313.252V56Z" fill="#999999"/>
<path d="M242.24 46V43.8182H243.039C243.194 43.8182 243.322 43.8437 243.423 43.8949C243.525 43.9453 243.601 44.0138 243.651 44.1005C243.702 44.1864 243.727 44.2834 243.727 44.3913C243.727 44.4822 243.71 44.5589 243.677 44.6214C243.643 44.6832 243.599 44.733 243.543 44.7706C243.487 44.8075 243.426 44.8345 243.359 44.8516V44.8729C243.432 44.8764 243.502 44.8999 243.571 44.9432C243.641 44.9858 243.699 45.0465 243.744 45.1254C243.789 45.2042 243.812 45.3001 243.812 45.413C243.812 45.5245 243.786 45.6246 243.733 45.7134C243.681 45.8015 243.601 45.8714 243.493 45.9233C243.384 45.9744 243.245 46 243.076 46H242.24ZM242.569 45.7177H243.044C243.202 45.7177 243.315 45.6871 243.383 45.6261C243.451 45.565 243.485 45.4886 243.485 45.397C243.485 45.3281 243.468 45.2649 243.433 45.2074C243.398 45.1499 243.348 45.104 243.284 45.07C243.22 45.0359 243.144 45.0188 243.056 45.0188H242.569V45.7177ZM242.569 44.7621H243.01C243.084 44.7621 243.15 44.7479 243.209 44.7195C243.269 44.6911 243.316 44.6513 243.351 44.6001C243.386 44.5483 243.404 44.4872 243.404 44.4169C243.404 44.3267 243.373 44.2511 243.309 44.19C243.246 44.1289 243.149 44.0984 243.018 44.0984H242.569V44.7621ZM244.387 46H244.037L244.823 43.8182H245.203L245.988 46H245.639L245.022 44.2145H245.005L244.387 46ZM244.445 45.1456H245.579V45.4226H244.445V45.1456ZM248.013 44.5277H247.68C247.668 44.4567 247.644 44.3942 247.609 44.3402C247.574 44.2862 247.532 44.2404 247.481 44.2028C247.431 44.1651 247.374 44.1367 247.312 44.1175C247.25 44.0984 247.184 44.0888 247.115 44.0888C246.989 44.0888 246.876 44.1204 246.777 44.1836C246.678 44.2468 246.6 44.3395 246.543 44.4616C246.486 44.5838 246.457 44.733 246.457 44.9091C246.457 45.0866 246.486 45.2365 246.543 45.3587C246.6 45.4808 246.679 45.5732 246.778 45.6357C246.877 45.6982 246.989 45.7294 247.114 45.7294C247.183 45.7294 247.248 45.7202 247.31 45.7017C247.372 45.6825 247.429 45.6545 247.479 45.6175C247.529 45.5806 247.572 45.5355 247.607 45.4822C247.642 45.4283 247.667 45.3665 247.68 45.2969L248.013 45.2979C247.995 45.4052 247.961 45.5039 247.909 45.5941C247.859 45.6836 247.794 45.761 247.714 45.8263C247.636 45.891 247.545 45.9411 247.444 45.9766C247.342 46.0121 247.232 46.0298 247.112 46.0298C246.923 46.0298 246.754 45.9851 246.607 45.8956C246.459 45.8054 246.342 45.6765 246.257 45.5089C246.173 45.3413 246.13 45.1413 246.13 44.9091C246.13 44.6761 246.173 44.4762 246.258 44.3093C246.343 44.1417 246.46 44.0131 246.608 43.9237C246.755 43.8335 246.923 43.7884 247.112 43.7884C247.227 43.7884 247.335 43.805 247.435 43.8384C247.536 43.8711 247.627 43.9194 247.707 43.9833C247.787 44.0465 247.854 44.1239 247.906 44.2156C247.959 44.3065 247.994 44.4105 248.013 44.5277ZM248.407 46V43.8182H248.736V44.8601H248.763L249.678 43.8182H250.092L249.212 44.8004L250.095 46H249.699L248.994 45.0252L248.736 45.3214V46H248.407ZM251.767 44.5075C251.746 44.4428 251.719 44.3849 251.684 44.3338C251.65 44.282 251.609 44.2379 251.561 44.2017C251.514 44.1648 251.46 44.1367 251.398 44.1175C251.338 44.0984 251.272 44.0888 251.199 44.0888C251.076 44.0888 250.966 44.1204 250.867 44.1836C250.768 44.2468 250.69 44.3395 250.632 44.4616C250.576 44.5831 250.547 44.7319 250.547 44.908C250.547 45.0849 250.576 45.2344 250.634 45.3565C250.691 45.4787 250.77 45.5714 250.87 45.6346C250.97 45.6978 251.084 45.7294 251.212 45.7294C251.331 45.7294 251.434 45.7053 251.522 45.657C251.611 45.6087 251.679 45.5405 251.728 45.4524C251.777 45.3636 251.801 45.2592 251.801 45.1392L251.886 45.1552H251.262V44.8835H252.12V45.1317C252.12 45.315 252.081 45.4741 252.002 45.609C251.925 45.7433 251.818 45.8469 251.681 45.9201C251.544 45.9933 251.388 46.0298 251.212 46.0298C251.015 46.0298 250.841 45.9844 250.692 45.8935C250.544 45.8026 250.428 45.6737 250.345 45.5067C250.262 45.3391 250.22 45.1403 250.22 44.9102C250.22 44.7362 250.244 44.5799 250.293 44.4414C250.341 44.3029 250.409 44.1854 250.496 44.0888C250.584 43.9915 250.688 43.9173 250.806 43.8661C250.925 43.8143 251.056 43.7884 251.197 43.7884C251.315 43.7884 251.425 43.8058 251.526 43.8406C251.629 43.8754 251.719 43.9247 251.799 43.9886C251.879 44.0526 251.946 44.1286 251.998 44.2166C252.051 44.304 252.086 44.4009 252.105 44.5075H251.767ZM252.538 46V43.8182H253.315C253.484 43.8182 253.625 43.8473 253.736 43.9055C253.848 43.9638 253.932 44.0444 253.987 44.1474C254.043 44.2496 254.071 44.3679 254.071 44.5021C254.071 44.6357 254.043 44.7532 253.986 44.8548C253.931 44.9556 253.847 45.0341 253.735 45.0902C253.623 45.1463 253.483 45.1744 253.314 45.1744H252.725V44.891H253.284C253.391 44.891 253.478 44.8757 253.544 44.8452C253.612 44.8146 253.661 44.7702 253.692 44.712C253.724 44.6538 253.739 44.5838 253.739 44.5021C253.739 44.4197 253.723 44.3484 253.691 44.288C253.66 44.2276 253.611 44.1815 253.543 44.1495C253.476 44.1168 253.389 44.1005 253.28 44.1005H252.867V46H252.538ZM253.615 45.0156L254.154 46H253.779L253.25 45.0156H253.615ZM256.366 44.9091C256.366 45.142 256.324 45.3423 256.239 45.5099C256.153 45.6768 256.036 45.8054 255.888 45.8956C255.74 45.9851 255.572 46.0298 255.384 46.0298C255.195 46.0298 255.027 45.9851 254.878 45.8956C254.73 45.8054 254.614 45.6765 254.529 45.5089C254.443 45.3413 254.401 45.1413 254.401 44.9091C254.401 44.6761 254.443 44.4762 254.529 44.3093C254.614 44.1417 254.73 44.0131 254.878 43.9237C255.027 43.8335 255.195 43.7884 255.384 43.7884C255.572 43.7884 255.74 43.8335 255.888 43.9237C256.036 44.0131 256.153 44.1417 256.239 44.3093C256.324 44.4762 256.366 44.6761 256.366 44.9091ZM256.04 44.9091C256.04 44.7315 256.012 44.582 255.954 44.4606C255.897 44.3384 255.819 44.2461 255.72 44.1836C255.621 44.1204 255.509 44.0888 255.384 44.0888C255.258 44.0888 255.146 44.1204 255.047 44.1836C254.949 44.2461 254.871 44.3384 254.813 44.4606C254.756 44.582 254.728 44.7315 254.728 44.9091C254.728 45.0866 254.756 45.2365 254.813 45.3587C254.871 45.4801 254.949 45.5724 255.047 45.6357C255.146 45.6982 255.258 45.7294 255.384 45.7294C255.509 45.7294 255.621 45.6982 255.72 45.6357C255.819 45.5724 255.897 45.4801 255.954 45.3587C256.012 45.2365 256.04 45.0866 256.04 44.9091ZM258.18 43.8182H258.51V45.2532C258.51 45.4059 258.474 45.5412 258.403 45.6591C258.331 45.7763 258.23 45.8686 258.1 45.9361C257.97 46.0028 257.818 46.0362 257.643 46.0362C257.469 46.0362 257.317 46.0028 257.187 45.9361C257.057 45.8686 256.956 45.7763 256.884 45.6591C256.813 45.5412 256.777 45.4059 256.777 45.2532V43.8182H257.106V45.2266C257.106 45.3253 257.128 45.413 257.171 45.4897C257.215 45.5664 257.277 45.6268 257.357 45.6708C257.438 45.7141 257.533 45.7358 257.643 45.7358C257.754 45.7358 257.849 45.7141 257.93 45.6708C258.01 45.6268 258.072 45.5664 258.115 45.4897C258.158 45.413 258.18 45.3253 258.18 45.2266V43.8182ZM260.75 43.8182V46H260.447L259.338 44.3999H259.318V46H258.989V43.8182H259.293L260.403 45.4205H260.424V43.8182H260.75ZM261.936 46H261.23V43.8182H261.959C262.172 43.8182 262.356 43.8619 262.509 43.9492C262.663 44.0359 262.78 44.1605 262.862 44.3232C262.944 44.4851 262.986 44.6793 262.986 44.9059C262.986 45.1332 262.944 45.3285 262.861 45.4918C262.779 45.6552 262.659 45.7809 262.503 45.869C262.347 45.9563 262.158 46 261.936 46ZM261.559 45.7124H261.918C262.084 45.7124 262.222 45.6811 262.333 45.6186C262.443 45.5554 262.525 45.4641 262.58 45.3448C262.634 45.2248 262.662 45.0785 262.662 44.9059C262.662 44.7347 262.634 44.5895 262.58 44.4702C262.526 44.3509 262.445 44.2603 262.338 44.1985C262.231 44.1367 262.097 44.1058 261.938 44.1058H261.559V45.7124Z" fill="#999999"/>
<path d="M321.5 56V56.1H321.748V56V55.9H321.5V56ZM322.245 56V56.1H322.741V56V55.9H322.245V56ZM323.238 56V56.1H323.734V56V55.9H323.238V56ZM324.231 56V56.1H324.727V56V55.9H324.231V56ZM325.224 56V56.1H325.72V56V55.9H325.224V56ZM326.217 56V56.1H326.714V56V55.9H326.217V56ZM327.21 56V56.1H327.707V56V55.9H327.21V56ZM328.203 56V56.1H328.7V56V55.9H328.203V56ZM329.196 56V56.1H329.693V56V55.9H329.196V56ZM330.189 56V56.1H330.686V56V55.9H330.189V56ZM331.182 56V56.1H331.679V56V55.9H331.182V56ZM332.175 56V56.1H332.672V56V55.9H332.175V56ZM333.168 56V56.1H333.665V56V55.9H333.168V56ZM334.161 56V56.1H334.658V56V55.9H334.161V56ZM335.155 56V56.1H335.651V56V55.9H335.155V56ZM336.148 56V56.1H336.644V56V55.9H336.148V56ZM337.141 56V56.1H337.637V56V55.9H337.141V56ZM338.134 56V56.1H338.63V56V55.9H338.134V56ZM339.127 56V56.1H339.623V56V55.9H339.127V56ZM340.12 56V56.1H340.616V56V55.9H340.12V56ZM341.113 56V56.1H341.609V56V55.9H341.113V56ZM342.106 56V56.1H342.602V56V55.9H342.106V56ZM343.099 56V56.1H343.595V56V55.9H343.099V56ZM344.092 56V56.1H344.589V56V55.9H344.092V56ZM345.085 56V56.1H345.582V56V55.9H345.085V56ZM346.078 56V56.1H346.575V56V55.9H346.078V56ZM347.071 56V56.1H347.568V56V55.9H347.071V56ZM348.064 56V56.1H348.561V56V55.9H348.064V56ZM349.057 56V56.1H349.554V56V55.9H349.057V56ZM350.05 56V56.1H350.547V56V55.9H350.05V56ZM351.043 56V56.1H351.54V56V55.9H351.043V56ZM352.036 56V56.1H352.533V56V55.9H352.036V56ZM353.03 56V56.1H353.526V56V55.9H353.03V56ZM354.023 56V56.1H354.519V56V55.9H354.023V56ZM355.016 56V56.1H355.512V56V55.9H355.016V56ZM356.009 56V56.1H356.505V56V55.9H356.009V56ZM357.002 56V56.1H357.498V56V55.9H357.002V56ZM357.995 56V56.1H358.491V56V55.9H357.995V56ZM358.988 56V56.1H359.484V56V55.9H358.988V56ZM359.981 56V56.1H360.477V56V55.9H359.981V56ZM360.974 56V56.1H361.471V56V55.9H360.974V56ZM361.967 56V56.1H362.464V56V55.9H361.967V56ZM362.96 56V56.1H363.457V56V55.9H362.96V56ZM363.953 56V56.1H364.45V56V55.9H363.953V56ZM364.946 56V56.1H365.443V56V55.9H364.946V56ZM365.939 56V56.1H366.436V56V55.9H365.939V56ZM366.932 56V56.1H367.429V56V55.9H366.932V56ZM367.925 56V56.1H368.422V56V55.9H367.925V56ZM368.918 56V56.1H369.415V56V55.9H368.918V56ZM369.912 56V56.1H370.408V56V55.9H369.912V56ZM370.905 56V56.1H371.401V56V55.9H370.905V56ZM371.898 56V56.1H372.394V56V55.9H371.898V56ZM372.891 56V56.1H373.387V56V55.9H372.891V56ZM373.884 56V56.1H374.38V56V55.9H373.884V56ZM374.877 56V56.1H375.373V56V55.9H374.877V56ZM375.87 56V56.1H376.366V56V55.9H375.87V56ZM376.863 56V56.1H377.359V56V55.9H376.863V56ZM377.856 56V56.1H378.353V56V55.9H377.856V56ZM378.849 56V56.1H379.346V56V55.9H378.849V56ZM379.842 56V56.1H380.339V56V55.9H379.842V56ZM380.835 56V56.1H381.332V56V55.9H380.835V56ZM381.828 56V56.1H382.325V56V55.9H381.828V56ZM382.821 56V56.1H383.318V56V55.9H382.821V56ZM383.814 56V56.1H384.311V56V55.9H383.814V56ZM384.807 56V56.1H385.304V56V55.9H384.807V56ZM385.8 56V56.1H386.297V56V55.9H385.8V56ZM386.793 56V56.1H387.29V56V55.9H386.793V56ZM387.787 56V56.1H388.283V56V55.9H387.787V56ZM388.78 56V56.1H389.276V56V55.9H388.78V56ZM389.773 56V56.1H390.269V56V55.9H389.773V56ZM390.766 56V56.1H391.262V56V55.9H390.766V56ZM391.759 56V56.1H392.255V56V55.9H391.759V56ZM392.752 56V56.1H393V56V55.9H392.752V56Z" fill="#999999"/>
<path d="M321.924 46H321.575L322.36 43.8182H322.74L323.525 46H323.176L322.559 44.2145H322.542L321.924 46ZM321.983 45.1456H323.116V45.4226H321.983V45.1456ZM323.84 46V43.8182H324.169V45.7166H325.158V46H323.84ZM325.863 43.8182V46H325.534V43.8182H325.863ZM327.819 44.5075C327.798 44.4428 327.771 44.3849 327.736 44.3338C327.702 44.282 327.661 44.2379 327.613 44.2017C327.566 44.1648 327.511 44.1367 327.45 44.1175C327.39 44.0984 327.323 44.0888 327.251 44.0888C327.128 44.0888 327.017 44.1204 326.919 44.1836C326.82 44.2468 326.742 44.3395 326.684 44.4616C326.627 44.5831 326.599 44.7319 326.599 44.908C326.599 45.0849 326.628 45.2344 326.685 45.3565C326.743 45.4787 326.822 45.5714 326.922 45.6346C327.022 45.6978 327.136 45.7294 327.264 45.7294C327.382 45.7294 327.486 45.7053 327.574 45.657C327.663 45.6087 327.731 45.5405 327.779 45.4524C327.828 45.3636 327.853 45.2592 327.853 45.1392L327.938 45.1552H327.314V44.8835H328.171V45.1317C328.171 45.315 328.132 45.4741 328.054 45.609C327.977 45.7433 327.87 45.8469 327.733 45.9201C327.596 45.9933 327.44 46.0298 327.264 46.0298C327.066 46.0298 326.893 45.9844 326.744 45.8935C326.595 45.8026 326.48 45.6737 326.397 45.5067C326.313 45.3391 326.272 45.1403 326.272 44.9102C326.272 44.7362 326.296 44.5799 326.344 44.4414C326.393 44.3029 326.46 44.1854 326.548 44.0888C326.636 43.9915 326.739 43.9173 326.858 43.8661C326.977 43.8143 327.108 43.7884 327.249 43.7884C327.367 43.7884 327.476 43.8058 327.578 43.8406C327.68 43.8754 327.771 43.9247 327.851 43.9886C327.931 44.0526 327.997 44.1286 328.05 44.2166C328.103 44.304 328.138 44.4009 328.157 44.5075H327.819ZM330.35 43.8182V46H330.048L328.939 44.3999H328.919V46H328.589V43.8182H328.894L330.004 45.4205H330.024V43.8182H330.35ZM330.831 43.8182H331.23L331.925 45.5142H331.95L332.645 43.8182H333.044V46H332.731V44.4212H332.711L332.067 45.9968H331.807L331.164 44.4201H331.144V46H330.831V43.8182ZM333.523 46V43.8182H334.891V44.1016H333.852V44.7663H334.819V45.0487H333.852V45.7166H334.904V46H333.523ZM337.092 43.8182V46H336.789L335.68 44.3999H335.66V46H335.331V43.8182H335.635L336.745 45.4205H336.766V43.8182H337.092ZM337.464 44.1016V43.8182H339.153V44.1016H338.472V46H338.144V44.1016H337.464Z" fill="#999999"/>
<path d="M401 56V56.1H401.248V56V55.9H401V56ZM401.745 56V56.1H402.241V56V55.9H401.745V56ZM402.738 56V56.1H403.234V56V55.9H402.738V56ZM403.731 56V56.1H404.227V56V55.9H403.731V56ZM404.724 56V56.1H405.22V56V55.9H404.724V56ZM405.717 56V56.1H406.214V56V55.9H405.717V56ZM406.71 56V56.1H407.207V56V55.9H406.71V56ZM407.703 56V56.1H408.2V56V55.9H407.703V56ZM408.696 56V56.1H409.193V56V55.9H408.696V56ZM409.689 56V56.1H410.186V56V55.9H409.689V56ZM410.682 56V56.1H411.179V56V55.9H410.682V56ZM411.675 56V56.1H412.172V56V55.9H411.675V56ZM412.668 56V56.1H413.165V56V55.9H412.668V56ZM413.661 56V56.1H414.158V56V55.9H413.661V56ZM414.655 56V56.1H415.151V56V55.9H414.655V56ZM415.648 56V56.1H416.144V56V55.9H415.648V56ZM416.641 56V56.1H417.137V56V55.9H416.641V56ZM417.634 56V56.1H418.13V56V55.9H417.634V56ZM418.627 56V56.1H419.123V56V55.9H418.627V56ZM419.62 56V56.1H420.116V56V55.9H419.62V56ZM420.613 56V56.1H421.109V56V55.9H420.613V56ZM421.606 56V56.1H422.102V56V55.9H421.606V56ZM422.599 56V56.1H423.095V56V55.9H422.599V56ZM423.592 56V56.1H424.089V56V55.9H423.592V56ZM424.585 56V56.1H425.082V56V55.9H424.585V56ZM425.578 56V56.1H426.075V56V55.9H425.578V56ZM426.571 56V56.1H427.068V56V55.9H426.571V56ZM427.564 56V56.1H428.061V56V55.9H427.564V56ZM428.557 56V56.1H429.054V56V55.9H428.557V56ZM429.55 56V56.1H430.047V56V55.9H429.55V56ZM430.543 56V56.1H431.04V56V55.9H430.543V56ZM431.536 56V56.1H432.033V56V55.9H431.536V56ZM432.53 56V56.1H433.026V56V55.9H432.53V56ZM433.523 56V56.1H434.019V56V55.9H433.523V56ZM434.516 56V56.1H435.012V56V55.9H434.516V56ZM435.509 56V56.1H436.005V56V55.9H435.509V56ZM436.502 56V56.1H436.998V56V55.9H436.502V56ZM437.495 56V56.1H437.991V56V55.9H437.495V56ZM438.488 56V56.1H438.984V56V55.9H438.488V56ZM439.481 56V56.1H439.977V56V55.9H439.481V56ZM440.474 56V56.1H440.971V56V55.9H440.474V56ZM441.467 56V56.1H441.964V56V55.9H441.467V56ZM442.46 56V56.1H442.957V56V55.9H442.46V56ZM443.453 56V56.1H443.95V56V55.9H443.453V56ZM444.446 56V56.1H444.943V56V55.9H444.446V56ZM445.439 56V56.1H445.936V56V55.9H445.439V56ZM446.432 56V56.1H446.929V56V55.9H446.432V56ZM447.425 56V56.1H447.922V56V55.9H447.425V56ZM448.418 56V56.1H448.915V56V55.9H448.418V56ZM449.412 56V56.1H449.908V56V55.9H449.412V56ZM450.405 56V56.1H450.901V56V55.9H450.405V56ZM451.398 56V56.1H451.894V56V55.9H451.398V56ZM452.391 56V56.1H452.887V56V55.9H452.391V56ZM453.384 56V56.1H453.88V56V55.9H453.384V56ZM454.377 56V56.1H454.873V56V55.9H454.377V56ZM455.37 56V56.1H455.866V56V55.9H455.37V56ZM456.363 56V56.1H456.859V56V55.9H456.363V56ZM457.356 56V56.1H457.853V56V55.9H457.356V56ZM458.349 56V56.1H458.846V56V55.9H458.349V56ZM459.342 56V56.1H459.839V56V55.9H459.342V56ZM460.335 56V56.1H460.832V56V55.9H460.335V56ZM461.328 56V56.1H461.825V56V55.9H461.328V56ZM462.321 56V56.1H462.818V56V55.9H462.321V56ZM463.314 56V56.1H463.811V56V55.9H463.314V56ZM464.307 56V56.1H464.804V56V55.9H464.307V56ZM465.3 56V56.1H465.797V56V55.9H465.3V56ZM466.293 56V56.1H466.79V56V55.9H466.293V56ZM467.287 56V56.1H467.783V56V55.9H467.287V56ZM468.28 56V56.1H468.776V56V55.9H468.28V56ZM469.273 56V56.1H469.769V56V55.9H469.273V56ZM470.266 56V56.1H470.762V56V55.9H470.266V56ZM471.259 56V56.1H471.755V56V55.9H471.259V56ZM472.252 56V56.1H472.5V56V55.9H472.252V56Z" fill="#999999"/>
<path d="M401.946 46H401.24V43.8182H401.968C402.182 43.8182 402.366 43.8619 402.519 43.9492C402.673 44.0359 402.79 44.1605 402.872 44.3232C402.954 44.4851 402.995 44.6793 402.995 44.9059C402.995 45.1332 402.954 45.3285 402.871 45.4918C402.788 45.6552 402.669 45.7809 402.513 45.869C402.357 45.9563 402.168 46 401.946 46ZM401.569 45.7124H401.928C402.094 45.7124 402.232 45.6811 402.342 45.6186C402.452 45.5554 402.535 45.4641 402.589 45.3448C402.644 45.2248 402.672 45.0785 402.672 44.9059C402.672 44.7347 402.644 44.5895 402.589 44.4702C402.536 44.3509 402.455 44.2603 402.348 44.1985C402.24 44.1367 402.107 44.1058 401.948 44.1058H401.569V45.7124ZM403.405 46V43.8182H404.773V44.1016H403.734V44.7663H404.701V45.0487H403.734V45.7166H404.785V46H403.405ZM405.542 43.8182V46H405.212V43.8182H405.542ZM405.913 44.1016V43.8182H407.602V44.1016H406.921V46H406.593V44.1016H405.913ZM407.807 43.8182H408.181L408.751 44.81H408.774L409.344 43.8182H409.718L408.926 45.1435V46H408.598V45.1435L407.807 43.8182Z" fill="#999999"/>
<path d="M480.5 56V56.1H480.748V56V55.9H480.5V56ZM481.245 56V56.1H481.741V56V55.9H481.245V56ZM482.238 56V56.1H482.734V56V55.9H482.238V56ZM483.231 56V56.1H483.727V56V55.9H483.231V56ZM484.224 56V56.1H484.72V56V55.9H484.224V56ZM485.217 56V56.1H485.714V56V55.9H485.217V56ZM486.21 56V56.1H486.707V56V55.9H486.21V56ZM487.203 56V56.1H487.7V56V55.9H487.203V56ZM488.196 56V56.1H488.693V56V55.9H488.196V56ZM489.189 56V56.1H489.686V56V55.9H489.189V56ZM490.182 56V56.1H490.679V56V55.9H490.182V56ZM491.175 56V56.1H491.672V56V55.9H491.175V56ZM492.168 56V56.1H492.665V56V55.9H492.168V56ZM493.161 56V56.1H493.658V56V55.9H493.161V56ZM494.155 56V56.1H494.651V56V55.9H494.155V56ZM495.148 56V56.1H495.644V56V55.9H495.148V56ZM496.141 56V56.1H496.637V56V55.9H496.141V56ZM497.134 56V56.1H497.63V56V55.9H497.134V56ZM498.127 56V56.1H498.623V56V55.9H498.127V56ZM499.12 56V56.1H499.616V56V55.9H499.12V56ZM500.113 56V56.1H500.609V56V55.9H500.113V56ZM501.106 56V56.1H501.602V56V55.9H501.106V56ZM502.099 56V56.1H502.595V56V55.9H502.099V56ZM503.092 56V56.1H503.589V56V55.9H503.092V56ZM504.085 56V56.1H504.582V56V55.9H504.085V56ZM505.078 56V56.1H505.575V56V55.9H505.078V56ZM506.071 56V56.1H506.568V56V55.9H506.071V56ZM507.064 56V56.1H507.561V56V55.9H507.064V56ZM508.057 56V56.1H508.554V56V55.9H508.057V56ZM509.05 56V56.1H509.547V56V55.9H509.05V56ZM510.043 56V56.1H510.54V56V55.9H510.043V56ZM511.036 56V56.1H511.533V56V55.9H511.036V56ZM512.03 56V56.1H512.526V56V55.9H512.03V56ZM513.023 56V56.1H513.519V56V55.9H513.023V56ZM514.016 56V56.1H514.512V56V55.9H514.016V56ZM515.009 56V56.1H515.505V56V55.9H515.009V56ZM516.002 56V56.1H516.498V56V55.9H516.002V56ZM516.995 56V56.1H517.491V56V55.9H516.995V56ZM517.988 56V56.1H518.484V56V55.9H517.988V56ZM518.981 56V56.1H519.477V56V55.9H518.981V56ZM519.974 56V56.1H520.471V56V55.9H519.974V56ZM520.967 56V56.1H521.464V56V55.9H520.967V56ZM521.96 56V56.1H522.457V56V55.9H521.96V56ZM522.953 56V56.1H523.45V56V55.9H522.953V56ZM523.946 56V56.1H524.443V56V55.9H523.946V56ZM524.939 56V56.1H525.436V56V55.9H524.939V56ZM525.932 56V56.1H526.429V56V55.9H525.932V56ZM526.925 56V56.1H527.422V56V55.9H526.925V56ZM527.918 56V56.1H528.415V56V55.9H527.918V56ZM528.912 56V56.1H529.408V56V55.9H528.912V56ZM529.905 56V56.1H530.401V56V55.9H529.905V56ZM530.898 56V56.1H531.394V56V55.9H530.898V56ZM531.891 56V56.1H532.387V56V55.9H531.891V56ZM532.884 56V56.1H533.38V56V55.9H532.884V56ZM533.877 56V56.1H534.373V56V55.9H533.877V56ZM534.87 56V56.1H535.366V56V55.9H534.87V56ZM535.863 56V56.1H536.359V56V55.9H535.863V56ZM536.856 56V56.1H537.353V56V55.9H536.856V56ZM537.849 56V56.1H538.346V56V55.9H537.849V56ZM538.842 56V56.1H539.339V56V55.9H538.842V56ZM539.835 56V56.1H540.332V56V55.9H539.835V56ZM540.828 56V56.1H541.325V56V55.9H540.828V56ZM541.821 56V56.1H542.318V56V55.9H541.821V56ZM542.814 56V56.1H543.311V56V55.9H542.814V56ZM543.807 56V56.1H544.304V56V55.9H543.807V56ZM544.8 56V56.1H545.297V56V55.9H544.8V56ZM545.793 56V56.1H546.29V56V55.9H545.793V56ZM546.787 56V56.1H547.283V56V55.9H546.787V56ZM547.78 56V56.1H548.276V56V55.9H547.78V56ZM548.773 56V56.1H549.269V56V55.9H548.773V56ZM549.766 56V56.1H550.262V56V55.9H549.766V56ZM550.759 56V56.1H551.255V56V55.9H550.759V56ZM551.752 56V56.1H552V56V55.9H551.752V56Z" fill="#999999"/>
<path d="M480.74 46V43.8182H481.517C481.687 43.8182 481.828 43.8491 481.939 43.9109C482.051 43.9727 482.134 44.0572 482.19 44.1644C482.245 44.271 482.273 44.391 482.273 44.5245C482.273 44.6587 482.245 44.7795 482.189 44.8867C482.133 44.9933 482.049 45.0778 481.937 45.1403C481.826 45.2021 481.685 45.233 481.516 45.233H480.982V44.9538H481.487C481.594 44.9538 481.681 44.9354 481.748 44.8984C481.814 44.8608 481.863 44.8097 481.895 44.745C481.926 44.6804 481.941 44.6069 481.941 44.5245C481.941 44.4421 481.926 44.369 481.895 44.305C481.863 44.2411 481.814 44.1911 481.746 44.1548C481.68 44.1186 481.592 44.1005 481.482 44.1005H481.069V46H480.74ZM482.659 46V43.8182H482.988V45.7166H483.976V46H482.659ZM484.648 46H484.298L485.083 43.8182H485.464L486.249 46H485.899L485.283 44.2145H485.266L484.648 46ZM484.706 45.1456H485.84V45.4226H484.706V45.1456ZM486.173 43.8182H486.547L487.117 44.81H487.14L487.71 43.8182H488.084L487.293 45.1435V46H486.964V45.1435L486.173 43.8182ZM488.395 46V43.8182H489.763V44.1016H488.724V44.7663H489.691V45.0487H488.724V45.7166H489.776V46H488.395ZM490.203 46V43.8182H490.98C491.149 43.8182 491.29 43.8473 491.401 43.9055C491.513 43.9638 491.597 44.0444 491.653 44.1474C491.708 44.2496 491.736 44.3679 491.736 44.5021C491.736 44.6357 491.708 44.7532 491.651 44.8548C491.596 44.9556 491.512 45.0341 491.4 45.0902C491.289 45.1463 491.148 45.1744 490.979 45.1744H490.39V44.891H490.949C491.056 44.891 491.143 44.8757 491.209 44.8452C491.277 44.8146 491.326 44.7702 491.357 44.712C491.389 44.6538 491.404 44.5838 491.404 44.5021C491.404 44.4197 491.388 44.3484 491.356 44.288C491.325 44.2276 491.276 44.1815 491.208 44.1495C491.142 44.1168 491.054 44.1005 490.945 44.1005H490.532V46H490.203ZM491.28 45.0156L491.819 46H491.444L490.915 45.0156H491.28ZM494.691 43.8182V46H494.389L493.28 44.3999H493.259V46H492.93V43.8182H493.235L494.345 45.4205H494.365V43.8182H494.691ZM495.356 46H495.006L495.791 43.8182H496.172L496.957 46H496.607L495.991 44.2145H495.974L495.356 46ZM495.414 45.1456H496.548V45.4226H495.414V45.1456ZM497.272 43.8182H497.671L498.366 45.5142H498.392L499.086 43.8182H499.486V46H499.172V44.4212H499.152L498.509 45.9968H498.249L497.605 44.4201H497.585V46H497.272V43.8182ZM499.964 46V43.8182H501.332V44.1016H500.294V44.7663H501.261V45.0487H500.294V45.7166H501.345V46H499.964Z" fill="#999999"/>
<defs>
<clipPath id="clip0_120_10431">
<rect width="502.44" height="61.2187" fill="white" transform="translate(4.10718 7)"/>
</clipPath>
</defs>
</svg>
