<svg width="575" height="69" viewBox="0 0 575 69" fill="none" xmlns="http://www.w3.org/2000/svg">
<g clip-path="url(#clip0_374_2798)">
<path d="M293.012 26.0859L312.068 25.0426L288.564 23.7619L324.53 21.794L292.499 20.0447L336.872 17.6207L261.314 13.4973L281.619 12.3915L244.55 10.3611L211.621 12.1604L196.807 10.7485L233.149 8.76178L204.026 7.18118L183.721 8.28697L160.166 7L138.142 8.20576L160.517 9.45525L135.824 10.7485L111.208 9.43026L125.5 8.64933L108.394 7.71221L53.8429 10.6922L73.1814 11.7481L11.856 15.1217L47.9755 17.0959L28.9108 18.1142L52.4146 19.3949L16.449 21.3691L48.4802 23.1247L4.10693 25.5299L65.0816 28.8661L37.1645 30.3904L66.6383 31.9898L74.242 31.5837L96.4115 32.7957L129.341 30.9964L144.138 32.4021L105.777 34.4888L158.464 37.3626L169.985 36.7378L149.244 35.6133L178.863 33.9952L199.613 35.1135L213.203 34.3763L232.55 35.4321L287.136 32.4521L267.798 31.4088L329.123 28.0601L293.012 26.0859ZM195.259 36.7066L215.145 37.7937L235.039 36.7004L215.145 35.6133L195.259 36.7066ZM76.2006 32.6145L96.0865 33.7016L76.2006 34.8011L56.2806 33.7141L76.2006 32.6145Z" fill="#DCDDDE"/>
<path d="M338.499 59.9575L353.205 59.1495L335.066 58.1573L362.851 56.6423L338.108 55.2936L372.384 53.4221L314.016 50.2317L329.698 49.394L301.067 47.8255L275.625 49.2158L264.188 48.1285L292.258 46.5957L269.76 45.3659L254.086 46.2273L235.883 45.2352L218.867 46.1679L236.151 47.1126L217.11 48.1523L198.061 47.1126L209.098 46.5185L195.913 45.7996L153.748 48.0988L168.69 48.9187L121.31 51.4675L149.209 52.9944L134.487 53.7964L152.642 54.7886L124.865 56.3036L149.6 57.6582L115.324 59.5297L162.435 62.1022L140.864 63.2905L163.638 64.5381L169.527 64.2114L186.649 65.1501L212.091 63.7598L223.511 64.8411L193.864 66.4571L234.533 68.6792L243.431 68.192L227.407 67.3127L250.288 66.065L266.319 66.9384L276.82 66.3443L291.762 67.1582L333.928 64.859L319.043 64.0688L366.422 61.4784L338.499 59.9575ZM262.985 68.1563L278.374 69L293.738 68.1623L278.374 67.3127L262.985 68.1563ZM171.008 65.0075L186.381 65.8511L171.008 66.6889L155.651 65.8511L171.008 65.0075Z" fill="#DCDDDE"/>
<path d="M477.168 29.9719L489.92 29.2784L474.174 28.4162L498.268 27.098L476.826 25.9298L506.548 24.3054L455.931 21.5378L469.53 20.7944L444.726 19.4387L422.659 20.6444L412.738 19.701L437.063 18.3703L417.545 17.3083L403.954 18.0517L388.139 17.1896L373.411 17.9955L388.404 18.8139L371.888 19.7135L355.372 18.8139L364.952 18.2891L353.516 17.6644L316.944 19.6636L329.893 20.3695L288.838 22.6124L313.035 23.9368L300.265 24.6303L316.011 25.4924L291.917 26.8106L313.377 27.9789L283.646 29.6033L324.504 31.8336L305.799 32.8582L325.539 33.9327L330.671 33.6578L345.468 34.4888L367.526 33.2393L377.439 34.1826L351.729 35.5821L387.027 37.5125L394.725 37.0877L380.852 36.363L400.686 35.2759L414.594 36.0381L423.694 35.5383L436.661 36.2505L473.225 34.2514L460.276 33.5454L501.33 31.3026L477.168 29.9719ZM411.677 37.0814L424.994 37.8124L438.32 37.0814L424.994 36.363L411.677 37.0814ZM331.911 34.3576L345.237 35.1135L331.911 35.8444L318.586 35.1135L331.911 34.3576Z" fill="#DCDDDE"/>
</g>
<path d="M64.2699 6.43174C64.0493 7.86242 64.1228 9.30708 64.4884 10.7239C63.1154 10.0501 61.6932 9.42418 60.2272 8.84862C58.9005 8.21202 57.8229 7.36362 57.0884 6.37758C56.6117 5.80213 56.3335 5.37563 56.3335 5.37563C55.4557 6.02962 54.8831 6.84679 54.6885 7.7232C54.494 8.59962 54.6862 9.49567 55.2409 10.2974C52.6662 9.83708 49.9531 9.88167 47.4138 10.426C56.5322 14.488 51.685 14.8265 46.4206 16.519C41.1562 18.2115 40.7787 20.3305 40.7787 20.3305C47.0662 18.9223 49.5693 20.7231 49.5693 20.7231C46.1822 22.9301 49.2018 26.3761 49.2018 26.3761C52.4895 30.6682 60.6345 32.469 67.9252 33.2476C72.4285 33.7016 76.9863 33.8535 81.5331 33.7012L64.9254 37.208L50.0262 39.7738C50.0262 39.7738 35.1965 38.6906 29.7533 30.1266C24.3101 21.5626 33.8158 14.8468 32.8622 14.4068C31.9087 13.9667 30.8061 14.9213 30.687 15.0228C34.819 6.9598 47.2649 7.04781 47.7615 6.22187C48.2581 5.39594 45.3081 5.30793 45.3081 5.30793C57.893 2.47808 64.2699 6.43174 64.2699 6.43174Z" fill="#231F20"/>
<path d="M548.187 29.4496V55.2838C562.649 55.2229 564.536 55.2838 567 53.0971V27.7097C562.371 29.3887 557.593 29.4496 548.187 29.4496Z" fill="white"/>
<path d="M548.187 29.4496V55.2838C562.649 55.2229 564.536 55.2838 567 53.0971V27.7097C562.371 29.3887 557.593 29.4496 548.187 29.4496Z" stroke="#231F20" stroke-width="0.934255" stroke-miterlimit="10"/>
<path d="M548.187 53.1783C567.656 54.688 565.997 50.7547 566.861 50.6328M547.582 31.3791C563.712 31.3452 565.153 30.587 566.613 29.822" stroke="#231F20" stroke-width="0.507747" stroke-miterlimit="10"/>
<path d="M8 34.0058V59.3932L43.2616 56.2519V30.8646L8 34.0058Z" fill="white"/>
<path d="M8 34.0058V59.3932L43.2616 56.2519V30.8646L8 34.0058Z" stroke="#231F20" stroke-width="0.934255" stroke-miterlimit="10"/>
<path d="M8.76465 35.705L43.2614 32.7127M8.76465 57.5111L43.2614 54.1735" stroke="#231F20" stroke-width="0.507747" stroke-miterlimit="10"/>
<path d="M43.2619 30.8645L19.2046 28.4409V53.8282L43.2619 56.2519V30.8645Z" fill="#DCDDDE"/>
<path d="M43.2619 30.8645L19.2046 28.4409V53.8282L43.2619 56.2519V30.8645Z" stroke="#231F20" stroke-width="0.934255" stroke-miterlimit="10"/>
<path d="M236.763 53.8215C175.428 61.4444 80.5394 46.212 19.2339 53.8215V28.4409C80.5692 20.8246 175.458 36.0571 236.763 28.4409V53.8215Z" fill="white"/>
<path d="M236.763 53.8215C175.428 61.4444 80.5394 46.212 19.2339 53.8215V28.4409C80.5692 20.8246 175.458 36.0571 236.763 28.4409V53.8215Z" stroke="#231F20" stroke-width="0.934255" stroke-miterlimit="10"/>
<path d="M236.763 30.4177C236.763 30.4177 217.026 35.8337 123.528 30.2214C57.465 26.2339 24.478 29.7272 19.3726 30.3365M237.647 51.3775C237.647 51.3775 217.284 57.2403 123.747 51.6009C57.6835 47.6134 24.6966 51.1135 19.5911 51.716" stroke="#231F20" stroke-width="0.507747" stroke-miterlimit="10"/>
<path d="M548.456 20.6284H236.674V61.6814H548.456V20.6284Z" fill="white"/>
<path d="M548.456 20.6284H236.674V61.6814H548.456V20.6284Z" stroke="#231F20" stroke-width="0.846246" stroke-miterlimit="10"/>
<path d="M234.598 16.3633V65.9533C235.079 65.0725 235.785 64.2565 236.684 63.5432V18.7734C235.787 18.0604 235.084 17.2443 234.608 16.3633" fill="white"/>
<path d="M234.598 16.3633V65.9533C235.079 65.0725 235.785 64.2565 236.684 63.5432V18.7734C235.784 18.0609 235.077 17.2448 234.598 16.3633V16.3633Z" stroke="#231F20" stroke-width="0.846246" stroke-miterlimit="10"/>
<path d="M236.674 56.3466C236.674 56.3466 237.737 63.34 245.017 63.34H266.87C266.87 63.34 273.991 61.6881 287.232 61.6881M236.674 25.9698C236.674 25.9698 237.737 18.9764 245.017 18.9764H266.87C266.87 18.9764 273.991 20.6486 287.232 20.6486" stroke="#231F20" stroke-width="0.846246" stroke-miterlimit="10"/>
<path d="M550.551 16.3633V65.9533C550.069 65.0725 549.363 64.2565 548.465 63.5432V18.7734C549.363 18.06 550.069 17.2441 550.551 16.3633" fill="white"/>
<path d="M550.551 16.3633V65.9533C550.069 65.0725 549.363 64.2565 548.465 63.5432V18.7734C549.363 18.06 550.069 17.2441 550.551 16.3633V16.3633Z" stroke="#231F20" stroke-width="0.846246" stroke-miterlimit="10"/>
<path d="M548.466 56.3466C548.466 56.3466 547.404 63.34 540.123 63.34H518.27C518.27 63.34 511.149 61.6881 497.908 61.6881M548.466 25.9698C548.466 25.9698 547.404 18.9764 540.123 18.9764H518.27C518.27 18.9764 511.149 20.6486 497.908 20.6486" stroke="#231F20" stroke-width="0.846246" stroke-miterlimit="10"/>
<path d="M258.427 61.6882C264.056 60.9296 269.767 60.4925 275.502 60.3816H509.619C515.36 60.4918 521.078 60.9288 526.713 61.6882M526.713 20.6351C521.077 21.3888 515.36 21.8236 509.619 21.935H275.502C269.768 21.8273 264.057 21.3971 258.427 20.6487" stroke="#231F20" stroke-width="0.507747" stroke-miterlimit="10"/>
<path d="M76.8447 17.1418C77.845 17.429 78.7432 17.8594 79.4783 18.4036C80.2135 18.9479 80.7685 19.5935 81.1059 20.2966C78.2751 20.2425 77.4407 18.7531 76.8447 17.1418Z" fill="white"/>
<path d="M232.105 57.2065C231.469 54.8573 229.035 51.0323 224.327 49.008C220.434 47.3426 217.036 47.7082 217.017 46.8755C217.017 45.8262 221.357 46.1511 221.357 46.1511C216.649 44.3165 209.905 46.5641 208.941 45.5147C208.365 44.8784 212.08 43.9983 212.08 43.9983C206.339 43.8561 199.575 45.8668 196.853 47.6947C203.697 46.1308 213.341 47.0177 217.762 49.6106C215.902 48.9062 213.89 48.4058 211.802 48.128C204.034 47.0651 195.393 48.6425 190.188 50.1183C186.557 50.974 183.081 52.1097 179.828 53.5033C175.954 55.0401 168.793 56.4685 163.936 55.0672C163.936 55.0672 171.534 63.6989 180.881 60.6998C181.566 60.4358 182.222 60.1717 182.868 59.9077C186.498 58.4653 189.912 56.7827 193.059 54.8844C197.329 52.8699 202.016 51.3001 206.965 50.2266C208.391 49.9387 209.892 49.8625 211.365 50.0032C215.05 50.3485 218.318 51.9598 219.311 53.8892C222.162 53.5507 229.383 55.1755 232.105 57.2336" fill="#231F20"/>
<path d="M70.2594 26.2542C69.4747 23.3702 63.6342 22.8692 60.6245 24.2232C61.8277 22.3113 64.0862 20.7987 66.912 20.0123C65.4626 19.6461 63.9752 19.3542 62.4621 19.139C64.3891 18.137 69.127 17.3788 71.5308 17.5209C71.0623 17.4284 70.5841 17.3605 70.1004 17.3178L70.5573 15.4426C70.2892 13.8719 68.2033 12.0576 65.7201 10.9879C64.4884 8.58458 65.7201 4.21796 67.3888 3.04675C66.5346 9.33605 79.5664 13.2017 82.0993 17.8594C80.6193 13.8787 74.5901 11.2858 71.7692 8.87569C71.4252 8.02136 71.3456 7.12762 71.5354 6.2512C71.7252 5.37479 72.1802 4.53484 72.8717 3.78468C72.3254 8.00237 78.8314 11.4415 82.3278 13.8787C86.4201 16.7424 87.5028 19.227 86.8373 21.2241C87.4367 21.3179 87.9645 21.5589 88.32 21.901C88.6754 22.2432 88.8335 22.6625 88.7642 23.0791C89.4457 22.9363 90.0759 22.6981 90.6147 22.3799C91.1534 22.0617 91.5888 21.6703 91.8931 21.2309C92.4195 24.3857 89.5589 27.642 86.4896 28.5695C86.734 28.135 86.8202 27.6665 86.7406 27.2043C86.661 26.742 86.4181 26.2999 86.0327 25.9157C84.6918 24.758 80.818 24.6632 79.5168 24.7106C79.5168 24.7106 81.1954 23.1265 80.5895 22.2938C79.8545 21.258 72.2658 21.5491 68.839 22.2938C70.474 22.2737 72.1024 22.4408 73.6564 22.788C73.1002 23.316 71.6102 25.5569 72.5836 26.261C73.5571 26.965 74.5702 25.9699 74.7192 25.8548C74.6099 26.0714 73.4677 28.3326 74.2524 28.9012C75.0371 29.4699 76.9044 29.1247 76.9044 29.1247C75.6827 31.0473 71.2229 32.2998 68.1437 32.2321C69.6263 31.7727 70.8028 30.9515 71.4414 29.9303C70.2386 30.1999 68.9634 30.2854 67.7066 30.1808C68.6999 29.9235 70.7858 28.2242 70.2594 26.2474M81.106 20.2899C80.7674 19.5879 80.2118 18.9437 79.4767 18.4006C78.7416 17.8576 77.8441 17.4283 76.8448 17.1418C77.4408 18.7531 78.2752 20.2425 81.106 20.2966" fill="#231F20"/>
<path d="M53.9994 14.4338C54.5059 13.2152 51.0195 11.0488 49.7183 10.6223C52.1985 10.544 54.6789 10.7734 57.0388 11.2993C56.4104 10.5716 56.0194 9.76011 55.8926 8.92013C55.7657 8.08015 55.906 7.23141 56.3038 6.4317C58.7771 10.8525 68.3027 11.7597 70.5077 15.4358L70.0508 17.311C66.2863 16.9793 60.7338 17.7443 57.9328 19.8633C59.447 19.9687 60.9415 20.1797 62.3926 20.4929C58.1513 20.9262 52.3108 23.4717 50.5626 24.6971C51.0791 23.0452 51.8241 21.6573 51.2976 20.6351C50.5527 19.2337 48.0397 18.6176 43.0732 19.1863C46.5398 16.959 53.5027 15.6795 53.9994 14.4473" fill="#231F20"/>
<path d="M26.1872 25.6178L27.1805 27.1207C25.8197 27.2764 24.2901 30.939 24.2901 30.939C20.8235 29.585 23.7437 25.1981 23.7437 25.1981L26.1872 25.6178Z" fill="#231F20"/>
<path d="M18.5986 24.995C19.4497 24.5663 20.3776 24.2137 21.36 23.9456L22.9393 24.9002L22.1248 25.0694C22.1248 25.0694 20.6051 28.4544 21.2209 29.8558L22.2142 31.8191C22.2142 31.8191 18.9761 31.379 18.4795 30.5328C18.4795 30.5328 17.4365 26.7213 18.5986 24.995" fill="#231F20"/>
<path d="M16.7706 26.4302C16.7706 26.4302 16.9792 30.7765 17.6347 31.1692L20.0385 31.8461L20.108 33.3288C20.108 33.3288 15.817 32.4013 15.4594 31.2978C15.1018 30.1943 14.8237 27.4186 14.8237 27.4186C15.3189 26.9592 16.0141 26.6181 16.8103 26.4437" fill="#231F20"/>
<defs>
<clipPath id="clip0_374_2798">
<rect width="502.44" height="61.2187" fill="white" transform="translate(4.10693 7)"/>
</clipPath>
</defs>
</svg>
