<svg width="378" height="136" viewBox="0 0 378 136" fill="none" xmlns="http://www.w3.org/2000/svg">
<path d="M369.213 0.74494C369.301 0.943682 369.467 1.27491 369.691 1.6724H356.491C360.474 1.07617 365.786 0.450507 369.183 0.74494M373.089 2.5925C373.489 3.40219 374.7 5.46322 376.731 5.81654V7.06052C374.329 6.58943 372.435 4.36646 371.273 2.5925H373.089ZM373.089 133.247H371.341C372.503 131.488 374.368 129.338 376.731 128.875V130.023C374.7 130.376 373.489 132.437 373.089 133.247M369.183 135.19C365.571 135.499 359.869 134.793 355.827 134.167H369.711C369.467 134.609 369.281 134.969 369.183 135.19M1.19117 130.038V128.19C2.9291 130.582 6.24874 132.319 8.42604 133.247H4.88183C4.48152 132.437 3.27083 130.376 1.23022 130.023M4.88183 2.5925H8.42604C6.24874 3.50524 2.9291 5.25712 1.22046 7.65674V5.81654C3.26106 5.46322 4.47175 3.40219 4.87206 2.5925M8.98256 3.21082C9.65626 2.91638 10.203 2.71027 10.5448 2.5925L363.989 2.5925C360.278 2.98146 356.537 3.18801 352.79 3.21082L8.98256 3.21082ZM367.387 133.247C362.546 132.632 357.65 132.3 352.741 132.253L8.15265 132.253C5.54576 131.039 1.95273 128.867 1.22046 126.011L1.22046 9.82818C1.92344 6.97218 5.55552 4.80075 8.16242 3.57886L352.82 3.57886C357.728 3.5352 362.624 3.20542 367.465 2.5925H370.306C371.556 4.57992 373.802 7.34023 376.858 7.81868V128.116C373.85 128.588 371.624 131.267 370.365 133.269L367.387 133.247ZM10.535 133.247C10.203 133.122 9.65626 132.916 8.9728 132.621L352.771 132.621C356.518 132.647 360.259 132.856 363.97 133.247L10.535 133.247ZM351.931 1.6724L3.98357 1.6724L3.90546 1.99628C3.56373 2.81333 2.31399 4.9406 0.663929 4.9406H0L0 130.891H0.61511C2.26517 130.891 3.54421 133.019 3.85664 133.836L3.98357 134.16L351.414 134.16C353.903 134.638 364.184 136.464 369.642 135.889H369.945L370.033 135.669C370.033 135.669 370.316 135.036 370.814 134.196H374.016L374.153 133.873C374.485 133.048 375.725 130.928 377.395 130.928H378V4.97741H377.395C375.735 4.97741 374.466 2.84277 374.153 2.03308L374.016 1.7092H370.755C370.296 0.914237 370.043 0.347458 370.033 0.332736L369.945 0.11191H369.642C364.487 -0.43279 355.104 1.15715 351.931 1.73865" fill="#231F20"/>
</svg>
