<svg width="55" height="42" viewBox="0 0 55 42" fill="none" xmlns="http://www.w3.org/2000/svg">
<rect width="54.7095" height="42" rx="6" fill="white"/>
<path d="M53.8002 33.6641C53.5441 31.994 53.4454 30.3087 53.505 28.6248C53.6242 30.2054 53.8821 31.776 54.2763 33.3229C54.1092 33.4276 53.9501 33.5416 53.8002 33.6641M53.6811 35.7604L53.5811 36.7099C53.3907 36.2002 53.1907 35.7974 53.1812 35.7769C53.0855 35.4095 53.1446 35.0248 53.3479 34.6917C53.4374 35.0527 53.5486 35.4094 53.6811 35.7604ZM51.1482 41.4533H49.42C52.6575 40.3188 53.2288 38.1897 53.3002 36.9606C53.3717 37.1662 53.4431 37.3717 53.4907 37.5895L53.2526 39.916C52.7099 40.0887 51.3958 40.586 51.1482 41.4533M1.45213 39.8996L1.20931 37.5731C1.25692 37.3758 1.32358 37.1621 1.395 36.9648C1.41222 37.4545 1.5133 37.9392 1.69494 38.4034C2.09011 39.394 3.03757 40.6477 5.28479 41.4369H3.55176C3.33275 40.5696 1.99013 40.0722 1.45213 39.8996ZM1.53307 35.7316C1.53307 35.7686 1.3093 36.1797 1.11885 36.6935L1.01887 35.7604C1.15581 35.4061 1.26868 35.0451 1.35691 34.6794C1.5625 35.0058 1.62504 35.3851 1.53307 35.7481M0.418975 33.3229C0.814784 31.7761 1.07421 30.2055 1.19503 28.6248C1.25861 30.3086 1.16147 31.9941 0.904604 33.6641C0.756 33.5403 0.596851 33.4262 0.428497 33.3229M0.904604 8.33588C1.1618 10.0073 1.25893 11.6941 1.19503 13.3793C1.07452 11.7972 0.815094 10.2253 0.418975 8.67704C0.587329 8.57375 0.746477 8.45971 0.895082 8.33588M1.00935 6.25602L1.10933 5.30652C1.29977 5.8162 1.49974 6.22313 1.51402 6.24369C1.60944 6.60966 1.55034 6.99302 1.34738 7.32472C1.25858 6.96317 1.14572 6.60635 1.00935 6.25602M3.55176 0.567234H5.28003C2.0425 1.7017 1.45213 3.83089 1.42832 5.05989C1.35215 4.85026 1.28549 4.64885 1.23312 4.42689L1.47593 2.10041C1.99013 1.93188 3.33275 1.43042 3.55176 0.567234ZM53.2526 2.10041L53.4907 4.42689C53.4431 4.6283 53.3764 4.83793 53.305 5.03523C53.2897 4.54536 53.1886 4.06032 53.0051 3.59659C52.6147 2.60599 51.6624 1.35232 49.42 0.567234H51.1482C51.3958 1.43042 52.7099 1.93188 53.2526 2.10041M53.1717 6.26835C53.1717 6.23546 53.3907 5.82032 53.5811 5.30652L53.6811 6.25602C53.5448 6.61055 53.432 6.97147 53.3431 7.33705C53.1387 7.01027 53.0778 6.63078 53.1717 6.26835M54.2763 8.67704C53.8801 10.2253 53.6207 11.7972 53.5002 13.3793C53.4446 11.694 53.5449 10.0075 53.8002 8.33588C53.9497 8.45876 54.1088 8.57274 54.2763 8.67704M52.8479 35.855C52.8479 35.855 52.9336 36.0317 53.0431 36.266C53.1326 36.959 53.0448 37.6606 52.7861 38.3212C52.21 39.768 50.8102 40.8285 48.7201 41.4204H5.97039C1.48546 40.1585 1.53307 37.1744 1.65685 36.2824C1.77112 36.0111 1.86634 35.8262 1.8711 35.8138C1.94102 35.535 1.94064 35.2464 1.86999 34.9677C1.79934 34.689 1.66008 34.4266 1.46165 34.1985C2.11868 31.0869 1.7854 27.1245 1.77112 26.9477V15.0276C1.77112 14.8303 2.12344 10.8597 1.46641 7.74398C1.66623 7.51093 1.8054 7.24338 1.87442 6.95962C1.94345 6.67586 1.94069 6.38258 1.86634 6.09982C1.86634 6.09982 1.77588 5.92307 1.66638 5.68878C1.5817 4.99543 1.67101 4.29447 1.92824 3.63359C2.49956 2.18673 3.90408 1.12625 5.99419 0.538461H48.7344C53.2193 1.79624 53.1717 4.7845 53.0479 5.67645C52.9336 5.94363 52.8432 6.12859 52.8384 6.14093C52.7678 6.41949 52.7674 6.70791 52.8373 6.98662C52.9071 7.26533 53.0455 7.52782 53.2431 7.75631C52.5861 10.8679 52.9194 14.8303 52.9384 15.007V26.9272C52.9384 27.1245 52.5861 31.091 53.2479 34.2067C53.0486 34.44 52.9098 34.7075 52.8408 34.9912C52.7718 35.2749 52.7742 35.5681 52.8479 35.8508M53.5954 25.3899V18.2584C53.7478 16.1497 54.1096 10.2308 54.6714 8.65649L54.7095 8.54551L54.5953 8.47974C54.3326 8.33247 54.0912 8.1586 53.8763 7.96183C53.9882 7.426 54.1474 6.89833 54.3524 6.38344L54.3762 6.32589L53.9001 1.68115L53.6573 1.64416C53.1812 1.51262 51.7529 0.986494 51.7529 0.304169V0H2.93758V0.283617C2.93758 0.965942 1.57116 1.48385 1.03315 1.6236L0.823666 1.68115L0.347559 6.32589V6.38344C0.554927 6.89632 0.714143 7.42278 0.823666 7.95772C0.607886 8.15324 0.368467 8.32825 0.109505 8.47974L0 8.54551L0.0380886 8.65649C0.599896 10.2267 0.952215 16.1374 1.11409 18.2501V25.3899C0.952215 27.4985 0.599896 31.7692 0.0380886 33.3435L0 33.4586L0.119027 33.5202C0.378642 33.6694 0.618176 33.8431 0.833188 34.0382C0.725915 34.5749 0.566654 35.1028 0.357081 35.6165V35.6741L0.833188 40.3229L1.04268 40.3764C1.56639 40.5202 2.94711 41.034 2.94711 41.7164V42H51.7672V41.7164C51.7672 41.034 53.1288 40.5202 53.6716 40.3764L53.8763 40.3229L54.3524 35.6741L54.3286 35.6165C54.1294 35.1031 53.9781 34.5766 53.8763 34.0423C54.0897 33.8445 54.3294 33.6693 54.5905 33.5202L54.7048 33.4545L54.6667 33.3435C54.1049 31.7733 53.743 27.5067 53.5954 25.394" fill="#231F20"/>
<path d="M16.7574 38.2131V34.5767H17.3061V36.157H19.1189V34.5767H19.6693V38.2131H19.1189V36.6275H17.3061V38.2131H16.7574ZM21.017 34.5767V38.2131H20.4684V34.5767H21.017ZM21.6367 35.049V34.5767H24.451V35.049H23.3164V38.2131H22.7695V35.049H21.6367ZM27.5733 38.2131H26.3961V34.5767H27.6106C27.9669 34.5767 28.2729 34.6495 28.5285 34.7951C28.7842 34.9395 28.9801 35.1473 29.1163 35.4184C29.2536 35.6882 29.3222 36.012 29.3222 36.3896C29.3222 36.7684 29.253 37.0939 29.1145 37.3662C28.9772 37.6384 28.7783 37.8479 28.5179 37.9947C28.2575 38.1403 27.9426 38.2131 27.5733 38.2131ZM26.9447 37.7337H27.5431C27.8201 37.7337 28.0503 37.6816 28.2338 37.5775C28.4173 37.4721 28.5546 37.32 28.6457 37.1211C28.7369 36.9211 28.7824 36.6772 28.7824 36.3896C28.7824 36.1043 28.7369 35.8623 28.6457 35.6634C28.5558 35.4645 28.4214 35.3136 28.2427 35.2106C28.0639 35.1076 27.842 35.0561 27.5768 35.0561H26.9447V37.7337ZM30.5531 34.5767V38.2131H30.0045V34.5767H30.5531ZM34.3724 35.7593H33.8184C33.7971 35.6409 33.7574 35.5367 33.6994 35.4468C33.6414 35.3568 33.5704 35.2805 33.4864 35.2177C33.4023 35.155 33.3082 35.1076 33.2041 35.0757C33.1011 35.0437 32.9916 35.0277 32.8756 35.0277C32.6661 35.0277 32.4784 35.0804 32.3127 35.1858C32.1482 35.2911 32.018 35.4456 31.9221 35.6492C31.8274 35.8528 31.7801 36.1014 31.7801 36.3949C31.7801 36.6909 31.8274 36.9406 31.9221 37.1442C32.018 37.3478 32.1488 37.5017 32.3145 37.6059C32.4802 37.71 32.6667 37.7621 32.8738 37.7621C32.9886 37.7621 33.0975 37.7467 33.2005 37.7159C33.3047 37.684 33.3988 37.6372 33.4828 37.5757C33.5669 37.5141 33.6379 37.439 33.6959 37.3502C33.7551 37.2602 33.7959 37.1572 33.8184 37.0412L34.3724 37.043C34.3428 37.2217 34.2854 37.3863 34.2002 37.5366C34.1161 37.6858 34.0078 37.8148 33.8752 37.9237C33.7438 38.0314 33.5935 38.1149 33.4242 38.174C33.255 38.2332 33.0703 38.2628 32.8703 38.2628C32.5554 38.2628 32.2748 38.1882 32.0286 38.0391C31.7824 37.8888 31.5883 37.6739 31.4462 37.3946C31.3054 37.1152 31.235 36.782 31.235 36.3949C31.235 36.0067 31.306 35.6734 31.448 35.3953C31.5901 35.1159 31.7842 34.9017 32.0304 34.7525C32.2766 34.6022 32.5566 34.527 32.8703 34.527C33.0632 34.527 33.2431 34.5548 33.41 34.6105C33.5781 34.6649 33.729 34.7454 33.8628 34.852C33.9966 34.9573 34.1072 35.0863 34.1948 35.239C34.2824 35.3905 34.3416 35.564 34.3724 35.7593ZM35.0289 38.2131V34.5767H37.3087V35.049H35.5775V36.157H37.1898V36.6275H35.5775V37.7408H37.33V38.2131H35.0289Z" fill="#231F20"/>
</svg>
