<svg width="570" height="51" viewBox="0 0 570 51" fill="none" xmlns="http://www.w3.org/2000/svg">
<path d="M0 47.1083L0 48.7361C4.60811 48.9944 9.56183 50.0083 9.56183 50.0083H15.5063C8.52108 49.2018 3.20902 48.2083 0 47.1083M570 2.91111V1.28055C565.392 1.02222 560.438 0.00832891 560.438 0.00832891H554.517C561.498 0.815812 566.802 1.81028 570 2.91111M15.5063 0.00832891H9.56183C9.56183 0.00832891 4.60811 1.02222 0 1.28055L0 2.91111C3.19557 1.8095 8.50928 0.814776 15.5063 0.00832891M554.517 50.0083H560.461C560.461 50.0083 565.438 48.9944 570 48.7361V47.1056C566.802 48.2064 561.498 49.2008 554.517 50.0083M523.205 50.0083H545.37C546.383 49.9306 547.674 49.8361 548.826 49.7306C544.111 49.8344 539.26 49.805 534.656 49.6444L523.205 50.0083ZM563.917 3.18611V20.475C564.202 20.4932 564.441 20.5203 564.607 20.5536C564.774 20.5869 564.862 20.625 564.862 20.6639C564.891 20.6946 564.865 20.7257 564.788 20.7551C564.71 20.7846 564.581 20.8117 564.411 20.8347C564.24 20.8578 564.031 20.8762 563.797 20.8888C563.563 20.9015 563.31 20.908 563.053 20.908C562.797 20.908 562.544 20.9015 562.31 20.8888C562.076 20.8762 561.867 20.8578 561.696 20.8347C561.525 20.8117 561.397 20.7846 561.319 20.7551C561.241 20.7257 561.216 20.6946 561.245 20.6639C561.245 20.625 561.333 20.5869 561.499 20.5536C561.666 20.5203 561.904 20.4932 562.189 20.475V3.18611C562.057 2.66389 560.971 2.15162 559.007 1.68586C557.044 1.22011 554.252 0.812339 550.83 0.491664C545.576 0.328384 540.054 0.337974 534.84 0.519439H534.679H534.518L518.758 0.00832891L51.2422 0.00832891L35.3212 0.524996H35.1599C29.954 0.34363 24.4398 0.334035 19.1928 0.497216C15.7708 0.818013 12.9769 1.22575 11.0097 1.69143C9.04256 2.15712 7.95035 2.66933 7.81074 3.19166L7.81074 20.475C8.09568 20.4932 8.33417 20.5203 8.50061 20.5536C8.66704 20.5869 8.75513 20.625 8.75541 20.6639C8.78419 20.6946 8.75888 20.7257 8.68112 20.7551C8.60336 20.7846 8.47491 20.8117 8.30417 20.8347C8.13343 20.8578 7.92425 20.8762 7.69033 20.8888C7.4564 20.9015 7.20301 20.908 6.94672 20.908C6.69044 20.908 6.43704 20.9015 6.20312 20.8888C5.9692 20.8762 5.76002 20.8578 5.58928 20.8347C5.41854 20.8117 5.29009 20.7846 5.21233 20.7551C5.13457 20.7257 5.10925 20.6946 5.13804 20.6639C5.13832 20.625 5.22641 20.5869 5.39284 20.5536C5.55928 20.5203 5.79777 20.4932 6.0827 20.475L6.0827 3.18611C6.0827 1.59444 15.2989 0.54444 21.5429 0.00832891H17.1882C8.88749 0.922065 2.92418 2.10263 0 3.41111L0 46.6083C2.9324 47.9149 8.88555 49.0941 17.1652 50.0083H21.5429C15.2068 49.4694 6.0827 48.4222 6.0827 46.8306L6.0827 29.5417C5.79777 29.5235 5.55928 29.4963 5.39284 29.463C5.22641 29.4298 5.13832 29.3916 5.13804 29.3528C5.10925 29.3221 5.13457 29.291 5.21233 29.2615C5.29009 29.2321 5.41854 29.205 5.58928 29.1819C5.76002 29.1589 5.9692 29.1405 6.20312 29.1278C6.43704 29.1152 6.69044 29.1087 6.94672 29.1087C7.20301 29.1087 7.4564 29.1152 7.69033 29.1278C7.92425 29.1405 8.13343 29.1589 8.30417 29.1819C8.47491 29.205 8.60336 29.2321 8.68112 29.2615C8.75888 29.291 8.78419 29.3221 8.75541 29.3528C8.75513 29.3916 8.66704 29.4298 8.50061 29.463C8.33417 29.4963 8.09568 29.5235 7.81074 29.5417L7.81074 46.8306C7.95035 47.3529 9.04256 47.8651 11.0097 48.3308C12.9769 48.7965 15.7708 49.2042 19.1928 49.525C24.4398 49.6882 29.954 49.6786 35.1599 49.4972H35.3212H35.4824L51.2422 50.0083L518.758 50.0083L534.679 49.4917H534.84C540.046 49.673 545.56 49.6826 550.807 49.5194C554.229 49.1986 557.023 48.7909 558.99 48.3252C560.957 47.8595 562.05 47.3473 562.189 46.825V29.5417C561.904 29.5235 561.666 29.4963 561.499 29.463C561.333 29.4298 561.245 29.3916 561.245 29.3528C561.216 29.3221 561.241 29.291 561.319 29.2615C561.397 29.2321 561.525 29.205 561.696 29.1819C561.867 29.1589 562.076 29.1405 562.31 29.1278C562.544 29.1152 562.797 29.1087 563.053 29.1087C563.31 29.1087 563.563 29.1152 563.797 29.1278C564.031 29.1405 564.24 29.1589 564.411 29.1819C564.581 29.205 564.71 29.2321 564.788 29.2615C564.865 29.291 564.891 29.3221 564.862 29.3528C564.862 29.3916 564.774 29.4298 564.607 29.463C564.441 29.4963 564.202 29.5235 563.917 29.5417V46.8306C563.917 48.4222 554.816 49.4694 548.48 50.0083H552.835C561.119 49.0934 567.073 47.9132 570 46.6056V3.41111C567.073 2.10344 561.119 0.923211 552.835 0.00832891H548.48C554.816 0.54444 563.917 1.59444 563.917 3.18611ZM24.6534 50.0083H46.8184L35.2981 49.6361C30.7215 49.7985 25.895 49.8308 21.1973 49.7306C22.4415 49.8444 23.6166 49.9389 24.6534 50.0083ZM46.8184 0.00832891H24.6534C23.6166 0.0861067 22.3493 0.180551 21.1973 0.286107C25.9046 0.182244 30.7476 0.211723 35.3442 0.372217L46.8184 0.00832891ZM548.826 0.286107C544.111 0.182214 539.26 0.211691 534.656 0.372217L523.136 -4.08e-06H545.301C546.314 0.0777737 547.605 0.172218 548.757 0.277774" fill="#DCDDDE"/>
<g clip-path="url(#clip0_120_10486)">
<path d="M55.8068 8.69787V41.9962L52.2273 45.5757H16.1932L12.6051 41.9962V8.69787L16.1932 5.1098L52.2273 5.1098L55.8068 8.69787Z" fill="white"/>
<path d="M51.767 45.2518H49.5C51.2453 44.4891 52.7274 43.2293 53.7614 41.6297V41.57C54.4086 40.5736 54.9216 39.4961 55.2869 38.3655V41.6723L51.767 45.2518ZM13.1761 41.6723V38.3655C13.5415 39.4961 14.0545 40.5736 14.7017 41.57V41.6297H14.7443C15.7942 43.2383 17.2981 44.499 19.0653 45.2518H16.7557L13.1761 41.6723ZM16.7557 5.60411H19.0653C17.2962 6.35384 15.7914 7.6152 14.7443 9.22627H14.7017V9.28593C14.0545 10.2824 13.5415 11.3599 13.1761 12.4905V9.18366L16.7557 5.60411ZM53.821 10.2575C53.9574 10.5132 54.1108 10.7518 54.2386 11.0246C54.7406 12.0957 55.1126 13.223 55.3466 14.3825V36.4308C55.0487 37.8829 54.5345 39.282 53.821 40.5814V10.2575ZM13.1761 14.4251C13.474 12.973 13.9883 11.5739 14.7017 10.2746V40.5984C14.5653 40.3428 14.4119 40.1041 14.2841 39.8314C13.7833 38.7598 13.4114 37.6326 13.1761 36.4734V14.4251ZM47.7955 45.2518H20.6932C18.5172 44.7446 16.6087 43.4439 15.3409 41.6041V9.26889C16.6207 7.42631 18.5358 6.12124 20.7187 5.60411L47.7955 5.60411C49.9681 6.11378 51.8749 7.41028 53.1477 9.24332V41.6297C51.8668 43.4511 49.9625 44.7398 47.7955 45.2518M55.3466 9.18366V12.4905C54.9812 11.3599 54.4683 10.2824 53.821 9.28593V9.22627C52.7739 7.6152 51.2692 6.35384 49.5 5.60411H51.8097L55.3466 9.18366ZM52.2528 4.42798L16.2614 4.42798L12 8.68934V42.1581L16.2614 46.4195H52.2528L56.5142 42.1581V8.68934L52.2528 4.42798Z" fill="#231F20"/>
<path d="M18.3668 37.428V33.7916H19.663C19.9459 33.7916 20.1802 33.8431 20.3661 33.9461C20.5519 34.0491 20.691 34.1899 20.7833 34.3687C20.8757 34.5462 20.9218 34.7463 20.9218 34.9688C20.9218 35.1925 20.8751 35.3938 20.7816 35.5725C20.6892 35.7501 20.5496 35.8909 20.3625 35.9951C20.1767 36.0981 19.9429 36.1496 19.6612 36.1496H18.7698V35.6844H19.6115C19.7902 35.6844 19.9352 35.6536 20.0465 35.592C20.1577 35.5293 20.2394 35.4441 20.2915 35.3364C20.3436 35.2286 20.3696 35.1061 20.3696 34.9688C20.3696 34.8315 20.3436 34.7096 20.2915 34.603C20.2394 34.4965 20.1572 34.4131 20.0447 34.3527C19.9334 34.2923 19.7867 34.2621 19.6044 34.2621H18.9154V37.428H18.3668ZM21.565 37.428V33.7916H22.8612C23.1429 33.7916 23.3767 33.8401 23.5625 33.9372C23.7496 34.0343 23.8892 34.1686 23.9816 34.3403C24.0739 34.5107 24.1201 34.7078 24.1201 34.9315C24.1201 35.1541 24.0733 35.35 23.9798 35.5192C23.8875 35.6873 23.7478 35.8181 23.5608 35.9116C23.3749 36.0052 23.1411 36.0519 22.8594 36.0519H21.8775V35.5796H22.8097C22.9873 35.5796 23.1317 35.5542 23.2429 35.5033C23.3554 35.4524 23.4377 35.3784 23.4897 35.2813C23.5418 35.1843 23.5679 35.0677 23.5679 34.9315C23.5679 34.7942 23.5412 34.6753 23.488 34.5746C23.4359 34.474 23.3536 34.3971 23.2412 34.3438C23.1299 34.2894 22.9837 34.2621 22.8026 34.2621H22.1137V37.428H21.565ZM23.3601 35.7874L24.2586 37.428H23.6336L22.7529 35.7874H23.3601ZM27.9464 35.6098C27.9464 35.9981 27.8754 36.3319 27.7334 36.6112C27.5913 36.8894 27.3966 37.1036 27.1492 37.254C26.903 37.4031 26.623 37.4777 26.3093 37.4777C25.9945 37.4777 25.7133 37.4031 25.466 37.254C25.2197 37.1036 25.0256 36.8888 24.8836 36.6094C24.7415 36.3301 24.6705 35.9969 24.6705 35.6098C24.6705 35.2215 24.7415 34.8883 24.8836 34.6102C25.0256 34.3308 25.2197 34.1165 25.466 33.9674C25.7133 33.8171 25.9945 33.7419 26.3093 33.7419C26.623 33.7419 26.903 33.8171 27.1492 33.9674C27.3966 34.1165 27.5913 34.3308 27.7334 34.6102C27.8754 34.8883 27.9464 35.2215 27.9464 35.6098ZM27.4031 35.6098C27.4031 35.3139 27.3552 35.0647 27.2593 34.8623C27.1646 34.6587 27.0344 34.5048 26.8687 34.4006C26.7041 34.2953 26.5177 34.2426 26.3093 34.2426C26.0998 34.2426 25.9128 34.2953 25.7483 34.4006C25.5837 34.5048 25.4535 34.6587 25.3576 34.8623C25.2629 35.0647 25.2156 35.3139 25.2156 35.6098C25.2156 35.9057 25.2629 36.1555 25.3576 36.3591C25.4535 36.5615 25.5837 36.7154 25.7483 36.8207C25.9128 36.9249 26.0998 36.977 26.3093 36.977C26.5177 36.977 26.7041 36.9249 26.8687 36.8207C27.0344 36.7154 27.1646 36.5615 27.2593 36.3591C27.3552 36.1555 27.4031 35.9057 27.4031 35.6098ZM28.6305 37.428V33.7916H30.8854V34.2639H29.1791V35.3719H30.7239V35.8424H29.1791V37.428H28.6305ZM32.1088 33.7916V37.428H31.5601V33.7916H32.1088ZM35.928 34.9741H35.3741C35.3528 34.8558 35.3131 34.7516 35.2551 34.6616C35.1971 34.5717 35.1261 34.4953 35.042 34.4326C34.958 34.3699 34.8639 34.3225 34.7597 34.2905C34.6567 34.2586 34.5472 34.2426 34.4312 34.2426C34.2217 34.2426 34.0341 34.2953 33.8684 34.4006C33.7039 34.506 33.5736 34.6605 33.4778 34.8641C33.3831 35.0677 33.3357 35.3162 33.3357 35.6098C33.3357 35.9057 33.3831 36.1555 33.4778 36.3591C33.5736 36.5627 33.7044 36.7166 33.8702 36.8207C34.0359 36.9249 34.2223 36.977 34.4295 36.977C34.5443 36.977 34.6532 36.9616 34.7562 36.9308C34.8603 36.8989 34.9544 36.8521 35.0385 36.7905C35.1225 36.729 35.1936 36.6538 35.2516 36.5651C35.3107 36.4751 35.3516 36.3721 35.3741 36.2561L35.928 36.2579C35.8985 36.4366 35.841 36.6012 35.7558 36.7515C35.6718 36.9006 35.5635 37.0297 35.4309 37.1386C35.2995 37.2463 35.1492 37.3297 34.9799 37.3889C34.8106 37.4481 34.626 37.4777 34.4259 37.4777C34.111 37.4777 33.8305 37.4031 33.5843 37.254C33.3381 37.1036 33.144 36.8888 33.0019 36.6094C32.861 36.3301 32.7906 35.9969 32.7906 35.6098C32.7906 35.2215 32.8616 34.8883 33.0037 34.6102C33.1457 34.3308 33.3399 34.1165 33.5861 33.9674C33.8323 33.8171 34.1122 33.7419 34.4259 33.7419C34.6189 33.7419 34.7988 33.7697 34.9657 33.8254C35.1338 33.8798 35.2847 33.9603 35.4185 34.0668C35.5522 34.1722 35.6629 34.3012 35.7505 34.4539C35.8381 34.6054 35.8973 34.7788 35.928 34.9741ZM36.5846 37.428V33.7916H38.8644V34.2639H37.1332V35.3719H38.7454V35.8424H37.1332V36.9557H38.8857V37.428H36.5846ZM42.5323 33.7916V37.428H42.028L40.1796 34.7611H40.1459V37.428H39.5973V33.7916H40.1051L41.9552 36.4621H41.9889V33.7916H42.5323ZM46.3528 34.9741H45.7989C45.7776 34.8558 45.7379 34.7516 45.6799 34.6616C45.6219 34.5717 45.5509 34.4953 45.4668 34.4326C45.3828 34.3699 45.2887 34.3225 45.1845 34.2905C45.0815 34.2586 44.972 34.2426 44.856 34.2426C44.6465 34.2426 44.4589 34.2953 44.2932 34.4006C44.1287 34.506 43.9984 34.6605 43.9026 34.8641C43.8079 35.0677 43.7605 35.3162 43.7605 35.6098C43.7605 35.9057 43.8079 36.1555 43.9026 36.3591C43.9984 36.5627 44.1292 36.7166 44.295 36.8207C44.4607 36.9249 44.6471 36.977 44.8543 36.977C44.9691 36.977 45.078 36.9616 45.181 36.9308C45.2851 36.8989 45.3792 36.8521 45.4633 36.7905C45.5473 36.729 45.6184 36.6538 45.6764 36.5651C45.7355 36.4751 45.7764 36.3721 45.7989 36.2561L46.3528 36.2579C46.3233 36.4366 46.2658 36.6012 46.1806 36.7515C46.0966 36.9006 45.9883 37.0297 45.8557 37.1386C45.7243 37.2463 45.574 37.3297 45.4047 37.3889C45.2354 37.4481 45.0508 37.4777 44.8507 37.4777C44.5359 37.4777 44.2553 37.4031 44.0091 37.254C43.7629 37.1036 43.5688 36.8888 43.4267 36.6094C43.2859 36.3301 43.2154 35.9969 43.2154 35.6098C43.2154 35.2215 43.2864 34.8883 43.4285 34.6102C43.5705 34.3308 43.7647 34.1165 44.0109 33.9674C44.2571 33.8171 44.537 33.7419 44.8507 33.7419C45.0437 33.7419 45.2236 33.7697 45.3905 33.8254C45.5586 33.8798 45.7095 33.9603 45.8433 34.0668C45.977 34.1722 46.0877 34.3012 46.1753 34.4539C46.2629 34.6054 46.3221 34.7788 46.3528 34.9741ZM46.7288 33.7916H47.3521L48.302 35.4447H48.341L49.291 33.7916H49.9142L48.5949 36.0004V37.428H48.0481V36.0004L46.7288 33.7916ZM25.5225 43.428V39.7916H26.8542C27.1123 39.7916 27.3259 39.8342 27.4952 39.9195C27.6645 40.0035 27.7911 40.1177 27.8752 40.2621C27.9592 40.4054 28.0012 40.5669 28.0012 40.7469C28.0012 40.8984 27.9734 41.0262 27.9178 41.1304C27.8622 41.2334 27.7876 41.3162 27.6941 41.379C27.6017 41.4405 27.4999 41.4855 27.3887 41.5139V41.5494C27.5094 41.5553 27.6272 41.5944 27.742 41.6666C27.858 41.7376 27.9539 41.8388 28.0297 41.9702C28.1054 42.1016 28.1433 42.2614 28.1433 42.4496C28.1433 42.6355 28.0995 42.8024 28.0119 42.9504C27.9255 43.0971 27.7917 43.2137 27.6106 43.3001C27.4295 43.3854 27.1981 43.428 26.9164 43.428H25.5225ZM26.0712 42.9575H26.8631C27.1259 42.9575 27.3141 42.9066 27.4277 42.8048C27.5414 42.703 27.5982 42.5757 27.5982 42.423C27.5982 42.3082 27.5692 42.2028 27.5112 42.107C27.4532 42.0111 27.3703 41.9347 27.2626 41.8779C27.1561 41.8211 27.0294 41.7927 26.8826 41.7927H26.0712V42.9575ZM26.0712 41.3648H26.8063C26.9294 41.3648 27.0401 41.3411 27.1383 41.2937C27.2377 41.2464 27.3165 41.1801 27.3745 41.0949C27.4337 41.0085 27.4632 40.9067 27.4632 40.7895C27.4632 40.6392 27.4106 40.5131 27.3052 40.4113C27.1999 40.3095 27.0383 40.2586 26.8205 40.2586H26.0712V41.3648ZM31.9528 41.6098C31.9528 41.9981 31.8817 42.3319 31.7397 42.6112C31.5977 42.8894 31.4029 43.1036 31.1555 43.254C30.9093 43.4031 30.6294 43.4777 30.3157 43.4777C30.0008 43.4777 29.7197 43.4031 29.4723 43.254C29.2261 43.1036 29.032 42.8888 28.8899 42.6094C28.7479 42.3301 28.6768 41.9969 28.6768 41.6098C28.6768 41.2215 28.7479 40.8883 28.8899 40.6102C29.032 40.3308 29.2261 40.1165 29.4723 39.9674C29.7197 39.8171 30.0008 39.7419 30.3157 39.7419C30.6294 39.7419 30.9093 39.8171 31.1555 39.9674C31.4029 40.1165 31.5977 40.3308 31.7397 40.6102C31.8817 40.8883 31.9528 41.2215 31.9528 41.6098ZM31.4094 41.6098C31.4094 41.3139 31.3615 41.0647 31.2656 40.8623C31.1709 40.6587 31.0407 40.5048 30.875 40.4006C30.7105 40.2953 30.524 40.2426 30.3157 40.2426C30.1062 40.2426 29.9192 40.2953 29.7546 40.4006C29.5901 40.5048 29.4599 40.6587 29.364 40.8623C29.2693 41.0647 29.2219 41.3139 29.2219 41.6098C29.2219 41.9057 29.2693 42.1555 29.364 42.3591C29.4599 42.5615 29.5901 42.7154 29.7546 42.8207C29.9192 42.9249 30.1062 42.977 30.3157 42.977C30.524 42.977 30.7105 42.9249 30.875 42.8207C31.0407 42.7154 31.1709 42.5615 31.2656 42.3591C31.3615 42.1555 31.4094 41.9057 31.4094 41.6098ZM35.5718 39.7916V43.428H35.0676L33.2192 40.7611H33.1855V43.428H32.6368V39.7916H33.1446L34.9948 42.4621H35.0285V39.7916H35.5718ZM38.7106 39.7916H39.261V42.1833C39.261 42.4378 39.2012 42.6633 39.0817 42.8598C38.9621 43.0551 38.794 43.209 38.5774 43.3214C38.3608 43.4327 38.1069 43.4883 37.8157 43.4883C37.5257 43.4883 37.2724 43.4327 37.0558 43.3214C36.8391 43.209 36.671 43.0551 36.5515 42.8598C36.4319 42.6633 36.3722 42.4378 36.3722 42.1833V39.7916H36.9208V42.1389C36.9208 42.3035 36.9569 42.4496 37.0291 42.5775C37.1025 42.7053 37.2061 42.8059 37.3398 42.8793C37.4736 42.9515 37.6322 42.9876 37.8157 42.9876C38.0004 42.9876 38.1596 42.9515 38.2933 42.8793C38.4283 42.8059 38.5313 42.7053 38.6023 42.5775C38.6745 42.4496 38.7106 42.3035 38.7106 42.1389V39.7916ZM42.042 40.7469C42.0231 40.5788 41.9449 40.4486 41.8076 40.3562C41.6703 40.2627 41.4975 40.216 41.2892 40.216C41.14 40.216 41.011 40.2396 40.9021 40.287C40.7932 40.3332 40.7085 40.3971 40.6482 40.4788C40.589 40.5593 40.5594 40.651 40.5594 40.754C40.5594 40.8404 40.5795 40.915 40.6198 40.9777C40.6612 41.0404 40.7151 41.0931 40.7813 41.1357C40.8488 41.1771 40.921 41.2121 40.998 41.2405C41.0749 41.2677 41.1489 41.2902 41.2199 41.308L41.575 41.4003C41.691 41.4287 41.81 41.4672 41.9319 41.5157C42.0538 41.5642 42.1669 41.6281 42.271 41.7075C42.3752 41.7868 42.4593 41.885 42.5232 42.0022C42.5883 42.1194 42.6208 42.2597 42.6208 42.423C42.6208 42.629 42.5676 42.8119 42.461 42.9717C42.3557 43.1315 42.2024 43.2575 42.0012 43.3499C41.8011 43.4422 41.559 43.4883 41.2749 43.4883C41.0027 43.4883 40.7671 43.4451 40.5683 43.3587C40.3694 43.2723 40.2137 43.1498 40.1013 42.9912C39.9888 42.8314 39.9267 42.642 39.9149 42.423H40.4653C40.4759 42.5544 40.5186 42.6639 40.5931 42.7515C40.6689 42.8379 40.7654 42.9024 40.8825 42.945C41.0009 42.9865 41.1305 43.0072 41.2714 43.0072C41.4265 43.0072 41.5644 42.9829 41.6851 42.9344C41.807 42.8847 41.9029 42.816 41.9727 42.7284C42.0426 42.6396 42.0775 42.5361 42.0775 42.4177C42.0775 42.31 42.0467 42.2218 41.9852 42.1531C41.9248 42.0845 41.8425 42.0276 41.7384 41.9827C41.6354 41.9377 41.5188 41.898 41.3886 41.8637L40.9589 41.7465C40.6677 41.6672 40.4369 41.5506 40.2664 41.3967C40.0972 41.2428 40.0125 41.0392 40.0125 40.7859C40.0125 40.5764 40.0693 40.3935 40.183 40.2373C40.2966 40.081 40.4505 39.9597 40.6446 39.8733C40.8387 39.7857 41.0577 39.7419 41.3016 39.7419C41.5478 39.7419 41.765 39.7851 41.9532 39.8715C42.1426 39.9579 42.2918 40.0769 42.4007 40.2284C42.5096 40.3787 42.5664 40.5516 42.5711 40.7469H42.042Z" fill="#231F20"/>
</g>
<g clip-path="url(#clip1_120_10486)">
<path d="M106.33 8.69787V41.9962L102.75 45.5757H66.716L63.1279 41.9962V8.69787L66.716 5.1098L102.75 5.1098L106.33 8.69787Z" fill="white"/>
<path d="M102.29 45.2518H100.023C101.768 44.4891 103.25 43.2293 104.284 41.6297V41.57C104.931 40.5736 105.444 39.4961 105.81 38.3655V41.6723L102.29 45.2518ZM63.6988 41.6723V38.3655C64.0642 39.4961 64.5772 40.5736 65.2244 41.57V41.6297H65.267C66.3169 43.2383 67.8208 44.499 69.588 45.2518H67.2784L63.6988 41.6723ZM67.2784 5.60411H69.588C67.8189 6.35384 66.3142 7.6152 65.267 9.22627H65.2244V9.28593C64.5772 10.2824 64.0642 11.3599 63.6988 12.4905V9.18366L67.2784 5.60411ZM104.344 10.2575C104.48 10.5132 104.634 10.7518 104.761 11.0246C105.263 12.0957 105.635 13.223 105.869 14.3825V36.4308C105.571 37.8829 105.057 39.282 104.344 40.5814V10.2575ZM63.6988 14.4251C63.9967 12.973 64.511 11.5739 65.2244 10.2746V40.5984C65.088 40.3428 64.9346 40.1041 64.8068 39.8314C64.306 38.7598 63.9341 37.6326 63.6988 36.4734V14.4251ZM98.3182 45.2518H71.2159C69.0399 44.7446 67.1314 43.4439 65.8636 41.6041V9.26889C67.1434 7.42631 69.0585 6.12124 71.2415 5.60411L98.3182 5.60411C100.491 6.11378 102.398 7.41028 103.67 9.24332V41.6297C102.389 43.4511 100.485 44.7398 98.3182 45.2518M105.869 9.18366V12.4905C105.504 11.3599 104.991 10.2824 104.344 9.28593V9.22627C103.297 7.6152 101.792 6.35384 100.023 5.60411H102.332L105.869 9.18366ZM102.776 4.42798L66.7841 4.42798L62.5227 8.68934V42.1581L66.7841 46.4195H102.776L107.037 42.1581V8.68934L102.776 4.42798Z" fill="#231F20"/>
<path d="M72.8586 33.7916V37.428H72.3099V33.7916H72.8586ZM76.5926 33.7916V37.428H76.0883L74.2399 34.7611H74.2062V37.428H73.6576V33.7916H74.1654L76.0155 36.4621H76.0492V33.7916H76.5926ZM77.9416 33.7916V37.428H77.3929V33.7916H77.9416ZM78.5612 34.2639V33.7916H81.3755V34.2639H80.2409V37.428H79.694V34.2639H78.5612ZM82.5461 33.7916V37.428H81.9974V33.7916H82.5461ZM83.6522 37.428H83.0698L84.3784 33.7916H85.0123L86.3209 37.428H85.7385L84.7105 34.4521H84.6821L83.6522 37.428ZM83.7499 36.004H85.6391V36.4656H83.7499V36.004ZM86.237 34.2639V33.7916H89.0513V34.2639H87.9167V37.428H87.3698V34.2639H86.237ZM90.2218 33.7916V37.428H89.6732V33.7916H90.2218ZM91.3387 33.7916L92.3507 36.7533H92.3916L93.4037 33.7916H93.9967L92.6881 37.428H92.0542L90.7456 33.7916H91.3387ZM94.5218 37.428V33.7916H96.8016V34.2639H95.0705V35.3719H96.6827V35.8424H95.0705V36.9557H96.823V37.428H94.5218ZM76.0453 43.428V39.7916H77.3769C77.635 39.7916 77.8486 39.8342 78.0179 39.9195C78.1872 40.0035 78.3138 40.1177 78.3979 40.2621C78.4819 40.4054 78.5239 40.5669 78.5239 40.7469C78.5239 40.8984 78.4961 41.0262 78.4405 41.1304C78.3849 41.2334 78.3103 41.3162 78.2168 41.379C78.1244 41.4405 78.0226 41.4855 77.9114 41.5139V41.5494C78.0321 41.5553 78.1499 41.5944 78.2647 41.6666C78.3807 41.7376 78.4766 41.8388 78.5524 41.9702C78.6281 42.1016 78.666 42.2614 78.666 42.4496C78.666 42.6355 78.6222 42.8024 78.5346 42.9504C78.4482 43.0971 78.3144 43.2137 78.1333 43.3001C77.9522 43.3854 77.7208 43.428 77.4391 43.428H76.0453ZM76.5939 42.9575H77.3858C77.6486 42.9575 77.8368 42.9066 77.9504 42.8048C78.0641 42.703 78.1209 42.5757 78.1209 42.423C78.1209 42.3082 78.0919 42.2028 78.0339 42.107C77.9759 42.0111 77.893 41.9347 77.7853 41.8779C77.6788 41.8211 77.5521 41.7927 77.4053 41.7927H76.5939V42.9575ZM76.5939 41.3648H77.329C77.4521 41.3648 77.5628 41.3411 77.661 41.2937C77.7605 41.2464 77.8392 41.1801 77.8972 41.0949C77.9564 41.0085 77.986 40.9067 77.986 40.7895C77.986 40.6392 77.9333 40.5131 77.8279 40.4113C77.7226 40.3095 77.561 40.2586 77.3432 40.2586H76.5939V41.3648ZM82.4755 41.6098C82.4755 41.9981 82.4045 42.3319 82.2624 42.6112C82.1204 42.8894 81.9256 43.1036 81.6782 43.254C81.432 43.4031 81.1521 43.4777 80.8384 43.4777C80.5235 43.4777 80.2424 43.4031 79.995 43.254C79.7488 43.1036 79.5547 42.8888 79.4126 42.6094C79.2706 42.3301 79.1996 41.9969 79.1996 41.6098C79.1996 41.2215 79.2706 40.8883 79.4126 40.6102C79.5547 40.3308 79.7488 40.1165 79.995 39.9674C80.2424 39.8171 80.5235 39.7419 80.8384 39.7419C81.1521 39.7419 81.432 39.8171 81.6782 39.9674C81.9256 40.1165 82.1204 40.3308 82.2624 40.6102C82.4045 40.8883 82.4755 41.2215 82.4755 41.6098ZM81.9322 41.6098C81.9322 41.3139 81.8842 41.0647 81.7883 40.8623C81.6936 40.6587 81.5634 40.5048 81.3977 40.4006C81.2332 40.2953 81.0467 40.2426 80.8384 40.2426C80.6289 40.2426 80.4419 40.2953 80.2773 40.4006C80.1128 40.5048 79.9826 40.6587 79.8867 40.8623C79.792 41.0647 79.7447 41.3139 79.7447 41.6098C79.7447 41.9057 79.792 42.1555 79.8867 42.3591C79.9826 42.5615 80.1128 42.7154 80.2773 42.8207C80.4419 42.9249 80.6289 42.977 80.8384 42.977C81.0467 42.977 81.2332 42.9249 81.3977 42.8207C81.5634 42.7154 81.6936 42.5615 81.7883 42.3591C81.8842 42.1555 81.9322 41.9057 81.9322 41.6098ZM86.0945 39.7916V43.428H85.5903L83.7419 40.7611H83.7082V43.428H83.1595V39.7916H83.6673L85.5175 42.4621H85.5512V39.7916H86.0945ZM89.2333 39.7916H89.7837V42.1833C89.7837 42.4378 89.7239 42.6633 89.6044 42.8598C89.4848 43.0551 89.3167 43.209 89.1001 43.3214C88.8835 43.4327 88.6296 43.4883 88.3384 43.4883C88.0484 43.4883 87.7951 43.4327 87.5785 43.3214C87.3618 43.209 87.1938 43.0551 87.0742 42.8598C86.9546 42.6633 86.8949 42.4378 86.8949 42.1833V39.7916H87.4435V42.1389C87.4435 42.3035 87.4796 42.4496 87.5518 42.5775C87.6252 42.7053 87.7288 42.8059 87.8625 42.8793C87.9963 42.9515 88.1549 42.9876 88.3384 42.9876C88.5231 42.9876 88.6823 42.9515 88.816 42.8793C88.951 42.8059 89.054 42.7053 89.125 42.5775C89.1972 42.4496 89.2333 42.3035 89.2333 42.1389V39.7916ZM92.5647 40.7469C92.5458 40.5788 92.4676 40.4486 92.3303 40.3562C92.193 40.2627 92.0202 40.216 91.8119 40.216C91.6627 40.216 91.5337 40.2396 91.4248 40.287C91.3159 40.3332 91.2312 40.3971 91.1709 40.4788C91.1117 40.5593 91.0821 40.651 91.0821 40.754C91.0821 40.8404 91.1022 40.915 91.1425 40.9777C91.1839 41.0404 91.2378 41.0931 91.304 41.1357C91.3715 41.1771 91.4437 41.2121 91.5207 41.2405C91.5976 41.2677 91.6716 41.2902 91.7426 41.308L92.0977 41.4003C92.2137 41.4287 92.3327 41.4672 92.4546 41.5157C92.5765 41.5642 92.6896 41.6281 92.7937 41.7075C92.8979 41.7868 92.982 41.885 93.0459 42.0022C93.111 42.1194 93.1435 42.2597 93.1435 42.423C93.1435 42.629 93.0903 42.8119 92.9837 42.9717C92.8784 43.1315 92.7251 43.2575 92.5239 43.3499C92.3238 43.4422 92.0817 43.4883 91.7977 43.4883C91.5254 43.4883 91.2898 43.4451 91.091 43.3587C90.8921 43.2723 90.7365 43.1498 90.624 42.9912C90.5115 42.8314 90.4494 42.642 90.4376 42.423H90.988C90.9986 42.5544 91.0413 42.6639 91.1158 42.7515C91.1916 42.8379 91.2881 42.9024 91.4053 42.945C91.5236 42.9865 91.6532 43.0072 91.7941 43.0072C91.9492 43.0072 92.0871 42.9829 92.2078 42.9344C92.3297 42.8847 92.4256 42.816 92.4955 42.7284C92.5653 42.6396 92.6002 42.5361 92.6002 42.4177C92.6002 42.31 92.5694 42.2218 92.5079 42.1531C92.4475 42.0845 92.3652 42.0276 92.2611 41.9827C92.1581 41.9377 92.0415 41.898 91.9113 41.8637L91.4816 41.7465C91.1904 41.6672 90.9596 41.5506 90.7891 41.3967C90.6199 41.2428 90.5352 41.0392 90.5352 40.7859C90.5352 40.5764 90.592 40.3935 90.7057 40.2373C90.8193 40.081 90.9732 39.9597 91.1673 39.8733C91.3615 39.7857 91.5804 39.7419 91.8243 39.7419C92.0705 39.7419 92.2877 39.7851 92.4759 39.8715C92.6653 39.9579 92.8145 40.0769 92.9234 40.2284C93.0323 40.3787 93.0891 40.5516 93.0938 40.7469H92.5647Z" fill="#231F20"/>
</g>
<g clip-path="url(#clip2_120_10486)">
<path d="M156.852 8.69787V41.9962L153.273 45.5757H117.239L113.651 41.9962V8.69787L117.239 5.1098L153.273 5.1098L156.852 8.69787Z" fill="white"/>
<path d="M152.812 45.2518H150.545C152.291 44.4891 153.773 43.2293 154.807 41.6297V41.57C155.454 40.5736 155.967 39.4961 156.332 38.3655V41.6723L152.812 45.2518ZM114.222 41.6723V38.3655C114.587 39.4961 115.1 40.5736 115.747 41.57V41.6297H115.79C116.84 43.2383 118.343 44.499 120.111 45.2518H117.801L114.222 41.6723ZM117.801 5.60411H120.111C118.342 6.35384 116.837 7.6152 115.79 9.22627H115.747V9.28593C115.1 10.2824 114.587 11.3599 114.222 12.4905V9.18366L117.801 5.60411ZM154.866 10.2575C155.003 10.5132 155.156 10.7518 155.284 11.0246C155.786 12.0957 156.158 13.223 156.392 14.3825V36.4308C156.094 37.8829 155.58 39.282 154.866 40.5814V10.2575ZM114.222 14.4251C114.519 12.973 115.034 11.5739 115.747 10.2746V40.5984C115.611 40.3428 115.457 40.1041 115.33 39.8314C114.829 38.7598 114.457 37.6326 114.222 36.4734V14.4251ZM148.841 45.2518H121.739C119.563 44.7446 117.654 43.4439 116.386 41.6041V9.26889C117.666 7.42631 119.581 6.12124 121.764 5.60411L148.841 5.60411C151.014 6.11378 152.92 7.41028 154.193 9.24332V41.6297C152.912 43.4511 151.008 44.7398 148.841 45.2518M156.392 9.18366V12.4905C156.027 11.3599 155.514 10.2824 154.866 9.28593V9.22627C153.819 7.6152 152.315 6.35384 150.545 5.60411H152.855L156.392 9.18366ZM153.298 4.42798L117.307 4.42798L113.045 8.68934V42.1581L117.307 46.4195H153.298L157.56 42.1581V8.68934L153.298 4.42798Z" fill="#231F20"/>
<path d="M124.407 37.428H123.824L125.133 33.7916H125.767L127.076 37.428H126.493L125.465 34.4521H125.437L124.407 37.428ZM124.505 36.004H126.394V36.4656H124.505V36.004ZM126.992 34.2639V33.7916H129.806V34.2639H128.671V37.428H128.124V34.2639H126.992ZM130.248 34.2639V33.7916H133.063V34.2639H131.928V37.428H131.381V34.2639H130.248ZM133.562 37.428H132.98L134.288 33.7916H134.922L136.231 37.428H135.648L134.62 34.4521H134.592L133.562 37.428ZM133.66 36.004H135.549V36.4656H133.66V36.004ZM139.605 34.9741H139.051C139.03 34.8558 138.99 34.7516 138.932 34.6616C138.874 34.5717 138.803 34.4953 138.719 34.4326C138.635 34.3699 138.541 34.3225 138.437 34.2905C138.334 34.2586 138.224 34.2426 138.108 34.2426C137.899 34.2426 137.711 34.2953 137.546 34.4006C137.381 34.506 137.251 34.6605 137.155 34.8641C137.06 35.0677 137.013 35.3162 137.013 35.6098C137.013 35.9057 137.06 36.1555 137.155 36.3591C137.251 36.5627 137.382 36.7166 137.547 36.8207C137.713 36.9249 137.9 36.977 138.107 36.977C138.222 36.977 138.33 36.9616 138.433 36.9308C138.538 36.8989 138.632 36.8521 138.716 36.7905C138.8 36.729 138.871 36.6538 138.929 36.5651C138.988 36.4751 139.029 36.3721 139.051 36.2561L139.605 36.2579C139.576 36.4366 139.518 36.6012 139.433 36.7515C139.349 36.9006 139.241 37.0297 139.108 37.1386C138.977 37.2463 138.826 37.3297 138.657 37.3889C138.488 37.4481 138.303 37.4777 138.103 37.4777C137.788 37.4777 137.508 37.4031 137.262 37.254C137.015 37.1036 136.821 36.8888 136.679 36.6094C136.538 36.3301 136.468 35.9969 136.468 35.6098C136.468 35.2215 136.539 34.8883 136.681 34.6102C136.823 34.3308 137.017 34.1165 137.263 33.9674C137.51 33.8171 137.789 33.7419 138.103 33.7419C138.296 33.7419 138.476 33.7697 138.643 33.8254C138.811 33.8798 138.962 33.9603 139.096 34.0668C139.229 34.1722 139.34 34.3012 139.428 34.4539C139.515 34.6054 139.575 34.7788 139.605 34.9741ZM140.262 37.428V33.7916H140.81V35.5281H140.855L142.38 33.7916H143.071L141.604 35.4287L143.076 37.428H142.416L141.24 35.8033L140.81 36.2969V37.428H140.262ZM145.556 34.7469C145.537 34.5788 145.459 34.4486 145.321 34.3562C145.184 34.2627 145.011 34.216 144.803 34.216C144.654 34.216 144.525 34.2396 144.416 34.287C144.307 34.3332 144.222 34.3971 144.162 34.4788C144.103 34.5593 144.073 34.651 144.073 34.754C144.073 34.8404 144.093 34.915 144.133 34.9777C144.175 35.0404 144.229 35.0931 144.295 35.1357C144.362 35.1771 144.435 35.2121 144.512 35.2405C144.589 35.2677 144.663 35.2902 144.734 35.308L145.089 35.4003C145.205 35.4287 145.324 35.4672 145.446 35.5157C145.568 35.5642 145.681 35.6281 145.785 35.7075C145.889 35.7868 145.973 35.885 146.037 36.0022C146.102 36.1194 146.134 36.2597 146.134 36.423C146.134 36.629 146.081 36.8119 145.975 36.9717C145.869 37.1315 145.716 37.2575 145.515 37.3499C145.315 37.4422 145.073 37.4883 144.789 37.4883C144.516 37.4883 144.281 37.4451 144.082 37.3587C143.883 37.2723 143.727 37.1498 143.615 36.9912C143.503 36.8314 143.44 36.642 143.429 36.423H143.979C143.99 36.5544 144.032 36.6639 144.107 36.7515C144.183 36.8379 144.279 36.9024 144.396 36.945C144.515 36.9865 144.644 37.0072 144.785 37.0072C144.94 37.0072 145.078 36.9829 145.199 36.9344C145.321 36.8847 145.417 36.816 145.486 36.7284C145.556 36.6396 145.591 36.5361 145.591 36.4177C145.591 36.31 145.56 36.2218 145.499 36.1531C145.438 36.0845 145.356 36.0276 145.252 35.9827C145.149 35.9377 145.032 35.898 144.902 35.8637L144.473 35.7465C144.181 35.6672 143.951 35.5506 143.78 35.3967C143.611 35.2428 143.526 35.0392 143.526 34.7859C143.526 34.5764 143.583 34.3935 143.697 34.2373C143.81 34.081 143.964 33.9597 144.158 33.8733C144.352 33.7857 144.571 33.7419 144.815 33.7419C145.061 33.7419 145.279 33.7851 145.467 33.8715C145.656 33.9579 145.805 34.0769 145.914 34.2284C146.023 34.3787 146.08 34.5516 146.085 34.7469H145.556ZM120.472 43.428V39.7916H121.768C122.051 39.7916 122.285 39.8431 122.471 39.9461C122.657 40.0491 122.796 40.1899 122.888 40.3687C122.981 40.5462 123.027 40.7463 123.027 40.9688C123.027 41.1925 122.98 41.3938 122.887 41.5725C122.794 41.7501 122.655 41.8909 122.468 41.9951C122.282 42.0981 122.048 42.1496 121.766 42.1496H120.875V41.6844H121.716C121.895 41.6844 122.04 41.6536 122.151 41.592C122.263 41.5293 122.344 41.4441 122.396 41.3364C122.449 41.2286 122.475 41.1061 122.475 40.9688C122.475 40.8315 122.449 40.7096 122.396 40.603C122.344 40.4965 122.262 40.4131 122.15 40.3527C122.038 40.2923 121.892 40.2621 121.709 40.2621H121.02V43.428H120.472ZM123.67 43.428V39.7916H125.95V40.2639H124.219V41.3719H125.831V41.8424H124.219V42.9557H125.971V43.428H123.67ZM126.683 43.428V39.7916H127.979C128.261 39.7916 128.494 39.8401 128.68 39.9372C128.867 40.0343 129.007 40.1686 129.099 40.3403C129.192 40.5107 129.238 40.7078 129.238 40.9315C129.238 41.1541 129.191 41.35 129.097 41.5192C129.005 41.6873 128.865 41.8181 128.678 41.9116C128.493 42.0052 128.259 42.0519 127.977 42.0519H126.995V41.5796H127.927C128.105 41.5796 128.249 41.5542 128.361 41.5033C128.473 41.4524 128.555 41.3784 128.607 41.2813C128.66 41.1843 128.686 41.0677 128.686 40.9315C128.686 40.7942 128.659 40.6753 128.606 40.5746C128.554 40.474 128.471 40.3971 128.359 40.3438C128.248 40.2894 128.101 40.2621 127.92 40.2621H127.231V43.428H126.683ZM128.478 41.7874L129.376 43.428H128.751L127.871 41.7874H128.478ZM131.536 43.428H130.953L132.262 39.7916H132.896L134.204 43.428H133.622L132.594 40.4521H132.566L131.536 43.428ZM131.633 42.004H133.523V42.4656H131.633V42.004ZM137.579 40.9741H137.025C137.004 40.8558 136.964 40.7516 136.906 40.6616C136.848 40.5717 136.777 40.4953 136.693 40.4326C136.609 40.3699 136.515 40.3225 136.411 40.2905C136.308 40.2586 136.198 40.2426 136.082 40.2426C135.873 40.2426 135.685 40.2953 135.519 40.4006C135.355 40.506 135.225 40.6605 135.129 40.8641C135.034 41.0677 134.987 41.3162 134.987 41.6098C134.987 41.9057 135.034 42.1555 135.129 42.3591C135.225 42.5627 135.355 42.7166 135.521 42.8207C135.687 42.9249 135.873 42.977 136.08 42.977C136.195 42.977 136.304 42.9616 136.407 42.9308C136.511 42.8989 136.605 42.8521 136.689 42.7905C136.773 42.729 136.844 42.6538 136.902 42.5651C136.962 42.4751 137.002 42.3721 137.025 42.2561L137.579 42.2579C137.549 42.4366 137.492 42.6012 137.407 42.7515C137.323 42.9006 137.214 43.0297 137.082 43.1386C136.95 43.2463 136.8 43.3297 136.631 43.3889C136.461 43.4481 136.277 43.4777 136.077 43.4777C135.762 43.4777 135.481 43.4031 135.235 43.254C134.989 43.1036 134.795 42.8888 134.653 42.6094C134.512 42.3301 134.441 41.9969 134.441 41.6098C134.441 41.2215 134.513 40.8883 134.655 40.6102C134.797 40.3308 134.991 40.1165 135.237 39.9674C135.483 39.8171 135.763 39.7419 136.077 39.7419C136.27 39.7419 136.45 39.7697 136.617 39.8254C136.785 39.8798 136.936 39.9603 137.069 40.0668C137.203 40.1722 137.314 40.3012 137.401 40.4539C137.489 40.6054 137.548 40.7788 137.579 40.9741ZM138.056 40.2639V39.7916H140.87V40.2639H139.736V43.428H139.189V40.2639H138.056ZM142.041 39.7916V43.428H141.492V39.7916H142.041ZM145.999 41.6098C145.999 41.9981 145.928 42.3319 145.786 42.6112C145.644 42.8894 145.449 43.1036 145.201 43.254C144.955 43.4031 144.675 43.4777 144.362 43.4777C144.047 43.4777 143.766 43.4031 143.518 43.254C143.272 43.1036 143.078 42.8888 142.936 42.6094C142.794 42.3301 142.723 41.9969 142.723 41.6098C142.723 41.2215 142.794 40.8883 142.936 40.6102C143.078 40.3308 143.272 40.1165 143.518 39.9674C143.766 39.8171 144.047 39.7419 144.362 39.7419C144.675 39.7419 144.955 39.8171 145.201 39.9674C145.449 40.1165 145.644 40.3308 145.786 40.6102C145.928 40.8883 145.999 41.2215 145.999 41.6098ZM145.455 41.6098C145.455 41.3139 145.407 41.0647 145.312 40.8623C145.217 40.6587 145.087 40.5048 144.921 40.4006C144.756 40.2953 144.57 40.2426 144.362 40.2426C144.152 40.2426 143.965 40.2953 143.801 40.4006C143.636 40.5048 143.506 40.6587 143.41 40.8623C143.315 41.0647 143.268 41.3139 143.268 41.6098C143.268 41.9057 143.315 42.1555 143.41 42.3591C143.506 42.5615 143.636 42.7154 143.801 42.8207C143.965 42.9249 144.152 42.977 144.362 42.977C144.57 42.977 144.756 42.9249 144.921 42.8207C145.087 42.7154 145.217 42.5615 145.312 42.3591C145.407 42.1555 145.455 41.9057 145.455 41.6098ZM149.618 39.7916V43.428H149.113L147.265 40.7611H147.231V43.428H146.683V39.7916H147.191L149.041 42.4621H149.074V39.7916H149.618Z" fill="#231F20"/>
</g>
<g clip-path="url(#clip3_120_10486)">
<path d="M207.375 8.69787V41.9962L203.796 45.5757H167.761L164.173 41.9962V8.69787L167.761 5.1098L203.796 5.1098L207.375 8.69787Z" fill="white"/>
<path d="M203.335 45.2518H201.068C202.813 44.4891 204.296 43.2293 205.329 41.6297V41.57C205.977 40.5736 206.49 39.4961 206.855 38.3655V41.6723L203.335 45.2518ZM164.744 41.6723V38.3655C165.11 39.4961 165.623 40.5736 166.27 41.57V41.6297H166.312C167.362 43.2383 168.866 44.499 170.633 45.2518H168.324L164.744 41.6723ZM168.324 5.60411H170.633C168.864 6.35384 167.36 7.6152 166.312 9.22627H166.27V9.28593C165.623 10.2824 165.11 11.3599 164.744 12.4905V9.18366L168.324 5.60411ZM205.389 10.2575C205.526 10.5132 205.679 10.7518 205.807 11.0246C206.309 12.0957 206.681 13.223 206.915 14.3825V36.4308C206.617 37.8829 206.103 39.282 205.389 40.5814V10.2575ZM164.744 14.4251C165.042 12.973 165.556 11.5739 166.27 10.2746V40.5984C166.133 40.3428 165.98 40.1041 165.852 39.8314C165.351 38.7598 164.979 37.6326 164.744 36.4734V14.4251ZM199.364 45.2518H172.261C170.085 44.7446 168.177 43.4439 166.909 41.6041V9.26889C168.189 7.42631 170.104 6.12124 172.287 5.60411L199.364 5.60411C201.536 6.11378 203.443 7.41028 204.716 9.24332V41.6297C203.435 43.4511 201.531 44.7398 199.364 45.2518M206.915 9.18366V12.4905C206.549 11.3599 206.036 10.2824 205.389 9.28593V9.22627C204.342 7.6152 202.837 6.35384 201.068 5.60411H203.378L206.915 9.18366ZM203.821 4.42798L167.829 4.42798L163.568 8.68934V42.1581L167.829 46.4195H203.821L208.082 42.1581V8.68934L203.821 4.42798Z" fill="#231F20"/>
<path d="M170.855 39.7916V43.428H170.306V39.7916H170.855ZM174.589 39.7916V43.428H174.084L172.236 40.7611H172.202V43.428H171.654V39.7916H172.161L174.012 42.4621H174.045V39.7916H174.589ZM177.372 40.7469C177.353 40.5788 177.275 40.4486 177.138 40.3562C177.001 40.2627 176.828 40.216 176.619 40.216C176.47 40.216 176.341 40.2396 176.232 40.287C176.123 40.3332 176.039 40.3971 175.978 40.4788C175.919 40.5593 175.89 40.651 175.89 40.754C175.89 40.8404 175.91 40.915 175.95 40.9777C175.992 41.0404 176.045 41.0931 176.112 41.1357C176.179 41.1771 176.251 41.2121 176.328 41.2405C176.405 41.2677 176.479 41.2902 176.55 41.308L176.905 41.4003C177.021 41.4287 177.14 41.4672 177.262 41.5157C177.384 41.5642 177.497 41.6281 177.601 41.7075C177.706 41.7868 177.79 41.885 177.853 42.0022C177.919 42.1194 177.951 42.2597 177.951 42.423C177.951 42.629 177.898 42.8119 177.791 42.9717C177.686 43.1315 177.533 43.2575 177.331 43.3499C177.131 43.4422 176.889 43.4883 176.605 43.4883C176.333 43.4883 176.097 43.4451 175.899 43.3587C175.7 43.2723 175.544 43.1498 175.432 42.9912C175.319 42.8314 175.257 42.642 175.245 42.423H175.796C175.806 42.5544 175.849 42.6639 175.923 42.7515C175.999 42.8379 176.096 42.9024 176.213 42.945C176.331 42.9865 176.461 43.0072 176.602 43.0072C176.757 43.0072 176.895 42.9829 177.015 42.9344C177.137 42.8847 177.233 42.816 177.303 42.7284C177.373 42.6396 177.408 42.5361 177.408 42.4177C177.408 42.31 177.377 42.2218 177.315 42.1531C177.255 42.0845 177.173 42.0276 177.069 41.9827C176.966 41.9377 176.849 41.898 176.719 41.8637L176.289 41.7465C175.998 41.6672 175.767 41.5506 175.597 41.3967C175.427 41.2428 175.343 41.0392 175.343 40.7859C175.343 40.5764 175.4 40.3935 175.513 40.2373C175.627 40.081 175.781 39.9597 175.975 39.8733C176.169 39.7857 176.388 39.7419 176.632 39.7419C176.878 39.7419 177.095 39.7851 177.284 39.8715C177.473 39.9579 177.622 40.0769 177.731 40.2284C177.84 40.3787 177.897 40.5516 177.901 40.7469H177.372ZM178.607 43.428V39.7916H179.903C180.186 39.7916 180.42 39.8431 180.606 39.9461C180.792 40.0491 180.931 40.1899 181.023 40.3687C181.116 40.5462 181.162 40.7463 181.162 40.9688C181.162 41.1925 181.115 41.3938 181.022 41.5725C180.929 41.7501 180.79 41.8909 180.603 41.9951C180.417 42.0981 180.183 42.1496 179.901 42.1496H179.01V41.6844H179.851C180.03 41.6844 180.175 41.6536 180.286 41.592C180.398 41.5293 180.479 41.4441 180.531 41.3364C180.584 41.2286 180.61 41.1061 180.61 40.9688C180.61 40.8315 180.584 40.7096 180.531 40.603C180.479 40.4965 180.397 40.4131 180.285 40.3527C180.173 40.2923 180.027 40.2621 179.844 40.2621H179.155V43.428H178.607ZM182.354 39.7916V43.428H181.805V39.7916H182.354ZM183.153 43.428V39.7916H184.449C184.731 39.7916 184.964 39.8401 185.15 39.9372C185.337 40.0343 185.477 40.1686 185.569 40.3403C185.662 40.5107 185.708 40.7078 185.708 40.9315C185.708 41.1541 185.661 41.35 185.567 41.5192C185.475 41.6873 185.335 41.8181 185.148 41.9116C184.963 42.0052 184.729 42.0519 184.447 42.0519H183.465V41.5796H184.397C184.575 41.5796 184.719 41.5542 184.831 41.5033C184.943 41.4524 185.025 41.3784 185.077 41.2813C185.129 41.1843 185.156 41.0677 185.156 40.9315C185.156 40.7942 185.129 40.6753 185.076 40.5746C185.024 40.474 184.941 40.3971 184.829 40.3438C184.718 40.2894 184.571 40.2621 184.39 40.2621H183.701V43.428H183.153ZM184.948 41.7874L185.846 43.428H185.221L184.341 41.7874H184.948ZM186.683 43.428H186.1L187.409 39.7916H188.043L189.351 43.428H188.769L187.741 40.4521H187.712L186.683 43.428ZM186.78 42.004H188.669V42.4656H186.78V42.004ZM189.267 40.2639V39.7916H192.082V40.2639H190.947V43.428H190.4V40.2639H189.267ZM193.252 39.7916V43.428H192.703V39.7916H193.252ZM197.21 41.6098C197.21 41.9981 197.139 42.3319 196.997 42.6112C196.855 42.8894 196.66 43.1036 196.413 43.254C196.166 43.4031 195.886 43.4777 195.573 43.4777C195.258 43.4777 194.977 43.4031 194.729 43.254C194.483 43.1036 194.289 42.8888 194.147 42.6094C194.005 42.3301 193.934 41.9969 193.934 41.6098C193.934 41.2215 194.005 40.8883 194.147 40.6102C194.289 40.3308 194.483 40.1165 194.729 39.9674C194.977 39.8171 195.258 39.7419 195.573 39.7419C195.886 39.7419 196.166 39.8171 196.413 39.9674C196.66 40.1165 196.855 40.3308 196.997 40.6102C197.139 40.8883 197.21 41.2215 197.21 41.6098ZM196.667 41.6098C196.667 41.3139 196.619 41.0647 196.523 40.8623C196.428 40.6587 196.298 40.5048 196.132 40.4006C195.968 40.2953 195.781 40.2426 195.573 40.2426C195.363 40.2426 195.176 40.2953 195.012 40.4006C194.847 40.5048 194.717 40.6587 194.621 40.8623C194.526 41.0647 194.479 41.3139 194.479 41.6098C194.479 41.9057 194.526 42.1555 194.621 42.3591C194.717 42.5615 194.847 42.7154 195.012 42.8207C195.176 42.9249 195.363 42.977 195.573 42.977C195.781 42.977 195.968 42.9249 196.132 42.8207C196.298 42.7154 196.428 42.5615 196.523 42.3591C196.619 42.1555 196.667 41.9057 196.667 41.6098ZM200.829 39.7916V43.428H200.325L198.476 40.7611H198.443V43.428H197.894V39.7916H198.402L200.252 42.4621H200.286V39.7916H200.829Z" fill="#231F20"/>
</g>
<g clip-path="url(#clip4_120_10486)">
<path d="M257.898 8.69787V41.9962L254.318 45.5757H218.284L214.696 41.9962V8.69787L218.284 5.1098L254.318 5.1098L257.898 8.69787Z" fill="white"/>
<path d="M253.858 45.2518H251.591C253.336 44.4891 254.818 43.2293 255.852 41.6297V41.57C256.499 40.5736 257.012 39.4961 257.378 38.3655V41.6723L253.858 45.2518ZM215.267 41.6723V38.3655C215.632 39.4961 216.145 40.5736 216.793 41.57V41.6297H216.835C217.885 43.2383 219.389 44.499 221.156 45.2518H218.847L215.267 41.6723ZM218.847 5.60411H221.156C219.387 6.35384 217.882 7.6152 216.835 9.22627H216.793V9.28593C216.145 10.2824 215.632 11.3599 215.267 12.4905V9.18366L218.847 5.60411ZM255.912 10.2575C256.048 10.5132 256.202 10.7518 256.329 11.0246C256.831 12.0957 257.203 13.223 257.437 14.3825V36.4308C257.14 37.8829 256.625 39.282 255.912 40.5814V10.2575ZM215.267 14.4251C215.565 12.973 216.079 11.5739 216.793 10.2746V40.5984C216.656 40.3428 216.503 40.1041 216.375 39.8314C215.874 38.7598 215.502 37.6326 215.267 36.4734V14.4251ZM249.886 45.2518H222.784C220.608 44.7446 218.7 43.4439 217.432 41.6041V9.26889C218.711 7.42631 220.627 6.12124 222.81 5.60411L249.886 5.60411C252.059 6.11378 253.966 7.41028 255.239 9.24332V41.6297C253.958 43.4511 252.053 44.7398 249.886 45.2518M257.437 9.18366V12.4905C257.072 11.3599 256.559 10.2824 255.912 9.28593V9.22627C254.865 7.6152 253.36 6.35384 251.591 5.60411H253.9L257.437 9.18366ZM254.344 4.42798L218.352 4.42798L214.091 8.68934V42.1581L218.352 46.4195H254.344L258.605 42.1581V8.68934L254.344 4.42798Z" fill="#231F20"/>
<path d="M221.778 37.428V33.7916H224.058V34.2639H222.327V35.3719H223.939V35.8424H222.327V36.9557H224.08V37.428H221.778ZM225.173 33.7916L226.043 35.2138H226.071L226.941 33.7916H227.577L226.444 35.6098L227.584 37.428H226.945L226.071 36.0253H226.043L225.169 37.428H224.53L225.69 35.6098L224.537 33.7916H225.173ZM228.121 37.428V33.7916H228.67V35.3719H230.483V33.7916H231.033V37.428H230.483V35.8424H228.67V37.428H228.121ZM232.139 37.428H231.557L232.866 33.7916H233.499L234.808 37.428H234.226L233.198 34.4521H233.169L232.139 37.428ZM232.237 36.004H234.126V36.4656H232.237V36.004ZM237.672 33.7916H238.222V36.1833C238.222 36.4378 238.162 36.6633 238.043 36.8598C237.923 37.0551 237.755 37.209 237.538 37.3214C237.322 37.4327 237.068 37.4883 236.777 37.4883C236.487 37.4883 236.233 37.4327 236.017 37.3214C235.8 37.209 235.632 37.0551 235.512 36.8598C235.393 36.6633 235.333 36.4378 235.333 36.1833V33.7916H235.882V36.1389C235.882 36.3035 235.918 36.4496 235.99 36.5775C236.063 36.7053 236.167 36.8059 236.301 36.8793C236.435 36.9515 236.593 36.9876 236.777 36.9876C236.961 36.9876 237.121 36.9515 237.254 36.8793C237.389 36.8059 237.492 36.7053 237.563 36.5775C237.635 36.4496 237.672 36.3035 237.672 36.1389V33.7916ZM238.84 34.2639V33.7916H241.655V34.2639H240.52V37.428H239.973V34.2639H238.84ZM242.825 33.7916V37.428H242.276V33.7916H242.825ZM246.783 35.6098C246.783 35.9981 246.712 36.3319 246.57 36.6112C246.428 36.8894 246.233 37.1036 245.986 37.254C245.739 37.4031 245.459 37.4777 245.146 37.4777C244.831 37.4777 244.55 37.4031 244.302 37.254C244.056 37.1036 243.862 36.8888 243.72 36.6094C243.578 36.3301 243.507 35.9969 243.507 35.6098C243.507 35.2215 243.578 34.8883 243.72 34.6102C243.862 34.3308 244.056 34.1165 244.302 33.9674C244.55 33.8171 244.831 33.7419 245.146 33.7419C245.459 33.7419 245.739 33.8171 245.986 33.9674C246.233 34.1165 246.428 34.3308 246.57 34.6102C246.712 34.8883 246.783 35.2215 246.783 35.6098ZM246.24 35.6098C246.24 35.3139 246.192 35.0647 246.096 34.8623C246.001 34.6587 245.871 34.5048 245.705 34.4006C245.541 34.2953 245.354 34.2426 245.146 34.2426C244.936 34.2426 244.749 34.2953 244.585 34.4006C244.42 34.5048 244.29 34.6587 244.194 34.8623C244.099 35.0647 244.052 35.3139 244.052 35.6098C244.052 35.9057 244.099 36.1555 244.194 36.3591C244.29 36.5615 244.42 36.7154 244.585 36.8207C244.749 36.9249 244.936 36.977 245.146 36.977C245.354 36.977 245.541 36.9249 245.705 36.8207C245.871 36.7154 246.001 36.5615 246.096 36.3591C246.192 36.1555 246.24 35.9057 246.24 35.6098ZM250.402 33.7916V37.428H249.898L248.049 34.7611H248.016V37.428H247.467V33.7916H247.975L249.825 36.4621H249.859V33.7916H250.402ZM232.096 43.428V39.7916H232.644V42.9557H234.292V43.428H232.096ZM234.879 39.7916L235.892 42.7533H235.932L236.944 39.7916H237.537L236.229 43.428H235.595L234.286 39.7916H234.879ZM238.063 43.428V39.7916H238.611V42.9557H240.259V43.428H238.063Z" fill="#231F20"/>
</g>
<g clip-path="url(#clip5_120_10486)">
<path d="M264.905 5.68589V45.1548C266.36 45.1548 267.187 46.3007 267.187 46.3007H300.323V45.6437C300.323 45.6437 297.994 45.1064 300.323 43.3749V7.46836C297.994 5.73936 300.323 5.20208 300.323 5.20208V4.54511H267.187C267.187 4.54511 266.36 5.68589 264.905 5.68589Z" fill="white"/>
<path d="M300.032 5.14351C299.748 5.23882 299.513 5.35893 299.342 5.49615C299.171 5.63338 299.066 5.78472 299.036 5.94053C298.954 5.96042 298.885 5.98954 298.837 6.02489C298.789 6.06024 298.763 6.10056 298.763 6.14169C298.765 6.18429 298.793 6.22587 298.844 6.26213C298.895 6.29839 298.968 6.32802 299.054 6.34795C299.201 6.76109 299.533 7.15743 300.032 7.51419V43.3418C299.532 43.6984 299.2 44.0948 299.054 44.508C298.968 44.5279 298.895 44.5576 298.844 44.5938C298.793 44.6301 298.765 44.6717 298.763 44.7143C298.763 44.7554 298.789 44.7957 298.837 44.8311C298.885 44.8664 298.954 44.8955 299.036 44.9154C299.067 45.0711 299.172 45.2223 299.343 45.3595C299.515 45.4966 299.749 45.6168 300.032 45.7124V46.1733H294.792C291.769 45.9426 288.709 45.8174 285.641 45.799H269.405C267.676 45.3305 265.196 44.4571 265.196 43.301V7.55493C265.196 6.40142 267.682 5.51783 269.405 5.05693H285.641C288.709 5.03857 291.769 4.9134 294.792 4.68262H300.032V5.14351ZM270.977 46.1733C270.843 46.1453 270.435 46.0613 269.894 45.9187H285.641C288.061 45.9317 290.477 46.0168 292.871 46.1733H270.977ZM265.196 45.0504V44.3272C266.22 45.2184 268.374 45.85 269.696 46.1733H267.396C267.175 45.9187 266.442 45.1548 265.196 45.0504ZM265.196 5.80303C266.442 5.69862 267.175 4.94744 267.396 4.68262H269.725C268.404 5.00601 266.232 5.63751 265.225 6.52874L265.196 5.80303ZM269.894 4.92198C270.435 4.78702 270.843 4.70299 270.977 4.66734H292.871C290.477 4.8239 288.061 4.90897 285.641 4.92198H269.894ZM266.907 4.50946C266.704 4.79975 265.941 5.55348 264.905 5.55348H264.614V45.2948H264.905C265.935 45.2948 266.704 46.0588 266.907 46.3389L266.971 46.428H300.614V45.5673L300.468 45.5317C300.227 45.4612 300.025 45.3678 299.878 45.2584C299.731 45.1491 299.642 45.0266 299.618 44.9002C299.685 44.8787 299.74 44.8507 299.778 44.8185C299.817 44.7863 299.838 44.7506 299.84 44.7143C299.839 44.6791 299.82 44.6444 299.784 44.613C299.747 44.5817 299.695 44.5544 299.63 44.5335C299.778 44.1451 300.098 43.7731 300.573 43.4385L300.614 43.4105V7.44544L300.573 7.41488C300.098 7.08141 299.777 6.71019 299.63 6.32249C299.695 6.30153 299.747 6.27429 299.784 6.24291C299.82 6.21153 299.839 6.17687 299.84 6.14169C299.838 6.10536 299.817 6.0697 299.778 6.03746C299.74 6.00523 299.685 5.97729 299.618 5.95581C299.642 5.82997 299.73 5.70804 299.875 5.59884C300.02 5.48963 300.219 5.39586 300.457 5.32431L300.614 5.28866V4.42798H266.971L266.907 4.50946Z" fill="#231F20"/>
<path d="M273.238 39.7916H273.904L275.061 42.6183H275.104L276.262 39.7916H276.928V43.428H276.406V40.7966H276.372L275.299 43.4227H274.866L273.794 40.7948H273.76V43.428H273.238V39.7916ZM278.032 43.428H277.45L278.759 39.7916H279.392L280.701 43.428H280.119L279.091 40.4521H279.062L278.032 43.428ZM278.13 42.004H280.019V42.4656H278.13V42.004ZM281.608 39.7916L282.478 41.2138H282.506L283.376 39.7916H284.012L282.879 41.6098L284.019 43.428H283.38L282.506 42.0253H282.478L281.604 43.428H280.965L282.125 41.6098L280.972 39.7916H281.608ZM285.88 43.428V39.7916H286.428V41.3719H288.241V39.7916H288.791V43.428H288.241V41.8424H286.428V43.428H285.88ZM289.59 43.428V39.7916H290.887C291.17 39.7916 291.404 39.8431 291.59 39.9461C291.776 40.0491 291.915 40.1899 292.007 40.3687C292.099 40.5462 292.146 40.7463 292.146 40.9688C292.146 41.1925 292.099 41.3938 292.005 41.5725C291.913 41.7501 291.773 41.8909 291.586 41.9951C291.4 42.0981 291.167 42.1496 290.885 42.1496H289.994V41.6844H290.835C291.014 41.6844 291.159 41.6536 291.27 41.592C291.381 41.5293 291.463 41.4441 291.515 41.3364C291.567 41.2286 291.593 41.1061 291.593 40.9688C291.593 40.8315 291.567 40.7096 291.515 40.603C291.463 40.4965 291.381 40.4131 291.268 40.3527C291.157 40.2923 291.01 40.2621 290.828 40.2621H290.139V43.428H289.59Z" fill="#231F20"/>
</g>
<g clip-path="url(#clip6_120_10486)">
<path d="M301.614 5.10156C301.614 5.10156 306.706 5.64196 301.614 7.38353V43.4827C306.706 45.2217 301.614 45.7621 301.614 45.7621V46.428L363.614 46.428V45.7672C363.614 45.7672 358.521 45.2268 363.614 43.4878V7.37072C358.521 5.62915 363.614 5.08875 363.614 5.08875V4.42798L301.614 4.42798V5.10156Z" fill="white"/>
<path d="M347.035 4.68262C341.907 4.83384 336.734 4.91381 331.553 4.92198H333.724C328.533 4.90899 323.352 4.82391 318.218 4.66734L347.035 4.68262ZM362.366 4.68262V5.14351C361.764 5.23949 361.264 5.3598 360.899 5.49693C360.534 5.63406 360.312 5.78507 360.246 5.94053C360.062 5.95981 359.909 5.98902 359.801 6.02495C359.694 6.06088 359.637 6.10216 359.637 6.14424C359.637 6.18632 359.694 6.22759 359.801 6.26353C359.909 6.29946 360.062 6.32867 360.246 6.34795C360.559 6.76119 361.271 7.15761 362.341 7.51419V43.3418C361.271 43.6984 360.559 44.0948 360.246 44.508C360.062 44.5273 359.909 44.5565 359.801 44.5924C359.694 44.6284 359.637 44.6696 359.637 44.7117C359.637 44.7538 359.694 44.7951 359.801 44.831C359.909 44.8669 360.062 44.8961 360.246 44.9154C360.313 45.0708 360.536 45.2217 360.901 45.3588C361.266 45.4959 361.765 45.6163 362.366 45.7124V46.1733L351.139 46.1733C344.669 45.9427 338.12 45.8175 331.553 45.799H333.724C327.141 45.817 320.575 45.9422 314.089 46.1733H302.861V45.7124C303.465 45.6165 303.966 45.4962 304.333 45.3591C304.7 45.222 304.925 45.071 304.994 44.9154C305.178 44.8961 305.331 44.8669 305.439 44.831C305.546 44.7951 305.603 44.7538 305.603 44.7117C305.603 44.6696 305.546 44.6284 305.439 44.5924C305.331 44.5565 305.178 44.5273 304.994 44.508C304.67 44.0942 303.944 43.6978 302.861 43.3418V7.51419C303.931 7.15761 304.644 6.76119 304.957 6.34795C305.14 6.32867 305.294 6.29946 305.401 6.26353C305.509 6.22759 305.565 6.18632 305.565 6.14424C305.565 6.10216 305.509 6.06088 305.401 6.02495C305.294 5.98902 305.14 5.95981 304.957 5.94053C304.894 5.78546 304.675 5.63469 304.315 5.49759C303.954 5.36049 303.459 5.23997 302.861 5.14351V4.68262H314.089C320.566 4.91351 327.124 5.03868 333.699 5.05693H331.553C338.129 5.03868 344.686 4.91351 351.164 4.68262L362.366 4.68262ZM318.193 46.1733C323.327 46.0168 328.508 45.9317 333.699 45.9187H331.553C336.736 45.9319 341.908 46.017 347.035 46.1733H318.193ZM301.614 5.28611L301.938 5.32431C302.453 5.39506 302.883 5.48858 303.196 5.59791C303.509 5.70724 303.697 5.82957 303.747 5.95581C303.605 5.97683 303.49 6.0044 303.41 6.03626C303.331 6.06813 303.289 6.10338 303.289 6.13915C303.289 6.17491 303.331 6.21016 303.41 6.24203C303.49 6.27389 303.605 6.30146 303.747 6.32249C303.425 6.71063 302.73 7.08192 301.701 7.41488L301.614 7.44544V43.4105L301.701 43.4411C302.717 43.7746 303.399 44.1459 303.71 44.5335C303.57 44.5551 303.457 44.5831 303.381 44.6154C303.305 44.6476 303.267 44.683 303.27 44.7188C303.274 44.7545 303.319 44.7896 303.402 44.8211C303.485 44.8527 303.603 44.8797 303.747 44.9002C303.695 45.026 303.507 45.1479 303.197 45.2571C302.886 45.3663 302.46 45.4601 301.951 45.5317L301.614 45.5673V46.428L363.614 46.428V45.5673L363.289 45.5317C362.775 45.461 362.346 45.3675 362.035 45.2581C361.724 45.1487 361.539 45.0263 361.493 44.9002C361.635 44.8785 361.751 44.8505 361.831 44.8183C361.911 44.786 361.953 44.7504 361.955 44.7143C361.95 44.6789 361.906 44.6443 361.826 44.6129C361.746 44.5816 361.632 44.5544 361.493 44.5335C361.803 44.1459 362.486 43.7746 363.501 43.4411L363.589 43.4105V7.44544L363.501 7.41488C362.486 7.08133 361.803 6.71008 361.493 6.32249C361.628 6.30101 361.737 6.27359 361.813 6.24229C361.888 6.21098 361.928 6.17659 361.93 6.14169C361.928 6.10554 361.886 6.06995 361.806 6.0377C361.726 6.00545 361.61 5.97742 361.468 5.95581C361.514 5.82965 361.699 5.70725 362.01 5.59786C362.321 5.48846 362.75 5.39493 363.264 5.32431L363.589 5.28866V4.42798L301.614 4.42798V5.28611Z" fill="#231F20"/>
<g clip-path="url(#clip7_120_10486)">
<path d="M345.853 13.9087C345.454 13.9087 345.063 14.0272 344.731 14.249C344.399 14.4709 344.14 14.7863 343.988 15.1553C343.835 15.5242 343.795 15.9302 343.873 16.3219C343.951 16.7136 344.143 17.0734 344.425 17.3558C344.708 17.6382 345.068 17.8305 345.459 17.9084C345.851 17.9863 346.257 17.9463 346.626 17.7935C346.995 17.6407 347.31 17.3819 347.532 17.0498C347.754 16.7177 347.872 16.3273 347.872 15.928C347.871 15.3929 347.658 14.8801 347.279 14.5017C346.901 14.1233 346.388 13.9102 345.853 13.9087M341.403 15.3243C341.429 15.4441 341.447 15.5654 341.457 15.6876H343.38C343.389 15.565 343.408 15.4434 343.439 15.3243H341.403ZM338.984 13.9087C338.584 13.9087 338.194 14.0272 337.862 14.249C337.53 14.4709 337.271 14.7863 337.118 15.1553C336.965 15.5242 336.925 15.9302 337.003 16.3219C337.081 16.7136 337.273 17.0734 337.556 17.3558C337.838 17.6382 338.198 17.8305 338.59 17.9084C338.981 17.9863 339.387 17.9463 339.756 17.7935C340.125 17.6407 340.441 17.3819 340.662 17.0498C340.884 16.7177 341.003 16.3273 341.003 15.928C341.003 15.3924 340.79 14.8788 340.411 14.5002C340.033 14.1215 339.519 13.9087 338.984 13.9087M334.528 15.3243C334.559 15.4434 334.578 15.565 334.587 15.6876H336.51C336.52 15.5654 336.538 15.4441 336.564 15.3243H334.528ZM332.114 13.9087C331.715 13.9087 331.324 14.0272 330.992 14.249C330.66 14.4709 330.401 14.7863 330.248 15.1553C330.096 15.5242 330.056 15.9302 330.133 16.3219C330.211 16.7136 330.404 17.0734 330.686 17.3558C330.968 17.6382 331.328 17.8305 331.72 17.9084C332.112 17.9863 332.518 17.9463 332.887 17.7935C333.256 17.6407 333.571 17.3819 333.793 17.0498C334.015 16.7177 334.133 16.3273 334.133 15.928C334.133 15.6628 334.081 15.4002 333.979 15.1553C333.878 14.9103 333.729 14.6877 333.542 14.5002C333.354 14.3127 333.132 14.1639 332.887 14.0625C332.642 13.961 332.379 13.9087 332.114 13.9087M345.853 18.428C345.234 18.4266 344.637 18.1943 344.18 17.7765C343.722 17.3586 343.437 16.7852 343.38 16.1684H341.457C341.399 16.7847 341.114 17.3573 340.657 17.7742C340.199 18.1911 339.602 18.4222 338.984 18.4222C338.365 18.4222 337.768 18.1911 337.31 17.7742C336.853 17.3573 336.568 16.7847 336.51 16.1684H334.587C334.527 16.7773 334.244 17.3425 333.792 17.7556C333.341 18.1687 332.753 18.4007 332.141 18.4069C331.529 18.4132 330.936 18.1934 330.476 17.7897C330.017 17.3859 329.722 16.8266 329.649 16.2191C329.576 15.6115 329.73 14.9984 330.081 14.4973C330.433 13.9962 330.956 13.6424 331.552 13.5037C332.148 13.3651 332.775 13.4513 333.311 13.7459C333.847 14.0404 334.256 14.5226 334.459 15.1H336.638C336.811 14.6159 337.129 14.1971 337.549 13.9009C337.968 13.6047 338.47 13.4457 338.984 13.4457C339.497 13.4457 339.999 13.6047 340.418 13.9009C340.838 14.1971 341.156 14.6159 341.329 15.1H343.503C343.656 14.6689 343.924 14.2882 344.278 13.9993C344.633 13.7105 345.06 13.5246 345.513 13.4621C345.966 13.3996 346.428 13.4628 346.847 13.6448C347.267 13.8268 347.628 14.1206 347.892 14.4942C348.156 14.8677 348.312 15.3066 348.343 15.7628C348.374 16.2191 348.279 16.6751 348.069 17.0812C347.859 17.4872 347.541 17.8276 347.15 18.0651C346.759 18.3026 346.31 18.4281 345.853 18.428" fill="#231F20"/>
</g>
<path d="M320.19 18.428H319.013V14.7916H320.228C320.584 14.7916 320.89 14.8644 321.146 15.01C321.401 15.1544 321.597 15.3622 321.733 15.6332C321.871 15.9031 321.939 16.2269 321.939 16.6045C321.939 16.9833 321.87 17.3088 321.732 17.581C321.594 17.8533 321.395 18.0628 321.135 18.2096C320.875 18.3552 320.56 18.428 320.19 18.428ZM319.562 17.9486H320.16C320.437 17.9486 320.668 17.8965 320.851 17.7923C321.034 17.687 321.172 17.5349 321.263 17.336C321.354 17.136 321.4 16.8921 321.4 16.6045C321.4 16.3192 321.354 16.0771 321.263 15.8783C321.173 15.6794 321.039 15.5285 320.86 15.4255C320.681 15.3225 320.459 15.271 320.194 15.271H319.562V17.9486ZM322.699 18.4617C322.602 18.4617 322.519 18.4274 322.449 18.3587C322.379 18.2889 322.344 18.2048 322.344 18.1066C322.344 18.0095 322.379 17.9267 322.449 17.858C322.519 17.7882 322.602 17.7533 322.699 17.7533C322.796 17.7533 322.88 17.7882 322.95 17.858C323.02 17.9267 323.054 18.0095 323.054 18.1066C323.054 18.1717 323.038 18.2315 323.005 18.2859C322.973 18.3392 322.93 18.3818 322.877 18.4138C322.824 18.4457 322.764 18.4617 322.699 18.4617ZM323.808 18.428V14.7916H326.063V15.2639H324.357V16.3719H325.902V16.8424H324.357V18.428H323.808ZM326.874 18.4617C326.777 18.4617 326.694 18.4274 326.624 18.3587C326.554 18.2889 326.519 18.2048 326.519 18.1066C326.519 18.0095 326.554 17.9267 326.624 17.858C326.694 17.7882 326.777 17.7533 326.874 17.7533C326.971 17.7533 327.055 17.7882 327.125 17.858C327.194 17.9267 327.229 18.0095 327.229 18.1066C327.229 18.1717 327.213 18.2315 327.18 18.2859C327.148 18.3392 327.105 18.3818 327.052 18.4138C326.998 18.4457 326.939 18.4617 326.874 18.4617Z" fill="#231F20"/>
<g clip-path="url(#clip8_120_10486)">
<path d="M345.853 7.90875C345.454 7.90875 345.063 8.02717 344.731 8.24905C344.399 8.47092 344.14 8.78629 343.988 9.15525C343.835 9.52422 343.795 9.93022 343.873 10.3219C343.951 10.7136 344.143 11.0734 344.425 11.3558C344.708 11.6382 345.068 11.8305 345.459 11.9084C345.851 11.9863 346.257 11.9463 346.626 11.7935C346.995 11.6407 347.31 11.3819 347.532 11.0498C347.754 10.7177 347.872 10.3273 347.872 9.92798C347.871 9.39288 347.658 8.8801 347.279 8.50172C346.901 8.12335 346.388 7.91016 345.853 7.90875M341.403 9.32435C341.429 9.44408 341.447 9.56544 341.457 9.68759H343.38C343.389 9.565 343.408 9.44343 343.439 9.32435H341.403ZM338.984 7.90875C338.584 7.90875 338.194 8.02717 337.862 8.24905C337.53 8.47092 337.271 8.78629 337.118 9.15525C336.965 9.52422 336.925 9.93022 337.003 10.3219C337.081 10.7136 337.273 11.0734 337.556 11.3558C337.838 11.6382 338.198 11.8305 338.59 11.9084C338.981 11.9863 339.387 11.9463 339.756 11.7935C340.125 11.6407 340.441 11.3819 340.662 11.0498C340.884 10.7177 341.003 10.3273 341.003 9.92798C341.003 9.39244 340.79 8.87885 340.411 8.50017C340.033 8.12149 339.519 7.90875 338.984 7.90875M334.528 9.32435C334.559 9.44343 334.578 9.565 334.587 9.68759H336.51C336.52 9.56544 336.538 9.44408 336.564 9.32435H334.528ZM332.114 7.90875C331.715 7.90875 331.324 8.02717 330.992 8.24905C330.66 8.47092 330.401 8.78629 330.248 9.15525C330.096 9.52422 330.056 9.93022 330.133 10.3219C330.211 10.7136 330.404 11.0734 330.686 11.3558C330.968 11.6382 331.328 11.8305 331.72 11.9084C332.112 11.9863 332.518 11.9463 332.887 11.7935C333.256 11.6407 333.571 11.3819 333.793 11.0498C334.015 10.7177 334.133 10.3273 334.133 9.92798C334.133 9.66281 334.081 9.40024 333.979 9.15525C333.878 8.91027 333.729 8.68767 333.542 8.50017C333.354 8.31266 333.132 8.16393 332.887 8.06245C332.642 7.96098 332.379 7.90875 332.114 7.90875M345.853 12.428C345.234 12.4266 344.637 12.1943 344.18 11.7765C343.722 11.3586 343.437 10.7852 343.38 10.1684H341.457C341.399 10.7847 341.114 11.3573 340.657 11.7742C340.199 12.1911 339.602 12.4222 338.984 12.4222C338.365 12.4222 337.768 12.1911 337.31 11.7742C336.853 11.3573 336.568 10.7847 336.51 10.1684H334.587C334.527 10.7773 334.244 11.3425 333.792 11.7556C333.341 12.1687 332.753 12.4007 332.141 12.4069C331.529 12.4132 330.936 12.1934 330.476 11.7897C330.017 11.3859 329.722 10.8266 329.649 10.2191C329.576 9.61148 329.73 8.99837 330.081 8.49729C330.433 7.99621 330.956 7.64241 331.552 7.50375C332.148 7.36508 332.775 7.45129 333.311 7.74586C333.847 8.04043 334.256 8.52263 334.459 9.09999H336.638C336.811 8.61593 337.129 8.19707 337.549 7.90089C337.968 7.6047 338.47 7.4457 338.984 7.4457C339.497 7.4457 339.999 7.6047 340.418 7.90089C340.838 8.19707 341.156 8.61593 341.329 9.09999H343.503C343.656 8.66895 343.924 8.28819 344.278 7.99933C344.633 7.71047 345.06 7.52462 345.513 7.46209C345.966 7.39956 346.428 7.46276 346.847 7.64478C347.267 7.8268 347.628 8.12064 347.892 8.49418C348.156 8.86772 348.312 9.30659 348.343 9.76283C348.374 10.2191 348.279 10.6751 348.069 11.0812C347.859 11.4872 347.541 11.8276 347.15 12.0651C346.759 12.3026 346.31 12.4281 345.853 12.428" fill="#231F20"/>
</g>
<path d="M320.19 12.428H319.013V8.79161H320.228C320.584 8.79161 320.89 8.86441 321.146 9.01001C321.401 9.15442 321.597 9.36216 321.733 9.63323C321.871 9.90312 321.939 10.2269 321.939 10.6045C321.939 10.9833 321.87 11.3088 321.732 11.581C321.594 11.8533 321.395 12.0628 321.135 12.2096C320.875 12.3552 320.56 12.428 320.19 12.428ZM319.562 11.9486H320.16C320.437 11.9486 320.668 11.8965 320.851 11.7923C321.034 11.687 321.172 11.5349 321.263 11.336C321.354 11.136 321.4 10.8921 321.4 10.6045C321.4 10.3192 321.354 10.0771 321.263 9.87826C321.173 9.6794 321.039 9.52848 320.86 9.42549C320.681 9.32251 320.459 9.27102 320.194 9.27102H319.562V11.9486ZM322.699 12.4617C322.602 12.4617 322.519 12.4274 322.449 12.3587C322.379 12.2889 322.344 12.2048 322.344 12.1066C322.344 12.0095 322.379 11.9267 322.449 11.858C322.519 11.7882 322.602 11.7533 322.699 11.7533C322.796 11.7533 322.88 11.7882 322.95 11.858C323.02 11.9267 323.054 12.0095 323.054 12.1066C323.054 12.1717 323.038 12.2315 323.005 12.2859C322.973 12.3392 322.93 12.3818 322.877 12.4138C322.824 12.4457 322.764 12.4617 322.699 12.4617ZM327.056 9.74687C327.037 9.57878 326.959 9.44857 326.822 9.35625C326.684 9.26273 326.512 9.21598 326.303 9.21598C326.154 9.21598 326.025 9.23965 325.916 9.287C325.807 9.33316 325.723 9.39708 325.662 9.47876C325.603 9.55925 325.574 9.65099 325.574 9.75397C325.574 9.84038 325.594 9.91496 325.634 9.97769C325.675 10.0404 325.729 10.0931 325.795 10.1357C325.863 10.1771 325.935 10.2121 326.012 10.2405C326.089 10.2677 326.163 10.2902 326.234 10.308L326.589 10.4003C326.705 10.4287 326.824 10.4672 326.946 10.5157C327.068 10.5642 327.181 10.6281 327.285 10.7075C327.389 10.7868 327.473 10.885 327.537 11.0022C327.602 11.1194 327.635 11.2597 327.635 11.423C327.635 11.629 327.582 11.8119 327.475 11.9717C327.37 12.1315 327.217 12.2575 327.015 12.3499C326.815 12.4422 326.573 12.4883 326.289 12.4883C326.017 12.4883 325.781 12.4451 325.582 12.3587C325.384 12.2723 325.228 12.1498 325.115 11.9912C325.003 11.8314 324.941 11.642 324.929 11.423H325.479C325.49 11.5544 325.533 11.6639 325.607 11.7515C325.683 11.8379 325.78 11.9024 325.897 11.945C326.015 11.9865 326.145 12.0072 326.286 12.0072C326.441 12.0072 326.579 11.9829 326.699 11.9344C326.821 11.8847 326.917 11.816 326.987 11.7284C327.057 11.6396 327.092 11.5361 327.092 11.4177C327.092 11.31 327.061 11.2218 326.999 11.1531C326.939 11.0845 326.857 11.0276 326.753 10.9827C326.65 10.9377 326.533 10.898 326.403 10.8637L325.973 10.7465C325.682 10.6672 325.451 10.5506 325.281 10.3967C325.111 10.2428 325.027 10.0392 325.027 9.78593C325.027 9.57642 325.083 9.39353 325.197 9.23728C325.311 9.08103 325.465 8.9597 325.659 8.87329C325.853 8.7857 326.072 8.7419 326.316 8.7419C326.562 8.7419 326.779 8.7851 326.967 8.87152C327.157 8.95793 327.306 9.07689 327.415 9.2284C327.524 9.37874 327.581 9.55156 327.585 9.74687H327.056ZM328.598 12.4617C328.501 12.4617 328.417 12.4274 328.347 12.3587C328.278 12.2889 328.243 12.2048 328.243 12.1066C328.243 12.0095 328.278 11.9267 328.347 11.858C328.417 11.7882 328.501 11.7533 328.598 11.7533C328.695 11.7533 328.778 11.7882 328.848 11.858C328.918 11.9267 328.953 12.0095 328.953 12.1066C328.953 12.1717 328.936 12.2315 328.903 12.2859C328.871 12.3392 328.829 12.3818 328.775 12.4138C328.722 12.4457 328.663 12.4617 328.598 12.4617Z" fill="#231F20"/>
<path d="M330.559 43.428V39.7916H331.107V41.3719H332.92V39.7916H333.471V43.428H332.92V41.8424H331.107V43.428H330.559ZM334.27 43.428V39.7916H335.566C335.849 39.7916 336.083 39.8431 336.269 39.9461C336.455 40.0491 336.594 40.1899 336.686 40.3687C336.778 40.5462 336.825 40.7463 336.825 40.9688C336.825 41.1925 336.778 41.3938 336.684 41.5725C336.592 41.7501 336.452 41.8909 336.265 41.9951C336.08 42.0981 335.846 42.1496 335.564 42.1496H334.673V41.6844H335.514C335.693 41.6844 335.838 41.6536 335.949 41.592C336.061 41.5293 336.142 41.4441 336.194 41.3364C336.246 41.2286 336.272 41.1061 336.272 40.9688C336.272 40.8315 336.246 40.7096 336.194 40.603C336.142 40.4965 336.06 40.4131 335.948 40.3527C335.836 40.2923 335.689 40.2621 335.507 40.2621H334.818V43.428H334.27Z" fill="#231F20"/>
</g>
<path d="M402.232 45.1545V5.67601C400.289 5.67601 399.234 4.54259 399.234 4.54259H364.996V5.19972C364.996 5.19972 368.054 5.73713 364.996 7.46655V43.3716C368.054 45.1035 364.996 45.641 364.996 45.641V46.3006H399.234C399.234 46.3006 400.289 45.1545 402.232 45.1545Z" fill="white"/>
<path d="M365.378 45.7123C365.749 45.6163 366.056 45.496 366.281 45.3589C366.505 45.2217 366.643 45.0707 366.686 44.9151C366.798 44.8958 366.892 44.8666 366.958 44.8306C367.024 44.7947 367.059 44.7534 367.059 44.7113C367.059 44.6692 367.024 44.6279 366.958 44.592C366.892 44.556 366.798 44.5268 366.686 44.5075C366.487 44.0937 366.042 43.6971 365.378 43.341V7.50475C366.033 7.1479 366.47 6.75147 366.663 6.33823C366.775 6.31894 366.869 6.28973 366.935 6.25378C367.001 6.21784 367.036 6.17656 367.036 6.13447C367.036 6.09237 367.001 6.05109 366.935 6.01515C366.869 5.9792 366.775 5.94999 366.663 5.93071C366.624 5.7756 366.49 5.6248 366.269 5.48766C366.048 5.35052 365.745 5.22997 365.378 5.13349V4.67249H372.26C376.23 4.90344 380.249 5.02864 384.279 5.0469H396.321C398.615 5.51555 401.849 6.38916 401.849 7.5455V43.3003C401.849 44.4541 398.592 45.3379 396.321 45.7989H384.279C380.249 45.8171 376.23 45.9423 372.26 46.1733H365.378V45.7123ZM394.257 4.67249C394.433 4.70051 394.968 4.78201 395.679 4.92719H384.279C381.097 4.91419 377.922 4.8291 374.775 4.67249H394.257ZM401.849 5.79572V6.51906C400.504 5.62761 397.675 4.99086 395.939 4.67249H398.997C399.288 4.92719 400.251 5.69129 401.887 5.79572M401.849 45.0526C400.213 45.1545 399.25 45.9186 398.959 46.1733H395.962C397.697 45.8498 400.549 45.2182 401.872 44.3267L401.849 45.0526ZM395.679 45.9186C394.968 46.0536 394.433 46.1376 394.257 46.1733H374.775C377.922 46.0167 381.097 45.9316 384.279 45.9186H395.679ZM399.601 46.3388C399.869 46.0485 400.871 45.2946 402.231 45.2946H402.614V5.56139H402.231C400.878 5.56139 399.869 4.79729 399.601 4.51712L399.517 4.42798H364.614V5.28632L364.813 5.32452C365.128 5.3953 365.391 5.48884 365.583 5.59819C365.775 5.70755 365.891 5.82991 365.921 5.95618C365.834 5.9772 365.764 6.00478 365.715 6.03665C365.666 6.06853 365.641 6.10379 365.641 6.13956C365.641 6.17533 365.666 6.21059 365.715 6.24247C365.764 6.27434 365.834 6.30192 365.921 6.32294C365.72 6.70765 365.294 7.07544 364.667 7.40542L364.614 7.43598V43.4098L364.667 43.4378C365.289 43.7725 365.707 44.1446 365.898 44.533C365.813 44.5546 365.744 44.5827 365.697 44.6149C365.65 44.6471 365.627 44.6826 365.629 44.7183C365.631 44.7541 365.659 44.7892 365.71 44.8207C365.761 44.8523 365.833 44.8794 365.921 44.8998C365.891 45.026 365.775 45.1484 365.583 45.2578C365.391 45.3671 365.128 45.4607 364.813 45.5314L364.614 45.5671V46.428H399.517L399.601 46.3388Z" fill="#231F20"/>
<path d="M372.147 40.2639V39.7916H374.961V40.2639H373.827V43.428H373.28V40.2639H372.147ZM375.583 43.428V39.7916H377.863V40.2639H376.132V41.3719H377.744V41.8424H376.132V42.9557H377.884V43.428H375.583ZM378.596 39.7916H379.262L380.419 42.6183H380.462L381.62 39.7916H382.285V43.428H381.763V40.7966H381.73L380.657 43.4227H380.224L379.152 40.7948H379.118V43.428H378.596V39.7916ZM383.083 43.428V39.7916H384.379C384.662 39.7916 384.897 39.8431 385.082 39.9461C385.268 40.0491 385.407 40.1899 385.5 40.3687C385.592 40.5462 385.638 40.7463 385.638 40.9688C385.638 41.1925 385.591 41.3938 385.498 41.5725C385.406 41.7501 385.266 41.8909 385.079 41.9951C384.893 42.0981 384.659 42.1496 384.377 42.1496H383.486V41.6844H384.328C384.507 41.6844 384.652 41.6536 384.763 41.592C384.874 41.5293 384.956 41.4441 385.008 41.3364C385.06 41.2286 385.086 41.1061 385.086 40.9688C385.086 40.8315 385.06 40.7096 385.008 40.603C384.956 40.4965 384.873 40.4131 384.761 40.3527C384.65 40.2923 384.503 40.2621 384.321 40.2621H383.632V43.428H383.083ZM386.418 43.4617C386.321 43.4617 386.237 43.4274 386.167 43.3587C386.097 43.2889 386.062 43.2048 386.062 43.1066C386.062 43.0095 386.097 42.9267 386.167 42.858C386.237 42.7882 386.321 42.7533 386.418 42.7533C386.515 42.7533 386.598 42.7882 386.668 42.858C386.738 42.9267 386.773 43.0095 386.773 43.1066C386.773 43.1717 386.756 43.2315 386.723 43.2859C386.691 43.3392 386.648 43.3818 386.595 43.4138C386.542 43.4457 386.483 43.4617 386.418 43.4617ZM388.791 43.428V39.7916H389.34V41.3719H391.153V39.7916H391.703V43.428H391.153V41.8424H389.34V43.428H388.791ZM392.502 43.428V39.7916H393.798C394.081 39.7916 394.315 39.8431 394.501 39.9461C394.687 40.0491 394.826 40.1899 394.919 40.3687C395.011 40.5462 395.057 40.7463 395.057 40.9688C395.057 41.1925 395.01 41.3938 394.917 41.5725C394.824 41.7501 394.685 41.8909 394.498 41.9951C394.312 42.0981 394.078 42.1496 393.796 42.1496H392.905V41.6844H393.747C393.925 41.6844 394.07 41.6536 394.182 41.592C394.293 41.5293 394.375 41.4441 394.427 41.3364C394.479 41.2286 394.505 41.1061 394.505 40.9688C394.505 40.8315 394.479 40.7096 394.427 40.603C394.375 40.4965 394.292 40.4131 394.18 40.3527C394.069 40.2923 393.922 40.2621 393.74 40.2621H393.051V43.428H392.502Z" fill="#231F20"/>
<rect x="408.614" y="4.42798" width="54.7095" height="42" rx="6" fill="white"/>
<path d="M462.414 38.0921C462.158 36.422 462.059 34.7367 462.119 33.0527C462.238 34.6334 462.496 36.2039 462.89 37.7509C462.723 37.8556 462.564 37.9696 462.414 38.0921M462.295 40.1884L462.195 41.1379C462.004 40.6282 461.805 40.2254 461.795 40.2048C461.699 39.8375 461.758 39.4528 461.962 39.1197C462.051 39.4807 462.162 39.8374 462.295 40.1884ZM459.762 45.8813H458.034C461.271 44.7468 461.843 42.6176 461.914 41.3886C461.985 41.5941 462.057 41.7997 462.104 42.0175L461.866 44.344C461.324 44.5166 460.01 45.014 459.762 45.8813M410.066 44.3276L409.823 42.0011C409.871 41.8038 409.937 41.59 410.009 41.3927C410.026 41.8824 410.127 42.3672 410.309 42.8314C410.704 43.822 411.651 45.0756 413.899 45.8648H412.166C411.947 44.9975 410.604 44.5002 410.066 44.3276ZM410.147 40.1596C410.147 40.1966 409.923 40.6076 409.733 41.1214L409.633 40.1884C409.77 39.834 409.882 39.4731 409.971 39.1074C410.176 39.4337 410.239 39.8131 410.147 40.1761M409.033 37.7509C409.429 36.204 409.688 34.6335 409.809 33.0527C409.872 34.7366 409.775 36.422 409.518 38.0921C409.37 37.9683 409.211 37.8542 409.042 37.7509M409.518 12.7639C409.776 14.4353 409.873 16.1221 409.809 17.8073C409.688 16.2252 409.429 14.6532 409.033 13.105C409.201 13.0017 409.36 12.8877 409.509 12.7639M409.623 10.684L409.723 9.73449C409.914 10.2442 410.114 10.6511 410.128 10.6717C410.223 11.0376 410.164 11.421 409.961 11.7527C409.872 11.3912 409.759 11.0343 409.623 10.684M412.166 4.99521H413.894C410.656 6.12968 410.066 8.25886 410.042 9.48787C409.966 9.27824 409.899 9.07683 409.847 8.85487L410.09 6.52839C410.604 6.35986 411.947 5.85839 412.166 4.99521ZM461.866 6.52839L462.104 8.85487C462.057 9.05628 461.99 9.26591 461.919 9.46321C461.903 8.97334 461.802 8.4883 461.619 8.02457C461.228 7.03397 460.276 5.7803 458.034 4.99521H459.762C460.01 5.85839 461.324 6.35986 461.866 6.52839M461.785 10.6963C461.785 10.6634 462.004 10.2483 462.195 9.73449L462.295 10.684C462.159 11.0385 462.046 11.3994 461.957 11.765C461.752 11.4383 461.692 11.0588 461.785 10.6963M462.89 13.105C462.494 14.6532 462.234 16.2252 462.114 17.8073C462.058 16.1219 462.159 14.4354 462.414 12.7639C462.564 12.8867 462.723 13.0007 462.89 13.105M461.462 40.2829C461.462 40.2829 461.547 40.4597 461.657 40.694C461.746 41.387 461.659 42.0886 461.4 42.7492C460.824 44.196 459.424 45.2565 457.334 45.8484H414.584C410.099 44.5865 410.147 41.6024 410.271 40.7104C410.385 40.4391 410.48 40.2542 410.485 40.2418C410.555 39.963 410.554 39.6744 410.484 39.3957C410.413 39.1169 410.274 38.8546 410.075 38.6264C410.732 35.5149 410.399 31.5525 410.385 31.3757V19.4556C410.385 19.2583 410.737 15.2876 410.08 12.172C410.28 11.9389 410.419 11.6714 410.488 11.3876C410.557 11.1038 410.554 10.8106 410.48 10.5278C410.48 10.5278 410.39 10.3511 410.28 10.1168C410.195 9.42341 410.285 8.72245 410.542 8.06157C411.113 6.61471 412.518 5.55423 414.608 4.96644H457.348C461.833 6.22422 461.785 9.21247 461.662 10.1044C461.547 10.3716 461.457 10.5566 461.452 10.5689C461.382 10.8475 461.381 11.1359 461.451 11.4146C461.521 11.6933 461.659 11.9558 461.857 12.1843C461.2 15.2959 461.533 19.2583 461.552 19.435V31.3552C461.552 31.5525 461.2 35.519 461.862 38.6347C461.662 38.868 461.524 39.1355 461.455 39.4192C461.386 39.7029 461.388 39.996 461.462 40.2788M462.209 29.8179V22.6863C462.362 20.5777 462.723 14.6587 463.285 13.0845L463.323 12.9735L463.209 12.9077C462.946 12.7604 462.705 12.5866 462.49 12.3898C462.602 11.854 462.761 11.3263 462.966 10.8114L462.99 10.7539L462.514 6.10913L462.271 6.07214C461.795 5.9406 460.367 5.41447 460.367 4.73215V4.42798H411.551V4.7116C411.551 5.39392 410.185 5.91183 409.647 6.05158L409.437 6.10913L408.961 10.7539V10.8114C409.169 11.3243 409.328 11.8508 409.437 12.3857C409.222 12.5812 408.982 12.7562 408.723 12.9077L408.614 12.9735L408.652 13.0845C409.214 14.6546 409.566 20.5654 409.728 22.6781V29.8179C409.566 31.9265 409.214 36.1972 408.652 37.7715L408.614 37.8866L408.733 37.9482C408.992 38.0974 409.232 38.2711 409.447 38.4661C409.34 39.0028 409.18 39.5308 408.971 40.0445V40.1021L409.447 44.7509L409.656 44.8044C410.18 44.9482 411.561 45.462 411.561 46.1443V46.428H460.381V46.1443C460.381 45.462 461.743 44.9482 462.285 44.8044L462.49 44.7509L462.966 40.1021L462.942 40.0445C462.743 39.531 462.592 39.0046 462.49 38.4702C462.703 38.2725 462.943 38.0973 463.204 37.9482L463.319 37.8825L463.28 37.7715C462.719 36.2013 462.357 31.9347 462.209 29.822" fill="#231F20"/>
<path d="M425.371 42.6411V39.0047H425.92V40.585H427.733V39.0047H428.283V42.6411H427.733V41.0555H425.92V42.6411H425.371ZM429.631 39.0047V42.6411H429.082V39.0047H429.631ZM430.25 39.477V39.0047H433.065V39.477H431.93V42.6411H431.383V39.477H430.25ZM436.187 42.6411H435.01V39.0047H436.224C436.581 39.0047 436.887 39.0775 437.142 39.2231C437.398 39.3675 437.594 39.5753 437.73 39.8463C437.867 40.1162 437.936 40.44 437.936 40.8176C437.936 41.1964 437.867 41.5219 437.728 41.7941C437.591 42.0664 437.392 42.2759 437.132 42.4227C436.871 42.5683 436.556 42.6411 436.187 42.6411ZM435.559 42.1617H436.157C436.434 42.1617 436.664 42.1096 436.848 42.0054C437.031 41.9001 437.168 41.748 437.259 41.5491C437.351 41.3491 437.396 41.1052 437.396 40.8176C437.396 40.5323 437.351 40.2902 437.259 40.0914C437.17 39.8925 437.035 39.7416 436.856 39.6386C436.678 39.5356 436.456 39.4841 436.191 39.4841H435.559V42.1617ZM439.167 39.0047V42.6411H438.618V39.0047H439.167ZM442.986 40.1872H442.432C442.411 40.0689 442.371 39.9647 442.313 39.8747C442.255 39.7848 442.184 39.7084 442.1 39.6457C442.016 39.583 441.922 39.5356 441.818 39.5037C441.715 39.4717 441.605 39.4557 441.489 39.4557C441.28 39.4557 441.092 39.5084 440.926 39.6137C440.762 39.7191 440.632 39.8736 440.536 40.0772C440.441 40.2808 440.394 40.5293 440.394 40.8229C440.394 41.1188 440.441 41.3686 440.536 41.5722C440.632 41.7758 440.763 41.9297 440.928 42.0338C441.094 42.138 441.28 42.1901 441.488 42.1901C441.602 42.1901 441.711 42.1747 441.814 42.1439C441.918 42.112 442.013 42.0652 442.097 42.0037C442.181 41.9421 442.252 41.8669 442.31 41.7782C442.369 41.6882 442.41 41.5852 442.432 41.4692L442.986 41.471C442.957 41.6497 442.899 41.8143 442.814 41.9646C442.73 42.1137 442.622 42.2428 442.489 42.3517C442.358 42.4594 442.207 42.5428 442.038 42.602C441.869 42.6612 441.684 42.6908 441.484 42.6908C441.169 42.6908 440.889 42.6162 440.642 42.4671C440.396 42.3167 440.202 42.1019 440.06 41.8225C439.919 41.5432 439.849 41.21 439.849 40.8229C439.849 40.4346 439.92 40.1014 440.062 39.8233C440.204 39.5439 440.398 39.3296 440.644 39.1805C440.89 39.0302 441.17 38.955 441.484 38.955C441.677 38.955 441.857 38.9828 442.024 39.0385C442.192 39.0929 442.343 39.1734 442.477 39.2799C442.61 39.3853 442.721 39.5143 442.809 39.667C442.896 39.8185 442.955 39.9919 442.986 40.1872ZM443.643 42.6411V39.0047H445.922V39.477H444.191V40.585H445.804V41.0555H444.191V42.1688H445.944V42.6411H443.643Z" fill="#231F20"/>
<path d="M501.493 8.13197L488.141 4.05197L474.789 8.13197C474.789 8.13197 474.245 15.076 469.525 16.036V25.508C469.525 25.508 473.949 43.076 488.141 46.868C502.341 43.076 506.757 25.508 506.757 25.508V16.036C502.037 15.076 501.493 8.13197 501.493 8.13197" fill="white"/>
<path d="M489.203 43.844C489.122 43.7408 489.019 43.6571 488.901 43.599C488.784 43.5408 488.654 43.5097 488.523 43.508C488.393 43.5098 488.265 43.5409 488.149 43.5991C488.032 43.6573 487.931 43.741 487.851 43.844C477.211 40.068 473.043 26.884 472.523 25.14V18.556C472.692 18.4883 472.837 18.3711 472.938 18.2198C473.04 18.0685 473.093 17.8901 473.091 17.708C473.096 17.6654 473.096 17.6225 473.091 17.58C476.043 15.636 477.147 11.98 477.523 10.228L487.835 7.07598C487.916 7.1827 488.02 7.26979 488.139 7.33075C488.258 7.3917 488.389 7.42494 488.523 7.42798C488.657 7.42674 488.789 7.39429 488.909 7.33319C489.028 7.27209 489.132 7.18403 489.211 7.07598L499.539 10.228C499.915 11.98 501.019 15.636 503.971 17.58C503.971 17.58 503.971 17.66 503.971 17.708C503.969 17.888 504.021 18.0646 504.119 18.2156C504.217 18.3665 504.358 18.4849 504.523 18.556V25.14C504.019 26.884 499.843 40.068 489.211 43.844M500.131 9.90798V9.71598L489.395 6.44398C489.395 6.21271 489.303 5.99091 489.14 5.82738C488.976 5.66385 488.755 5.57198 488.523 5.57198C488.292 5.57198 488.07 5.66385 487.907 5.82738C487.743 5.99091 487.651 6.21271 487.651 6.44398L476.955 9.71598V9.90798C476.643 11.508 475.635 15.116 472.787 17.004C472.635 16.8749 472.443 16.8016 472.243 16.796C472.123 16.7938 472.003 16.8159 471.891 16.8609C471.778 16.9058 471.677 16.9728 471.591 17.0578C471.505 17.1428 471.437 17.2442 471.391 17.3558C471.345 17.4675 471.322 17.5872 471.323 17.708C471.324 17.8896 471.378 18.0671 471.479 18.218C471.58 18.3689 471.723 18.4865 471.891 18.556V25.188V25.276C472.347 26.876 476.587 40.548 487.627 44.476C487.639 44.7059 487.739 44.9226 487.905 45.0817C488.072 45.2407 488.293 45.3303 488.523 45.332C488.757 45.3299 488.981 45.2354 489.146 45.0691C489.311 44.9028 489.403 44.6781 489.403 44.444C493.923 42.844 497.819 39.508 500.987 34.468C502.773 31.6049 504.17 28.5163 505.139 25.284V18.556C505.308 18.4874 505.452 18.37 505.553 18.2189C505.654 18.0678 505.708 17.8899 505.707 17.708C505.709 17.5896 505.688 17.4721 505.644 17.362C505.601 17.252 505.536 17.1517 505.453 17.0669C505.371 16.9821 505.272 16.9145 505.163 16.868C505.055 16.8215 504.938 16.797 504.819 16.796C504.62 16.8016 504.428 16.8749 504.275 17.004C501.435 15.116 500.419 11.468 500.115 9.90798M506.515 25.436C506.227 26.628 501.651 42.628 488.523 46.244C475.395 42.628 470.819 26.628 470.499 25.436V16.508C474.547 15.324 475.515 10.108 475.707 8.60398L488.507 4.68398L501.307 8.60398C501.499 10.132 502.467 15.324 506.523 16.508L506.515 25.436ZM507.251 15.428C503.027 14.572 502.451 8.13998 502.451 8.07598V7.66798L488.523 3.42798L474.619 7.68398V8.09198C474.619 8.15598 474.051 14.588 469.819 15.444L469.323 15.54V25.516V25.66C469.387 25.828 474.011 43.62 488.379 47.428H488.523H488.667C503.067 43.596 507.659 25.828 507.707 25.636V15.516L507.251 15.428Z" fill="#231F20"/>
<path d="M485.729 40.7029H485.146L486.455 37.0665H487.089L488.397 40.7029H487.815L486.787 37.727H486.758L485.729 40.7029ZM485.826 39.2789H487.716V39.7405H485.826V39.2789ZM491.772 38.249H491.218C491.197 38.1307 491.157 38.0265 491.099 37.9365C491.041 37.8466 490.97 37.7702 490.886 37.7075C490.802 37.6448 490.708 37.5974 490.603 37.5655C490.5 37.5335 490.391 37.5175 490.275 37.5175C490.065 37.5175 489.878 37.5702 489.712 37.6755C489.548 37.7809 489.417 37.9354 489.322 38.139C489.227 38.3426 489.179 38.5911 489.179 38.8847C489.179 39.1806 489.227 39.4304 489.322 39.634C489.417 39.8376 489.548 39.9915 489.714 40.0956C489.88 40.1998 490.066 40.2519 490.273 40.2519C490.388 40.2519 490.497 40.2365 490.6 40.2057C490.704 40.1738 490.798 40.127 490.882 40.0655C490.966 40.0039 491.037 39.9287 491.095 39.84C491.154 39.75 491.195 39.647 491.218 39.531L491.772 39.5328C491.742 39.7115 491.685 39.8761 491.6 40.0264C491.516 40.1755 491.407 40.3046 491.275 40.4135C491.143 40.5212 490.993 40.6046 490.824 40.6638C490.654 40.723 490.47 40.7526 490.27 40.7526C489.955 40.7526 489.674 40.678 489.428 40.5289C489.182 40.3785 488.988 40.1637 488.846 39.8843C488.705 39.605 488.634 39.2718 488.634 38.8847C488.634 38.4964 488.705 38.1632 488.847 37.8851C488.989 37.6057 489.184 37.3914 489.43 37.2423C489.676 37.092 489.956 37.0168 490.27 37.0168C490.463 37.0168 490.643 37.0446 490.809 37.1003C490.978 37.1547 491.128 37.2352 491.262 37.3417C491.396 37.4471 491.507 37.5761 491.594 37.7288C491.682 37.8803 491.741 38.0537 491.772 38.249Z" fill="#231F20"/>
<g clip-path="url(#clip9_120_10486)">
<path d="M557.514 8.69787V41.9962L553.935 45.5757H517.901L514.312 41.9962V8.69787L517.901 5.1098L553.935 5.1098L557.514 8.69787Z" fill="white"/>
<path d="M553.474 45.2518H551.207C552.953 44.4891 554.435 43.2293 555.469 41.6297V41.57C556.116 40.5736 556.629 39.4961 556.994 38.3655V41.6723L553.474 45.2518ZM514.883 41.6723V38.3655C515.249 39.4961 515.762 40.5736 516.409 41.57V41.6297H516.452C517.501 43.2383 519.005 44.499 520.773 45.2518H518.463L514.883 41.6723ZM518.463 5.60411H520.773C519.003 6.35384 517.499 7.6152 516.452 9.22627H516.409V9.28593C515.762 10.2824 515.249 11.3599 514.883 12.4905V9.18366L518.463 5.60411ZM555.528 10.2575C555.665 10.5132 555.818 10.7518 555.946 11.0246C556.448 12.0957 556.82 13.223 557.054 14.3825V36.4308C556.756 37.8829 556.242 39.282 555.528 40.5814V10.2575ZM514.883 14.4251C515.181 12.973 515.696 11.5739 516.409 10.2746V40.5984C516.273 40.3428 516.119 40.1041 515.991 39.8314C515.491 38.7598 515.119 37.6326 514.883 36.4734V14.4251ZM549.503 45.2518H522.4C520.224 44.7446 518.316 43.4439 517.048 41.6041V9.26889C518.328 7.42631 520.243 6.12124 522.426 5.60411L549.503 5.60411C551.675 6.11378 553.582 7.41028 554.855 9.24332V41.6297C553.574 43.4511 551.67 44.7398 549.503 45.2518M557.054 9.18366V12.4905C556.688 11.3599 556.176 10.2824 555.528 9.28593V9.22627C554.481 7.6152 552.976 6.35384 551.207 5.60411H553.517L557.054 9.18366ZM553.96 4.42798L517.969 4.42798L513.707 8.68934V42.1581L517.969 46.4195H553.96L558.221 42.1581V8.68934L553.96 4.42798Z" fill="#231F20"/>
<path d="M524.41 43.428H523.233V39.7916H524.448C524.804 39.7916 525.11 39.8644 525.366 40.01C525.621 40.1544 525.817 40.3622 525.953 40.6332C526.091 40.9031 526.159 41.2269 526.159 41.6045C526.159 41.9833 526.09 42.3088 525.952 42.581C525.814 42.8533 525.615 43.0628 525.355 43.2096C525.095 43.3552 524.78 43.428 524.41 43.428ZM523.782 42.9486H524.38C524.657 42.9486 524.887 42.8965 525.071 42.7923C525.254 42.687 525.392 42.5349 525.483 42.336C525.574 42.136 525.62 41.8921 525.62 41.6045C525.62 41.3192 525.574 41.0771 525.483 40.8783C525.393 40.6794 525.259 40.5285 525.08 40.4255C524.901 40.3225 524.679 40.271 524.414 40.271H523.782V42.9486ZM526.842 43.428V39.7916H529.121V40.2639H527.39V41.3719H529.003V41.8424H527.39V42.9557H529.143V43.428H526.842ZM529.854 43.428V39.7916H532.109V40.2639H530.403V41.3719H531.948V41.8424H530.403V43.428H529.854ZM532.784 43.428V39.7916H535.064V40.2639H533.333V41.3719H534.945V41.8424H533.333V42.9557H535.085V43.428H532.784ZM538.732 39.7916V43.428H538.227L536.379 40.7611H536.345V43.428H535.797V39.7916H536.305L538.155 42.4621H538.188V39.7916H538.732ZM541.515 40.7469C541.496 40.5788 541.418 40.4486 541.281 40.3562C541.144 40.2627 540.971 40.216 540.763 40.216C540.613 40.216 540.484 40.2396 540.375 40.287C540.267 40.3332 540.182 40.3971 540.122 40.4788C540.062 40.5593 540.033 40.651 540.033 40.754C540.033 40.8404 540.053 40.915 540.093 40.9777C540.135 41.0404 540.188 41.0931 540.255 41.1357C540.322 41.1771 540.394 41.2121 540.471 41.2405C540.548 41.2677 540.622 41.2902 540.693 41.308L541.048 41.4003C541.164 41.4287 541.283 41.4672 541.405 41.5157C541.527 41.5642 541.64 41.6281 541.744 41.7075C541.849 41.7868 541.933 41.885 541.997 42.0022C542.062 42.1194 542.094 42.2597 542.094 42.423C542.094 42.629 542.041 42.8119 541.934 42.9717C541.829 43.1315 541.676 43.2575 541.475 43.3499C541.274 43.4422 541.032 43.4883 540.748 43.4883C540.476 43.4883 540.241 43.4451 540.042 43.3587C539.843 43.2723 539.687 43.1498 539.575 42.9912C539.462 42.8314 539.4 42.642 539.388 42.423H539.939C539.949 42.5544 539.992 42.6639 540.067 42.7515C540.142 42.8379 540.239 42.9024 540.356 42.945C540.474 42.9865 540.604 43.0072 540.745 43.0072C540.9 43.0072 541.038 42.9829 541.158 42.9344C541.28 42.8847 541.376 42.816 541.446 42.7284C541.516 42.6396 541.551 42.5361 541.551 42.4177C541.551 42.31 541.52 42.2218 541.459 42.1531C541.398 42.0845 541.316 42.0276 541.212 41.9827C541.109 41.9377 540.992 41.898 540.862 41.8637L540.432 41.7465C540.141 41.6672 539.91 41.5506 539.74 41.3967C539.571 41.2428 539.486 41.0392 539.486 40.7859C539.486 40.5764 539.543 40.3935 539.656 40.2373C539.77 40.081 539.924 39.9597 540.118 39.8733C540.312 39.7857 540.531 39.7419 540.775 39.7419C541.021 39.7419 541.238 39.7851 541.427 39.8715C541.616 39.9579 541.765 40.0769 541.874 40.2284C541.983 40.3787 542.04 40.5516 542.045 40.7469H541.515ZM542.75 43.428V39.7916H545.03V40.2639H543.298V41.3719H544.911V41.8424H543.298V42.9557H545.051V43.428H542.75ZM547.746 40.7469C547.727 40.5788 547.649 40.4486 547.511 40.3562C547.374 40.2627 547.201 40.216 546.993 40.216C546.844 40.216 546.715 40.2396 546.606 40.287C546.497 40.3332 546.412 40.3971 546.352 40.4788C546.293 40.5593 546.263 40.651 546.263 40.754C546.263 40.8404 546.283 40.915 546.324 40.9777C546.365 41.0404 546.419 41.0931 546.485 41.1357C546.553 41.1771 546.625 41.2121 546.702 41.2405C546.779 41.2677 546.853 41.2902 546.924 41.308L547.279 41.4003C547.395 41.4287 547.514 41.4672 547.636 41.5157C547.758 41.5642 547.871 41.6281 547.975 41.7075C548.079 41.7868 548.163 41.885 548.227 42.0022C548.292 42.1194 548.325 42.2597 548.325 42.423C548.325 42.629 548.271 42.8119 548.165 42.9717C548.06 43.1315 547.906 43.2575 547.705 43.3499C547.505 43.4422 547.263 43.4883 546.979 43.4883C546.707 43.4883 546.471 43.4451 546.272 43.3587C546.073 43.2723 545.918 43.1498 545.805 42.9912C545.693 42.8314 545.631 42.642 545.619 42.423H546.169C546.18 42.5544 546.222 42.6639 546.297 42.7515C546.373 42.8379 546.469 42.9024 546.586 42.945C546.705 42.9865 546.834 43.0072 546.975 43.0072C547.13 43.0072 547.268 42.9829 547.389 42.9344C547.511 42.8847 547.607 42.816 547.677 42.7284C547.746 42.6396 547.781 42.5361 547.781 42.4177C547.781 42.31 547.751 42.2218 547.689 42.1531C547.629 42.0845 547.546 42.0276 547.442 41.9827C547.339 41.9377 547.223 41.898 547.092 41.8637L546.663 41.7465C546.372 41.6672 546.141 41.5506 545.97 41.3967C545.801 41.2428 545.716 41.0392 545.716 40.7859C545.716 40.5764 545.773 40.3935 545.887 40.2373C546 40.081 546.154 39.9597 546.348 39.8733C546.543 39.7857 546.762 39.7419 547.005 39.7419C547.252 39.7419 547.469 39.7851 547.657 39.8715C547.846 39.9579 547.996 40.0769 548.105 40.2284C548.213 40.3787 548.27 40.5516 548.275 40.7469H547.746Z" fill="#231F20"/>
</g>
<defs>
<clipPath id="clip0_120_10486">
<rect width="44.5227" height="42" fill="white" transform="translate(12 4.42798)"/>
</clipPath>
<clipPath id="clip1_120_10486">
<rect width="44.5227" height="42" fill="white" transform="translate(62.5227 4.42798)"/>
</clipPath>
<clipPath id="clip2_120_10486">
<rect width="44.5227" height="42" fill="white" transform="translate(113.045 4.42798)"/>
</clipPath>
<clipPath id="clip3_120_10486">
<rect width="44.5227" height="42" fill="white" transform="translate(163.568 4.42798)"/>
</clipPath>
<clipPath id="clip4_120_10486">
<rect width="44.5227" height="42" fill="white" transform="translate(214.091 4.42798)"/>
</clipPath>
<clipPath id="clip5_120_10486">
<rect width="42" height="36" fill="white" transform="matrix(0 -1 1 0 264.614 46.428)"/>
</clipPath>
<clipPath id="clip6_120_10486">
<rect width="42" height="62" fill="white" transform="matrix(0 -1 1 0 301.614 46.428)"/>
</clipPath>
<clipPath id="clip7_120_10486">
<rect width="18.7393" height="5" fill="white" transform="matrix(1 0 0 -1 329.614 18.428)"/>
</clipPath>
<clipPath id="clip8_120_10486">
<rect width="18.7393" height="5" fill="white" transform="matrix(1 0 0 -1 329.614 12.428)"/>
</clipPath>
<clipPath id="clip9_120_10486">
<rect width="44.5227" height="42" fill="white" transform="translate(513.707 4.42798)"/>
</clipPath>
</defs>
</svg>
