<svg width="570" height="50" viewBox="0 0 570 50" fill="none" xmlns="http://www.w3.org/2000/svg">
<path d="M0 47.1084L0 48.7361C4.60811 48.9945 9.56183 50.0084 9.56183 50.0084H15.5063C8.52108 49.2018 3.20902 48.2084 0 47.1084M570 2.91114V1.28058C565.392 1.02225 560.438 0.00835943 560.438 0.00835943H554.517C561.498 0.815842 566.802 1.81032 570 2.91114M15.5063 0.00835943H9.56183C9.56183 0.00835943 4.60811 1.02225 0 1.28058L0 2.91114C3.19557 1.80953 8.50928 0.814807 15.5063 0.00835943M554.517 50.0084H560.461C560.461 50.0084 565.438 48.9945 570 48.7361V47.1056C566.802 48.2064 561.498 49.2009 554.517 50.0084M523.205 50.0084H545.37C546.383 49.9306 547.674 49.8361 548.826 49.7306C544.111 49.8345 539.26 49.805 534.656 49.6445L523.205 50.0084ZM563.917 3.18614V20.475C564.202 20.4932 564.441 20.5204 564.607 20.5537C564.774 20.5869 564.862 20.6251 564.862 20.6639C564.891 20.6946 564.865 20.7257 564.788 20.7551C564.71 20.7846 564.581 20.8117 564.411 20.8348C564.24 20.8578 564.031 20.8762 563.797 20.8889C563.563 20.9015 563.31 20.908 563.053 20.908C562.797 20.908 562.544 20.9015 562.31 20.8889C562.076 20.8762 561.867 20.8578 561.696 20.8348C561.525 20.8117 561.397 20.7846 561.319 20.7551C561.241 20.7257 561.216 20.6946 561.245 20.6639C561.245 20.6251 561.333 20.5869 561.499 20.5537C561.666 20.5204 561.904 20.4932 562.189 20.475V3.18614C562.057 2.66392 560.971 2.15165 559.007 1.68589C557.044 1.22014 554.252 0.812369 550.83 0.491694C545.576 0.328415 540.054 0.338005 534.84 0.51947H534.679H534.518L518.758 0.00835943L51.2422 0.00835943L35.3212 0.525026H35.1599C29.954 0.34366 24.4398 0.334066 19.1928 0.497247C15.7708 0.818043 12.9769 1.22578 11.0097 1.69146C9.04256 2.15715 7.95035 2.66936 7.81074 3.19169L7.81074 20.475C8.09568 20.4932 8.33417 20.5204 8.50061 20.5537C8.66704 20.5869 8.75513 20.6251 8.75541 20.6639C8.78419 20.6946 8.75888 20.7257 8.68112 20.7551C8.60336 20.7846 8.47491 20.8117 8.30417 20.8348C8.13343 20.8578 7.92425 20.8762 7.69033 20.8889C7.4564 20.9015 7.20301 20.908 6.94672 20.908C6.69044 20.908 6.43704 20.9015 6.20312 20.8889C5.9692 20.8762 5.76002 20.8578 5.58928 20.8348C5.41854 20.8117 5.29009 20.7846 5.21233 20.7551C5.13457 20.7257 5.10925 20.6946 5.13804 20.6639C5.13832 20.6251 5.22641 20.5869 5.39284 20.5537C5.55928 20.5204 5.79777 20.4932 6.0827 20.475L6.0827 3.18614C6.0827 1.59447 15.2989 0.544471 21.5429 0.00835943H17.1882C8.88749 0.922096 2.92418 2.10266 0 3.41114L0 46.6084C2.9324 47.915 8.88555 49.0941 17.1652 50.0084H21.5429C15.2068 49.4695 6.0827 48.4223 6.0827 46.8306L6.0827 29.5417C5.79777 29.5235 5.55928 29.4963 5.39284 29.4631C5.22641 29.4298 5.13832 29.3917 5.13804 29.3528C5.10925 29.3221 5.13457 29.291 5.21233 29.2616C5.29009 29.2321 5.41854 29.205 5.58928 29.182C5.76002 29.1589 5.9692 29.1405 6.20312 29.1279C6.43704 29.1152 6.69044 29.1087 6.94672 29.1087C7.20301 29.1087 7.4564 29.1152 7.69033 29.1279C7.92425 29.1405 8.13343 29.1589 8.30417 29.182C8.47491 29.205 8.60336 29.2321 8.68112 29.2616C8.75888 29.291 8.78419 29.3221 8.75541 29.3528C8.75513 29.3917 8.66704 29.4298 8.50061 29.4631C8.33417 29.4963 8.09568 29.5235 7.81074 29.5417L7.81074 46.8306C7.95035 47.3529 9.04256 47.8651 11.0097 48.3308C12.9769 48.7965 15.7708 49.2042 19.1928 49.525C24.4398 49.6882 29.954 49.6786 35.1599 49.4973H35.3212H35.4824L51.2422 50.0084L518.758 50.0084L534.679 49.4917H534.84C540.046 49.6731 545.56 49.6827 550.807 49.5195C554.229 49.1987 557.023 48.7909 558.99 48.3253C560.957 47.8596 562.05 47.3474 562.189 46.825V29.5417C561.904 29.5235 561.666 29.4963 561.499 29.4631C561.333 29.4298 561.245 29.3917 561.245 29.3528C561.216 29.3221 561.241 29.291 561.319 29.2616C561.397 29.2321 561.525 29.205 561.696 29.182C561.867 29.1589 562.076 29.1405 562.31 29.1279C562.544 29.1152 562.797 29.1087 563.053 29.1087C563.31 29.1087 563.563 29.1152 563.797 29.1279C564.031 29.1405 564.24 29.1589 564.411 29.182C564.581 29.205 564.71 29.2321 564.788 29.2616C564.865 29.291 564.891 29.3221 564.862 29.3528C564.862 29.3917 564.774 29.4298 564.607 29.4631C564.441 29.4963 564.202 29.5235 563.917 29.5417V46.8306C563.917 48.4223 554.816 49.4695 548.48 50.0084H552.835C561.119 49.0935 567.073 47.9133 570 46.6056V3.41114C567.073 2.10347 561.119 0.923241 552.835 0.00835943H548.48C554.816 0.544471 563.917 1.59447 563.917 3.18614ZM24.6534 50.0084H46.8184L35.2981 49.6361C30.7215 49.7985 25.895 49.8309 21.1973 49.7306C22.4415 49.8445 23.6166 49.9389 24.6534 50.0084ZM46.8184 0.00835943H24.6534C23.6166 0.0861372 22.3493 0.180582 21.1973 0.286137C25.9046 0.182275 30.7476 0.211753 35.3442 0.372248L46.8184 0.00835943ZM548.826 0.286137C544.111 0.182245 539.26 0.211722 534.656 0.372248L523.136 2.64376e-05H545.301C546.314 0.0778042 547.605 0.172249 548.757 0.277804" fill="#DCDDDE"/>
</svg>
