<svg width="378" height="92" viewBox="0 0 378 92" fill="none" xmlns="http://www.w3.org/2000/svg">
<path d="M349.449 3.43626C343.729 3.84354 337.957 4.00054 332.189 3.90573C337.603 3.71607 342.982 3.306 348.281 2.67906C348.635 2.94667 349.026 3.19977 349.449 3.43626M356.573 3.62556L359.825 3.78457C358.079 4.08745 356.7 4.40548 356.629 4.42062C355.371 4.57289 354.053 4.47892 352.913 4.1556C354.149 4.01326 355.371 3.83635 356.573 3.62556M376.071 7.65387V10.4025C372.186 5.25354 364.893 4.3449 360.67 4.23132C361.388 4.11774 362.078 4.00416 362.838 3.92844L370.806 4.30704C371.383 5.17025 373.101 7.26012 376.071 7.65387M370.806 86.6905L362.838 87.0767C362.148 87.001 361.43 86.895 360.754 86.7814C362.431 86.754 364.092 86.5933 365.682 86.3044C369.074 85.6759 373.368 84.1691 376.071 80.5951V83.3513C373.073 83.6996 371.383 85.8349 370.806 86.6905ZM356.531 86.5618C356.657 86.5618 358.065 86.9177 359.825 87.2206L356.573 87.3796C355.359 87.1618 354.123 86.9823 352.87 86.842C353.988 86.5143 355.288 86.4148 356.531 86.5618M348.281 88.3337C343.001 87.7056 337.641 87.293 332.246 87.0994C338.018 86.9983 343.795 87.1528 349.52 87.5613C349.096 87.7977 348.705 88.0508 348.351 88.3185M28.621 87.5613C34.3456 87.1523 40.1232 86.9978 45.895 87.0994C40.4525 87.2892 35.0449 87.7018 29.7191 88.3337C29.3653 88.0659 28.9747 87.8128 28.5506 87.5765M21.427 87.3947L18.175 87.2357C19.9207 86.9328 21.3144 86.6148 21.3848 86.5921C22.6383 86.4404 23.9513 86.5343 25.0874 86.8571C23.8491 86.9984 22.6269 87.1779 21.427 87.3947M1.94279 83.3513L1.94279 80.6026C5.82838 85.7516 13.1209 86.6905 17.3303 86.7284C16.6123 86.8495 15.9225 86.9556 15.1622 87.0388L7.19397 86.6527C6.61676 85.8349 4.89922 83.6996 1.94279 83.3513ZM7.19397 4.30704L15.1622 3.92844C15.8521 4.00416 16.5701 4.11017 17.2458 4.22375C15.568 4.24808 13.9067 4.40891 12.3184 4.70078C8.92559 5.32169 4.63173 6.83609 1.94279 10.4025V7.65387C4.89922 7.26012 6.61676 5.17025 7.19397 4.30704M21.4693 4.43576C21.3566 4.43576 19.9347 4.08745 18.175 3.78457L21.427 3.62556C22.6413 3.84232 23.8775 4.02181 25.1296 4.16317C24.0104 4.48823 22.7106 4.58503 21.4693 4.43576M29.7191 2.67906C35.0218 3.30904 40.4058 3.72164 45.8246 3.91329C40.0522 4.00181 34.2758 3.84229 28.5506 3.43626C28.9715 3.19836 29.3619 2.94538 29.7191 2.67906M356.953 4.95066C356.953 4.95066 357.558 4.81436 358.361 4.64021C360.735 4.49801 363.137 4.63758 365.4 5.04909C370.356 5.96531 373.988 8.19148 376.015 11.5156V79.5047C371.693 86.6375 361.458 86.5618 358.417 86.3649C357.488 86.1832 356.855 86.0318 356.812 86.0242C355.857 85.913 354.869 85.9136 353.914 86.026C352.96 86.1383 352.061 86.3598 351.28 86.6754C340.622 85.6305 327.051 86.1605 326.446 86.1832L51.5826 86.1832C50.9068 86.1832 37.3073 85.6229 26.636 86.6678C25.8373 86.3505 24.921 86.1294 23.9492 86.0197C22.9775 85.9099 21.9732 85.914 21.0047 86.0318C21.0047 86.0318 20.3993 86.1756 19.5969 86.3498C17.2221 86.4845 14.8213 86.3424 12.5578 85.9333C7.60223 85.0247 3.97006 82.7909 1.95687 79.4668L1.95687 11.4929C6.2648 4.36004 16.4997 4.43577 19.5546 4.63264C20.4697 4.81437 21.1032 4.95823 21.1455 4.9658C22.0996 5.07806 23.0874 5.07869 24.042 4.96764C24.9966 4.85659 25.8956 4.63646 26.6782 4.32218C37.3354 5.36712 50.9068 4.83708 51.5122 4.80679L326.431 4.80679C327.093 4.80679 340.693 5.36712 351.364 4.31461C352.163 4.6315 353.079 4.8523 354.051 4.96204C355.023 5.07178 356.027 5.0679 356.995 4.95066M321.166 3.76186L56.9041 3.76186C49.682 3.51955 35.0407 2.94408 29.6487 2.05058L29.2686 1.99L29.0433 2.17173C28.5389 2.58954 27.9434 2.97338 27.2695 3.3151C25.4343 3.13714 23.627 2.884 21.8635 2.5579L21.6664 2.52005L5.75799 3.27725L5.63128 3.66342C5.18078 4.42062 3.37877 6.69223 1.04179 6.69223H0L0 84.3281H0.971397C3.30838 84.3281 5.08223 86.5012 5.56089 87.3569L5.75799 87.69L21.6664 88.4472H21.8635C23.6201 88.1174 25.4232 87.8642 27.2554 87.69C27.9251 88.0332 28.5245 88.414 29.0433 88.8258L29.2686 89L29.6487 88.9394C35.0266 88.0459 49.6398 87.4856 56.876 87.2281L321.096 87.2281C328.318 87.4856 342.959 88.0459 348.351 88.9394L348.731 89L348.957 88.8107C349.468 88.3978 350.063 88.0169 350.73 87.6749C352.569 87.8455 354.377 88.0988 356.137 88.4321H356.334L372.242 87.6749L372.439 87.3417C372.918 86.5088 374.692 84.3129 377.029 84.3129H378V6.66951H377.029C374.692 6.66951 372.918 4.50391 372.439 3.6407L372.242 3.3151L356.334 2.5579L356.137 2.59576C354.378 2.91266 352.575 3.15321 350.745 3.3151C350.067 2.97578 349.467 2.59452 348.957 2.1793L348.731 1.99757L348.351 2.05815C342.973 2.95165 328.36 3.52712 321.124 3.76186" fill="#231F20"/>
<path d="M178.501 84H177.918L179.227 80.3636H179.861L181.17 84H180.587L179.559 81.0241H179.531L178.501 84ZM178.599 82.576H180.488V83.0376H178.599V82.576ZM181.086 80.8359V80.3636H183.9V80.8359H182.765V84H182.218V80.8359H181.086ZM184.342 80.8359V80.3636H187.157V80.8359H186.022V84H185.475V80.8359H184.342ZM187.656 84H187.074L188.382 80.3636H189.016L190.325 84H189.742L188.714 81.0241H188.686L187.656 84ZM187.754 82.576H189.643V83.0376H187.754V82.576ZM193.699 81.5462H193.145C193.124 81.4278 193.084 81.3236 193.026 81.2337C192.968 81.1437 192.897 81.0674 192.813 81.0046C192.729 80.9419 192.635 80.8945 192.531 80.8626C192.428 80.8306 192.318 80.8146 192.202 80.8146C191.993 80.8146 191.805 80.8673 191.64 80.9727C191.475 81.078 191.345 81.2325 191.249 81.4361C191.154 81.6397 191.107 81.8883 191.107 82.1818C191.107 82.4777 191.154 82.7275 191.249 82.9311C191.345 83.1347 191.476 83.2886 191.641 83.3928C191.807 83.4969 191.994 83.549 192.201 83.549C192.316 83.549 192.424 83.5336 192.527 83.5028C192.632 83.4709 192.726 83.4241 192.81 83.3626C192.894 83.301 192.965 83.2259 193.023 83.1371C193.082 83.0471 193.123 82.9441 193.145 82.8281L193.699 82.8299C193.67 83.0086 193.612 83.1732 193.527 83.3235C193.443 83.4727 193.335 83.6017 193.202 83.7106C193.071 83.8183 192.92 83.9018 192.751 83.9609C192.582 84.0201 192.397 84.0497 192.197 84.0497C191.882 84.0497 191.602 83.9751 191.356 83.826C191.109 83.6757 190.915 83.4608 190.773 83.1815C190.632 82.9021 190.562 82.5689 190.562 82.1818C190.562 81.7936 190.633 81.4603 190.775 81.1822C190.917 80.9028 191.111 80.6886 191.357 80.5394C191.604 80.3891 191.883 80.3139 192.197 80.3139C192.39 80.3139 192.57 80.3417 192.737 80.3974C192.905 80.4518 193.056 80.5323 193.19 80.6388C193.323 80.7442 193.434 80.8732 193.522 81.0259C193.609 81.1774 193.669 81.3509 193.699 81.5462ZM194.356 84V80.3636H194.904V82.1001H194.949L196.474 80.3636H197.165L195.698 82.0007L197.17 84H196.51L195.334 82.3754L194.904 82.869V84H194.356ZM199.65 81.3189C199.631 81.1508 199.553 81.0206 199.415 80.9283C199.278 80.8348 199.105 80.788 198.897 80.788C198.748 80.788 198.619 80.8117 198.51 80.859C198.401 80.9052 198.316 80.9691 198.256 81.0508C198.197 81.1313 198.167 81.223 198.167 81.326C198.167 81.4124 198.187 81.487 198.227 81.5497C198.269 81.6125 198.323 81.6651 198.389 81.7077C198.456 81.7492 198.529 81.7841 198.606 81.8125C198.683 81.8397 198.757 81.8622 198.828 81.88L199.183 81.9723C199.299 82.0007 199.418 82.0392 199.54 82.0877C199.661 82.1362 199.775 82.2002 199.879 82.2795C199.983 82.3588 200.067 82.457 200.131 82.5742C200.196 82.6914 200.228 82.8317 200.228 82.995C200.228 83.201 200.175 83.3839 200.069 83.5437C199.963 83.7035 199.81 83.8295 199.609 83.9219C199.409 84.0142 199.167 84.0604 198.883 84.0604C198.61 84.0604 198.375 84.0172 198.176 83.9308C197.977 83.8443 197.821 83.7218 197.709 83.5632C197.597 83.4034 197.534 83.214 197.523 82.995H198.073C198.084 83.1264 198.126 83.2359 198.201 83.3235C198.277 83.4099 198.373 83.4744 198.49 83.517C198.609 83.5585 198.738 83.5792 198.879 83.5792C199.034 83.5792 199.172 83.5549 199.293 83.5064C199.415 83.4567 199.511 83.388 199.58 83.3004C199.65 83.2116 199.685 83.1081 199.685 82.9897C199.685 82.882 199.654 82.7938 199.593 82.7251C199.532 82.6565 199.45 82.5997 199.346 82.5547C199.243 82.5097 199.126 82.4701 198.996 82.4357L198.567 82.3185C198.275 82.2392 198.045 82.1226 197.874 81.9688C197.705 81.8149 197.62 81.6113 197.62 81.358C197.62 81.1484 197.677 80.9656 197.791 80.8093C197.904 80.6531 198.058 80.5317 198.252 80.4453C198.446 80.3577 198.665 80.3139 198.909 80.3139C199.155 80.3139 199.373 80.3571 199.561 80.4435C199.75 80.5299 199.899 80.6489 200.008 80.8004C200.117 80.9508 200.174 81.1236 200.179 81.3189H199.65Z" fill="#231F20"/>
<path d="M102.5 71.0644V63.5181H15.8213L12.5 64.8392V72.3855H99.1927L102.5 71.0644Z" fill="#ECECEC"/>
<g clip-path="url(#clip0_120_10663)">
<path d="M131.5 71.0644V63.5181H107.423L106.5 64.8392V72.3855H130.581L131.5 71.0644Z" fill="#ECECEC"/>
</g>
<g clip-path="url(#clip1_120_10663)">
<path d="M191.5 71.0644V63.5181H137.567L135.5 64.8392V72.3855H189.442L191.5 71.0644Z" fill="#ECECEC"/>
</g>
<g clip-path="url(#clip2_120_10663)">
<path d="M220.5 71.0644V63.5181H196.423L195.5 64.8392V72.3855H219.581L220.5 71.0644Z" fill="#ECECEC"/>
</g>
<g clip-path="url(#clip3_120_10663)">
<path d="M371.5 71.0644V63.5181H229.925L224.5 64.8392V72.3855H366.098L371.5 71.0644Z" fill="#ECECEC"/>
</g>
<path d="M102.5 60.1969V52.6506H15.8213L12.5 53.9718V61.5181H99.1927L102.5 60.1969Z" fill="#ECECEC"/>
<g clip-path="url(#clip4_120_10663)">
<path d="M131.5 60.1969V52.6506H107.423L106.5 53.9718V61.5181H130.581L131.5 60.1969Z" fill="#ECECEC"/>
</g>
<g clip-path="url(#clip5_120_10663)">
<path d="M191.5 60.1969V52.6506H137.567L135.5 53.9718V61.5181H189.442L191.5 60.1969Z" fill="#ECECEC"/>
</g>
<g clip-path="url(#clip6_120_10663)">
<path d="M220.5 60.1969V52.6506H196.423L195.5 53.9718V61.5181H219.581L220.5 60.1969Z" fill="#ECECEC"/>
</g>
<g clip-path="url(#clip7_120_10663)">
<path d="M371.5 60.1969V52.6506H229.925L224.5 53.9718V61.5181H366.098L371.5 60.1969Z" fill="#ECECEC"/>
</g>
<path d="M102.5 49.3294V41.7831H15.8213L12.5 43.1043V50.6506H99.1927L102.5 49.3294Z" fill="#ECECEC"/>
<g clip-path="url(#clip8_120_10663)">
<path d="M131.5 49.3294V41.7831H107.423L106.5 43.1043V50.6506H130.581L131.5 49.3294Z" fill="#ECECEC"/>
</g>
<g clip-path="url(#clip9_120_10663)">
<path d="M191.5 49.3294V41.7831H137.567L135.5 43.1043V50.6506H189.442L191.5 49.3294Z" fill="#ECECEC"/>
</g>
<g clip-path="url(#clip10_120_10663)">
<path d="M220.5 49.3294V41.7831H196.423L195.5 43.1043V50.6506H219.581L220.5 49.3294Z" fill="#ECECEC"/>
</g>
<g clip-path="url(#clip11_120_10663)">
<path d="M371.5 49.3294V41.7831H229.925L224.5 43.1043V50.6506H366.098L371.5 49.3294Z" fill="#ECECEC"/>
</g>
<path d="M102.5 38.462V30.9156H15.8213L12.5 32.2368V39.7831H99.1927L102.5 38.462Z" fill="#ECECEC"/>
<g clip-path="url(#clip12_120_10663)">
<path d="M131.5 38.462V30.9156H107.423L106.5 32.2368V39.7831H130.581L131.5 38.462Z" fill="#ECECEC"/>
</g>
<g clip-path="url(#clip13_120_10663)">
<path d="M191.5 38.462V30.9156H137.567L135.5 32.2368V39.7831H189.442L191.5 38.462Z" fill="#ECECEC"/>
</g>
<g clip-path="url(#clip14_120_10663)">
<path d="M220.5 38.462V30.9156H196.423L195.5 32.2368V39.7831H219.581L220.5 38.462Z" fill="#ECECEC"/>
</g>
<g clip-path="url(#clip15_120_10663)">
<path d="M371.5 38.462V30.9156H229.925L224.5 32.2368V39.7831H366.098L371.5 38.462Z" fill="#ECECEC"/>
</g>
<path d="M102.5 27.5945V20.0482H15.8213L12.5 21.3693V28.9156H99.1927L102.5 27.5945Z" fill="#ECECEC"/>
<g clip-path="url(#clip16_120_10663)">
<path d="M131.5 27.5945V20.0482H107.423L106.5 21.3693V28.9156H130.581L131.5 27.5945Z" fill="#ECECEC"/>
</g>
<g clip-path="url(#clip17_120_10663)">
<path d="M191.5 27.5945V20.0482H137.567L135.5 21.3693V28.9156H189.442L191.5 27.5945Z" fill="#ECECEC"/>
</g>
<g clip-path="url(#clip18_120_10663)">
<path d="M220.5 27.5945V20.0482H196.423L195.5 21.3693V28.9156H219.581L220.5 27.5945Z" fill="#ECECEC"/>
</g>
<g clip-path="url(#clip19_120_10663)">
<path d="M371.5 27.5945V20.0482H229.925L224.5 21.3693V28.9156H366.098L371.5 27.5945Z" fill="#ECECEC"/>
</g>
<path d="M14.3239 13.4118V17.0482H13.8977L11.9162 14.1931H11.8807V17.0482H11.4403V13.4118H11.8665L13.8551 16.274H13.8906V13.4118H14.3239ZM15.3541 17.0482H14.8925L16.2277 13.4118H16.6823L18.0175 17.0482H17.5558L16.4692 13.9871H16.4408L15.3541 17.0482ZM15.5246 15.6277H17.3854V16.0183H15.5246V15.6277ZM18.5839 13.4118H19.1095L20.3453 16.4303H20.3879L21.6237 13.4118H22.1492V17.0482H21.7373V14.2854H21.7018L20.5654 17.0482H20.1677L19.0313 14.2854H18.9958V17.0482H18.5839V13.4118ZM23.0321 17.0482V13.4118H25.2267V13.8024H23.4725V15.0311H25.1131V15.4218H23.4725V16.6575H25.2551V17.0482H23.0321Z" fill="#999999"/>
<path d="M114.824 17.0482V13.4118H115.264V15.0311H117.203V13.4118H117.644V17.0482H117.203V15.4218H115.264V17.0482H114.824ZM118.966 13.4118V17.0482H118.525V13.4118H118.966ZM119.65 13.8024V13.4118H122.377V13.8024H121.233V17.0482H120.793V13.8024H119.65Z" fill="#999999"/>
<path d="M154.981 17.0482H153.859V13.4118H155.031C155.384 13.4118 155.686 13.4846 155.937 13.6302C156.188 13.7746 156.38 13.9824 156.514 14.2534C156.648 14.5233 156.714 14.8465 156.714 15.2229C156.714 15.6017 156.647 15.9278 156.512 16.2012C156.377 16.4735 156.181 16.683 155.922 16.8298C155.664 16.9754 155.351 17.0482 154.981 17.0482ZM154.3 16.6575H154.953C155.254 16.6575 155.503 16.5995 155.701 16.4835C155.898 16.3675 156.046 16.2024 156.143 15.9882C156.24 15.7739 156.288 15.5188 156.288 15.2229C156.288 14.9293 156.24 14.6766 156.144 14.4647C156.049 14.2517 155.905 14.0883 155.715 13.9747C155.524 13.8598 155.287 13.8024 155.003 13.8024H154.3V16.6575ZM157.431 17.0482H156.97L158.305 13.4118H158.759L160.095 17.0482H159.633L158.546 13.9871H158.518L157.431 17.0482ZM157.602 15.6277H159.463V16.0183H157.602V15.6277ZM160.661 13.4118H161.187L162.422 16.4303H162.465L163.701 13.4118H164.226V17.0482H163.814V14.2854H163.779L162.643 17.0482H162.245L161.108 14.2854H161.073V17.0482H160.661V13.4118ZM165.258 17.0482H164.797L166.132 13.4118H166.587L167.922 17.0482H167.46L166.373 13.9871H166.345L165.258 17.0482ZM165.429 15.6277H167.29V16.0183H165.429V15.6277ZM170.803 14.5482C170.764 14.4286 170.713 14.3215 170.649 14.2268C170.586 14.1309 170.511 14.0492 170.423 13.9818C170.337 13.9143 170.238 13.8628 170.128 13.8273C170.018 13.7918 169.898 13.774 169.766 13.774C169.551 13.774 169.355 13.8297 169.178 13.9409C169.002 14.0522 168.862 14.2161 168.758 14.4328C168.653 14.6494 168.601 14.9151 168.601 15.23C168.601 15.5449 168.654 15.8106 168.759 16.0272C168.865 16.2438 169.007 16.4078 169.187 16.5191C169.367 16.6303 169.57 16.686 169.795 16.686C170.003 16.686 170.186 16.6416 170.345 16.5528C170.505 16.4628 170.629 16.3362 170.718 16.1728C170.808 16.0083 170.853 15.8147 170.853 15.5922L170.988 15.6206H169.894V15.23H171.279V15.6206C171.279 15.9201 171.215 16.1805 171.087 16.4019C170.961 16.6232 170.785 16.7949 170.562 16.9168C170.339 17.0375 170.083 17.0979 169.795 17.0979C169.473 17.0979 169.19 17.0221 168.946 16.8706C168.703 16.7191 168.514 16.5037 168.378 16.2243C168.243 15.945 168.175 15.6135 168.175 15.23C168.175 14.9423 168.214 14.6837 168.291 14.4541C168.369 14.2232 168.479 14.0267 168.621 13.8646C168.763 13.7024 168.931 13.5781 169.125 13.4917C169.319 13.4053 169.533 13.3621 169.766 13.3621C169.958 13.3621 170.137 13.3911 170.302 13.4491C170.469 13.5059 170.618 13.587 170.748 13.6923C170.879 13.7965 170.989 13.9214 171.077 14.067C171.164 14.2114 171.224 14.3718 171.258 14.5482H170.803ZM172.033 17.0482V13.4118H174.228V13.8024H172.473V15.0311H174.114V15.4218H172.473V16.6575H174.256V17.0482H172.033Z" fill="#999999"/>
<path d="M203.394 13.8024V13.4118H206.121V13.8024H204.978V17.0482H204.537V13.8024H203.394ZM206.488 13.4118H206.992L208.001 15.1093H208.044L209.052 13.4118H209.556L208.242 15.5496V17.0482H207.802V15.5496L206.488 13.4118ZM210.126 17.0482V13.4118H211.355C211.64 13.4118 211.873 13.4633 212.054 13.5663C212.236 13.6681 212.371 13.806 212.459 13.98C212.547 14.154 212.59 14.3481 212.59 14.5624C212.59 14.7766 212.547 14.9713 212.459 15.1465C212.373 15.3217 212.239 15.4614 212.058 15.5656C211.877 15.6686 211.645 15.72 211.362 15.72H210.481V15.3294H211.347C211.543 15.3294 211.7 15.2957 211.818 15.2282C211.936 15.1607 212.022 15.0696 212.075 14.9548C212.13 14.8388 212.157 14.708 212.157 14.5624C212.157 14.4168 212.13 14.2866 212.075 14.1718C212.022 14.0569 211.936 13.967 211.816 13.9019C211.697 13.8356 211.538 13.8024 211.34 13.8024H210.566V17.0482H210.126ZM213.3 17.0482V13.4118H215.494V13.8024H213.74V15.0311H215.381V15.4218H213.74V16.6575H215.523V17.0482H213.3Z" fill="#999999"/>
<path d="M228.44 17.0482V13.4118H229.669C229.954 13.4118 230.188 13.4633 230.369 13.5663C230.551 13.6681 230.686 13.806 230.773 13.98C230.861 14.154 230.905 14.3481 230.905 14.5624C230.905 14.7766 230.861 14.9713 230.773 15.1465C230.687 15.3217 230.553 15.4614 230.372 15.5656C230.191 15.6686 229.959 15.72 229.676 15.72H228.795V15.3294H229.662C229.857 15.3294 230.014 15.2957 230.132 15.2282C230.251 15.1607 230.337 15.0696 230.39 14.9548C230.444 14.8388 230.472 14.708 230.472 14.5624C230.472 14.4168 230.444 14.2866 230.39 14.1718C230.337 14.0569 230.25 13.967 230.131 13.9019C230.011 13.8356 229.853 13.8024 229.655 13.8024H228.881V17.0482H228.44ZM231.614 17.0482V13.4118H232.843C233.127 13.4118 233.36 13.4603 233.542 13.5574C233.725 13.6533 233.86 13.7853 233.947 13.9534C234.035 14.1214 234.079 14.3126 234.079 14.5269C234.079 14.7411 234.035 14.9311 233.947 15.0968C233.86 15.2625 233.725 15.3928 233.544 15.4874C233.363 15.581 233.132 15.6277 232.85 15.6277H231.856V15.23H232.836C233.03 15.23 233.186 15.2016 233.305 15.1448C233.424 15.0879 233.51 15.0075 233.564 14.9033C233.618 14.7979 233.645 14.6725 233.645 14.5269C233.645 14.3813 233.618 14.254 233.564 14.1451C233.509 14.0362 233.422 13.9522 233.303 13.893C233.183 13.8326 233.025 13.8024 232.829 13.8024H232.055V17.0482H231.614ZM233.326 15.4146L234.221 17.0482H233.709L232.829 15.4146H233.326ZM237.881 15.23C237.881 15.6135 237.811 15.945 237.673 16.2243C237.534 16.5037 237.344 16.7191 237.103 16.8706C236.861 17.0221 236.586 17.0979 236.275 17.0979C235.965 17.0979 235.69 17.0221 235.448 16.8706C235.207 16.7191 235.017 16.5037 234.878 16.2243C234.74 15.945 234.67 15.6135 234.67 15.23C234.67 14.8465 234.74 14.515 234.878 14.2357C235.017 13.9563 235.207 13.7409 235.448 13.5894C235.69 13.4378 235.965 13.3621 236.275 13.3621C236.586 13.3621 236.861 13.4378 237.103 13.5894C237.344 13.7409 237.534 13.9563 237.673 14.2357C237.811 14.515 237.881 14.8465 237.881 15.23ZM237.454 15.23C237.454 14.9151 237.402 14.6494 237.296 14.4328C237.192 14.2161 237.051 14.0522 236.872 13.9409C236.695 13.8297 236.496 13.774 236.275 13.774C236.055 13.774 235.856 13.8297 235.677 13.9409C235.5 14.0522 235.358 14.2161 235.253 14.4328C235.149 14.6494 235.097 14.9151 235.097 15.23C235.097 15.5449 235.149 15.8106 235.253 16.0272C235.358 16.2438 235.5 16.4078 235.677 16.5191C235.856 16.6303 236.055 16.686 236.275 16.686C236.496 16.686 236.695 16.6303 236.872 16.5191C237.051 16.4078 237.192 16.2438 237.296 16.0272C237.402 15.8106 237.454 15.5449 237.454 15.23ZM238.621 17.0482V13.4118H239.85C240.135 13.4118 240.368 13.4633 240.549 13.5663C240.732 13.6681 240.867 13.806 240.954 13.98C241.042 14.154 241.085 14.3481 241.085 14.5624C241.085 14.7766 241.042 14.9713 240.954 15.1465C240.868 15.3217 240.734 15.4614 240.553 15.5656C240.372 15.6686 240.14 15.72 239.857 15.72H238.976V15.3294H239.843C240.038 15.3294 240.195 15.2957 240.313 15.2282C240.431 15.1607 240.517 15.0696 240.571 14.9548C240.625 14.8388 240.652 14.708 240.652 14.5624C240.652 14.4168 240.625 14.2866 240.571 14.1718C240.517 14.0569 240.431 13.967 240.311 13.9019C240.192 13.8356 240.033 13.8024 239.835 13.8024H239.061V17.0482H238.621ZM241.795 17.0482V13.4118H243.989V13.8024H242.235V15.0311H243.876V15.4218H242.235V16.6575H244.018V17.0482H241.795ZM244.783 17.0482V13.4118H246.012C246.296 13.4118 246.529 13.4603 246.711 13.5574C246.894 13.6533 247.029 13.7853 247.116 13.9534C247.204 14.1214 247.248 14.3126 247.248 14.5269C247.248 14.7411 247.204 14.9311 247.116 15.0968C247.029 15.2625 246.894 15.3928 246.713 15.4874C246.532 15.581 246.301 15.6277 246.019 15.6277H245.025V15.23H246.005C246.199 15.23 246.355 15.2016 246.473 15.1448C246.593 15.0879 246.679 15.0075 246.733 14.9033C246.787 14.7979 246.814 14.6725 246.814 14.5269C246.814 14.3813 246.787 14.254 246.733 14.1451C246.678 14.0362 246.591 13.9522 246.472 13.893C246.352 13.8326 246.194 13.8024 245.998 13.8024H245.223V17.0482H244.783ZM246.495 15.4146L247.39 17.0482H246.878L245.998 15.4146H246.495ZM247.782 13.8024V13.4118H250.51V13.8024H249.366V17.0482H248.926V13.8024H247.782ZM251.63 13.4118V17.0482H251.189V13.4118H251.63ZM252.513 17.0482V13.4118H254.707V13.8024H252.953V15.0311H254.594V15.4218H252.953V16.6575H254.736V17.0482H252.513ZM257.49 14.3209C257.468 14.141 257.382 14.0013 257.23 13.9019C257.079 13.8024 256.893 13.7527 256.673 13.7527C256.512 13.7527 256.371 13.7788 256.25 13.8308C256.131 13.8829 256.037 13.9545 255.97 14.0457C255.903 14.1368 255.87 14.2404 255.87 14.3564C255.87 14.4535 255.893 14.5369 255.939 14.6068C255.987 14.6754 256.047 14.7328 256.121 14.779C256.194 14.824 256.271 14.8613 256.351 14.8909C256.432 14.9193 256.506 14.9423 256.573 14.9601L256.943 15.0595C257.037 15.0844 257.143 15.1187 257.259 15.1625C257.376 15.2063 257.488 15.2661 257.594 15.3419C257.702 15.4164 257.791 15.5123 257.861 15.6295C257.93 15.7467 257.965 15.8905 257.965 16.061C257.965 16.2575 257.914 16.435 257.811 16.5936C257.709 16.7522 257.56 16.8783 257.363 16.9718C257.168 17.0653 256.931 17.1121 256.651 17.1121C256.391 17.1121 256.166 17.0701 255.975 16.986C255.786 16.902 255.636 16.7848 255.528 16.6345C255.42 16.4841 255.359 16.3095 255.345 16.1107H255.799C255.811 16.248 255.857 16.3616 255.938 16.4516C256.019 16.5404 256.122 16.6066 256.247 16.6504C256.372 16.6931 256.507 16.7144 256.651 16.7144C256.82 16.7144 256.97 16.6871 257.104 16.6327C257.238 16.5771 257.344 16.5001 257.422 16.4019C257.5 16.3024 257.539 16.1864 257.539 16.0539C257.539 15.9331 257.506 15.8349 257.438 15.7591C257.371 15.6834 257.282 15.6218 257.172 15.5745C257.062 15.5271 256.943 15.4857 256.815 15.4502L256.367 15.3223C256.083 15.2406 255.858 15.124 255.693 14.9725C255.527 14.821 255.444 14.6227 255.444 14.3777C255.444 14.1741 255.499 13.9966 255.609 13.845C255.72 13.6923 255.87 13.574 256.057 13.4899C256.245 13.4047 256.455 13.3621 256.687 13.3621C256.921 13.3621 257.13 13.4041 257.312 13.4882C257.494 13.571 257.639 13.6847 257.745 13.8291C257.853 13.9735 257.91 14.1374 257.916 14.3209H257.49Z" fill="#999999"/>
<defs>
<clipPath id="clip0_120_10663">
<rect width="25" height="8.86747" fill="white" transform="translate(106.5 63.5181)"/>
</clipPath>
<clipPath id="clip1_120_10663">
<rect width="56" height="8.86747" fill="white" transform="translate(135.5 63.5181)"/>
</clipPath>
<clipPath id="clip2_120_10663">
<rect width="25" height="8.86747" fill="white" transform="translate(195.5 63.5181)"/>
</clipPath>
<clipPath id="clip3_120_10663">
<rect width="147" height="8.86747" fill="white" transform="translate(224.5 63.5181)"/>
</clipPath>
<clipPath id="clip4_120_10663">
<rect width="25" height="8.86747" fill="white" transform="translate(106.5 52.6506)"/>
</clipPath>
<clipPath id="clip5_120_10663">
<rect width="56" height="8.86747" fill="white" transform="translate(135.5 52.6506)"/>
</clipPath>
<clipPath id="clip6_120_10663">
<rect width="25" height="8.86747" fill="white" transform="translate(195.5 52.6506)"/>
</clipPath>
<clipPath id="clip7_120_10663">
<rect width="147" height="8.86747" fill="white" transform="translate(224.5 52.6506)"/>
</clipPath>
<clipPath id="clip8_120_10663">
<rect width="25" height="8.86747" fill="white" transform="translate(106.5 41.7831)"/>
</clipPath>
<clipPath id="clip9_120_10663">
<rect width="56" height="8.86747" fill="white" transform="translate(135.5 41.7831)"/>
</clipPath>
<clipPath id="clip10_120_10663">
<rect width="25" height="8.86747" fill="white" transform="translate(195.5 41.7831)"/>
</clipPath>
<clipPath id="clip11_120_10663">
<rect width="147" height="8.86747" fill="white" transform="translate(224.5 41.7831)"/>
</clipPath>
<clipPath id="clip12_120_10663">
<rect width="25" height="8.86747" fill="white" transform="translate(106.5 30.9156)"/>
</clipPath>
<clipPath id="clip13_120_10663">
<rect width="56" height="8.86747" fill="white" transform="translate(135.5 30.9156)"/>
</clipPath>
<clipPath id="clip14_120_10663">
<rect width="25" height="8.86747" fill="white" transform="translate(195.5 30.9156)"/>
</clipPath>
<clipPath id="clip15_120_10663">
<rect width="147" height="8.86747" fill="white" transform="translate(224.5 30.9156)"/>
</clipPath>
<clipPath id="clip16_120_10663">
<rect width="25" height="8.86747" fill="white" transform="translate(106.5 20.0482)"/>
</clipPath>
<clipPath id="clip17_120_10663">
<rect width="56" height="8.86747" fill="white" transform="translate(135.5 20.0482)"/>
</clipPath>
<clipPath id="clip18_120_10663">
<rect width="25" height="8.86747" fill="white" transform="translate(195.5 20.0482)"/>
</clipPath>
<clipPath id="clip19_120_10663">
<rect width="147" height="8.86747" fill="white" transform="translate(224.5 20.0482)"/>
</clipPath>
</defs>
</svg>
